%
M48
M72
T01C0.01378
T02C0.03200
T03C0.03937
T04C0.04000
T05C0.04400
T06C0.11024
T07C0.12008
T08C0.12598
T09C0.13000
%
T01
X96791Y69000
X95871Y74200
X96500Y79400
X144819Y74627
X155200Y56100
X162100Y93028
X102600Y121300
X33900Y121200
X33900Y152500
X96600Y245800
X96600Y251400
X96449Y256851
X162800Y274300
X214286Y301560
X223500Y296400
X228900Y302000
X233400Y295300
X233900Y287100
X226189Y279500
X241000Y244500
X296600Y215980
X322400Y215980
X244812Y121968
X244305Y114108
X248565Y102472
X232900Y96800
X286900Y36728
X318500Y36728
X239700Y23200
X307409Y104362
X178100Y219000
T02
X312866Y240189
X332866Y240189
X332866Y265780
X312866Y265780
X310898Y96488
X330898Y96488
X330898Y70898
X310898Y70898
T03
X358299Y72079
X358299Y85858
X358299Y103575
X358299Y117354
X356331Y138732
X356331Y148732
X328772Y148732
X328772Y138732
X328772Y127079
X328772Y117079
X358299Y241370
X358299Y255150
X358299Y272866
X358299Y286646
X356331Y308024
X356331Y318024
X328772Y318024
X328772Y308024
X328772Y296370
X328772Y286370
T04
X276449Y314992
X266449Y314992
X256449Y314992
X246449Y314992
X236449Y314992
X226449Y314992
X216449Y314992
X206449Y314992
X196449Y314992
X186449Y314992
X176449Y314992
X166449Y314992
X156449Y314992
X146449Y314992
X136449Y314992
X126449Y314992
X116449Y314992
X106449Y314992
X96449Y314992
X86449Y314992
X76449Y314992
X66449Y314992
X56449Y314992
X46449Y314992
X108417Y283496
X118417Y283496
X128417Y283496
X138417Y283496
X148417Y283496
X158417Y283496
X168417Y283496
X178417Y283496
X188417Y283496
X198417Y283496
X208417Y283496
X218417Y283496
X218732Y202787
X208732Y202787
X198732Y202787
X188732Y202787
X178732Y202787
X168732Y202787
X158732Y202787
X148732Y202787
X138732Y202787
X128732Y202787
X118732Y202787
X108732Y202787
X98732Y202787
X88732Y202787
X78732Y202787
X68732Y202787
X66449Y137827
X56449Y137827
X46449Y137827
X76449Y137827
X86449Y137827
X96449Y137827
X106449Y137827
X116449Y137827
X126449Y137827
X136449Y137827
X146449Y137827
X156449Y137827
X166449Y137827
X176449Y137827
X186449Y137827
X196449Y137827
X206449Y137827
X216449Y137827
X226449Y137827
X236449Y137827
X246449Y137827
X256449Y137827
X266449Y137827
X276449Y137827
X218417Y104362
X208417Y104362
X198417Y104362
X188417Y104362
X178417Y104362
X168417Y104362
X158417Y104362
X148417Y104362
X138417Y104362
X128417Y104362
X118417Y104362
X108417Y104362
X108732Y23654
X118732Y23654
X128732Y23654
X138732Y23654
X148732Y23654
X158732Y23654
X168732Y23654
X178732Y23654
X188732Y23654
X198732Y23654
X208732Y23654
X218732Y23654
X98732Y23654
X88732Y23654
X78732Y23654
X68732Y23654
T05
X265465Y46528
X275465Y46528
X285465Y46528
X289559Y225780
X279559Y225780
X269559Y225780
T06
X351409Y219717
X364795Y200819
X345504Y44520
X358890Y25622
T07
X19717Y17748
X19717Y137827
X17748Y200819
X17748Y320898
X299244Y320898
X299244Y200819
X301213Y137827
X301213Y17748
T08
X334283Y25622
X340189Y200819
T09
X279559Y284780
X275465Y105528
M30
