G75*
%MOIN*%
%OFA0B0*%
%FSLAX25Y25*%
%IPPOS*%
%LPD*%
%AMOC8*
5,1,8,0,0,1.08239X$1,22.5*
%
%ADD10C,0.00600*%
%ADD11C,0.01200*%
%ADD12C,0.00000*%
%ADD13C,0.06000*%
%ADD14C,0.06600*%
%ADD15OC8,0.05200*%
%ADD16C,0.16598*%
%ADD17C,0.15024*%
%ADD18C,0.05937*%
%ADD19C,0.08600*%
%ADD20C,0.04000*%
%ADD21C,0.02978*%
%ADD22C,0.02000*%
D10*
X0025622Y0002000D02*
X0356331Y0002000D01*
X0356902Y0002007D01*
X0357472Y0002028D01*
X0358042Y0002062D01*
X0358611Y0002110D01*
X0359178Y0002172D01*
X0359744Y0002248D01*
X0360308Y0002337D01*
X0360869Y0002440D01*
X0361428Y0002557D01*
X0361984Y0002686D01*
X0362537Y0002830D01*
X0363086Y0002986D01*
X0363631Y0003156D01*
X0364171Y0003339D01*
X0364707Y0003535D01*
X0365239Y0003744D01*
X0365765Y0003966D01*
X0366285Y0004200D01*
X0366800Y0004447D01*
X0367309Y0004706D01*
X0367811Y0004977D01*
X0368306Y0005261D01*
X0368795Y0005556D01*
X0369276Y0005863D01*
X0369750Y0006181D01*
X0370216Y0006511D01*
X0370673Y0006852D01*
X0371123Y0007205D01*
X0371563Y0007567D01*
X0371995Y0007941D01*
X0372418Y0008324D01*
X0372831Y0008718D01*
X0373235Y0009122D01*
X0373629Y0009535D01*
X0374012Y0009958D01*
X0374386Y0010390D01*
X0374748Y0010830D01*
X0375101Y0011280D01*
X0375442Y0011737D01*
X0375772Y0012203D01*
X0376090Y0012677D01*
X0376397Y0013158D01*
X0376692Y0013647D01*
X0376976Y0014142D01*
X0377247Y0014644D01*
X0377506Y0015153D01*
X0377753Y0015668D01*
X0377987Y0016188D01*
X0378209Y0016714D01*
X0378418Y0017246D01*
X0378614Y0017782D01*
X0378797Y0018322D01*
X0378967Y0018867D01*
X0379123Y0019416D01*
X0379267Y0019969D01*
X0379396Y0020525D01*
X0379513Y0021084D01*
X0379616Y0021645D01*
X0379705Y0022209D01*
X0379781Y0022775D01*
X0379843Y0023342D01*
X0379891Y0023911D01*
X0379925Y0024481D01*
X0379946Y0025051D01*
X0379953Y0025622D01*
X0379953Y0313024D01*
X0380041Y0313643D01*
X0380113Y0314265D01*
X0380171Y0314888D01*
X0380213Y0315512D01*
X0380241Y0316137D01*
X0380253Y0316763D01*
X0380250Y0317389D01*
X0380233Y0318014D01*
X0380200Y0318639D01*
X0380151Y0319263D01*
X0380088Y0319885D01*
X0380010Y0320506D01*
X0379917Y0321125D01*
X0379809Y0321741D01*
X0379686Y0322354D01*
X0379548Y0322965D01*
X0379396Y0323572D01*
X0379229Y0324175D01*
X0379047Y0324773D01*
X0378851Y0325368D01*
X0378641Y0325957D01*
X0378417Y0326541D01*
X0378178Y0327119D01*
X0377926Y0327692D01*
X0377659Y0328258D01*
X0377380Y0328818D01*
X0377086Y0329371D01*
X0376780Y0329916D01*
X0376460Y0330454D01*
X0376128Y0330984D01*
X0375783Y0331506D01*
X0375425Y0332019D01*
X0375055Y0332524D01*
X0374673Y0333019D01*
X0374279Y0333505D01*
X0373873Y0333982D01*
X0373456Y0334448D01*
X0373028Y0334905D01*
X0372589Y0335350D01*
X0372139Y0335785D01*
X0371679Y0336209D01*
X0371209Y0336622D01*
X0370729Y0337024D01*
X0370240Y0337413D01*
X0369741Y0337791D01*
X0369233Y0338157D01*
X0368716Y0338510D01*
X0368192Y0338850D01*
X0367659Y0339178D01*
X0367118Y0339493D01*
X0366570Y0339794D01*
X0366014Y0340083D01*
X0365452Y0340358D01*
X0364884Y0340619D01*
X0364309Y0340866D01*
X0363728Y0341099D01*
X0363142Y0341319D01*
X0362551Y0341524D01*
X0361955Y0341715D01*
X0361355Y0341891D01*
X0360751Y0342052D01*
X0360142Y0342200D01*
X0359531Y0342332D01*
X0358916Y0342449D01*
X0358299Y0342552D01*
X0358299Y0342551D02*
X0027591Y0342551D01*
X0026925Y0342495D01*
X0026261Y0342423D01*
X0025599Y0342336D01*
X0024940Y0342232D01*
X0024283Y0342113D01*
X0023629Y0341977D01*
X0022979Y0341826D01*
X0022332Y0341659D01*
X0021690Y0341477D01*
X0021052Y0341279D01*
X0020420Y0341066D01*
X0019792Y0340837D01*
X0019171Y0340594D01*
X0018555Y0340335D01*
X0017946Y0340062D01*
X0017344Y0339774D01*
X0016748Y0339472D01*
X0016161Y0339155D01*
X0015581Y0338824D01*
X0015009Y0338479D01*
X0014445Y0338121D01*
X0013891Y0337749D01*
X0013346Y0337364D01*
X0012810Y0336965D01*
X0012284Y0336554D01*
X0011768Y0336130D01*
X0011262Y0335694D01*
X0010767Y0335246D01*
X0010283Y0334786D01*
X0009811Y0334315D01*
X0009350Y0333832D01*
X0008900Y0333338D01*
X0008463Y0332833D01*
X0008038Y0332319D01*
X0007626Y0331793D01*
X0007226Y0331259D01*
X0006839Y0330714D01*
X0006466Y0330161D01*
X0006106Y0329598D01*
X0005760Y0329027D01*
X0005428Y0328448D01*
X0005110Y0327861D01*
X0004806Y0327266D01*
X0004517Y0326665D01*
X0004242Y0326056D01*
X0003982Y0325441D01*
X0003737Y0324820D01*
X0003507Y0324193D01*
X0003292Y0323561D01*
X0003093Y0322924D01*
X0002909Y0322282D01*
X0002741Y0321636D01*
X0002588Y0320986D01*
X0002451Y0320333D01*
X0002330Y0319676D01*
X0002225Y0319017D01*
X0002135Y0318355D01*
X0002062Y0317691D01*
X0002005Y0317026D01*
X0001964Y0316360D01*
X0001939Y0315693D01*
X0001930Y0315025D01*
X0001937Y0314357D01*
X0001961Y0313690D01*
X0002000Y0313024D01*
X0002000Y0025622D01*
X0002007Y0025051D01*
X0002028Y0024481D01*
X0002062Y0023911D01*
X0002110Y0023342D01*
X0002172Y0022775D01*
X0002248Y0022209D01*
X0002337Y0021645D01*
X0002440Y0021084D01*
X0002557Y0020525D01*
X0002686Y0019969D01*
X0002830Y0019416D01*
X0002986Y0018867D01*
X0003156Y0018322D01*
X0003339Y0017782D01*
X0003535Y0017246D01*
X0003744Y0016714D01*
X0003966Y0016188D01*
X0004200Y0015668D01*
X0004447Y0015153D01*
X0004706Y0014644D01*
X0004977Y0014142D01*
X0005261Y0013647D01*
X0005556Y0013158D01*
X0005863Y0012677D01*
X0006181Y0012203D01*
X0006511Y0011737D01*
X0006852Y0011280D01*
X0007205Y0010830D01*
X0007567Y0010390D01*
X0007941Y0009958D01*
X0008324Y0009535D01*
X0008718Y0009122D01*
X0009122Y0008718D01*
X0009535Y0008324D01*
X0009958Y0007941D01*
X0010390Y0007567D01*
X0010830Y0007205D01*
X0011280Y0006852D01*
X0011737Y0006511D01*
X0012203Y0006181D01*
X0012677Y0005863D01*
X0013158Y0005556D01*
X0013647Y0005261D01*
X0014142Y0004977D01*
X0014644Y0004706D01*
X0015153Y0004447D01*
X0015668Y0004200D01*
X0016188Y0003966D01*
X0016714Y0003744D01*
X0017246Y0003535D01*
X0017782Y0003339D01*
X0018322Y0003156D01*
X0018867Y0002986D01*
X0019416Y0002830D01*
X0019969Y0002686D01*
X0020525Y0002557D01*
X0021084Y0002440D01*
X0021645Y0002337D01*
X0022209Y0002248D01*
X0022775Y0002172D01*
X0023342Y0002110D01*
X0023911Y0002062D01*
X0024481Y0002028D01*
X0025051Y0002007D01*
X0025622Y0002000D01*
D11*
X0025622Y0167354D02*
X0356331Y0167354D01*
X0362237Y0173260D02*
X0362235Y0173412D01*
X0362229Y0173564D01*
X0362219Y0173716D01*
X0362206Y0173867D01*
X0362188Y0174018D01*
X0362167Y0174169D01*
X0362141Y0174319D01*
X0362112Y0174468D01*
X0362079Y0174617D01*
X0362042Y0174764D01*
X0362002Y0174911D01*
X0361957Y0175056D01*
X0361909Y0175200D01*
X0361857Y0175343D01*
X0361802Y0175485D01*
X0361743Y0175625D01*
X0361680Y0175764D01*
X0361614Y0175901D01*
X0361544Y0176036D01*
X0361471Y0176169D01*
X0361394Y0176300D01*
X0361314Y0176430D01*
X0361231Y0176557D01*
X0361145Y0176682D01*
X0361055Y0176805D01*
X0360962Y0176925D01*
X0360866Y0177043D01*
X0360767Y0177159D01*
X0360665Y0177272D01*
X0360561Y0177382D01*
X0360453Y0177490D01*
X0360343Y0177594D01*
X0360230Y0177696D01*
X0360114Y0177795D01*
X0359996Y0177891D01*
X0359876Y0177984D01*
X0359753Y0178074D01*
X0359628Y0178160D01*
X0359501Y0178243D01*
X0359371Y0178323D01*
X0359240Y0178400D01*
X0359107Y0178473D01*
X0358972Y0178543D01*
X0358835Y0178609D01*
X0358696Y0178672D01*
X0358556Y0178731D01*
X0358414Y0178786D01*
X0358271Y0178838D01*
X0358127Y0178886D01*
X0357982Y0178931D01*
X0357835Y0178971D01*
X0357688Y0179008D01*
X0357539Y0179041D01*
X0357390Y0179070D01*
X0357240Y0179096D01*
X0357089Y0179117D01*
X0356938Y0179135D01*
X0356787Y0179148D01*
X0356635Y0179158D01*
X0356483Y0179164D01*
X0356331Y0179166D01*
X0356331Y0179165D02*
X0025622Y0179165D01*
X0025622Y0179166D02*
X0025470Y0179164D01*
X0025318Y0179158D01*
X0025166Y0179148D01*
X0025015Y0179135D01*
X0024864Y0179117D01*
X0024713Y0179096D01*
X0024563Y0179070D01*
X0024414Y0179041D01*
X0024265Y0179008D01*
X0024118Y0178971D01*
X0023971Y0178931D01*
X0023826Y0178886D01*
X0023682Y0178838D01*
X0023539Y0178786D01*
X0023397Y0178731D01*
X0023257Y0178672D01*
X0023118Y0178609D01*
X0022981Y0178543D01*
X0022846Y0178473D01*
X0022713Y0178400D01*
X0022582Y0178323D01*
X0022452Y0178243D01*
X0022325Y0178160D01*
X0022200Y0178074D01*
X0022077Y0177984D01*
X0021957Y0177891D01*
X0021839Y0177795D01*
X0021723Y0177696D01*
X0021610Y0177594D01*
X0021500Y0177490D01*
X0021392Y0177382D01*
X0021288Y0177272D01*
X0021186Y0177159D01*
X0021087Y0177043D01*
X0020991Y0176925D01*
X0020898Y0176805D01*
X0020808Y0176682D01*
X0020722Y0176557D01*
X0020639Y0176430D01*
X0020559Y0176300D01*
X0020482Y0176169D01*
X0020409Y0176036D01*
X0020339Y0175901D01*
X0020273Y0175764D01*
X0020210Y0175625D01*
X0020151Y0175485D01*
X0020096Y0175343D01*
X0020044Y0175200D01*
X0019996Y0175056D01*
X0019951Y0174911D01*
X0019911Y0174764D01*
X0019874Y0174617D01*
X0019841Y0174468D01*
X0019812Y0174319D01*
X0019786Y0174169D01*
X0019765Y0174018D01*
X0019747Y0173867D01*
X0019734Y0173716D01*
X0019724Y0173564D01*
X0019718Y0173412D01*
X0019716Y0173260D01*
X0019718Y0173108D01*
X0019724Y0172956D01*
X0019734Y0172804D01*
X0019747Y0172653D01*
X0019765Y0172502D01*
X0019786Y0172351D01*
X0019812Y0172201D01*
X0019841Y0172052D01*
X0019874Y0171903D01*
X0019911Y0171756D01*
X0019951Y0171609D01*
X0019996Y0171464D01*
X0020044Y0171320D01*
X0020096Y0171177D01*
X0020151Y0171035D01*
X0020210Y0170895D01*
X0020273Y0170756D01*
X0020339Y0170619D01*
X0020409Y0170484D01*
X0020482Y0170351D01*
X0020559Y0170220D01*
X0020639Y0170090D01*
X0020722Y0169963D01*
X0020808Y0169838D01*
X0020898Y0169715D01*
X0020991Y0169595D01*
X0021087Y0169477D01*
X0021186Y0169361D01*
X0021288Y0169248D01*
X0021392Y0169138D01*
X0021500Y0169030D01*
X0021610Y0168926D01*
X0021723Y0168824D01*
X0021839Y0168725D01*
X0021957Y0168629D01*
X0022077Y0168536D01*
X0022200Y0168446D01*
X0022325Y0168360D01*
X0022452Y0168277D01*
X0022582Y0168197D01*
X0022713Y0168120D01*
X0022846Y0168047D01*
X0022981Y0167977D01*
X0023118Y0167911D01*
X0023257Y0167848D01*
X0023397Y0167789D01*
X0023539Y0167734D01*
X0023682Y0167682D01*
X0023826Y0167634D01*
X0023971Y0167589D01*
X0024118Y0167549D01*
X0024265Y0167512D01*
X0024414Y0167479D01*
X0024563Y0167450D01*
X0024713Y0167424D01*
X0024864Y0167403D01*
X0025015Y0167385D01*
X0025166Y0167372D01*
X0025318Y0167362D01*
X0025470Y0167356D01*
X0025622Y0167354D01*
X0356331Y0167354D02*
X0356483Y0167356D01*
X0356635Y0167362D01*
X0356787Y0167372D01*
X0356938Y0167385D01*
X0357089Y0167403D01*
X0357240Y0167424D01*
X0357390Y0167450D01*
X0357539Y0167479D01*
X0357688Y0167512D01*
X0357835Y0167549D01*
X0357982Y0167589D01*
X0358127Y0167634D01*
X0358271Y0167682D01*
X0358414Y0167734D01*
X0358556Y0167789D01*
X0358696Y0167848D01*
X0358835Y0167911D01*
X0358972Y0167977D01*
X0359107Y0168047D01*
X0359240Y0168120D01*
X0359371Y0168197D01*
X0359501Y0168277D01*
X0359628Y0168360D01*
X0359753Y0168446D01*
X0359876Y0168536D01*
X0359996Y0168629D01*
X0360114Y0168725D01*
X0360230Y0168824D01*
X0360343Y0168926D01*
X0360453Y0169030D01*
X0360561Y0169138D01*
X0360665Y0169248D01*
X0360767Y0169361D01*
X0360866Y0169477D01*
X0360962Y0169595D01*
X0361055Y0169715D01*
X0361145Y0169838D01*
X0361231Y0169963D01*
X0361314Y0170090D01*
X0361394Y0170220D01*
X0361471Y0170351D01*
X0361544Y0170484D01*
X0361614Y0170619D01*
X0361680Y0170756D01*
X0361743Y0170895D01*
X0361802Y0171035D01*
X0361857Y0171177D01*
X0361909Y0171320D01*
X0361957Y0171464D01*
X0362002Y0171609D01*
X0362042Y0171756D01*
X0362079Y0171903D01*
X0362112Y0172052D01*
X0362141Y0172201D01*
X0362167Y0172351D01*
X0362188Y0172502D01*
X0362206Y0172653D01*
X0362219Y0172804D01*
X0362229Y0172956D01*
X0362235Y0173108D01*
X0362237Y0173260D01*
D12*
X0293240Y0200819D02*
X0293242Y0200974D01*
X0293248Y0201128D01*
X0293258Y0201282D01*
X0293272Y0201436D01*
X0293290Y0201590D01*
X0293312Y0201743D01*
X0293337Y0201895D01*
X0293367Y0202047D01*
X0293401Y0202198D01*
X0293438Y0202348D01*
X0293479Y0202497D01*
X0293524Y0202645D01*
X0293573Y0202792D01*
X0293626Y0202937D01*
X0293682Y0203081D01*
X0293742Y0203223D01*
X0293806Y0203364D01*
X0293873Y0203503D01*
X0293944Y0203641D01*
X0294019Y0203776D01*
X0294097Y0203910D01*
X0294178Y0204041D01*
X0294263Y0204171D01*
X0294351Y0204298D01*
X0294442Y0204423D01*
X0294536Y0204545D01*
X0294634Y0204665D01*
X0294734Y0204783D01*
X0294838Y0204897D01*
X0294944Y0205009D01*
X0295054Y0205119D01*
X0295166Y0205225D01*
X0295280Y0205329D01*
X0295398Y0205429D01*
X0295518Y0205527D01*
X0295640Y0205621D01*
X0295765Y0205712D01*
X0295892Y0205800D01*
X0296022Y0205885D01*
X0296153Y0205966D01*
X0296287Y0206044D01*
X0296422Y0206119D01*
X0296560Y0206190D01*
X0296699Y0206257D01*
X0296840Y0206321D01*
X0296982Y0206381D01*
X0297126Y0206437D01*
X0297271Y0206490D01*
X0297418Y0206539D01*
X0297566Y0206584D01*
X0297715Y0206625D01*
X0297865Y0206662D01*
X0298016Y0206696D01*
X0298168Y0206726D01*
X0298320Y0206751D01*
X0298473Y0206773D01*
X0298627Y0206791D01*
X0298781Y0206805D01*
X0298935Y0206815D01*
X0299089Y0206821D01*
X0299244Y0206823D01*
X0299399Y0206821D01*
X0299553Y0206815D01*
X0299707Y0206805D01*
X0299861Y0206791D01*
X0300015Y0206773D01*
X0300168Y0206751D01*
X0300320Y0206726D01*
X0300472Y0206696D01*
X0300623Y0206662D01*
X0300773Y0206625D01*
X0300922Y0206584D01*
X0301070Y0206539D01*
X0301217Y0206490D01*
X0301362Y0206437D01*
X0301506Y0206381D01*
X0301648Y0206321D01*
X0301789Y0206257D01*
X0301928Y0206190D01*
X0302066Y0206119D01*
X0302201Y0206044D01*
X0302335Y0205966D01*
X0302466Y0205885D01*
X0302596Y0205800D01*
X0302723Y0205712D01*
X0302848Y0205621D01*
X0302970Y0205527D01*
X0303090Y0205429D01*
X0303208Y0205329D01*
X0303322Y0205225D01*
X0303434Y0205119D01*
X0303544Y0205009D01*
X0303650Y0204897D01*
X0303754Y0204783D01*
X0303854Y0204665D01*
X0303952Y0204545D01*
X0304046Y0204423D01*
X0304137Y0204298D01*
X0304225Y0204171D01*
X0304310Y0204041D01*
X0304391Y0203910D01*
X0304469Y0203776D01*
X0304544Y0203641D01*
X0304615Y0203503D01*
X0304682Y0203364D01*
X0304746Y0203223D01*
X0304806Y0203081D01*
X0304862Y0202937D01*
X0304915Y0202792D01*
X0304964Y0202645D01*
X0305009Y0202497D01*
X0305050Y0202348D01*
X0305087Y0202198D01*
X0305121Y0202047D01*
X0305151Y0201895D01*
X0305176Y0201743D01*
X0305198Y0201590D01*
X0305216Y0201436D01*
X0305230Y0201282D01*
X0305240Y0201128D01*
X0305246Y0200974D01*
X0305248Y0200819D01*
X0305246Y0200664D01*
X0305240Y0200510D01*
X0305230Y0200356D01*
X0305216Y0200202D01*
X0305198Y0200048D01*
X0305176Y0199895D01*
X0305151Y0199743D01*
X0305121Y0199591D01*
X0305087Y0199440D01*
X0305050Y0199290D01*
X0305009Y0199141D01*
X0304964Y0198993D01*
X0304915Y0198846D01*
X0304862Y0198701D01*
X0304806Y0198557D01*
X0304746Y0198415D01*
X0304682Y0198274D01*
X0304615Y0198135D01*
X0304544Y0197997D01*
X0304469Y0197862D01*
X0304391Y0197728D01*
X0304310Y0197597D01*
X0304225Y0197467D01*
X0304137Y0197340D01*
X0304046Y0197215D01*
X0303952Y0197093D01*
X0303854Y0196973D01*
X0303754Y0196855D01*
X0303650Y0196741D01*
X0303544Y0196629D01*
X0303434Y0196519D01*
X0303322Y0196413D01*
X0303208Y0196309D01*
X0303090Y0196209D01*
X0302970Y0196111D01*
X0302848Y0196017D01*
X0302723Y0195926D01*
X0302596Y0195838D01*
X0302466Y0195753D01*
X0302335Y0195672D01*
X0302201Y0195594D01*
X0302066Y0195519D01*
X0301928Y0195448D01*
X0301789Y0195381D01*
X0301648Y0195317D01*
X0301506Y0195257D01*
X0301362Y0195201D01*
X0301217Y0195148D01*
X0301070Y0195099D01*
X0300922Y0195054D01*
X0300773Y0195013D01*
X0300623Y0194976D01*
X0300472Y0194942D01*
X0300320Y0194912D01*
X0300168Y0194887D01*
X0300015Y0194865D01*
X0299861Y0194847D01*
X0299707Y0194833D01*
X0299553Y0194823D01*
X0299399Y0194817D01*
X0299244Y0194815D01*
X0299089Y0194817D01*
X0298935Y0194823D01*
X0298781Y0194833D01*
X0298627Y0194847D01*
X0298473Y0194865D01*
X0298320Y0194887D01*
X0298168Y0194912D01*
X0298016Y0194942D01*
X0297865Y0194976D01*
X0297715Y0195013D01*
X0297566Y0195054D01*
X0297418Y0195099D01*
X0297271Y0195148D01*
X0297126Y0195201D01*
X0296982Y0195257D01*
X0296840Y0195317D01*
X0296699Y0195381D01*
X0296560Y0195448D01*
X0296422Y0195519D01*
X0296287Y0195594D01*
X0296153Y0195672D01*
X0296022Y0195753D01*
X0295892Y0195838D01*
X0295765Y0195926D01*
X0295640Y0196017D01*
X0295518Y0196111D01*
X0295398Y0196209D01*
X0295280Y0196309D01*
X0295166Y0196413D01*
X0295054Y0196519D01*
X0294944Y0196629D01*
X0294838Y0196741D01*
X0294734Y0196855D01*
X0294634Y0196973D01*
X0294536Y0197093D01*
X0294442Y0197215D01*
X0294351Y0197340D01*
X0294263Y0197467D01*
X0294178Y0197597D01*
X0294097Y0197728D01*
X0294019Y0197862D01*
X0293944Y0197997D01*
X0293873Y0198135D01*
X0293806Y0198274D01*
X0293742Y0198415D01*
X0293682Y0198557D01*
X0293626Y0198701D01*
X0293573Y0198846D01*
X0293524Y0198993D01*
X0293479Y0199141D01*
X0293438Y0199290D01*
X0293401Y0199440D01*
X0293367Y0199591D01*
X0293337Y0199743D01*
X0293312Y0199895D01*
X0293290Y0200048D01*
X0293272Y0200202D01*
X0293258Y0200356D01*
X0293248Y0200510D01*
X0293242Y0200664D01*
X0293240Y0200819D01*
X0295209Y0137827D02*
X0295211Y0137982D01*
X0295217Y0138136D01*
X0295227Y0138290D01*
X0295241Y0138444D01*
X0295259Y0138598D01*
X0295281Y0138751D01*
X0295306Y0138903D01*
X0295336Y0139055D01*
X0295370Y0139206D01*
X0295407Y0139356D01*
X0295448Y0139505D01*
X0295493Y0139653D01*
X0295542Y0139800D01*
X0295595Y0139945D01*
X0295651Y0140089D01*
X0295711Y0140231D01*
X0295775Y0140372D01*
X0295842Y0140511D01*
X0295913Y0140649D01*
X0295988Y0140784D01*
X0296066Y0140918D01*
X0296147Y0141049D01*
X0296232Y0141179D01*
X0296320Y0141306D01*
X0296411Y0141431D01*
X0296505Y0141553D01*
X0296603Y0141673D01*
X0296703Y0141791D01*
X0296807Y0141905D01*
X0296913Y0142017D01*
X0297023Y0142127D01*
X0297135Y0142233D01*
X0297249Y0142337D01*
X0297367Y0142437D01*
X0297487Y0142535D01*
X0297609Y0142629D01*
X0297734Y0142720D01*
X0297861Y0142808D01*
X0297991Y0142893D01*
X0298122Y0142974D01*
X0298256Y0143052D01*
X0298391Y0143127D01*
X0298529Y0143198D01*
X0298668Y0143265D01*
X0298809Y0143329D01*
X0298951Y0143389D01*
X0299095Y0143445D01*
X0299240Y0143498D01*
X0299387Y0143547D01*
X0299535Y0143592D01*
X0299684Y0143633D01*
X0299834Y0143670D01*
X0299985Y0143704D01*
X0300137Y0143734D01*
X0300289Y0143759D01*
X0300442Y0143781D01*
X0300596Y0143799D01*
X0300750Y0143813D01*
X0300904Y0143823D01*
X0301058Y0143829D01*
X0301213Y0143831D01*
X0301368Y0143829D01*
X0301522Y0143823D01*
X0301676Y0143813D01*
X0301830Y0143799D01*
X0301984Y0143781D01*
X0302137Y0143759D01*
X0302289Y0143734D01*
X0302441Y0143704D01*
X0302592Y0143670D01*
X0302742Y0143633D01*
X0302891Y0143592D01*
X0303039Y0143547D01*
X0303186Y0143498D01*
X0303331Y0143445D01*
X0303475Y0143389D01*
X0303617Y0143329D01*
X0303758Y0143265D01*
X0303897Y0143198D01*
X0304035Y0143127D01*
X0304170Y0143052D01*
X0304304Y0142974D01*
X0304435Y0142893D01*
X0304565Y0142808D01*
X0304692Y0142720D01*
X0304817Y0142629D01*
X0304939Y0142535D01*
X0305059Y0142437D01*
X0305177Y0142337D01*
X0305291Y0142233D01*
X0305403Y0142127D01*
X0305513Y0142017D01*
X0305619Y0141905D01*
X0305723Y0141791D01*
X0305823Y0141673D01*
X0305921Y0141553D01*
X0306015Y0141431D01*
X0306106Y0141306D01*
X0306194Y0141179D01*
X0306279Y0141049D01*
X0306360Y0140918D01*
X0306438Y0140784D01*
X0306513Y0140649D01*
X0306584Y0140511D01*
X0306651Y0140372D01*
X0306715Y0140231D01*
X0306775Y0140089D01*
X0306831Y0139945D01*
X0306884Y0139800D01*
X0306933Y0139653D01*
X0306978Y0139505D01*
X0307019Y0139356D01*
X0307056Y0139206D01*
X0307090Y0139055D01*
X0307120Y0138903D01*
X0307145Y0138751D01*
X0307167Y0138598D01*
X0307185Y0138444D01*
X0307199Y0138290D01*
X0307209Y0138136D01*
X0307215Y0137982D01*
X0307217Y0137827D01*
X0307215Y0137672D01*
X0307209Y0137518D01*
X0307199Y0137364D01*
X0307185Y0137210D01*
X0307167Y0137056D01*
X0307145Y0136903D01*
X0307120Y0136751D01*
X0307090Y0136599D01*
X0307056Y0136448D01*
X0307019Y0136298D01*
X0306978Y0136149D01*
X0306933Y0136001D01*
X0306884Y0135854D01*
X0306831Y0135709D01*
X0306775Y0135565D01*
X0306715Y0135423D01*
X0306651Y0135282D01*
X0306584Y0135143D01*
X0306513Y0135005D01*
X0306438Y0134870D01*
X0306360Y0134736D01*
X0306279Y0134605D01*
X0306194Y0134475D01*
X0306106Y0134348D01*
X0306015Y0134223D01*
X0305921Y0134101D01*
X0305823Y0133981D01*
X0305723Y0133863D01*
X0305619Y0133749D01*
X0305513Y0133637D01*
X0305403Y0133527D01*
X0305291Y0133421D01*
X0305177Y0133317D01*
X0305059Y0133217D01*
X0304939Y0133119D01*
X0304817Y0133025D01*
X0304692Y0132934D01*
X0304565Y0132846D01*
X0304435Y0132761D01*
X0304304Y0132680D01*
X0304170Y0132602D01*
X0304035Y0132527D01*
X0303897Y0132456D01*
X0303758Y0132389D01*
X0303617Y0132325D01*
X0303475Y0132265D01*
X0303331Y0132209D01*
X0303186Y0132156D01*
X0303039Y0132107D01*
X0302891Y0132062D01*
X0302742Y0132021D01*
X0302592Y0131984D01*
X0302441Y0131950D01*
X0302289Y0131920D01*
X0302137Y0131895D01*
X0301984Y0131873D01*
X0301830Y0131855D01*
X0301676Y0131841D01*
X0301522Y0131831D01*
X0301368Y0131825D01*
X0301213Y0131823D01*
X0301058Y0131825D01*
X0300904Y0131831D01*
X0300750Y0131841D01*
X0300596Y0131855D01*
X0300442Y0131873D01*
X0300289Y0131895D01*
X0300137Y0131920D01*
X0299985Y0131950D01*
X0299834Y0131984D01*
X0299684Y0132021D01*
X0299535Y0132062D01*
X0299387Y0132107D01*
X0299240Y0132156D01*
X0299095Y0132209D01*
X0298951Y0132265D01*
X0298809Y0132325D01*
X0298668Y0132389D01*
X0298529Y0132456D01*
X0298391Y0132527D01*
X0298256Y0132602D01*
X0298122Y0132680D01*
X0297991Y0132761D01*
X0297861Y0132846D01*
X0297734Y0132934D01*
X0297609Y0133025D01*
X0297487Y0133119D01*
X0297367Y0133217D01*
X0297249Y0133317D01*
X0297135Y0133421D01*
X0297023Y0133527D01*
X0296913Y0133637D01*
X0296807Y0133749D01*
X0296703Y0133863D01*
X0296603Y0133981D01*
X0296505Y0134101D01*
X0296411Y0134223D01*
X0296320Y0134348D01*
X0296232Y0134475D01*
X0296147Y0134605D01*
X0296066Y0134736D01*
X0295988Y0134870D01*
X0295913Y0135005D01*
X0295842Y0135143D01*
X0295775Y0135282D01*
X0295711Y0135423D01*
X0295651Y0135565D01*
X0295595Y0135709D01*
X0295542Y0135854D01*
X0295493Y0136001D01*
X0295448Y0136149D01*
X0295407Y0136298D01*
X0295370Y0136448D01*
X0295336Y0136599D01*
X0295306Y0136751D01*
X0295281Y0136903D01*
X0295259Y0137056D01*
X0295241Y0137210D01*
X0295227Y0137364D01*
X0295217Y0137518D01*
X0295211Y0137672D01*
X0295209Y0137827D01*
X0268965Y0105528D02*
X0268967Y0105689D01*
X0268973Y0105849D01*
X0268983Y0106010D01*
X0268997Y0106170D01*
X0269015Y0106330D01*
X0269036Y0106489D01*
X0269062Y0106648D01*
X0269092Y0106806D01*
X0269125Y0106963D01*
X0269163Y0107120D01*
X0269204Y0107275D01*
X0269249Y0107429D01*
X0269298Y0107582D01*
X0269351Y0107734D01*
X0269407Y0107885D01*
X0269468Y0108034D01*
X0269531Y0108182D01*
X0269599Y0108328D01*
X0269670Y0108472D01*
X0269744Y0108614D01*
X0269822Y0108755D01*
X0269904Y0108893D01*
X0269989Y0109030D01*
X0270077Y0109164D01*
X0270169Y0109296D01*
X0270264Y0109426D01*
X0270362Y0109554D01*
X0270463Y0109679D01*
X0270567Y0109801D01*
X0270674Y0109921D01*
X0270784Y0110038D01*
X0270897Y0110153D01*
X0271013Y0110264D01*
X0271132Y0110373D01*
X0271253Y0110478D01*
X0271377Y0110581D01*
X0271503Y0110681D01*
X0271631Y0110777D01*
X0271762Y0110870D01*
X0271896Y0110960D01*
X0272031Y0111047D01*
X0272169Y0111130D01*
X0272308Y0111210D01*
X0272450Y0111286D01*
X0272593Y0111359D01*
X0272738Y0111428D01*
X0272885Y0111494D01*
X0273033Y0111556D01*
X0273183Y0111614D01*
X0273334Y0111669D01*
X0273487Y0111720D01*
X0273641Y0111767D01*
X0273796Y0111810D01*
X0273952Y0111849D01*
X0274108Y0111885D01*
X0274266Y0111916D01*
X0274424Y0111944D01*
X0274583Y0111968D01*
X0274743Y0111988D01*
X0274903Y0112004D01*
X0275063Y0112016D01*
X0275224Y0112024D01*
X0275385Y0112028D01*
X0275545Y0112028D01*
X0275706Y0112024D01*
X0275867Y0112016D01*
X0276027Y0112004D01*
X0276187Y0111988D01*
X0276347Y0111968D01*
X0276506Y0111944D01*
X0276664Y0111916D01*
X0276822Y0111885D01*
X0276978Y0111849D01*
X0277134Y0111810D01*
X0277289Y0111767D01*
X0277443Y0111720D01*
X0277596Y0111669D01*
X0277747Y0111614D01*
X0277897Y0111556D01*
X0278045Y0111494D01*
X0278192Y0111428D01*
X0278337Y0111359D01*
X0278480Y0111286D01*
X0278622Y0111210D01*
X0278761Y0111130D01*
X0278899Y0111047D01*
X0279034Y0110960D01*
X0279168Y0110870D01*
X0279299Y0110777D01*
X0279427Y0110681D01*
X0279553Y0110581D01*
X0279677Y0110478D01*
X0279798Y0110373D01*
X0279917Y0110264D01*
X0280033Y0110153D01*
X0280146Y0110038D01*
X0280256Y0109921D01*
X0280363Y0109801D01*
X0280467Y0109679D01*
X0280568Y0109554D01*
X0280666Y0109426D01*
X0280761Y0109296D01*
X0280853Y0109164D01*
X0280941Y0109030D01*
X0281026Y0108893D01*
X0281108Y0108755D01*
X0281186Y0108614D01*
X0281260Y0108472D01*
X0281331Y0108328D01*
X0281399Y0108182D01*
X0281462Y0108034D01*
X0281523Y0107885D01*
X0281579Y0107734D01*
X0281632Y0107582D01*
X0281681Y0107429D01*
X0281726Y0107275D01*
X0281767Y0107120D01*
X0281805Y0106963D01*
X0281838Y0106806D01*
X0281868Y0106648D01*
X0281894Y0106489D01*
X0281915Y0106330D01*
X0281933Y0106170D01*
X0281947Y0106010D01*
X0281957Y0105849D01*
X0281963Y0105689D01*
X0281965Y0105528D01*
X0281963Y0105367D01*
X0281957Y0105207D01*
X0281947Y0105046D01*
X0281933Y0104886D01*
X0281915Y0104726D01*
X0281894Y0104567D01*
X0281868Y0104408D01*
X0281838Y0104250D01*
X0281805Y0104093D01*
X0281767Y0103936D01*
X0281726Y0103781D01*
X0281681Y0103627D01*
X0281632Y0103474D01*
X0281579Y0103322D01*
X0281523Y0103171D01*
X0281462Y0103022D01*
X0281399Y0102874D01*
X0281331Y0102728D01*
X0281260Y0102584D01*
X0281186Y0102442D01*
X0281108Y0102301D01*
X0281026Y0102163D01*
X0280941Y0102026D01*
X0280853Y0101892D01*
X0280761Y0101760D01*
X0280666Y0101630D01*
X0280568Y0101502D01*
X0280467Y0101377D01*
X0280363Y0101255D01*
X0280256Y0101135D01*
X0280146Y0101018D01*
X0280033Y0100903D01*
X0279917Y0100792D01*
X0279798Y0100683D01*
X0279677Y0100578D01*
X0279553Y0100475D01*
X0279427Y0100375D01*
X0279299Y0100279D01*
X0279168Y0100186D01*
X0279034Y0100096D01*
X0278899Y0100009D01*
X0278761Y0099926D01*
X0278622Y0099846D01*
X0278480Y0099770D01*
X0278337Y0099697D01*
X0278192Y0099628D01*
X0278045Y0099562D01*
X0277897Y0099500D01*
X0277747Y0099442D01*
X0277596Y0099387D01*
X0277443Y0099336D01*
X0277289Y0099289D01*
X0277134Y0099246D01*
X0276978Y0099207D01*
X0276822Y0099171D01*
X0276664Y0099140D01*
X0276506Y0099112D01*
X0276347Y0099088D01*
X0276187Y0099068D01*
X0276027Y0099052D01*
X0275867Y0099040D01*
X0275706Y0099032D01*
X0275545Y0099028D01*
X0275385Y0099028D01*
X0275224Y0099032D01*
X0275063Y0099040D01*
X0274903Y0099052D01*
X0274743Y0099068D01*
X0274583Y0099088D01*
X0274424Y0099112D01*
X0274266Y0099140D01*
X0274108Y0099171D01*
X0273952Y0099207D01*
X0273796Y0099246D01*
X0273641Y0099289D01*
X0273487Y0099336D01*
X0273334Y0099387D01*
X0273183Y0099442D01*
X0273033Y0099500D01*
X0272885Y0099562D01*
X0272738Y0099628D01*
X0272593Y0099697D01*
X0272450Y0099770D01*
X0272308Y0099846D01*
X0272169Y0099926D01*
X0272031Y0100009D01*
X0271896Y0100096D01*
X0271762Y0100186D01*
X0271631Y0100279D01*
X0271503Y0100375D01*
X0271377Y0100475D01*
X0271253Y0100578D01*
X0271132Y0100683D01*
X0271013Y0100792D01*
X0270897Y0100903D01*
X0270784Y0101018D01*
X0270674Y0101135D01*
X0270567Y0101255D01*
X0270463Y0101377D01*
X0270362Y0101502D01*
X0270264Y0101630D01*
X0270169Y0101760D01*
X0270077Y0101892D01*
X0269989Y0102026D01*
X0269904Y0102163D01*
X0269822Y0102301D01*
X0269744Y0102442D01*
X0269670Y0102584D01*
X0269599Y0102728D01*
X0269531Y0102874D01*
X0269468Y0103022D01*
X0269407Y0103171D01*
X0269351Y0103322D01*
X0269298Y0103474D01*
X0269249Y0103627D01*
X0269204Y0103781D01*
X0269163Y0103936D01*
X0269125Y0104093D01*
X0269092Y0104250D01*
X0269062Y0104408D01*
X0269036Y0104567D01*
X0269015Y0104726D01*
X0268997Y0104886D01*
X0268983Y0105046D01*
X0268973Y0105207D01*
X0268967Y0105367D01*
X0268965Y0105528D01*
X0295209Y0017748D02*
X0295211Y0017903D01*
X0295217Y0018057D01*
X0295227Y0018211D01*
X0295241Y0018365D01*
X0295259Y0018519D01*
X0295281Y0018672D01*
X0295306Y0018824D01*
X0295336Y0018976D01*
X0295370Y0019127D01*
X0295407Y0019277D01*
X0295448Y0019426D01*
X0295493Y0019574D01*
X0295542Y0019721D01*
X0295595Y0019866D01*
X0295651Y0020010D01*
X0295711Y0020152D01*
X0295775Y0020293D01*
X0295842Y0020432D01*
X0295913Y0020570D01*
X0295988Y0020705D01*
X0296066Y0020839D01*
X0296147Y0020970D01*
X0296232Y0021100D01*
X0296320Y0021227D01*
X0296411Y0021352D01*
X0296505Y0021474D01*
X0296603Y0021594D01*
X0296703Y0021712D01*
X0296807Y0021826D01*
X0296913Y0021938D01*
X0297023Y0022048D01*
X0297135Y0022154D01*
X0297249Y0022258D01*
X0297367Y0022358D01*
X0297487Y0022456D01*
X0297609Y0022550D01*
X0297734Y0022641D01*
X0297861Y0022729D01*
X0297991Y0022814D01*
X0298122Y0022895D01*
X0298256Y0022973D01*
X0298391Y0023048D01*
X0298529Y0023119D01*
X0298668Y0023186D01*
X0298809Y0023250D01*
X0298951Y0023310D01*
X0299095Y0023366D01*
X0299240Y0023419D01*
X0299387Y0023468D01*
X0299535Y0023513D01*
X0299684Y0023554D01*
X0299834Y0023591D01*
X0299985Y0023625D01*
X0300137Y0023655D01*
X0300289Y0023680D01*
X0300442Y0023702D01*
X0300596Y0023720D01*
X0300750Y0023734D01*
X0300904Y0023744D01*
X0301058Y0023750D01*
X0301213Y0023752D01*
X0301368Y0023750D01*
X0301522Y0023744D01*
X0301676Y0023734D01*
X0301830Y0023720D01*
X0301984Y0023702D01*
X0302137Y0023680D01*
X0302289Y0023655D01*
X0302441Y0023625D01*
X0302592Y0023591D01*
X0302742Y0023554D01*
X0302891Y0023513D01*
X0303039Y0023468D01*
X0303186Y0023419D01*
X0303331Y0023366D01*
X0303475Y0023310D01*
X0303617Y0023250D01*
X0303758Y0023186D01*
X0303897Y0023119D01*
X0304035Y0023048D01*
X0304170Y0022973D01*
X0304304Y0022895D01*
X0304435Y0022814D01*
X0304565Y0022729D01*
X0304692Y0022641D01*
X0304817Y0022550D01*
X0304939Y0022456D01*
X0305059Y0022358D01*
X0305177Y0022258D01*
X0305291Y0022154D01*
X0305403Y0022048D01*
X0305513Y0021938D01*
X0305619Y0021826D01*
X0305723Y0021712D01*
X0305823Y0021594D01*
X0305921Y0021474D01*
X0306015Y0021352D01*
X0306106Y0021227D01*
X0306194Y0021100D01*
X0306279Y0020970D01*
X0306360Y0020839D01*
X0306438Y0020705D01*
X0306513Y0020570D01*
X0306584Y0020432D01*
X0306651Y0020293D01*
X0306715Y0020152D01*
X0306775Y0020010D01*
X0306831Y0019866D01*
X0306884Y0019721D01*
X0306933Y0019574D01*
X0306978Y0019426D01*
X0307019Y0019277D01*
X0307056Y0019127D01*
X0307090Y0018976D01*
X0307120Y0018824D01*
X0307145Y0018672D01*
X0307167Y0018519D01*
X0307185Y0018365D01*
X0307199Y0018211D01*
X0307209Y0018057D01*
X0307215Y0017903D01*
X0307217Y0017748D01*
X0307215Y0017593D01*
X0307209Y0017439D01*
X0307199Y0017285D01*
X0307185Y0017131D01*
X0307167Y0016977D01*
X0307145Y0016824D01*
X0307120Y0016672D01*
X0307090Y0016520D01*
X0307056Y0016369D01*
X0307019Y0016219D01*
X0306978Y0016070D01*
X0306933Y0015922D01*
X0306884Y0015775D01*
X0306831Y0015630D01*
X0306775Y0015486D01*
X0306715Y0015344D01*
X0306651Y0015203D01*
X0306584Y0015064D01*
X0306513Y0014926D01*
X0306438Y0014791D01*
X0306360Y0014657D01*
X0306279Y0014526D01*
X0306194Y0014396D01*
X0306106Y0014269D01*
X0306015Y0014144D01*
X0305921Y0014022D01*
X0305823Y0013902D01*
X0305723Y0013784D01*
X0305619Y0013670D01*
X0305513Y0013558D01*
X0305403Y0013448D01*
X0305291Y0013342D01*
X0305177Y0013238D01*
X0305059Y0013138D01*
X0304939Y0013040D01*
X0304817Y0012946D01*
X0304692Y0012855D01*
X0304565Y0012767D01*
X0304435Y0012682D01*
X0304304Y0012601D01*
X0304170Y0012523D01*
X0304035Y0012448D01*
X0303897Y0012377D01*
X0303758Y0012310D01*
X0303617Y0012246D01*
X0303475Y0012186D01*
X0303331Y0012130D01*
X0303186Y0012077D01*
X0303039Y0012028D01*
X0302891Y0011983D01*
X0302742Y0011942D01*
X0302592Y0011905D01*
X0302441Y0011871D01*
X0302289Y0011841D01*
X0302137Y0011816D01*
X0301984Y0011794D01*
X0301830Y0011776D01*
X0301676Y0011762D01*
X0301522Y0011752D01*
X0301368Y0011746D01*
X0301213Y0011744D01*
X0301058Y0011746D01*
X0300904Y0011752D01*
X0300750Y0011762D01*
X0300596Y0011776D01*
X0300442Y0011794D01*
X0300289Y0011816D01*
X0300137Y0011841D01*
X0299985Y0011871D01*
X0299834Y0011905D01*
X0299684Y0011942D01*
X0299535Y0011983D01*
X0299387Y0012028D01*
X0299240Y0012077D01*
X0299095Y0012130D01*
X0298951Y0012186D01*
X0298809Y0012246D01*
X0298668Y0012310D01*
X0298529Y0012377D01*
X0298391Y0012448D01*
X0298256Y0012523D01*
X0298122Y0012601D01*
X0297991Y0012682D01*
X0297861Y0012767D01*
X0297734Y0012855D01*
X0297609Y0012946D01*
X0297487Y0013040D01*
X0297367Y0013138D01*
X0297249Y0013238D01*
X0297135Y0013342D01*
X0297023Y0013448D01*
X0296913Y0013558D01*
X0296807Y0013670D01*
X0296703Y0013784D01*
X0296603Y0013902D01*
X0296505Y0014022D01*
X0296411Y0014144D01*
X0296320Y0014269D01*
X0296232Y0014396D01*
X0296147Y0014526D01*
X0296066Y0014657D01*
X0295988Y0014791D01*
X0295913Y0014926D01*
X0295842Y0015064D01*
X0295775Y0015203D01*
X0295711Y0015344D01*
X0295651Y0015486D01*
X0295595Y0015630D01*
X0295542Y0015775D01*
X0295493Y0015922D01*
X0295448Y0016070D01*
X0295407Y0016219D01*
X0295370Y0016369D01*
X0295336Y0016520D01*
X0295306Y0016672D01*
X0295281Y0016824D01*
X0295259Y0016977D01*
X0295241Y0017131D01*
X0295227Y0017285D01*
X0295217Y0017439D01*
X0295211Y0017593D01*
X0295209Y0017748D01*
X0013713Y0017748D02*
X0013715Y0017903D01*
X0013721Y0018057D01*
X0013731Y0018211D01*
X0013745Y0018365D01*
X0013763Y0018519D01*
X0013785Y0018672D01*
X0013810Y0018824D01*
X0013840Y0018976D01*
X0013874Y0019127D01*
X0013911Y0019277D01*
X0013952Y0019426D01*
X0013997Y0019574D01*
X0014046Y0019721D01*
X0014099Y0019866D01*
X0014155Y0020010D01*
X0014215Y0020152D01*
X0014279Y0020293D01*
X0014346Y0020432D01*
X0014417Y0020570D01*
X0014492Y0020705D01*
X0014570Y0020839D01*
X0014651Y0020970D01*
X0014736Y0021100D01*
X0014824Y0021227D01*
X0014915Y0021352D01*
X0015009Y0021474D01*
X0015107Y0021594D01*
X0015207Y0021712D01*
X0015311Y0021826D01*
X0015417Y0021938D01*
X0015527Y0022048D01*
X0015639Y0022154D01*
X0015753Y0022258D01*
X0015871Y0022358D01*
X0015991Y0022456D01*
X0016113Y0022550D01*
X0016238Y0022641D01*
X0016365Y0022729D01*
X0016495Y0022814D01*
X0016626Y0022895D01*
X0016760Y0022973D01*
X0016895Y0023048D01*
X0017033Y0023119D01*
X0017172Y0023186D01*
X0017313Y0023250D01*
X0017455Y0023310D01*
X0017599Y0023366D01*
X0017744Y0023419D01*
X0017891Y0023468D01*
X0018039Y0023513D01*
X0018188Y0023554D01*
X0018338Y0023591D01*
X0018489Y0023625D01*
X0018641Y0023655D01*
X0018793Y0023680D01*
X0018946Y0023702D01*
X0019100Y0023720D01*
X0019254Y0023734D01*
X0019408Y0023744D01*
X0019562Y0023750D01*
X0019717Y0023752D01*
X0019872Y0023750D01*
X0020026Y0023744D01*
X0020180Y0023734D01*
X0020334Y0023720D01*
X0020488Y0023702D01*
X0020641Y0023680D01*
X0020793Y0023655D01*
X0020945Y0023625D01*
X0021096Y0023591D01*
X0021246Y0023554D01*
X0021395Y0023513D01*
X0021543Y0023468D01*
X0021690Y0023419D01*
X0021835Y0023366D01*
X0021979Y0023310D01*
X0022121Y0023250D01*
X0022262Y0023186D01*
X0022401Y0023119D01*
X0022539Y0023048D01*
X0022674Y0022973D01*
X0022808Y0022895D01*
X0022939Y0022814D01*
X0023069Y0022729D01*
X0023196Y0022641D01*
X0023321Y0022550D01*
X0023443Y0022456D01*
X0023563Y0022358D01*
X0023681Y0022258D01*
X0023795Y0022154D01*
X0023907Y0022048D01*
X0024017Y0021938D01*
X0024123Y0021826D01*
X0024227Y0021712D01*
X0024327Y0021594D01*
X0024425Y0021474D01*
X0024519Y0021352D01*
X0024610Y0021227D01*
X0024698Y0021100D01*
X0024783Y0020970D01*
X0024864Y0020839D01*
X0024942Y0020705D01*
X0025017Y0020570D01*
X0025088Y0020432D01*
X0025155Y0020293D01*
X0025219Y0020152D01*
X0025279Y0020010D01*
X0025335Y0019866D01*
X0025388Y0019721D01*
X0025437Y0019574D01*
X0025482Y0019426D01*
X0025523Y0019277D01*
X0025560Y0019127D01*
X0025594Y0018976D01*
X0025624Y0018824D01*
X0025649Y0018672D01*
X0025671Y0018519D01*
X0025689Y0018365D01*
X0025703Y0018211D01*
X0025713Y0018057D01*
X0025719Y0017903D01*
X0025721Y0017748D01*
X0025719Y0017593D01*
X0025713Y0017439D01*
X0025703Y0017285D01*
X0025689Y0017131D01*
X0025671Y0016977D01*
X0025649Y0016824D01*
X0025624Y0016672D01*
X0025594Y0016520D01*
X0025560Y0016369D01*
X0025523Y0016219D01*
X0025482Y0016070D01*
X0025437Y0015922D01*
X0025388Y0015775D01*
X0025335Y0015630D01*
X0025279Y0015486D01*
X0025219Y0015344D01*
X0025155Y0015203D01*
X0025088Y0015064D01*
X0025017Y0014926D01*
X0024942Y0014791D01*
X0024864Y0014657D01*
X0024783Y0014526D01*
X0024698Y0014396D01*
X0024610Y0014269D01*
X0024519Y0014144D01*
X0024425Y0014022D01*
X0024327Y0013902D01*
X0024227Y0013784D01*
X0024123Y0013670D01*
X0024017Y0013558D01*
X0023907Y0013448D01*
X0023795Y0013342D01*
X0023681Y0013238D01*
X0023563Y0013138D01*
X0023443Y0013040D01*
X0023321Y0012946D01*
X0023196Y0012855D01*
X0023069Y0012767D01*
X0022939Y0012682D01*
X0022808Y0012601D01*
X0022674Y0012523D01*
X0022539Y0012448D01*
X0022401Y0012377D01*
X0022262Y0012310D01*
X0022121Y0012246D01*
X0021979Y0012186D01*
X0021835Y0012130D01*
X0021690Y0012077D01*
X0021543Y0012028D01*
X0021395Y0011983D01*
X0021246Y0011942D01*
X0021096Y0011905D01*
X0020945Y0011871D01*
X0020793Y0011841D01*
X0020641Y0011816D01*
X0020488Y0011794D01*
X0020334Y0011776D01*
X0020180Y0011762D01*
X0020026Y0011752D01*
X0019872Y0011746D01*
X0019717Y0011744D01*
X0019562Y0011746D01*
X0019408Y0011752D01*
X0019254Y0011762D01*
X0019100Y0011776D01*
X0018946Y0011794D01*
X0018793Y0011816D01*
X0018641Y0011841D01*
X0018489Y0011871D01*
X0018338Y0011905D01*
X0018188Y0011942D01*
X0018039Y0011983D01*
X0017891Y0012028D01*
X0017744Y0012077D01*
X0017599Y0012130D01*
X0017455Y0012186D01*
X0017313Y0012246D01*
X0017172Y0012310D01*
X0017033Y0012377D01*
X0016895Y0012448D01*
X0016760Y0012523D01*
X0016626Y0012601D01*
X0016495Y0012682D01*
X0016365Y0012767D01*
X0016238Y0012855D01*
X0016113Y0012946D01*
X0015991Y0013040D01*
X0015871Y0013138D01*
X0015753Y0013238D01*
X0015639Y0013342D01*
X0015527Y0013448D01*
X0015417Y0013558D01*
X0015311Y0013670D01*
X0015207Y0013784D01*
X0015107Y0013902D01*
X0015009Y0014022D01*
X0014915Y0014144D01*
X0014824Y0014269D01*
X0014736Y0014396D01*
X0014651Y0014526D01*
X0014570Y0014657D01*
X0014492Y0014791D01*
X0014417Y0014926D01*
X0014346Y0015064D01*
X0014279Y0015203D01*
X0014215Y0015344D01*
X0014155Y0015486D01*
X0014099Y0015630D01*
X0014046Y0015775D01*
X0013997Y0015922D01*
X0013952Y0016070D01*
X0013911Y0016219D01*
X0013874Y0016369D01*
X0013840Y0016520D01*
X0013810Y0016672D01*
X0013785Y0016824D01*
X0013763Y0016977D01*
X0013745Y0017131D01*
X0013731Y0017285D01*
X0013721Y0017439D01*
X0013715Y0017593D01*
X0013713Y0017748D01*
X0013713Y0137827D02*
X0013715Y0137982D01*
X0013721Y0138136D01*
X0013731Y0138290D01*
X0013745Y0138444D01*
X0013763Y0138598D01*
X0013785Y0138751D01*
X0013810Y0138903D01*
X0013840Y0139055D01*
X0013874Y0139206D01*
X0013911Y0139356D01*
X0013952Y0139505D01*
X0013997Y0139653D01*
X0014046Y0139800D01*
X0014099Y0139945D01*
X0014155Y0140089D01*
X0014215Y0140231D01*
X0014279Y0140372D01*
X0014346Y0140511D01*
X0014417Y0140649D01*
X0014492Y0140784D01*
X0014570Y0140918D01*
X0014651Y0141049D01*
X0014736Y0141179D01*
X0014824Y0141306D01*
X0014915Y0141431D01*
X0015009Y0141553D01*
X0015107Y0141673D01*
X0015207Y0141791D01*
X0015311Y0141905D01*
X0015417Y0142017D01*
X0015527Y0142127D01*
X0015639Y0142233D01*
X0015753Y0142337D01*
X0015871Y0142437D01*
X0015991Y0142535D01*
X0016113Y0142629D01*
X0016238Y0142720D01*
X0016365Y0142808D01*
X0016495Y0142893D01*
X0016626Y0142974D01*
X0016760Y0143052D01*
X0016895Y0143127D01*
X0017033Y0143198D01*
X0017172Y0143265D01*
X0017313Y0143329D01*
X0017455Y0143389D01*
X0017599Y0143445D01*
X0017744Y0143498D01*
X0017891Y0143547D01*
X0018039Y0143592D01*
X0018188Y0143633D01*
X0018338Y0143670D01*
X0018489Y0143704D01*
X0018641Y0143734D01*
X0018793Y0143759D01*
X0018946Y0143781D01*
X0019100Y0143799D01*
X0019254Y0143813D01*
X0019408Y0143823D01*
X0019562Y0143829D01*
X0019717Y0143831D01*
X0019872Y0143829D01*
X0020026Y0143823D01*
X0020180Y0143813D01*
X0020334Y0143799D01*
X0020488Y0143781D01*
X0020641Y0143759D01*
X0020793Y0143734D01*
X0020945Y0143704D01*
X0021096Y0143670D01*
X0021246Y0143633D01*
X0021395Y0143592D01*
X0021543Y0143547D01*
X0021690Y0143498D01*
X0021835Y0143445D01*
X0021979Y0143389D01*
X0022121Y0143329D01*
X0022262Y0143265D01*
X0022401Y0143198D01*
X0022539Y0143127D01*
X0022674Y0143052D01*
X0022808Y0142974D01*
X0022939Y0142893D01*
X0023069Y0142808D01*
X0023196Y0142720D01*
X0023321Y0142629D01*
X0023443Y0142535D01*
X0023563Y0142437D01*
X0023681Y0142337D01*
X0023795Y0142233D01*
X0023907Y0142127D01*
X0024017Y0142017D01*
X0024123Y0141905D01*
X0024227Y0141791D01*
X0024327Y0141673D01*
X0024425Y0141553D01*
X0024519Y0141431D01*
X0024610Y0141306D01*
X0024698Y0141179D01*
X0024783Y0141049D01*
X0024864Y0140918D01*
X0024942Y0140784D01*
X0025017Y0140649D01*
X0025088Y0140511D01*
X0025155Y0140372D01*
X0025219Y0140231D01*
X0025279Y0140089D01*
X0025335Y0139945D01*
X0025388Y0139800D01*
X0025437Y0139653D01*
X0025482Y0139505D01*
X0025523Y0139356D01*
X0025560Y0139206D01*
X0025594Y0139055D01*
X0025624Y0138903D01*
X0025649Y0138751D01*
X0025671Y0138598D01*
X0025689Y0138444D01*
X0025703Y0138290D01*
X0025713Y0138136D01*
X0025719Y0137982D01*
X0025721Y0137827D01*
X0025719Y0137672D01*
X0025713Y0137518D01*
X0025703Y0137364D01*
X0025689Y0137210D01*
X0025671Y0137056D01*
X0025649Y0136903D01*
X0025624Y0136751D01*
X0025594Y0136599D01*
X0025560Y0136448D01*
X0025523Y0136298D01*
X0025482Y0136149D01*
X0025437Y0136001D01*
X0025388Y0135854D01*
X0025335Y0135709D01*
X0025279Y0135565D01*
X0025219Y0135423D01*
X0025155Y0135282D01*
X0025088Y0135143D01*
X0025017Y0135005D01*
X0024942Y0134870D01*
X0024864Y0134736D01*
X0024783Y0134605D01*
X0024698Y0134475D01*
X0024610Y0134348D01*
X0024519Y0134223D01*
X0024425Y0134101D01*
X0024327Y0133981D01*
X0024227Y0133863D01*
X0024123Y0133749D01*
X0024017Y0133637D01*
X0023907Y0133527D01*
X0023795Y0133421D01*
X0023681Y0133317D01*
X0023563Y0133217D01*
X0023443Y0133119D01*
X0023321Y0133025D01*
X0023196Y0132934D01*
X0023069Y0132846D01*
X0022939Y0132761D01*
X0022808Y0132680D01*
X0022674Y0132602D01*
X0022539Y0132527D01*
X0022401Y0132456D01*
X0022262Y0132389D01*
X0022121Y0132325D01*
X0021979Y0132265D01*
X0021835Y0132209D01*
X0021690Y0132156D01*
X0021543Y0132107D01*
X0021395Y0132062D01*
X0021246Y0132021D01*
X0021096Y0131984D01*
X0020945Y0131950D01*
X0020793Y0131920D01*
X0020641Y0131895D01*
X0020488Y0131873D01*
X0020334Y0131855D01*
X0020180Y0131841D01*
X0020026Y0131831D01*
X0019872Y0131825D01*
X0019717Y0131823D01*
X0019562Y0131825D01*
X0019408Y0131831D01*
X0019254Y0131841D01*
X0019100Y0131855D01*
X0018946Y0131873D01*
X0018793Y0131895D01*
X0018641Y0131920D01*
X0018489Y0131950D01*
X0018338Y0131984D01*
X0018188Y0132021D01*
X0018039Y0132062D01*
X0017891Y0132107D01*
X0017744Y0132156D01*
X0017599Y0132209D01*
X0017455Y0132265D01*
X0017313Y0132325D01*
X0017172Y0132389D01*
X0017033Y0132456D01*
X0016895Y0132527D01*
X0016760Y0132602D01*
X0016626Y0132680D01*
X0016495Y0132761D01*
X0016365Y0132846D01*
X0016238Y0132934D01*
X0016113Y0133025D01*
X0015991Y0133119D01*
X0015871Y0133217D01*
X0015753Y0133317D01*
X0015639Y0133421D01*
X0015527Y0133527D01*
X0015417Y0133637D01*
X0015311Y0133749D01*
X0015207Y0133863D01*
X0015107Y0133981D01*
X0015009Y0134101D01*
X0014915Y0134223D01*
X0014824Y0134348D01*
X0014736Y0134475D01*
X0014651Y0134605D01*
X0014570Y0134736D01*
X0014492Y0134870D01*
X0014417Y0135005D01*
X0014346Y0135143D01*
X0014279Y0135282D01*
X0014215Y0135423D01*
X0014155Y0135565D01*
X0014099Y0135709D01*
X0014046Y0135854D01*
X0013997Y0136001D01*
X0013952Y0136149D01*
X0013911Y0136298D01*
X0013874Y0136448D01*
X0013840Y0136599D01*
X0013810Y0136751D01*
X0013785Y0136903D01*
X0013763Y0137056D01*
X0013745Y0137210D01*
X0013731Y0137364D01*
X0013721Y0137518D01*
X0013715Y0137672D01*
X0013713Y0137827D01*
X0011744Y0200819D02*
X0011746Y0200974D01*
X0011752Y0201128D01*
X0011762Y0201282D01*
X0011776Y0201436D01*
X0011794Y0201590D01*
X0011816Y0201743D01*
X0011841Y0201895D01*
X0011871Y0202047D01*
X0011905Y0202198D01*
X0011942Y0202348D01*
X0011983Y0202497D01*
X0012028Y0202645D01*
X0012077Y0202792D01*
X0012130Y0202937D01*
X0012186Y0203081D01*
X0012246Y0203223D01*
X0012310Y0203364D01*
X0012377Y0203503D01*
X0012448Y0203641D01*
X0012523Y0203776D01*
X0012601Y0203910D01*
X0012682Y0204041D01*
X0012767Y0204171D01*
X0012855Y0204298D01*
X0012946Y0204423D01*
X0013040Y0204545D01*
X0013138Y0204665D01*
X0013238Y0204783D01*
X0013342Y0204897D01*
X0013448Y0205009D01*
X0013558Y0205119D01*
X0013670Y0205225D01*
X0013784Y0205329D01*
X0013902Y0205429D01*
X0014022Y0205527D01*
X0014144Y0205621D01*
X0014269Y0205712D01*
X0014396Y0205800D01*
X0014526Y0205885D01*
X0014657Y0205966D01*
X0014791Y0206044D01*
X0014926Y0206119D01*
X0015064Y0206190D01*
X0015203Y0206257D01*
X0015344Y0206321D01*
X0015486Y0206381D01*
X0015630Y0206437D01*
X0015775Y0206490D01*
X0015922Y0206539D01*
X0016070Y0206584D01*
X0016219Y0206625D01*
X0016369Y0206662D01*
X0016520Y0206696D01*
X0016672Y0206726D01*
X0016824Y0206751D01*
X0016977Y0206773D01*
X0017131Y0206791D01*
X0017285Y0206805D01*
X0017439Y0206815D01*
X0017593Y0206821D01*
X0017748Y0206823D01*
X0017903Y0206821D01*
X0018057Y0206815D01*
X0018211Y0206805D01*
X0018365Y0206791D01*
X0018519Y0206773D01*
X0018672Y0206751D01*
X0018824Y0206726D01*
X0018976Y0206696D01*
X0019127Y0206662D01*
X0019277Y0206625D01*
X0019426Y0206584D01*
X0019574Y0206539D01*
X0019721Y0206490D01*
X0019866Y0206437D01*
X0020010Y0206381D01*
X0020152Y0206321D01*
X0020293Y0206257D01*
X0020432Y0206190D01*
X0020570Y0206119D01*
X0020705Y0206044D01*
X0020839Y0205966D01*
X0020970Y0205885D01*
X0021100Y0205800D01*
X0021227Y0205712D01*
X0021352Y0205621D01*
X0021474Y0205527D01*
X0021594Y0205429D01*
X0021712Y0205329D01*
X0021826Y0205225D01*
X0021938Y0205119D01*
X0022048Y0205009D01*
X0022154Y0204897D01*
X0022258Y0204783D01*
X0022358Y0204665D01*
X0022456Y0204545D01*
X0022550Y0204423D01*
X0022641Y0204298D01*
X0022729Y0204171D01*
X0022814Y0204041D01*
X0022895Y0203910D01*
X0022973Y0203776D01*
X0023048Y0203641D01*
X0023119Y0203503D01*
X0023186Y0203364D01*
X0023250Y0203223D01*
X0023310Y0203081D01*
X0023366Y0202937D01*
X0023419Y0202792D01*
X0023468Y0202645D01*
X0023513Y0202497D01*
X0023554Y0202348D01*
X0023591Y0202198D01*
X0023625Y0202047D01*
X0023655Y0201895D01*
X0023680Y0201743D01*
X0023702Y0201590D01*
X0023720Y0201436D01*
X0023734Y0201282D01*
X0023744Y0201128D01*
X0023750Y0200974D01*
X0023752Y0200819D01*
X0023750Y0200664D01*
X0023744Y0200510D01*
X0023734Y0200356D01*
X0023720Y0200202D01*
X0023702Y0200048D01*
X0023680Y0199895D01*
X0023655Y0199743D01*
X0023625Y0199591D01*
X0023591Y0199440D01*
X0023554Y0199290D01*
X0023513Y0199141D01*
X0023468Y0198993D01*
X0023419Y0198846D01*
X0023366Y0198701D01*
X0023310Y0198557D01*
X0023250Y0198415D01*
X0023186Y0198274D01*
X0023119Y0198135D01*
X0023048Y0197997D01*
X0022973Y0197862D01*
X0022895Y0197728D01*
X0022814Y0197597D01*
X0022729Y0197467D01*
X0022641Y0197340D01*
X0022550Y0197215D01*
X0022456Y0197093D01*
X0022358Y0196973D01*
X0022258Y0196855D01*
X0022154Y0196741D01*
X0022048Y0196629D01*
X0021938Y0196519D01*
X0021826Y0196413D01*
X0021712Y0196309D01*
X0021594Y0196209D01*
X0021474Y0196111D01*
X0021352Y0196017D01*
X0021227Y0195926D01*
X0021100Y0195838D01*
X0020970Y0195753D01*
X0020839Y0195672D01*
X0020705Y0195594D01*
X0020570Y0195519D01*
X0020432Y0195448D01*
X0020293Y0195381D01*
X0020152Y0195317D01*
X0020010Y0195257D01*
X0019866Y0195201D01*
X0019721Y0195148D01*
X0019574Y0195099D01*
X0019426Y0195054D01*
X0019277Y0195013D01*
X0019127Y0194976D01*
X0018976Y0194942D01*
X0018824Y0194912D01*
X0018672Y0194887D01*
X0018519Y0194865D01*
X0018365Y0194847D01*
X0018211Y0194833D01*
X0018057Y0194823D01*
X0017903Y0194817D01*
X0017748Y0194815D01*
X0017593Y0194817D01*
X0017439Y0194823D01*
X0017285Y0194833D01*
X0017131Y0194847D01*
X0016977Y0194865D01*
X0016824Y0194887D01*
X0016672Y0194912D01*
X0016520Y0194942D01*
X0016369Y0194976D01*
X0016219Y0195013D01*
X0016070Y0195054D01*
X0015922Y0195099D01*
X0015775Y0195148D01*
X0015630Y0195201D01*
X0015486Y0195257D01*
X0015344Y0195317D01*
X0015203Y0195381D01*
X0015064Y0195448D01*
X0014926Y0195519D01*
X0014791Y0195594D01*
X0014657Y0195672D01*
X0014526Y0195753D01*
X0014396Y0195838D01*
X0014269Y0195926D01*
X0014144Y0196017D01*
X0014022Y0196111D01*
X0013902Y0196209D01*
X0013784Y0196309D01*
X0013670Y0196413D01*
X0013558Y0196519D01*
X0013448Y0196629D01*
X0013342Y0196741D01*
X0013238Y0196855D01*
X0013138Y0196973D01*
X0013040Y0197093D01*
X0012946Y0197215D01*
X0012855Y0197340D01*
X0012767Y0197467D01*
X0012682Y0197597D01*
X0012601Y0197728D01*
X0012523Y0197862D01*
X0012448Y0197997D01*
X0012377Y0198135D01*
X0012310Y0198274D01*
X0012246Y0198415D01*
X0012186Y0198557D01*
X0012130Y0198701D01*
X0012077Y0198846D01*
X0012028Y0198993D01*
X0011983Y0199141D01*
X0011942Y0199290D01*
X0011905Y0199440D01*
X0011871Y0199591D01*
X0011841Y0199743D01*
X0011816Y0199895D01*
X0011794Y0200048D01*
X0011776Y0200202D01*
X0011762Y0200356D01*
X0011752Y0200510D01*
X0011746Y0200664D01*
X0011744Y0200819D01*
X0011744Y0320898D02*
X0011746Y0321053D01*
X0011752Y0321207D01*
X0011762Y0321361D01*
X0011776Y0321515D01*
X0011794Y0321669D01*
X0011816Y0321822D01*
X0011841Y0321974D01*
X0011871Y0322126D01*
X0011905Y0322277D01*
X0011942Y0322427D01*
X0011983Y0322576D01*
X0012028Y0322724D01*
X0012077Y0322871D01*
X0012130Y0323016D01*
X0012186Y0323160D01*
X0012246Y0323302D01*
X0012310Y0323443D01*
X0012377Y0323582D01*
X0012448Y0323720D01*
X0012523Y0323855D01*
X0012601Y0323989D01*
X0012682Y0324120D01*
X0012767Y0324250D01*
X0012855Y0324377D01*
X0012946Y0324502D01*
X0013040Y0324624D01*
X0013138Y0324744D01*
X0013238Y0324862D01*
X0013342Y0324976D01*
X0013448Y0325088D01*
X0013558Y0325198D01*
X0013670Y0325304D01*
X0013784Y0325408D01*
X0013902Y0325508D01*
X0014022Y0325606D01*
X0014144Y0325700D01*
X0014269Y0325791D01*
X0014396Y0325879D01*
X0014526Y0325964D01*
X0014657Y0326045D01*
X0014791Y0326123D01*
X0014926Y0326198D01*
X0015064Y0326269D01*
X0015203Y0326336D01*
X0015344Y0326400D01*
X0015486Y0326460D01*
X0015630Y0326516D01*
X0015775Y0326569D01*
X0015922Y0326618D01*
X0016070Y0326663D01*
X0016219Y0326704D01*
X0016369Y0326741D01*
X0016520Y0326775D01*
X0016672Y0326805D01*
X0016824Y0326830D01*
X0016977Y0326852D01*
X0017131Y0326870D01*
X0017285Y0326884D01*
X0017439Y0326894D01*
X0017593Y0326900D01*
X0017748Y0326902D01*
X0017903Y0326900D01*
X0018057Y0326894D01*
X0018211Y0326884D01*
X0018365Y0326870D01*
X0018519Y0326852D01*
X0018672Y0326830D01*
X0018824Y0326805D01*
X0018976Y0326775D01*
X0019127Y0326741D01*
X0019277Y0326704D01*
X0019426Y0326663D01*
X0019574Y0326618D01*
X0019721Y0326569D01*
X0019866Y0326516D01*
X0020010Y0326460D01*
X0020152Y0326400D01*
X0020293Y0326336D01*
X0020432Y0326269D01*
X0020570Y0326198D01*
X0020705Y0326123D01*
X0020839Y0326045D01*
X0020970Y0325964D01*
X0021100Y0325879D01*
X0021227Y0325791D01*
X0021352Y0325700D01*
X0021474Y0325606D01*
X0021594Y0325508D01*
X0021712Y0325408D01*
X0021826Y0325304D01*
X0021938Y0325198D01*
X0022048Y0325088D01*
X0022154Y0324976D01*
X0022258Y0324862D01*
X0022358Y0324744D01*
X0022456Y0324624D01*
X0022550Y0324502D01*
X0022641Y0324377D01*
X0022729Y0324250D01*
X0022814Y0324120D01*
X0022895Y0323989D01*
X0022973Y0323855D01*
X0023048Y0323720D01*
X0023119Y0323582D01*
X0023186Y0323443D01*
X0023250Y0323302D01*
X0023310Y0323160D01*
X0023366Y0323016D01*
X0023419Y0322871D01*
X0023468Y0322724D01*
X0023513Y0322576D01*
X0023554Y0322427D01*
X0023591Y0322277D01*
X0023625Y0322126D01*
X0023655Y0321974D01*
X0023680Y0321822D01*
X0023702Y0321669D01*
X0023720Y0321515D01*
X0023734Y0321361D01*
X0023744Y0321207D01*
X0023750Y0321053D01*
X0023752Y0320898D01*
X0023750Y0320743D01*
X0023744Y0320589D01*
X0023734Y0320435D01*
X0023720Y0320281D01*
X0023702Y0320127D01*
X0023680Y0319974D01*
X0023655Y0319822D01*
X0023625Y0319670D01*
X0023591Y0319519D01*
X0023554Y0319369D01*
X0023513Y0319220D01*
X0023468Y0319072D01*
X0023419Y0318925D01*
X0023366Y0318780D01*
X0023310Y0318636D01*
X0023250Y0318494D01*
X0023186Y0318353D01*
X0023119Y0318214D01*
X0023048Y0318076D01*
X0022973Y0317941D01*
X0022895Y0317807D01*
X0022814Y0317676D01*
X0022729Y0317546D01*
X0022641Y0317419D01*
X0022550Y0317294D01*
X0022456Y0317172D01*
X0022358Y0317052D01*
X0022258Y0316934D01*
X0022154Y0316820D01*
X0022048Y0316708D01*
X0021938Y0316598D01*
X0021826Y0316492D01*
X0021712Y0316388D01*
X0021594Y0316288D01*
X0021474Y0316190D01*
X0021352Y0316096D01*
X0021227Y0316005D01*
X0021100Y0315917D01*
X0020970Y0315832D01*
X0020839Y0315751D01*
X0020705Y0315673D01*
X0020570Y0315598D01*
X0020432Y0315527D01*
X0020293Y0315460D01*
X0020152Y0315396D01*
X0020010Y0315336D01*
X0019866Y0315280D01*
X0019721Y0315227D01*
X0019574Y0315178D01*
X0019426Y0315133D01*
X0019277Y0315092D01*
X0019127Y0315055D01*
X0018976Y0315021D01*
X0018824Y0314991D01*
X0018672Y0314966D01*
X0018519Y0314944D01*
X0018365Y0314926D01*
X0018211Y0314912D01*
X0018057Y0314902D01*
X0017903Y0314896D01*
X0017748Y0314894D01*
X0017593Y0314896D01*
X0017439Y0314902D01*
X0017285Y0314912D01*
X0017131Y0314926D01*
X0016977Y0314944D01*
X0016824Y0314966D01*
X0016672Y0314991D01*
X0016520Y0315021D01*
X0016369Y0315055D01*
X0016219Y0315092D01*
X0016070Y0315133D01*
X0015922Y0315178D01*
X0015775Y0315227D01*
X0015630Y0315280D01*
X0015486Y0315336D01*
X0015344Y0315396D01*
X0015203Y0315460D01*
X0015064Y0315527D01*
X0014926Y0315598D01*
X0014791Y0315673D01*
X0014657Y0315751D01*
X0014526Y0315832D01*
X0014396Y0315917D01*
X0014269Y0316005D01*
X0014144Y0316096D01*
X0014022Y0316190D01*
X0013902Y0316288D01*
X0013784Y0316388D01*
X0013670Y0316492D01*
X0013558Y0316598D01*
X0013448Y0316708D01*
X0013342Y0316820D01*
X0013238Y0316934D01*
X0013138Y0317052D01*
X0013040Y0317172D01*
X0012946Y0317294D01*
X0012855Y0317419D01*
X0012767Y0317546D01*
X0012682Y0317676D01*
X0012601Y0317807D01*
X0012523Y0317941D01*
X0012448Y0318076D01*
X0012377Y0318214D01*
X0012310Y0318353D01*
X0012246Y0318494D01*
X0012186Y0318636D01*
X0012130Y0318780D01*
X0012077Y0318925D01*
X0012028Y0319072D01*
X0011983Y0319220D01*
X0011942Y0319369D01*
X0011905Y0319519D01*
X0011871Y0319670D01*
X0011841Y0319822D01*
X0011816Y0319974D01*
X0011794Y0320127D01*
X0011776Y0320281D01*
X0011762Y0320435D01*
X0011752Y0320589D01*
X0011746Y0320743D01*
X0011744Y0320898D01*
X0273059Y0284780D02*
X0273061Y0284941D01*
X0273067Y0285101D01*
X0273077Y0285262D01*
X0273091Y0285422D01*
X0273109Y0285582D01*
X0273130Y0285741D01*
X0273156Y0285900D01*
X0273186Y0286058D01*
X0273219Y0286215D01*
X0273257Y0286372D01*
X0273298Y0286527D01*
X0273343Y0286681D01*
X0273392Y0286834D01*
X0273445Y0286986D01*
X0273501Y0287137D01*
X0273562Y0287286D01*
X0273625Y0287434D01*
X0273693Y0287580D01*
X0273764Y0287724D01*
X0273838Y0287866D01*
X0273916Y0288007D01*
X0273998Y0288145D01*
X0274083Y0288282D01*
X0274171Y0288416D01*
X0274263Y0288548D01*
X0274358Y0288678D01*
X0274456Y0288806D01*
X0274557Y0288931D01*
X0274661Y0289053D01*
X0274768Y0289173D01*
X0274878Y0289290D01*
X0274991Y0289405D01*
X0275107Y0289516D01*
X0275226Y0289625D01*
X0275347Y0289730D01*
X0275471Y0289833D01*
X0275597Y0289933D01*
X0275725Y0290029D01*
X0275856Y0290122D01*
X0275990Y0290212D01*
X0276125Y0290299D01*
X0276263Y0290382D01*
X0276402Y0290462D01*
X0276544Y0290538D01*
X0276687Y0290611D01*
X0276832Y0290680D01*
X0276979Y0290746D01*
X0277127Y0290808D01*
X0277277Y0290866D01*
X0277428Y0290921D01*
X0277581Y0290972D01*
X0277735Y0291019D01*
X0277890Y0291062D01*
X0278046Y0291101D01*
X0278202Y0291137D01*
X0278360Y0291168D01*
X0278518Y0291196D01*
X0278677Y0291220D01*
X0278837Y0291240D01*
X0278997Y0291256D01*
X0279157Y0291268D01*
X0279318Y0291276D01*
X0279479Y0291280D01*
X0279639Y0291280D01*
X0279800Y0291276D01*
X0279961Y0291268D01*
X0280121Y0291256D01*
X0280281Y0291240D01*
X0280441Y0291220D01*
X0280600Y0291196D01*
X0280758Y0291168D01*
X0280916Y0291137D01*
X0281072Y0291101D01*
X0281228Y0291062D01*
X0281383Y0291019D01*
X0281537Y0290972D01*
X0281690Y0290921D01*
X0281841Y0290866D01*
X0281991Y0290808D01*
X0282139Y0290746D01*
X0282286Y0290680D01*
X0282431Y0290611D01*
X0282574Y0290538D01*
X0282716Y0290462D01*
X0282855Y0290382D01*
X0282993Y0290299D01*
X0283128Y0290212D01*
X0283262Y0290122D01*
X0283393Y0290029D01*
X0283521Y0289933D01*
X0283647Y0289833D01*
X0283771Y0289730D01*
X0283892Y0289625D01*
X0284011Y0289516D01*
X0284127Y0289405D01*
X0284240Y0289290D01*
X0284350Y0289173D01*
X0284457Y0289053D01*
X0284561Y0288931D01*
X0284662Y0288806D01*
X0284760Y0288678D01*
X0284855Y0288548D01*
X0284947Y0288416D01*
X0285035Y0288282D01*
X0285120Y0288145D01*
X0285202Y0288007D01*
X0285280Y0287866D01*
X0285354Y0287724D01*
X0285425Y0287580D01*
X0285493Y0287434D01*
X0285556Y0287286D01*
X0285617Y0287137D01*
X0285673Y0286986D01*
X0285726Y0286834D01*
X0285775Y0286681D01*
X0285820Y0286527D01*
X0285861Y0286372D01*
X0285899Y0286215D01*
X0285932Y0286058D01*
X0285962Y0285900D01*
X0285988Y0285741D01*
X0286009Y0285582D01*
X0286027Y0285422D01*
X0286041Y0285262D01*
X0286051Y0285101D01*
X0286057Y0284941D01*
X0286059Y0284780D01*
X0286057Y0284619D01*
X0286051Y0284459D01*
X0286041Y0284298D01*
X0286027Y0284138D01*
X0286009Y0283978D01*
X0285988Y0283819D01*
X0285962Y0283660D01*
X0285932Y0283502D01*
X0285899Y0283345D01*
X0285861Y0283188D01*
X0285820Y0283033D01*
X0285775Y0282879D01*
X0285726Y0282726D01*
X0285673Y0282574D01*
X0285617Y0282423D01*
X0285556Y0282274D01*
X0285493Y0282126D01*
X0285425Y0281980D01*
X0285354Y0281836D01*
X0285280Y0281694D01*
X0285202Y0281553D01*
X0285120Y0281415D01*
X0285035Y0281278D01*
X0284947Y0281144D01*
X0284855Y0281012D01*
X0284760Y0280882D01*
X0284662Y0280754D01*
X0284561Y0280629D01*
X0284457Y0280507D01*
X0284350Y0280387D01*
X0284240Y0280270D01*
X0284127Y0280155D01*
X0284011Y0280044D01*
X0283892Y0279935D01*
X0283771Y0279830D01*
X0283647Y0279727D01*
X0283521Y0279627D01*
X0283393Y0279531D01*
X0283262Y0279438D01*
X0283128Y0279348D01*
X0282993Y0279261D01*
X0282855Y0279178D01*
X0282716Y0279098D01*
X0282574Y0279022D01*
X0282431Y0278949D01*
X0282286Y0278880D01*
X0282139Y0278814D01*
X0281991Y0278752D01*
X0281841Y0278694D01*
X0281690Y0278639D01*
X0281537Y0278588D01*
X0281383Y0278541D01*
X0281228Y0278498D01*
X0281072Y0278459D01*
X0280916Y0278423D01*
X0280758Y0278392D01*
X0280600Y0278364D01*
X0280441Y0278340D01*
X0280281Y0278320D01*
X0280121Y0278304D01*
X0279961Y0278292D01*
X0279800Y0278284D01*
X0279639Y0278280D01*
X0279479Y0278280D01*
X0279318Y0278284D01*
X0279157Y0278292D01*
X0278997Y0278304D01*
X0278837Y0278320D01*
X0278677Y0278340D01*
X0278518Y0278364D01*
X0278360Y0278392D01*
X0278202Y0278423D01*
X0278046Y0278459D01*
X0277890Y0278498D01*
X0277735Y0278541D01*
X0277581Y0278588D01*
X0277428Y0278639D01*
X0277277Y0278694D01*
X0277127Y0278752D01*
X0276979Y0278814D01*
X0276832Y0278880D01*
X0276687Y0278949D01*
X0276544Y0279022D01*
X0276402Y0279098D01*
X0276263Y0279178D01*
X0276125Y0279261D01*
X0275990Y0279348D01*
X0275856Y0279438D01*
X0275725Y0279531D01*
X0275597Y0279627D01*
X0275471Y0279727D01*
X0275347Y0279830D01*
X0275226Y0279935D01*
X0275107Y0280044D01*
X0274991Y0280155D01*
X0274878Y0280270D01*
X0274768Y0280387D01*
X0274661Y0280507D01*
X0274557Y0280629D01*
X0274456Y0280754D01*
X0274358Y0280882D01*
X0274263Y0281012D01*
X0274171Y0281144D01*
X0274083Y0281278D01*
X0273998Y0281415D01*
X0273916Y0281553D01*
X0273838Y0281694D01*
X0273764Y0281836D01*
X0273693Y0281980D01*
X0273625Y0282126D01*
X0273562Y0282274D01*
X0273501Y0282423D01*
X0273445Y0282574D01*
X0273392Y0282726D01*
X0273343Y0282879D01*
X0273298Y0283033D01*
X0273257Y0283188D01*
X0273219Y0283345D01*
X0273186Y0283502D01*
X0273156Y0283660D01*
X0273130Y0283819D01*
X0273109Y0283978D01*
X0273091Y0284138D01*
X0273077Y0284298D01*
X0273067Y0284459D01*
X0273061Y0284619D01*
X0273059Y0284780D01*
X0293240Y0320898D02*
X0293242Y0321053D01*
X0293248Y0321207D01*
X0293258Y0321361D01*
X0293272Y0321515D01*
X0293290Y0321669D01*
X0293312Y0321822D01*
X0293337Y0321974D01*
X0293367Y0322126D01*
X0293401Y0322277D01*
X0293438Y0322427D01*
X0293479Y0322576D01*
X0293524Y0322724D01*
X0293573Y0322871D01*
X0293626Y0323016D01*
X0293682Y0323160D01*
X0293742Y0323302D01*
X0293806Y0323443D01*
X0293873Y0323582D01*
X0293944Y0323720D01*
X0294019Y0323855D01*
X0294097Y0323989D01*
X0294178Y0324120D01*
X0294263Y0324250D01*
X0294351Y0324377D01*
X0294442Y0324502D01*
X0294536Y0324624D01*
X0294634Y0324744D01*
X0294734Y0324862D01*
X0294838Y0324976D01*
X0294944Y0325088D01*
X0295054Y0325198D01*
X0295166Y0325304D01*
X0295280Y0325408D01*
X0295398Y0325508D01*
X0295518Y0325606D01*
X0295640Y0325700D01*
X0295765Y0325791D01*
X0295892Y0325879D01*
X0296022Y0325964D01*
X0296153Y0326045D01*
X0296287Y0326123D01*
X0296422Y0326198D01*
X0296560Y0326269D01*
X0296699Y0326336D01*
X0296840Y0326400D01*
X0296982Y0326460D01*
X0297126Y0326516D01*
X0297271Y0326569D01*
X0297418Y0326618D01*
X0297566Y0326663D01*
X0297715Y0326704D01*
X0297865Y0326741D01*
X0298016Y0326775D01*
X0298168Y0326805D01*
X0298320Y0326830D01*
X0298473Y0326852D01*
X0298627Y0326870D01*
X0298781Y0326884D01*
X0298935Y0326894D01*
X0299089Y0326900D01*
X0299244Y0326902D01*
X0299399Y0326900D01*
X0299553Y0326894D01*
X0299707Y0326884D01*
X0299861Y0326870D01*
X0300015Y0326852D01*
X0300168Y0326830D01*
X0300320Y0326805D01*
X0300472Y0326775D01*
X0300623Y0326741D01*
X0300773Y0326704D01*
X0300922Y0326663D01*
X0301070Y0326618D01*
X0301217Y0326569D01*
X0301362Y0326516D01*
X0301506Y0326460D01*
X0301648Y0326400D01*
X0301789Y0326336D01*
X0301928Y0326269D01*
X0302066Y0326198D01*
X0302201Y0326123D01*
X0302335Y0326045D01*
X0302466Y0325964D01*
X0302596Y0325879D01*
X0302723Y0325791D01*
X0302848Y0325700D01*
X0302970Y0325606D01*
X0303090Y0325508D01*
X0303208Y0325408D01*
X0303322Y0325304D01*
X0303434Y0325198D01*
X0303544Y0325088D01*
X0303650Y0324976D01*
X0303754Y0324862D01*
X0303854Y0324744D01*
X0303952Y0324624D01*
X0304046Y0324502D01*
X0304137Y0324377D01*
X0304225Y0324250D01*
X0304310Y0324120D01*
X0304391Y0323989D01*
X0304469Y0323855D01*
X0304544Y0323720D01*
X0304615Y0323582D01*
X0304682Y0323443D01*
X0304746Y0323302D01*
X0304806Y0323160D01*
X0304862Y0323016D01*
X0304915Y0322871D01*
X0304964Y0322724D01*
X0305009Y0322576D01*
X0305050Y0322427D01*
X0305087Y0322277D01*
X0305121Y0322126D01*
X0305151Y0321974D01*
X0305176Y0321822D01*
X0305198Y0321669D01*
X0305216Y0321515D01*
X0305230Y0321361D01*
X0305240Y0321207D01*
X0305246Y0321053D01*
X0305248Y0320898D01*
X0305246Y0320743D01*
X0305240Y0320589D01*
X0305230Y0320435D01*
X0305216Y0320281D01*
X0305198Y0320127D01*
X0305176Y0319974D01*
X0305151Y0319822D01*
X0305121Y0319670D01*
X0305087Y0319519D01*
X0305050Y0319369D01*
X0305009Y0319220D01*
X0304964Y0319072D01*
X0304915Y0318925D01*
X0304862Y0318780D01*
X0304806Y0318636D01*
X0304746Y0318494D01*
X0304682Y0318353D01*
X0304615Y0318214D01*
X0304544Y0318076D01*
X0304469Y0317941D01*
X0304391Y0317807D01*
X0304310Y0317676D01*
X0304225Y0317546D01*
X0304137Y0317419D01*
X0304046Y0317294D01*
X0303952Y0317172D01*
X0303854Y0317052D01*
X0303754Y0316934D01*
X0303650Y0316820D01*
X0303544Y0316708D01*
X0303434Y0316598D01*
X0303322Y0316492D01*
X0303208Y0316388D01*
X0303090Y0316288D01*
X0302970Y0316190D01*
X0302848Y0316096D01*
X0302723Y0316005D01*
X0302596Y0315917D01*
X0302466Y0315832D01*
X0302335Y0315751D01*
X0302201Y0315673D01*
X0302066Y0315598D01*
X0301928Y0315527D01*
X0301789Y0315460D01*
X0301648Y0315396D01*
X0301506Y0315336D01*
X0301362Y0315280D01*
X0301217Y0315227D01*
X0301070Y0315178D01*
X0300922Y0315133D01*
X0300773Y0315092D01*
X0300623Y0315055D01*
X0300472Y0315021D01*
X0300320Y0314991D01*
X0300168Y0314966D01*
X0300015Y0314944D01*
X0299861Y0314926D01*
X0299707Y0314912D01*
X0299553Y0314902D01*
X0299399Y0314896D01*
X0299244Y0314894D01*
X0299089Y0314896D01*
X0298935Y0314902D01*
X0298781Y0314912D01*
X0298627Y0314926D01*
X0298473Y0314944D01*
X0298320Y0314966D01*
X0298168Y0314991D01*
X0298016Y0315021D01*
X0297865Y0315055D01*
X0297715Y0315092D01*
X0297566Y0315133D01*
X0297418Y0315178D01*
X0297271Y0315227D01*
X0297126Y0315280D01*
X0296982Y0315336D01*
X0296840Y0315396D01*
X0296699Y0315460D01*
X0296560Y0315527D01*
X0296422Y0315598D01*
X0296287Y0315673D01*
X0296153Y0315751D01*
X0296022Y0315832D01*
X0295892Y0315917D01*
X0295765Y0316005D01*
X0295640Y0316096D01*
X0295518Y0316190D01*
X0295398Y0316288D01*
X0295280Y0316388D01*
X0295166Y0316492D01*
X0295054Y0316598D01*
X0294944Y0316708D01*
X0294838Y0316820D01*
X0294734Y0316934D01*
X0294634Y0317052D01*
X0294536Y0317172D01*
X0294442Y0317294D01*
X0294351Y0317419D01*
X0294263Y0317546D01*
X0294178Y0317676D01*
X0294097Y0317807D01*
X0294019Y0317941D01*
X0293944Y0318076D01*
X0293873Y0318214D01*
X0293806Y0318353D01*
X0293742Y0318494D01*
X0293682Y0318636D01*
X0293626Y0318780D01*
X0293573Y0318925D01*
X0293524Y0319072D01*
X0293479Y0319220D01*
X0293438Y0319369D01*
X0293401Y0319519D01*
X0293367Y0319670D01*
X0293337Y0319822D01*
X0293312Y0319974D01*
X0293290Y0320127D01*
X0293272Y0320281D01*
X0293258Y0320435D01*
X0293248Y0320589D01*
X0293242Y0320743D01*
X0293240Y0320898D01*
D13*
X0276449Y0317992D02*
X0276449Y0311992D01*
X0266449Y0311992D02*
X0266449Y0317992D01*
X0256449Y0317992D02*
X0256449Y0311992D01*
X0246449Y0311992D02*
X0246449Y0317992D01*
X0236449Y0317992D02*
X0236449Y0311992D01*
X0226449Y0311992D02*
X0226449Y0317992D01*
X0216449Y0317992D02*
X0216449Y0311992D01*
X0206449Y0311992D02*
X0206449Y0317992D01*
X0196449Y0317992D02*
X0196449Y0311992D01*
X0186449Y0311992D02*
X0186449Y0317992D01*
X0176449Y0317992D02*
X0176449Y0311992D01*
X0166449Y0311992D02*
X0166449Y0317992D01*
X0156449Y0317992D02*
X0156449Y0311992D01*
X0146449Y0311992D02*
X0146449Y0317992D01*
X0136449Y0317992D02*
X0136449Y0311992D01*
X0126449Y0311992D02*
X0126449Y0317992D01*
X0116449Y0317992D02*
X0116449Y0311992D01*
X0106449Y0311992D02*
X0106449Y0317992D01*
X0096449Y0317992D02*
X0096449Y0311992D01*
X0086449Y0311992D02*
X0086449Y0317992D01*
X0076449Y0317992D02*
X0076449Y0311992D01*
X0066449Y0311992D02*
X0066449Y0317992D01*
X0056449Y0317992D02*
X0056449Y0311992D01*
X0046449Y0311992D02*
X0046449Y0317992D01*
X0108417Y0286496D02*
X0108417Y0280496D01*
X0118417Y0280496D02*
X0118417Y0286496D01*
X0128417Y0286496D02*
X0128417Y0280496D01*
X0138417Y0280496D02*
X0138417Y0286496D01*
X0148417Y0286496D02*
X0148417Y0280496D01*
X0158417Y0280496D02*
X0158417Y0286496D01*
X0168417Y0286496D02*
X0168417Y0280496D01*
X0178417Y0280496D02*
X0178417Y0286496D01*
X0188417Y0286496D02*
X0188417Y0280496D01*
X0198417Y0280496D02*
X0198417Y0286496D01*
X0208417Y0286496D02*
X0208417Y0280496D01*
X0218417Y0280496D02*
X0218417Y0286496D01*
X0218732Y0205787D02*
X0218732Y0199787D01*
X0208732Y0199787D02*
X0208732Y0205787D01*
X0198732Y0205787D02*
X0198732Y0199787D01*
X0188732Y0199787D02*
X0188732Y0205787D01*
X0178732Y0205787D02*
X0178732Y0199787D01*
X0168732Y0199787D02*
X0168732Y0205787D01*
X0158732Y0205787D02*
X0158732Y0199787D01*
X0148732Y0199787D02*
X0148732Y0205787D01*
X0138732Y0205787D02*
X0138732Y0199787D01*
X0128732Y0199787D02*
X0128732Y0205787D01*
X0118732Y0205787D02*
X0118732Y0199787D01*
X0108732Y0199787D02*
X0108732Y0205787D01*
X0098732Y0205787D02*
X0098732Y0199787D01*
X0088732Y0199787D02*
X0088732Y0205787D01*
X0078732Y0205787D02*
X0078732Y0199787D01*
X0068732Y0199787D02*
X0068732Y0205787D01*
X0066449Y0140827D02*
X0066449Y0134827D01*
X0056449Y0134827D02*
X0056449Y0140827D01*
X0046449Y0140827D02*
X0046449Y0134827D01*
X0076449Y0134827D02*
X0076449Y0140827D01*
X0086449Y0140827D02*
X0086449Y0134827D01*
X0096449Y0134827D02*
X0096449Y0140827D01*
X0106449Y0140827D02*
X0106449Y0134827D01*
X0116449Y0134827D02*
X0116449Y0140827D01*
X0126449Y0140827D02*
X0126449Y0134827D01*
X0136449Y0134827D02*
X0136449Y0140827D01*
X0146449Y0140827D02*
X0146449Y0134827D01*
X0156449Y0134827D02*
X0156449Y0140827D01*
X0166449Y0140827D02*
X0166449Y0134827D01*
X0176449Y0134827D02*
X0176449Y0140827D01*
X0186449Y0140827D02*
X0186449Y0134827D01*
X0196449Y0134827D02*
X0196449Y0140827D01*
X0206449Y0140827D02*
X0206449Y0134827D01*
X0216449Y0134827D02*
X0216449Y0140827D01*
X0226449Y0140827D02*
X0226449Y0134827D01*
X0236449Y0134827D02*
X0236449Y0140827D01*
X0246449Y0140827D02*
X0246449Y0134827D01*
X0256449Y0134827D02*
X0256449Y0140827D01*
X0266449Y0140827D02*
X0266449Y0134827D01*
X0276449Y0134827D02*
X0276449Y0140827D01*
X0218417Y0107362D02*
X0218417Y0101362D01*
X0208417Y0101362D02*
X0208417Y0107362D01*
X0198417Y0107362D02*
X0198417Y0101362D01*
X0188417Y0101362D02*
X0188417Y0107362D01*
X0178417Y0107362D02*
X0178417Y0101362D01*
X0168417Y0101362D02*
X0168417Y0107362D01*
X0158417Y0107362D02*
X0158417Y0101362D01*
X0148417Y0101362D02*
X0148417Y0107362D01*
X0138417Y0107362D02*
X0138417Y0101362D01*
X0128417Y0101362D02*
X0128417Y0107362D01*
X0118417Y0107362D02*
X0118417Y0101362D01*
X0108417Y0101362D02*
X0108417Y0107362D01*
X0108732Y0026654D02*
X0108732Y0020654D01*
X0118732Y0020654D02*
X0118732Y0026654D01*
X0128732Y0026654D02*
X0128732Y0020654D01*
X0138732Y0020654D02*
X0138732Y0026654D01*
X0148732Y0026654D02*
X0148732Y0020654D01*
X0158732Y0020654D02*
X0158732Y0026654D01*
X0168732Y0026654D02*
X0168732Y0020654D01*
X0178732Y0020654D02*
X0178732Y0026654D01*
X0188732Y0026654D02*
X0188732Y0020654D01*
X0198732Y0020654D02*
X0198732Y0026654D01*
X0208732Y0026654D02*
X0208732Y0020654D01*
X0218732Y0020654D02*
X0218732Y0026654D01*
X0098732Y0026654D02*
X0098732Y0020654D01*
X0088732Y0020654D02*
X0088732Y0026654D01*
X0078732Y0026654D02*
X0078732Y0020654D01*
X0068732Y0020654D02*
X0068732Y0026654D01*
D14*
X0265465Y0043228D02*
X0265465Y0049828D01*
X0275465Y0049828D02*
X0275465Y0043228D01*
X0285465Y0043228D02*
X0285465Y0049828D01*
X0289559Y0222480D02*
X0289559Y0229080D01*
X0279559Y0229080D02*
X0279559Y0222480D01*
X0269559Y0222480D02*
X0269559Y0229080D01*
D15*
X0312866Y0240189D03*
X0332866Y0240189D03*
X0332866Y0265780D03*
X0312866Y0265780D03*
X0310898Y0096488D03*
X0330898Y0096488D03*
X0330898Y0070898D03*
X0310898Y0070898D03*
D16*
X0334283Y0025622D03*
X0340189Y0200819D03*
D17*
X0351409Y0219717D03*
X0364795Y0200819D03*
X0345504Y0044520D03*
X0358890Y0025622D03*
D18*
X0331740Y0117079D02*
X0325803Y0117079D01*
X0325803Y0127079D02*
X0331740Y0127079D01*
X0331740Y0138732D02*
X0325803Y0138732D01*
X0325803Y0148732D02*
X0331740Y0148732D01*
X0353362Y0148732D02*
X0359299Y0148732D01*
X0359299Y0138732D02*
X0353362Y0138732D01*
X0331740Y0286370D02*
X0325803Y0286370D01*
X0325803Y0296370D02*
X0331740Y0296370D01*
X0331740Y0308024D02*
X0325803Y0308024D01*
X0325803Y0318024D02*
X0331740Y0318024D01*
X0353362Y0318024D02*
X0359299Y0318024D01*
X0359299Y0308024D02*
X0353362Y0308024D01*
D19*
X0358299Y0286646D03*
X0358299Y0272866D03*
X0358299Y0255150D03*
X0358299Y0241370D03*
X0358299Y0117354D03*
X0358299Y0103575D03*
X0358299Y0085858D03*
X0358299Y0072079D03*
D20*
X0322100Y0084500D02*
X0314298Y0076698D01*
X0308495Y0076698D01*
X0301075Y0069278D01*
X0275722Y0069278D01*
X0258965Y0052520D01*
X0258965Y0052118D01*
X0221300Y0014454D01*
X0086164Y0014454D01*
X0082532Y0018085D01*
X0082532Y0019854D01*
X0078732Y0023654D01*
X0096791Y0069000D02*
X0134900Y0069000D01*
X0167385Y0036515D01*
X0168223Y0036515D01*
X0168223Y0024163D01*
X0168732Y0023654D01*
X0178146Y0024240D02*
X0178732Y0023654D01*
X0178146Y0024240D02*
X0178146Y0033946D01*
X0162219Y0049873D01*
X0162173Y0049873D01*
X0155573Y0056473D01*
X0155200Y0056100D01*
X0155700Y0063700D02*
X0148100Y0063700D01*
X0139810Y0071990D01*
X0139790Y0071990D01*
X0138254Y0073527D01*
X0138254Y0073546D01*
X0137600Y0074200D01*
X0095871Y0074200D01*
X0096500Y0079400D02*
X0140046Y0079400D01*
X0144819Y0074627D01*
X0142038Y0084762D02*
X0197900Y0028900D01*
X0197900Y0024486D01*
X0198732Y0023654D01*
X0188732Y0023654D02*
X0188223Y0024163D01*
X0188223Y0031223D01*
X0164373Y0055073D01*
X0164327Y0055073D01*
X0155700Y0063700D01*
X0142038Y0084762D02*
X0071184Y0084762D01*
X0034746Y0121200D01*
X0033900Y0121200D01*
X0035049Y0128251D02*
X0073338Y0089962D01*
X0108003Y0089962D01*
X0108003Y0089962D01*
X0144192Y0089962D01*
X0184327Y0049827D01*
X0184688Y0049827D01*
X0208750Y0025765D01*
X0208750Y0023671D01*
X0208732Y0023654D01*
X0218732Y0023654D02*
X0218732Y0028368D01*
X0214000Y0033100D01*
X0208769Y0033100D01*
X0186842Y0055027D01*
X0186481Y0055027D01*
X0146346Y0095162D01*
X0105849Y0095162D01*
X0105658Y0095354D01*
X0077154Y0095354D01*
X0040249Y0132259D01*
X0040249Y0143395D01*
X0043881Y0147027D01*
X0119017Y0147027D01*
X0122649Y0143395D01*
X0122649Y0141627D01*
X0126449Y0137827D01*
X0132649Y0141627D02*
X0132649Y0143395D01*
X0123817Y0152227D01*
X0041727Y0152227D01*
X0035049Y0145549D01*
X0035049Y0128251D01*
X0034646Y0152500D02*
X0033900Y0152500D01*
X0034646Y0152500D02*
X0039573Y0157427D01*
X0128617Y0157427D01*
X0142649Y0143395D01*
X0142649Y0141627D01*
X0146449Y0137827D01*
X0136449Y0137827D02*
X0132649Y0141627D01*
X0116449Y0137827D02*
X0116449Y0130651D01*
X0128338Y0118762D01*
X0215785Y0118762D01*
X0224617Y0109930D01*
X0224617Y0098794D01*
X0220985Y0095162D01*
X0215849Y0095162D01*
X0210068Y0100944D01*
X0208417Y0100944D01*
X0208417Y0104362D01*
X0210985Y0113562D02*
X0218417Y0106130D01*
X0218417Y0104362D01*
X0210985Y0113562D02*
X0126184Y0113562D01*
X0106449Y0133297D01*
X0106449Y0137827D01*
X0162100Y0093100D02*
X0162100Y0093028D01*
X0163715Y0093028D01*
X0165849Y0095162D01*
X0208495Y0095162D01*
X0213695Y0089962D01*
X0220084Y0089962D01*
X0229146Y0080900D01*
X0283947Y0080900D01*
X0307409Y0104362D01*
X0319635Y0114524D02*
X0319635Y0119634D01*
X0323248Y0123247D01*
X0324940Y0123247D01*
X0328772Y0127079D01*
X0319635Y0114524D02*
X0322100Y0112058D01*
X0322100Y0084500D01*
X0318500Y0036728D02*
X0286900Y0036728D01*
X0250247Y0096800D02*
X0232900Y0096800D01*
X0248565Y0102472D02*
X0226449Y0124588D01*
X0226449Y0137827D01*
X0236449Y0137827D02*
X0236449Y0121964D01*
X0244305Y0114108D01*
X0252200Y0106190D02*
X0253765Y0104626D01*
X0253765Y0100318D01*
X0250247Y0096800D01*
X0252200Y0106190D02*
X0252200Y0127500D01*
X0256449Y0131749D01*
X0256449Y0137827D01*
X0246449Y0137827D02*
X0246449Y0123605D01*
X0244812Y0121968D01*
X0224297Y0193587D02*
X0323248Y0292539D01*
X0324940Y0292539D01*
X0328772Y0296370D01*
X0319635Y0307177D02*
X0319635Y0310579D01*
X0323248Y0314192D01*
X0324940Y0314192D01*
X0328772Y0318024D01*
X0319635Y0307177D02*
X0284737Y0272280D01*
X0274381Y0272280D01*
X0273119Y0273542D01*
X0230758Y0273542D01*
X0225854Y0268637D01*
X0210446Y0268637D01*
X0204783Y0274300D01*
X0200989Y0274300D01*
X0200985Y0274296D01*
X0165849Y0274296D01*
X0165845Y0274300D01*
X0162800Y0274300D01*
X0152932Y0274296D02*
X0075377Y0274296D01*
X0040249Y0309424D01*
X0040249Y0320560D01*
X0043881Y0324192D01*
X0119017Y0324192D01*
X0122649Y0320560D01*
X0122649Y0318792D01*
X0126449Y0314992D01*
X0120249Y0311192D02*
X0120249Y0309424D01*
X0123881Y0305792D01*
X0210054Y0305792D01*
X0214286Y0301560D01*
X0207900Y0300592D02*
X0121727Y0300592D01*
X0121459Y0300860D01*
X0116323Y0300860D01*
X0106449Y0310734D01*
X0106449Y0314992D01*
X0116449Y0314992D02*
X0120249Y0311192D01*
X0132649Y0318792D02*
X0132649Y0320560D01*
X0123817Y0329392D01*
X0041727Y0329392D01*
X0035049Y0322714D01*
X0035049Y0307270D01*
X0073223Y0269096D01*
X0150778Y0269096D01*
X0207969Y0211906D01*
X0207969Y0203551D01*
X0208732Y0202787D01*
X0218535Y0202984D02*
X0218535Y0208693D01*
X0152932Y0274296D01*
X0148624Y0263896D02*
X0198732Y0213788D01*
X0198732Y0202787D01*
X0187233Y0214833D02*
X0179300Y0206900D01*
X0179300Y0203355D01*
X0178732Y0202787D01*
X0168823Y0202878D02*
X0168732Y0202787D01*
X0168823Y0202878D02*
X0168823Y0220923D01*
X0164900Y0224846D01*
X0164900Y0225246D01*
X0141850Y0248296D01*
X0103250Y0248296D01*
X0100754Y0245800D01*
X0096600Y0245800D01*
X0096600Y0251400D02*
X0099000Y0251400D01*
X0101096Y0253496D01*
X0144317Y0253496D01*
X0144317Y0253183D01*
X0170100Y0227400D01*
X0170100Y0227000D01*
X0178100Y0219000D01*
X0187233Y0217933D02*
X0187233Y0214833D01*
X0187233Y0217933D02*
X0146471Y0258696D01*
X0098294Y0258696D01*
X0096449Y0256851D01*
X0071069Y0263896D02*
X0148624Y0263896D01*
X0146449Y0314992D02*
X0142649Y0318792D01*
X0142649Y0320560D01*
X0128617Y0334592D01*
X0039573Y0334592D01*
X0029849Y0324868D01*
X0029849Y0305116D01*
X0071069Y0263896D01*
X0132649Y0318792D02*
X0136449Y0314992D01*
X0207900Y0300592D02*
X0218417Y0290075D01*
X0218417Y0283496D01*
X0226189Y0279500D02*
X0233900Y0279500D01*
X0256449Y0302049D01*
X0256449Y0314992D01*
X0246449Y0314992D02*
X0246449Y0299649D01*
X0233900Y0287100D01*
X0233400Y0295300D02*
X0236449Y0298349D01*
X0236449Y0314992D01*
X0226449Y0314992D02*
X0226449Y0304451D01*
X0228900Y0302000D01*
X0296600Y0215980D02*
X0322400Y0215980D01*
X0224297Y0193587D02*
X0086164Y0193587D01*
X0082532Y0197219D01*
X0082532Y0198987D01*
X0078732Y0202787D01*
X0218535Y0202984D02*
X0218732Y0202787D01*
D21*
X0178100Y0219000D03*
X0162800Y0274300D03*
X0214286Y0301560D03*
X0223500Y0296400D03*
X0228900Y0302000D03*
X0233400Y0295300D03*
X0233900Y0287100D03*
X0226189Y0279500D03*
X0241000Y0244500D03*
X0296600Y0215980D03*
X0322400Y0215980D03*
X0244812Y0121968D03*
X0244305Y0114108D03*
X0248565Y0102472D03*
X0232900Y0096800D03*
X0286900Y0036728D03*
X0318500Y0036728D03*
X0239700Y0023200D03*
X0162100Y0093028D03*
X0144819Y0074627D03*
X0155200Y0056100D03*
X0096791Y0069000D03*
X0095871Y0074200D03*
X0096500Y0079400D03*
X0102600Y0121300D03*
X0033900Y0121200D03*
X0033900Y0152500D03*
X0096600Y0245800D03*
X0096600Y0251400D03*
X0096449Y0256851D03*
X0307409Y0104362D03*
D22*
X0008713Y0018798D02*
X0008089Y0020303D01*
X0007388Y0023826D01*
X0007300Y0025622D01*
X0007300Y0197296D01*
X0007494Y0196572D01*
X0008943Y0194062D01*
X0010991Y0192014D01*
X0013501Y0190565D01*
X0016299Y0189815D01*
X0019197Y0189815D01*
X0021995Y0190565D01*
X0024505Y0192014D01*
X0026553Y0194062D01*
X0028002Y0196572D01*
X0028752Y0199370D01*
X0028752Y0202268D01*
X0028002Y0205066D01*
X0026553Y0207575D01*
X0024505Y0209624D01*
X0021995Y0211073D01*
X0019197Y0211823D01*
X0016299Y0211823D01*
X0013501Y0211073D01*
X0010991Y0209624D01*
X0008943Y0207575D01*
X0007494Y0205066D01*
X0007300Y0204342D01*
X0007300Y0312165D01*
X0007362Y0312350D01*
X0007300Y0313213D01*
X0007300Y0314078D01*
X0007270Y0314151D01*
X0007238Y0315592D01*
X0007410Y0316963D01*
X0007494Y0316650D01*
X0008943Y0314141D01*
X0010991Y0312092D01*
X0013501Y0310644D01*
X0016299Y0309894D01*
X0019197Y0309894D01*
X0021995Y0310644D01*
X0024505Y0312092D01*
X0025649Y0313237D01*
X0025649Y0304281D01*
X0026288Y0302737D01*
X0067508Y0261517D01*
X0068690Y0260335D01*
X0070233Y0259696D01*
X0093354Y0259696D01*
X0092888Y0259230D01*
X0092249Y0257687D01*
X0092249Y0256016D01*
X0092888Y0254472D01*
X0093310Y0254050D01*
X0093039Y0253779D01*
X0092400Y0252235D01*
X0092400Y0250565D01*
X0093039Y0249021D01*
X0093460Y0248600D01*
X0093039Y0248179D01*
X0092400Y0246635D01*
X0092400Y0244965D01*
X0093039Y0243421D01*
X0094221Y0242239D01*
X0095765Y0241600D01*
X0101589Y0241600D01*
X0103133Y0242239D01*
X0104990Y0244096D01*
X0140110Y0244096D01*
X0161057Y0223150D01*
X0161339Y0222467D01*
X0164623Y0219183D01*
X0164623Y0209032D01*
X0164324Y0208733D01*
X0163732Y0207305D01*
X0163141Y0208733D01*
X0161678Y0210196D01*
X0159767Y0210987D01*
X0157698Y0210987D01*
X0155787Y0210196D01*
X0154324Y0208733D01*
X0153732Y0207305D01*
X0153141Y0208733D01*
X0151678Y0210196D01*
X0149767Y0210987D01*
X0147698Y0210987D01*
X0145787Y0210196D01*
X0144324Y0208733D01*
X0143732Y0207305D01*
X0143141Y0208733D01*
X0141678Y0210196D01*
X0139767Y0210987D01*
X0137698Y0210987D01*
X0135787Y0210196D01*
X0134324Y0208733D01*
X0133732Y0207305D01*
X0133141Y0208733D01*
X0131678Y0210196D01*
X0129767Y0210987D01*
X0127698Y0210987D01*
X0125787Y0210196D01*
X0124324Y0208733D01*
X0123732Y0207305D01*
X0123141Y0208733D01*
X0121678Y0210196D01*
X0119767Y0210987D01*
X0117698Y0210987D01*
X0115787Y0210196D01*
X0114324Y0208733D01*
X0113732Y0207305D01*
X0113141Y0208733D01*
X0111678Y0210196D01*
X0109767Y0210987D01*
X0107698Y0210987D01*
X0105787Y0210196D01*
X0104324Y0208733D01*
X0103600Y0206986D01*
X0103366Y0207707D01*
X0103009Y0208408D01*
X0102546Y0209045D01*
X0101990Y0209601D01*
X0101353Y0210064D01*
X0100652Y0210421D01*
X0099903Y0210664D01*
X0099126Y0210787D01*
X0098732Y0210787D01*
X0098339Y0210787D01*
X0097561Y0210664D01*
X0096813Y0210421D01*
X0096112Y0210064D01*
X0095475Y0209601D01*
X0094918Y0209045D01*
X0094456Y0208408D01*
X0094099Y0207707D01*
X0093864Y0206986D01*
X0093141Y0208733D01*
X0091678Y0210196D01*
X0089767Y0210987D01*
X0087698Y0210987D01*
X0085787Y0210196D01*
X0084324Y0208733D01*
X0083732Y0207305D01*
X0083141Y0208733D01*
X0081678Y0210196D01*
X0079767Y0210987D01*
X0077698Y0210987D01*
X0075787Y0210196D01*
X0074324Y0208733D01*
X0073732Y0207305D01*
X0073141Y0208733D01*
X0071678Y0210196D01*
X0069767Y0210987D01*
X0067698Y0210987D01*
X0065787Y0210196D01*
X0064324Y0208733D01*
X0063532Y0206822D01*
X0063532Y0198753D01*
X0064324Y0196842D01*
X0065787Y0195379D01*
X0067698Y0194587D01*
X0069767Y0194587D01*
X0071678Y0195379D01*
X0073141Y0196842D01*
X0073732Y0198270D01*
X0074324Y0196842D01*
X0075787Y0195379D01*
X0077698Y0194587D01*
X0079224Y0194587D01*
X0083785Y0190027D01*
X0085329Y0189387D01*
X0225132Y0189387D01*
X0226676Y0190027D01*
X0264059Y0227410D01*
X0264059Y0221385D01*
X0264896Y0219364D01*
X0266444Y0217817D01*
X0268465Y0216980D01*
X0270653Y0216980D01*
X0272675Y0217817D01*
X0274222Y0219364D01*
X0274660Y0220421D01*
X0275026Y0219702D01*
X0275516Y0219027D01*
X0276106Y0218437D01*
X0276781Y0217947D01*
X0277525Y0217568D01*
X0278318Y0217310D01*
X0279142Y0217180D01*
X0279459Y0217180D01*
X0279459Y0225679D01*
X0279659Y0225679D01*
X0279659Y0217180D01*
X0279976Y0217180D01*
X0280800Y0217310D01*
X0281594Y0217568D01*
X0282337Y0217947D01*
X0283012Y0218437D01*
X0283602Y0219027D01*
X0284092Y0219702D01*
X0284459Y0220421D01*
X0284896Y0219364D01*
X0286444Y0217817D01*
X0288465Y0216980D01*
X0290653Y0216980D01*
X0292675Y0217817D01*
X0292914Y0218057D01*
X0292400Y0216815D01*
X0292400Y0215144D01*
X0293039Y0213600D01*
X0294221Y0212419D01*
X0295765Y0211780D01*
X0297634Y0211780D01*
X0294997Y0211073D01*
X0292488Y0209624D01*
X0290439Y0207575D01*
X0288990Y0205066D01*
X0288240Y0202268D01*
X0288240Y0199370D01*
X0288990Y0196572D01*
X0290439Y0194062D01*
X0292488Y0192014D01*
X0294997Y0190565D01*
X0297795Y0189815D01*
X0300693Y0189815D01*
X0303491Y0190565D01*
X0306001Y0192014D01*
X0308049Y0194062D01*
X0309498Y0196572D01*
X0310248Y0199370D01*
X0310248Y0202268D01*
X0309498Y0205066D01*
X0308049Y0207575D01*
X0306001Y0209624D01*
X0303491Y0211073D01*
X0300854Y0211780D01*
X0323235Y0211780D01*
X0324779Y0212419D01*
X0325961Y0213600D01*
X0326600Y0215144D01*
X0326600Y0216815D01*
X0325961Y0218359D01*
X0324779Y0219540D01*
X0323235Y0220180D01*
X0295765Y0220180D01*
X0294310Y0219577D01*
X0295059Y0221385D01*
X0295059Y0230174D01*
X0294222Y0232195D01*
X0292675Y0233742D01*
X0290653Y0234580D01*
X0288465Y0234580D01*
X0286444Y0233742D01*
X0284896Y0232195D01*
X0284459Y0231138D01*
X0284092Y0231857D01*
X0283602Y0232532D01*
X0283012Y0233122D01*
X0282337Y0233612D01*
X0281594Y0233991D01*
X0280800Y0234249D01*
X0279976Y0234380D01*
X0279659Y0234380D01*
X0279659Y0225880D01*
X0279459Y0225880D01*
X0279459Y0234380D01*
X0279142Y0234380D01*
X0278318Y0234249D01*
X0277525Y0233991D01*
X0276781Y0233612D01*
X0276106Y0233122D01*
X0275516Y0232532D01*
X0275026Y0231857D01*
X0274660Y0231138D01*
X0274222Y0232195D01*
X0272675Y0233742D01*
X0271060Y0234411D01*
X0321177Y0284528D01*
X0321199Y0284463D01*
X0321554Y0283766D01*
X0322013Y0283133D01*
X0322566Y0282580D01*
X0323199Y0282121D01*
X0323896Y0281766D01*
X0324640Y0281524D01*
X0325412Y0281402D01*
X0328772Y0281402D01*
X0332131Y0281402D01*
X0332904Y0281524D01*
X0333647Y0281766D01*
X0334344Y0282121D01*
X0334977Y0282580D01*
X0335530Y0283133D01*
X0335990Y0283766D01*
X0336345Y0284463D01*
X0336586Y0285207D01*
X0336709Y0285979D01*
X0336709Y0286370D01*
X0328772Y0286370D01*
X0328772Y0286370D01*
X0336709Y0286370D01*
X0336709Y0286761D01*
X0336586Y0287534D01*
X0336345Y0288277D01*
X0335990Y0288974D01*
X0335530Y0289607D01*
X0334977Y0290160D01*
X0334344Y0290620D01*
X0333647Y0290975D01*
X0332904Y0291216D01*
X0332831Y0291228D01*
X0334668Y0291988D01*
X0336122Y0293442D01*
X0336909Y0295342D01*
X0336909Y0297398D01*
X0336122Y0299298D01*
X0334668Y0300752D01*
X0332768Y0301539D01*
X0324775Y0301539D01*
X0322875Y0300752D01*
X0321422Y0299298D01*
X0320635Y0297398D01*
X0320635Y0295865D01*
X0319687Y0294918D01*
X0223932Y0199162D01*
X0223932Y0206822D01*
X0223141Y0208733D01*
X0222735Y0209138D01*
X0222735Y0209528D01*
X0222096Y0211072D01*
X0220915Y0212253D01*
X0163068Y0270100D01*
X0165004Y0270100D01*
X0165014Y0270096D01*
X0201821Y0270096D01*
X0201830Y0270100D01*
X0203043Y0270100D01*
X0206885Y0266258D01*
X0208067Y0265076D01*
X0209611Y0264437D01*
X0226689Y0264437D01*
X0228233Y0265076D01*
X0232498Y0269342D01*
X0271380Y0269342D01*
X0272002Y0268719D01*
X0273546Y0268080D01*
X0285572Y0268080D01*
X0287116Y0268719D01*
X0322014Y0303617D01*
X0322604Y0304207D01*
X0323199Y0303774D01*
X0323896Y0303419D01*
X0324640Y0303177D01*
X0325412Y0303055D01*
X0328772Y0303055D01*
X0332131Y0303055D01*
X0332904Y0303177D01*
X0333647Y0303419D01*
X0334344Y0303774D01*
X0334977Y0304234D01*
X0335530Y0304787D01*
X0335990Y0305420D01*
X0336345Y0306116D01*
X0336586Y0306860D01*
X0336709Y0307633D01*
X0336709Y0308024D01*
X0336709Y0308415D01*
X0336586Y0309187D01*
X0336345Y0309931D01*
X0335990Y0310628D01*
X0335530Y0311260D01*
X0334977Y0311813D01*
X0334344Y0312273D01*
X0333647Y0312628D01*
X0332904Y0312870D01*
X0332831Y0312881D01*
X0334668Y0313642D01*
X0336122Y0315096D01*
X0336909Y0316996D01*
X0336909Y0319052D01*
X0336122Y0320951D01*
X0334668Y0322405D01*
X0332768Y0323192D01*
X0324775Y0323192D01*
X0322875Y0322405D01*
X0321422Y0320951D01*
X0320635Y0319052D01*
X0320635Y0317518D01*
X0319687Y0316571D01*
X0317256Y0314139D01*
X0316074Y0312958D01*
X0315435Y0311414D01*
X0315435Y0308917D01*
X0291059Y0284542D01*
X0291059Y0286294D01*
X0290275Y0289218D01*
X0288761Y0291841D01*
X0286620Y0293982D01*
X0283998Y0295496D01*
X0281073Y0296280D01*
X0278045Y0296280D01*
X0275120Y0295496D01*
X0272498Y0293982D01*
X0270357Y0291841D01*
X0268843Y0289218D01*
X0268059Y0286294D01*
X0268059Y0283266D01*
X0268843Y0280341D01*
X0270343Y0277742D01*
X0238081Y0277742D01*
X0260009Y0299670D01*
X0260649Y0301213D01*
X0260649Y0308838D01*
X0260857Y0309047D01*
X0261449Y0310475D01*
X0262040Y0309047D01*
X0263503Y0307584D01*
X0265414Y0306792D01*
X0267483Y0306792D01*
X0269394Y0307584D01*
X0270857Y0309047D01*
X0271449Y0310475D01*
X0272040Y0309047D01*
X0273503Y0307584D01*
X0275414Y0306792D01*
X0277483Y0306792D01*
X0279394Y0307584D01*
X0280857Y0309047D01*
X0281649Y0310958D01*
X0281649Y0319026D01*
X0280857Y0320938D01*
X0279394Y0322400D01*
X0277483Y0323192D01*
X0275414Y0323192D01*
X0273503Y0322400D01*
X0272040Y0320938D01*
X0271449Y0319509D01*
X0270857Y0320938D01*
X0269394Y0322400D01*
X0267483Y0323192D01*
X0265414Y0323192D01*
X0263503Y0322400D01*
X0262040Y0320938D01*
X0261449Y0319509D01*
X0260857Y0320938D01*
X0259394Y0322400D01*
X0257483Y0323192D01*
X0255414Y0323192D01*
X0253503Y0322400D01*
X0252040Y0320938D01*
X0251449Y0319509D01*
X0250857Y0320938D01*
X0249394Y0322400D01*
X0247483Y0323192D01*
X0245414Y0323192D01*
X0243503Y0322400D01*
X0242040Y0320938D01*
X0241449Y0319509D01*
X0240857Y0320938D01*
X0239394Y0322400D01*
X0237483Y0323192D01*
X0235414Y0323192D01*
X0233503Y0322400D01*
X0232040Y0320938D01*
X0231449Y0319509D01*
X0230857Y0320938D01*
X0229394Y0322400D01*
X0227483Y0323192D01*
X0225414Y0323192D01*
X0223503Y0322400D01*
X0222040Y0320938D01*
X0221449Y0319509D01*
X0220857Y0320938D01*
X0219394Y0322400D01*
X0217483Y0323192D01*
X0215414Y0323192D01*
X0213503Y0322400D01*
X0212040Y0320938D01*
X0211449Y0319509D01*
X0210857Y0320938D01*
X0209394Y0322400D01*
X0207483Y0323192D01*
X0205414Y0323192D01*
X0203503Y0322400D01*
X0202040Y0320938D01*
X0201449Y0319509D01*
X0200857Y0320938D01*
X0199394Y0322400D01*
X0197483Y0323192D01*
X0195414Y0323192D01*
X0193503Y0322400D01*
X0192040Y0320938D01*
X0191449Y0319509D01*
X0190857Y0320938D01*
X0189394Y0322400D01*
X0187483Y0323192D01*
X0185414Y0323192D01*
X0183503Y0322400D01*
X0182040Y0320938D01*
X0181449Y0319509D01*
X0180857Y0320938D01*
X0179394Y0322400D01*
X0177483Y0323192D01*
X0175414Y0323192D01*
X0173503Y0322400D01*
X0172040Y0320938D01*
X0171449Y0319509D01*
X0170857Y0320938D01*
X0169394Y0322400D01*
X0167483Y0323192D01*
X0165414Y0323192D01*
X0163503Y0322400D01*
X0162040Y0320938D01*
X0161449Y0319509D01*
X0160857Y0320938D01*
X0159394Y0322400D01*
X0157483Y0323192D01*
X0155414Y0323192D01*
X0153503Y0322400D01*
X0152040Y0320938D01*
X0151449Y0319509D01*
X0150857Y0320938D01*
X0149394Y0322400D01*
X0147483Y0323192D01*
X0145957Y0323192D01*
X0145028Y0324121D01*
X0132178Y0336971D01*
X0131898Y0337251D01*
X0357795Y0337251D01*
X0359473Y0336908D01*
X0363266Y0335528D01*
X0366718Y0333434D01*
X0369694Y0330707D01*
X0372081Y0327452D01*
X0373787Y0323793D01*
X0374747Y0319872D01*
X0374923Y0315839D01*
X0374769Y0314360D01*
X0374653Y0314078D01*
X0374653Y0313429D01*
X0374554Y0312788D01*
X0374653Y0312384D01*
X0374653Y0025622D01*
X0374565Y0023826D01*
X0373864Y0020303D01*
X0372489Y0016985D01*
X0370494Y0013999D01*
X0367954Y0011459D01*
X0364968Y0009463D01*
X0361649Y0008089D01*
X0358127Y0007388D01*
X0356331Y0007300D01*
X0304736Y0007300D01*
X0305460Y0007494D01*
X0307969Y0008943D01*
X0310018Y0010991D01*
X0311467Y0013501D01*
X0312217Y0016299D01*
X0312217Y0019197D01*
X0311467Y0021995D01*
X0310018Y0024505D01*
X0307969Y0026553D01*
X0305460Y0028002D01*
X0302661Y0028752D01*
X0299764Y0028752D01*
X0296965Y0028002D01*
X0294456Y0026553D01*
X0292407Y0024505D01*
X0290959Y0021995D01*
X0290209Y0019197D01*
X0290209Y0016299D01*
X0290959Y0013501D01*
X0292407Y0010991D01*
X0294456Y0008943D01*
X0296965Y0007494D01*
X0297689Y0007300D01*
X0025622Y0007300D01*
X0023826Y0007388D01*
X0023679Y0007418D01*
X0023964Y0007494D01*
X0026473Y0008943D01*
X0028522Y0010991D01*
X0029971Y0013501D01*
X0030720Y0016299D01*
X0030720Y0019197D01*
X0029971Y0021995D01*
X0028522Y0024505D01*
X0026473Y0026553D01*
X0023964Y0028002D01*
X0021165Y0028752D01*
X0018268Y0028752D01*
X0015469Y0028002D01*
X0012960Y0026553D01*
X0010911Y0024505D01*
X0009463Y0021995D01*
X0008713Y0019197D01*
X0008713Y0018798D01*
X0008924Y0019987D02*
X0008220Y0019987D01*
X0007754Y0021985D02*
X0009460Y0021985D01*
X0010610Y0023984D02*
X0007380Y0023984D01*
X0007300Y0025982D02*
X0012389Y0025982D01*
X0015432Y0027981D02*
X0007300Y0027981D01*
X0007300Y0029979D02*
X0064704Y0029979D01*
X0064324Y0029599D02*
X0063532Y0027688D01*
X0063532Y0019619D01*
X0064324Y0017708D01*
X0065787Y0016245D01*
X0067698Y0015454D01*
X0069767Y0015454D01*
X0071678Y0016245D01*
X0073141Y0017708D01*
X0073732Y0019136D01*
X0074324Y0017708D01*
X0075787Y0016245D01*
X0077698Y0015454D01*
X0079224Y0015454D01*
X0080153Y0014525D01*
X0082604Y0012074D01*
X0083785Y0010893D01*
X0085329Y0010254D01*
X0222136Y0010254D01*
X0223680Y0010893D01*
X0259965Y0047178D01*
X0259965Y0042134D01*
X0260802Y0040112D01*
X0262349Y0038565D01*
X0264371Y0037728D01*
X0266559Y0037728D01*
X0268580Y0038565D01*
X0270127Y0040112D01*
X0270565Y0041169D01*
X0270932Y0040450D01*
X0271422Y0039775D01*
X0272012Y0039185D01*
X0272687Y0038695D01*
X0273430Y0038316D01*
X0274223Y0038058D01*
X0275047Y0037928D01*
X0275365Y0037928D01*
X0275365Y0046427D01*
X0275565Y0046427D01*
X0275565Y0037928D01*
X0275882Y0037928D01*
X0276706Y0038058D01*
X0277499Y0038316D01*
X0278242Y0038695D01*
X0278917Y0039185D01*
X0279507Y0039775D01*
X0279998Y0040450D01*
X0280364Y0041169D01*
X0280802Y0040112D01*
X0282349Y0038565D01*
X0283003Y0038294D01*
X0282700Y0037563D01*
X0282700Y0035892D01*
X0283339Y0034348D01*
X0284521Y0033167D01*
X0286065Y0032528D01*
X0319335Y0032528D01*
X0320879Y0033167D01*
X0322061Y0034348D01*
X0322700Y0035892D01*
X0322700Y0037563D01*
X0322061Y0039107D01*
X0320879Y0040288D01*
X0319335Y0040928D01*
X0290465Y0040928D01*
X0290965Y0042134D01*
X0290965Y0050922D01*
X0290127Y0052943D01*
X0288580Y0054490D01*
X0286559Y0055328D01*
X0284371Y0055328D01*
X0282349Y0054490D01*
X0280802Y0052943D01*
X0280364Y0051886D01*
X0279998Y0052605D01*
X0279507Y0053280D01*
X0278917Y0053870D01*
X0278242Y0054361D01*
X0277499Y0054739D01*
X0276706Y0054997D01*
X0275882Y0055128D01*
X0275565Y0055128D01*
X0275565Y0046628D01*
X0275365Y0046628D01*
X0275365Y0055128D01*
X0275047Y0055128D01*
X0274223Y0054997D01*
X0273430Y0054739D01*
X0272687Y0054361D01*
X0272012Y0053870D01*
X0271422Y0053280D01*
X0270932Y0052605D01*
X0270565Y0051886D01*
X0270127Y0052943D01*
X0268580Y0054490D01*
X0267374Y0054990D01*
X0277462Y0065078D01*
X0301911Y0065078D01*
X0303454Y0065717D01*
X0306514Y0068776D01*
X0308992Y0066298D01*
X0310898Y0066298D01*
X0312803Y0066298D01*
X0315498Y0068992D01*
X0315498Y0070898D01*
X0315498Y0072649D01*
X0316677Y0073137D01*
X0325661Y0082121D01*
X0326300Y0083665D01*
X0326300Y0094298D01*
X0328909Y0091688D01*
X0332886Y0091688D01*
X0335698Y0094500D01*
X0335698Y0098476D01*
X0332886Y0101288D01*
X0328909Y0101288D01*
X0326300Y0098679D01*
X0326300Y0112110D01*
X0328772Y0112110D01*
X0332131Y0112110D01*
X0332904Y0112233D01*
X0333647Y0112474D01*
X0334344Y0112829D01*
X0334977Y0113289D01*
X0335530Y0113842D01*
X0335990Y0114475D01*
X0336345Y0115171D01*
X0336586Y0115915D01*
X0352149Y0115915D01*
X0352154Y0115879D02*
X0352461Y0114936D01*
X0352911Y0114052D01*
X0353494Y0113250D01*
X0354195Y0112549D01*
X0354997Y0111966D01*
X0355881Y0111516D01*
X0356824Y0111209D01*
X0357803Y0111054D01*
X0358299Y0111054D01*
X0358299Y0117354D01*
X0358299Y0117354D01*
X0351999Y0117354D01*
X0351999Y0116859D01*
X0352154Y0115879D01*
X0351999Y0117354D02*
X0358299Y0117354D01*
X0358299Y0117354D01*
X0358299Y0111054D01*
X0358795Y0111054D01*
X0359774Y0111209D01*
X0360718Y0111516D01*
X0361601Y0111966D01*
X0362403Y0112549D01*
X0363105Y0113250D01*
X0363687Y0114052D01*
X0364138Y0114936D01*
X0364444Y0115879D01*
X0364599Y0116859D01*
X0364599Y0117354D01*
X0358299Y0117354D01*
X0358299Y0117354D01*
X0358299Y0123654D01*
X0357803Y0123654D01*
X0356824Y0123499D01*
X0355881Y0123193D01*
X0354997Y0122743D01*
X0354195Y0122160D01*
X0353494Y0121459D01*
X0352911Y0120656D01*
X0352461Y0119773D01*
X0352154Y0118830D01*
X0351999Y0117850D01*
X0351999Y0117354D01*
X0352009Y0117914D02*
X0336638Y0117914D01*
X0336586Y0118242D02*
X0336345Y0118986D01*
X0335990Y0119683D01*
X0335530Y0120315D01*
X0334977Y0120868D01*
X0334344Y0121328D01*
X0333647Y0121683D01*
X0332904Y0121925D01*
X0332831Y0121936D01*
X0334668Y0122697D01*
X0336122Y0124151D01*
X0336909Y0126051D01*
X0336909Y0128107D01*
X0336122Y0130006D01*
X0334668Y0131460D01*
X0332768Y0132247D01*
X0324775Y0132247D01*
X0322875Y0131460D01*
X0321422Y0130006D01*
X0320635Y0128107D01*
X0320635Y0126574D01*
X0319687Y0125626D01*
X0316074Y0122013D01*
X0315435Y0120469D01*
X0315435Y0113688D01*
X0316074Y0112145D01*
X0317256Y0110963D01*
X0317900Y0110319D01*
X0317900Y0086240D01*
X0312558Y0080898D01*
X0307660Y0080898D01*
X0306116Y0080258D01*
X0304935Y0079077D01*
X0299336Y0073478D01*
X0274887Y0073478D01*
X0273343Y0072838D01*
X0272162Y0071657D01*
X0272162Y0071657D01*
X0255404Y0054899D01*
X0255120Y0054212D01*
X0223932Y0023025D01*
X0223932Y0027688D01*
X0223141Y0029599D01*
X0222505Y0030235D01*
X0222293Y0030747D01*
X0217561Y0035479D01*
X0216379Y0036661D01*
X0214835Y0037300D01*
X0210509Y0037300D01*
X0189221Y0058588D01*
X0188604Y0058843D01*
X0150748Y0096699D01*
X0151363Y0096954D01*
X0152826Y0098417D01*
X0153417Y0099845D01*
X0154009Y0098417D01*
X0155472Y0096954D01*
X0157383Y0096162D01*
X0159223Y0096162D01*
X0158539Y0095479D01*
X0157900Y0093935D01*
X0157900Y0092192D01*
X0158539Y0090648D01*
X0159721Y0089467D01*
X0161265Y0088828D01*
X0164550Y0088828D01*
X0166094Y0089467D01*
X0167589Y0090962D01*
X0206756Y0090962D01*
X0211316Y0086402D01*
X0212860Y0085762D01*
X0218344Y0085762D01*
X0226767Y0077339D01*
X0228311Y0076700D01*
X0284782Y0076700D01*
X0286326Y0077339D01*
X0306298Y0097311D01*
X0306298Y0096488D01*
X0306298Y0094583D01*
X0308992Y0091888D01*
X0310898Y0091888D01*
X0312803Y0091888D01*
X0315498Y0094583D01*
X0315498Y0096488D01*
X0310898Y0096488D01*
X0310898Y0096488D01*
X0310898Y0091888D01*
X0310898Y0096488D01*
X0310898Y0096488D01*
X0315498Y0096488D01*
X0315498Y0098394D01*
X0312803Y0101088D01*
X0310898Y0101088D01*
X0310898Y0096488D01*
X0310898Y0096488D01*
X0306298Y0096488D01*
X0310898Y0096488D01*
X0310898Y0096488D01*
X0310898Y0101088D01*
X0310074Y0101088D01*
X0310969Y0101983D01*
X0311609Y0103527D01*
X0311609Y0105198D01*
X0310969Y0106741D01*
X0309788Y0107923D01*
X0308244Y0108562D01*
X0306573Y0108562D01*
X0305030Y0107923D01*
X0282207Y0085100D01*
X0230886Y0085100D01*
X0223874Y0092111D01*
X0224546Y0092783D01*
X0228178Y0096415D01*
X0228817Y0097959D01*
X0228817Y0110766D01*
X0228178Y0112309D01*
X0218165Y0122323D01*
X0216621Y0122962D01*
X0130077Y0122962D01*
X0120945Y0132094D01*
X0121449Y0133310D01*
X0122040Y0131881D01*
X0123503Y0130418D01*
X0125414Y0129627D01*
X0127483Y0129627D01*
X0129394Y0130418D01*
X0130857Y0131881D01*
X0131449Y0133310D01*
X0132040Y0131881D01*
X0133503Y0130418D01*
X0135414Y0129627D01*
X0137483Y0129627D01*
X0139394Y0130418D01*
X0140857Y0131881D01*
X0141449Y0133310D01*
X0142040Y0131881D01*
X0143503Y0130418D01*
X0145414Y0129627D01*
X0147483Y0129627D01*
X0149394Y0130418D01*
X0150857Y0131881D01*
X0151449Y0133310D01*
X0152040Y0131881D01*
X0153503Y0130418D01*
X0155414Y0129627D01*
X0157483Y0129627D01*
X0159394Y0130418D01*
X0160857Y0131881D01*
X0161449Y0133310D01*
X0162040Y0131881D01*
X0163503Y0130418D01*
X0165414Y0129627D01*
X0167483Y0129627D01*
X0169394Y0130418D01*
X0170857Y0131881D01*
X0171449Y0133310D01*
X0172040Y0131881D01*
X0173503Y0130418D01*
X0175414Y0129627D01*
X0177483Y0129627D01*
X0179394Y0130418D01*
X0180857Y0131881D01*
X0181449Y0133310D01*
X0182040Y0131881D01*
X0183503Y0130418D01*
X0185414Y0129627D01*
X0187483Y0129627D01*
X0189394Y0130418D01*
X0190857Y0131881D01*
X0191449Y0133310D01*
X0192040Y0131881D01*
X0193503Y0130418D01*
X0195414Y0129627D01*
X0197483Y0129627D01*
X0199394Y0130418D01*
X0200857Y0131881D01*
X0201449Y0133310D01*
X0202040Y0131881D01*
X0203503Y0130418D01*
X0205414Y0129627D01*
X0207483Y0129627D01*
X0209394Y0130418D01*
X0210857Y0131881D01*
X0211449Y0133310D01*
X0212040Y0131881D01*
X0213503Y0130418D01*
X0215414Y0129627D01*
X0217483Y0129627D01*
X0219394Y0130418D01*
X0220857Y0131881D01*
X0221449Y0133310D01*
X0222040Y0131881D01*
X0222249Y0131673D01*
X0222249Y0123752D01*
X0222888Y0122208D01*
X0244097Y0101000D01*
X0232065Y0101000D01*
X0230521Y0100361D01*
X0229339Y0099179D01*
X0228700Y0097635D01*
X0228700Y0095965D01*
X0229339Y0094421D01*
X0230521Y0093239D01*
X0232065Y0092600D01*
X0251082Y0092600D01*
X0252626Y0093239D01*
X0257325Y0097939D01*
X0257965Y0099482D01*
X0257965Y0105461D01*
X0257325Y0107005D01*
X0256400Y0107930D01*
X0256400Y0125760D01*
X0260009Y0129370D01*
X0260649Y0130913D01*
X0260649Y0131673D01*
X0260857Y0131881D01*
X0261449Y0133310D01*
X0262040Y0131881D01*
X0263503Y0130418D01*
X0265414Y0129627D01*
X0267483Y0129627D01*
X0269394Y0130418D01*
X0270857Y0131881D01*
X0271449Y0133310D01*
X0272040Y0131881D01*
X0273503Y0130418D01*
X0275414Y0129627D01*
X0277483Y0129627D01*
X0279394Y0130418D01*
X0280857Y0131881D01*
X0281649Y0133792D01*
X0281649Y0141861D01*
X0280857Y0143772D01*
X0279394Y0145235D01*
X0277483Y0146027D01*
X0275414Y0146027D01*
X0273503Y0145235D01*
X0272040Y0143772D01*
X0271449Y0142344D01*
X0270857Y0143772D01*
X0269394Y0145235D01*
X0267483Y0146027D01*
X0265414Y0146027D01*
X0263503Y0145235D01*
X0262040Y0143772D01*
X0261449Y0142344D01*
X0260857Y0143772D01*
X0259394Y0145235D01*
X0257483Y0146027D01*
X0255414Y0146027D01*
X0253503Y0145235D01*
X0252040Y0143772D01*
X0251449Y0142344D01*
X0250857Y0143772D01*
X0249394Y0145235D01*
X0247483Y0146027D01*
X0245414Y0146027D01*
X0243503Y0145235D01*
X0242040Y0143772D01*
X0241449Y0142344D01*
X0240857Y0143772D01*
X0239394Y0145235D01*
X0237483Y0146027D01*
X0235414Y0146027D01*
X0233503Y0145235D01*
X0232040Y0143772D01*
X0231449Y0142344D01*
X0230857Y0143772D01*
X0229394Y0145235D01*
X0227483Y0146027D01*
X0225414Y0146027D01*
X0223503Y0145235D01*
X0222040Y0143772D01*
X0221449Y0142344D01*
X0220857Y0143772D01*
X0219394Y0145235D01*
X0217483Y0146027D01*
X0215414Y0146027D01*
X0213503Y0145235D01*
X0212040Y0143772D01*
X0211449Y0142344D01*
X0210857Y0143772D01*
X0209394Y0145235D01*
X0207483Y0146027D01*
X0205414Y0146027D01*
X0203503Y0145235D01*
X0202040Y0143772D01*
X0201449Y0142344D01*
X0200857Y0143772D01*
X0199394Y0145235D01*
X0197483Y0146027D01*
X0195414Y0146027D01*
X0193503Y0145235D01*
X0192040Y0143772D01*
X0191449Y0142344D01*
X0190857Y0143772D01*
X0189394Y0145235D01*
X0187483Y0146027D01*
X0185414Y0146027D01*
X0183503Y0145235D01*
X0182040Y0143772D01*
X0181449Y0142344D01*
X0180857Y0143772D01*
X0179394Y0145235D01*
X0177483Y0146027D01*
X0175414Y0146027D01*
X0173503Y0145235D01*
X0172040Y0143772D01*
X0171449Y0142344D01*
X0170857Y0143772D01*
X0169394Y0145235D01*
X0167483Y0146027D01*
X0165414Y0146027D01*
X0163503Y0145235D01*
X0162040Y0143772D01*
X0161449Y0142344D01*
X0160857Y0143772D01*
X0159394Y0145235D01*
X0157483Y0146027D01*
X0155414Y0146027D01*
X0153503Y0145235D01*
X0152040Y0143772D01*
X0151449Y0142344D01*
X0150857Y0143772D01*
X0149394Y0145235D01*
X0147483Y0146027D01*
X0145957Y0146027D01*
X0132178Y0159806D01*
X0130996Y0160987D01*
X0129452Y0161627D01*
X0038737Y0161627D01*
X0037194Y0160987D01*
X0036012Y0159806D01*
X0036012Y0159806D01*
X0032795Y0156588D01*
X0031521Y0156061D01*
X0030339Y0154879D01*
X0029700Y0153335D01*
X0029700Y0151665D01*
X0030339Y0150121D01*
X0031521Y0148939D01*
X0032213Y0148653D01*
X0031488Y0147928D01*
X0030849Y0146384D01*
X0030849Y0127416D01*
X0031488Y0125872D01*
X0032284Y0125077D01*
X0031521Y0124761D01*
X0030339Y0123579D01*
X0029700Y0122035D01*
X0029700Y0120365D01*
X0030339Y0118821D01*
X0031521Y0117639D01*
X0032965Y0117041D01*
X0067623Y0082383D01*
X0068805Y0081202D01*
X0070348Y0080562D01*
X0092435Y0080562D01*
X0092300Y0080235D01*
X0092300Y0078565D01*
X0092885Y0077153D01*
X0092310Y0076579D01*
X0091671Y0075035D01*
X0091671Y0073365D01*
X0092310Y0071821D01*
X0093090Y0071041D01*
X0092591Y0069835D01*
X0092591Y0068165D01*
X0093231Y0066621D01*
X0094412Y0065439D01*
X0095956Y0064800D01*
X0133160Y0064800D01*
X0164023Y0033937D01*
X0164023Y0028873D01*
X0163732Y0028171D01*
X0163141Y0029599D01*
X0161678Y0031062D01*
X0159767Y0031854D01*
X0157698Y0031854D01*
X0155787Y0031062D01*
X0154324Y0029599D01*
X0153732Y0028171D01*
X0153141Y0029599D01*
X0151678Y0031062D01*
X0149767Y0031854D01*
X0147698Y0031854D01*
X0145787Y0031062D01*
X0144324Y0029599D01*
X0143732Y0028171D01*
X0143141Y0029599D01*
X0141678Y0031062D01*
X0139767Y0031854D01*
X0137698Y0031854D01*
X0135787Y0031062D01*
X0134324Y0029599D01*
X0133732Y0028171D01*
X0133141Y0029599D01*
X0131678Y0031062D01*
X0129767Y0031854D01*
X0127698Y0031854D01*
X0125787Y0031062D01*
X0124324Y0029599D01*
X0123732Y0028171D01*
X0123141Y0029599D01*
X0121678Y0031062D01*
X0119767Y0031854D01*
X0117698Y0031854D01*
X0115787Y0031062D01*
X0114324Y0029599D01*
X0113732Y0028171D01*
X0113141Y0029599D01*
X0111678Y0031062D01*
X0109767Y0031854D01*
X0107698Y0031854D01*
X0105787Y0031062D01*
X0104324Y0029599D01*
X0103600Y0027852D01*
X0103366Y0028573D01*
X0103009Y0029274D01*
X0102546Y0029911D01*
X0101990Y0030467D01*
X0101353Y0030930D01*
X0100652Y0031287D01*
X0099903Y0031530D01*
X0099126Y0031654D01*
X0098732Y0031654D01*
X0098339Y0031654D01*
X0097561Y0031530D01*
X0096813Y0031287D01*
X0096112Y0030930D01*
X0095475Y0030467D01*
X0094918Y0029911D01*
X0094456Y0029274D01*
X0094099Y0028573D01*
X0093864Y0027852D01*
X0093141Y0029599D01*
X0091678Y0031062D01*
X0089767Y0031854D01*
X0087698Y0031854D01*
X0085787Y0031062D01*
X0084324Y0029599D01*
X0083732Y0028171D01*
X0083141Y0029599D01*
X0081678Y0031062D01*
X0079767Y0031854D01*
X0077698Y0031854D01*
X0075787Y0031062D01*
X0074324Y0029599D01*
X0073732Y0028171D01*
X0073141Y0029599D01*
X0071678Y0031062D01*
X0069767Y0031854D01*
X0067698Y0031854D01*
X0065787Y0031062D01*
X0064324Y0029599D01*
X0063654Y0027981D02*
X0024001Y0027981D01*
X0027044Y0025982D02*
X0063532Y0025982D01*
X0063532Y0023984D02*
X0028823Y0023984D01*
X0029973Y0021985D02*
X0063532Y0021985D01*
X0063532Y0019987D02*
X0030509Y0019987D01*
X0030720Y0017988D02*
X0064208Y0017988D01*
X0066404Y0015990D02*
X0030637Y0015990D01*
X0030102Y0013991D02*
X0080687Y0013991D01*
X0082685Y0011993D02*
X0029100Y0011993D01*
X0027524Y0009994D02*
X0293405Y0009994D01*
X0291829Y0011993D02*
X0224779Y0011993D01*
X0226778Y0013991D02*
X0290827Y0013991D01*
X0290292Y0015990D02*
X0228776Y0015990D01*
X0230775Y0017988D02*
X0290209Y0017988D01*
X0290420Y0019987D02*
X0232773Y0019987D01*
X0234772Y0021985D02*
X0290956Y0021985D01*
X0292106Y0023984D02*
X0236770Y0023984D01*
X0238769Y0025982D02*
X0293885Y0025982D01*
X0296928Y0027981D02*
X0240767Y0027981D01*
X0242766Y0029979D02*
X0324676Y0029979D01*
X0324500Y0029675D02*
X0323784Y0027004D01*
X0323784Y0024240D01*
X0324500Y0021570D01*
X0325882Y0019175D01*
X0327837Y0017221D01*
X0330231Y0015838D01*
X0332901Y0015123D01*
X0335666Y0015123D01*
X0338336Y0015838D01*
X0340730Y0017221D01*
X0342685Y0019175D01*
X0344067Y0021570D01*
X0344783Y0024240D01*
X0344783Y0027004D01*
X0344067Y0029675D01*
X0342685Y0032069D01*
X0340730Y0034023D01*
X0338336Y0035406D01*
X0335666Y0036121D01*
X0332901Y0036121D01*
X0330231Y0035406D01*
X0327837Y0034023D01*
X0325882Y0032069D01*
X0324500Y0029675D01*
X0324046Y0027981D02*
X0305497Y0027981D01*
X0308540Y0025982D02*
X0323784Y0025982D01*
X0323853Y0023984D02*
X0310319Y0023984D01*
X0311469Y0021985D02*
X0324388Y0021985D01*
X0325414Y0019987D02*
X0312005Y0019987D01*
X0312217Y0017988D02*
X0327069Y0017988D01*
X0329969Y0015990D02*
X0312134Y0015990D01*
X0311598Y0013991D02*
X0370486Y0013991D01*
X0371824Y0015990D02*
X0338598Y0015990D01*
X0341498Y0017988D02*
X0353207Y0017988D01*
X0353377Y0017852D02*
X0354281Y0017284D01*
X0355244Y0016820D01*
X0356252Y0016468D01*
X0357294Y0016230D01*
X0357890Y0016163D01*
X0357890Y0024622D01*
X0359890Y0024622D01*
X0359890Y0026622D01*
X0368349Y0026622D01*
X0368282Y0027218D01*
X0368044Y0028259D01*
X0367691Y0029268D01*
X0367228Y0030230D01*
X0366659Y0031135D01*
X0365993Y0031970D01*
X0365238Y0032726D01*
X0364403Y0033392D01*
X0363498Y0033960D01*
X0362536Y0034424D01*
X0361527Y0034777D01*
X0360486Y0035014D01*
X0359890Y0035081D01*
X0359890Y0026622D01*
X0357890Y0026622D01*
X0357890Y0035081D01*
X0357294Y0035014D01*
X0356252Y0034777D01*
X0355244Y0034424D01*
X0354281Y0033960D01*
X0353377Y0033392D01*
X0352542Y0032726D01*
X0351786Y0031970D01*
X0351120Y0031135D01*
X0350552Y0030230D01*
X0350088Y0029268D01*
X0349735Y0028259D01*
X0349498Y0027218D01*
X0349430Y0026622D01*
X0357890Y0026622D01*
X0357890Y0024622D01*
X0349430Y0024622D01*
X0349498Y0024026D01*
X0349735Y0022985D01*
X0350088Y0021976D01*
X0350552Y0021014D01*
X0351120Y0020109D01*
X0351786Y0019274D01*
X0352542Y0018518D01*
X0353377Y0017852D01*
X0351218Y0019987D02*
X0343153Y0019987D01*
X0344179Y0021985D02*
X0350085Y0021985D01*
X0349507Y0023984D02*
X0344714Y0023984D01*
X0344783Y0025982D02*
X0357890Y0025982D01*
X0357890Y0023984D02*
X0359890Y0023984D01*
X0359890Y0024622D02*
X0359890Y0016163D01*
X0360486Y0016230D01*
X0361527Y0016468D01*
X0362536Y0016820D01*
X0363498Y0017284D01*
X0364403Y0017852D01*
X0365238Y0018518D01*
X0365993Y0019274D01*
X0366659Y0020109D01*
X0367228Y0021014D01*
X0367691Y0021976D01*
X0368044Y0022985D01*
X0368282Y0024026D01*
X0368349Y0024622D01*
X0359890Y0024622D01*
X0359890Y0025982D02*
X0374653Y0025982D01*
X0374653Y0027981D02*
X0368108Y0027981D01*
X0367349Y0029979D02*
X0374653Y0029979D01*
X0374653Y0031978D02*
X0365986Y0031978D01*
X0363465Y0033976D02*
X0374653Y0033976D01*
X0374653Y0035975D02*
X0349683Y0035975D01*
X0350112Y0036182D02*
X0351017Y0036750D01*
X0351852Y0037416D01*
X0352608Y0038172D01*
X0353274Y0039007D01*
X0353842Y0039911D01*
X0354306Y0040874D01*
X0354658Y0041882D01*
X0354896Y0042924D01*
X0354963Y0043520D01*
X0346504Y0043520D01*
X0346504Y0045520D01*
X0344504Y0045520D01*
X0344504Y0053979D01*
X0343908Y0053912D01*
X0342867Y0053674D01*
X0341858Y0053321D01*
X0340896Y0052858D01*
X0339991Y0052289D01*
X0339156Y0051623D01*
X0338400Y0050868D01*
X0337734Y0050033D01*
X0337166Y0049128D01*
X0336702Y0048165D01*
X0336349Y0047157D01*
X0336112Y0046115D01*
X0336045Y0045520D01*
X0344504Y0045520D01*
X0344504Y0043520D01*
X0336045Y0043520D01*
X0336112Y0042924D01*
X0336349Y0041882D01*
X0336702Y0040874D01*
X0337166Y0039911D01*
X0337734Y0039007D01*
X0338400Y0038172D01*
X0339156Y0037416D01*
X0339991Y0036750D01*
X0340896Y0036182D01*
X0341858Y0035718D01*
X0342867Y0035365D01*
X0343908Y0035127D01*
X0344504Y0035060D01*
X0344504Y0043520D01*
X0346504Y0043520D01*
X0346504Y0035060D01*
X0347100Y0035127D01*
X0348141Y0035365D01*
X0349150Y0035718D01*
X0350112Y0036182D01*
X0352409Y0037973D02*
X0374653Y0037973D01*
X0374653Y0039972D02*
X0353871Y0039972D01*
X0354678Y0041970D02*
X0374653Y0041970D01*
X0374653Y0043969D02*
X0346504Y0043969D01*
X0346504Y0045520D02*
X0354963Y0045520D01*
X0354896Y0046115D01*
X0354658Y0047157D01*
X0354306Y0048165D01*
X0353842Y0049128D01*
X0353274Y0050033D01*
X0352608Y0050868D01*
X0351852Y0051623D01*
X0351017Y0052289D01*
X0350112Y0052858D01*
X0349150Y0053321D01*
X0348141Y0053674D01*
X0347100Y0053912D01*
X0346504Y0053979D01*
X0346504Y0045520D01*
X0346504Y0045967D02*
X0344504Y0045967D01*
X0344504Y0043969D02*
X0290965Y0043969D01*
X0290965Y0045967D02*
X0336095Y0045967D01*
X0336632Y0047966D02*
X0290965Y0047966D01*
X0290965Y0049964D02*
X0337691Y0049964D01*
X0339582Y0051963D02*
X0290533Y0051963D01*
X0289109Y0053961D02*
X0344347Y0053961D01*
X0344504Y0053961D02*
X0346504Y0053961D01*
X0346661Y0053961D02*
X0374653Y0053961D01*
X0374653Y0051963D02*
X0351426Y0051963D01*
X0353317Y0049964D02*
X0374653Y0049964D01*
X0374653Y0047966D02*
X0354375Y0047966D01*
X0354913Y0045967D02*
X0374653Y0045967D01*
X0374653Y0055960D02*
X0268344Y0055960D01*
X0269109Y0053961D02*
X0272137Y0053961D01*
X0270604Y0051963D02*
X0270533Y0051963D01*
X0275365Y0051963D02*
X0275565Y0051963D01*
X0275565Y0053961D02*
X0275365Y0053961D01*
X0278792Y0053961D02*
X0281820Y0053961D01*
X0280396Y0051963D02*
X0280325Y0051963D01*
X0275565Y0049964D02*
X0275365Y0049964D01*
X0275365Y0047966D02*
X0275565Y0047966D01*
X0275565Y0045967D02*
X0275365Y0045967D01*
X0275365Y0043969D02*
X0275565Y0043969D01*
X0275565Y0041970D02*
X0275365Y0041970D01*
X0275365Y0039972D02*
X0275565Y0039972D01*
X0275565Y0037973D02*
X0275365Y0037973D01*
X0274759Y0037973D02*
X0267152Y0037973D01*
X0263777Y0037973D02*
X0250760Y0037973D01*
X0252758Y0039972D02*
X0260942Y0039972D01*
X0260032Y0041970D02*
X0254757Y0041970D01*
X0256755Y0043969D02*
X0259965Y0043969D01*
X0259965Y0045967D02*
X0258754Y0045967D01*
X0252870Y0051963D02*
X0195846Y0051963D01*
X0193848Y0053961D02*
X0254868Y0053961D01*
X0256465Y0055960D02*
X0191849Y0055960D01*
X0189851Y0057958D02*
X0258463Y0057958D01*
X0260462Y0059957D02*
X0187491Y0059957D01*
X0185492Y0061955D02*
X0262460Y0061955D01*
X0264459Y0063954D02*
X0183494Y0063954D01*
X0181495Y0065952D02*
X0266457Y0065952D01*
X0268456Y0067951D02*
X0179497Y0067951D01*
X0177498Y0069949D02*
X0270454Y0069949D01*
X0272453Y0071948D02*
X0175500Y0071948D01*
X0173501Y0073946D02*
X0299804Y0073946D01*
X0301803Y0075945D02*
X0171503Y0075945D01*
X0169504Y0077943D02*
X0226163Y0077943D01*
X0224164Y0079942D02*
X0167506Y0079942D01*
X0165507Y0081940D02*
X0222166Y0081940D01*
X0220167Y0083939D02*
X0163509Y0083939D01*
X0161510Y0085937D02*
X0212437Y0085937D01*
X0209782Y0087936D02*
X0159512Y0087936D01*
X0159253Y0089934D02*
X0157513Y0089934D01*
X0158007Y0091933D02*
X0155515Y0091933D01*
X0153516Y0093932D02*
X0157900Y0093932D01*
X0158990Y0095930D02*
X0151518Y0095930D01*
X0152338Y0097929D02*
X0154497Y0097929D01*
X0166561Y0089934D02*
X0207783Y0089934D01*
X0224053Y0091933D02*
X0289040Y0091933D01*
X0291038Y0093932D02*
X0253318Y0093932D01*
X0255316Y0095930D02*
X0269088Y0095930D01*
X0268403Y0096325D02*
X0271026Y0094811D01*
X0273951Y0094028D01*
X0276979Y0094028D01*
X0279903Y0094811D01*
X0282526Y0096325D01*
X0284667Y0098466D01*
X0286181Y0101089D01*
X0286965Y0104014D01*
X0286965Y0107042D01*
X0286181Y0109966D01*
X0284667Y0112589D01*
X0282526Y0114730D01*
X0279903Y0116244D01*
X0276979Y0117028D01*
X0273951Y0117028D01*
X0271026Y0116244D01*
X0268403Y0114730D01*
X0266262Y0112589D01*
X0264748Y0109966D01*
X0263965Y0107042D01*
X0263965Y0104014D01*
X0264748Y0101089D01*
X0266262Y0098466D01*
X0268403Y0096325D01*
X0266800Y0097929D02*
X0257315Y0097929D01*
X0257965Y0099927D02*
X0265419Y0099927D01*
X0264524Y0101926D02*
X0257965Y0101926D01*
X0257965Y0103924D02*
X0263989Y0103924D01*
X0263965Y0105923D02*
X0257773Y0105923D01*
X0256409Y0107921D02*
X0264200Y0107921D01*
X0264736Y0109920D02*
X0256400Y0109920D01*
X0256400Y0111918D02*
X0265875Y0111918D01*
X0267590Y0113917D02*
X0256400Y0113917D01*
X0256400Y0115915D02*
X0270456Y0115915D01*
X0280473Y0115915D02*
X0315435Y0115915D01*
X0315435Y0113917D02*
X0283339Y0113917D01*
X0285054Y0111918D02*
X0316300Y0111918D01*
X0317900Y0109920D02*
X0286193Y0109920D01*
X0286729Y0107921D02*
X0305028Y0107921D01*
X0303029Y0105923D02*
X0286965Y0105923D01*
X0286941Y0103924D02*
X0301031Y0103924D01*
X0299032Y0101926D02*
X0286405Y0101926D01*
X0285510Y0099927D02*
X0297034Y0099927D01*
X0295035Y0097929D02*
X0284129Y0097929D01*
X0281841Y0095930D02*
X0293037Y0095930D01*
X0298921Y0089934D02*
X0317900Y0089934D01*
X0317900Y0087936D02*
X0296922Y0087936D01*
X0294924Y0085937D02*
X0317598Y0085937D01*
X0315599Y0083939D02*
X0292925Y0083939D01*
X0290927Y0081940D02*
X0313601Y0081940D01*
X0305800Y0079942D02*
X0288928Y0079942D01*
X0286930Y0077943D02*
X0303801Y0077943D01*
X0310898Y0070898D02*
X0315498Y0070898D01*
X0310898Y0070898D01*
X0310898Y0070898D01*
X0310898Y0066298D01*
X0310898Y0070898D01*
X0310898Y0070898D01*
X0310898Y0069949D02*
X0310898Y0069949D01*
X0310898Y0067951D02*
X0310898Y0067951D01*
X0314456Y0067951D02*
X0327056Y0067951D01*
X0326098Y0068909D02*
X0328909Y0066098D01*
X0332886Y0066098D01*
X0335698Y0068909D01*
X0335698Y0072886D01*
X0332886Y0075698D01*
X0328909Y0075698D01*
X0326098Y0072886D01*
X0326098Y0068909D01*
X0326098Y0069949D02*
X0315498Y0069949D01*
X0315498Y0071948D02*
X0326098Y0071948D01*
X0327158Y0073946D02*
X0317486Y0073946D01*
X0319485Y0075945D02*
X0352973Y0075945D01*
X0352789Y0075761D02*
X0351799Y0073372D01*
X0351799Y0070786D01*
X0352789Y0068397D01*
X0354617Y0066568D01*
X0357006Y0065579D01*
X0359592Y0065579D01*
X0361981Y0066568D01*
X0363810Y0068397D01*
X0364799Y0070786D01*
X0364799Y0073372D01*
X0363810Y0075761D01*
X0361981Y0077589D01*
X0359592Y0078579D01*
X0357006Y0078579D01*
X0354617Y0077589D01*
X0352789Y0075761D01*
X0352037Y0073946D02*
X0334637Y0073946D01*
X0335698Y0071948D02*
X0351799Y0071948D01*
X0352146Y0069949D02*
X0335698Y0069949D01*
X0334739Y0067951D02*
X0353235Y0067951D01*
X0356104Y0065952D02*
X0303690Y0065952D01*
X0305688Y0067951D02*
X0307339Y0067951D01*
X0321483Y0077943D02*
X0355473Y0077943D01*
X0356121Y0079942D02*
X0323482Y0079942D01*
X0325480Y0081940D02*
X0353358Y0081940D01*
X0353494Y0081754D02*
X0354195Y0081053D01*
X0354997Y0080470D01*
X0355881Y0080020D01*
X0356824Y0079713D01*
X0357803Y0079558D01*
X0358299Y0079558D01*
X0358299Y0085858D01*
X0358299Y0085858D01*
X0351999Y0085858D01*
X0351999Y0085362D01*
X0352154Y0084383D01*
X0352461Y0083440D01*
X0352911Y0082556D01*
X0353494Y0081754D01*
X0352299Y0083939D02*
X0326300Y0083939D01*
X0326300Y0085937D02*
X0351999Y0085937D01*
X0351999Y0085858D02*
X0358299Y0085858D01*
X0358299Y0085858D01*
X0358299Y0079558D01*
X0358795Y0079558D01*
X0359774Y0079713D01*
X0360718Y0080020D01*
X0361601Y0080470D01*
X0362403Y0081053D01*
X0363105Y0081754D01*
X0363687Y0082556D01*
X0364138Y0083440D01*
X0364444Y0084383D01*
X0364599Y0085362D01*
X0364599Y0085858D01*
X0358299Y0085858D01*
X0358299Y0085858D01*
X0358299Y0092158D01*
X0357803Y0092158D01*
X0356824Y0092003D01*
X0355881Y0091697D01*
X0354997Y0091247D01*
X0354195Y0090664D01*
X0353494Y0089962D01*
X0352911Y0089160D01*
X0352461Y0088277D01*
X0352154Y0087334D01*
X0351999Y0086354D01*
X0351999Y0085858D01*
X0352350Y0087936D02*
X0326300Y0087936D01*
X0326300Y0089934D02*
X0353474Y0089934D01*
X0356608Y0091933D02*
X0333131Y0091933D01*
X0335129Y0093932D02*
X0374653Y0093932D01*
X0374653Y0095930D02*
X0335698Y0095930D01*
X0335698Y0097929D02*
X0354945Y0097929D01*
X0354617Y0098064D02*
X0357006Y0097075D01*
X0359592Y0097075D01*
X0361981Y0098064D01*
X0363810Y0099893D01*
X0364799Y0102282D01*
X0364799Y0104868D01*
X0363810Y0107257D01*
X0361981Y0109085D01*
X0359592Y0110075D01*
X0357006Y0110075D01*
X0354617Y0109085D01*
X0352789Y0107257D01*
X0351799Y0104868D01*
X0351799Y0102282D01*
X0352789Y0099893D01*
X0354617Y0098064D01*
X0352775Y0099927D02*
X0334247Y0099927D01*
X0327548Y0099927D02*
X0326300Y0099927D01*
X0326300Y0101926D02*
X0351947Y0101926D01*
X0351799Y0103924D02*
X0326300Y0103924D01*
X0326300Y0105923D02*
X0352236Y0105923D01*
X0353453Y0107921D02*
X0326300Y0107921D01*
X0326300Y0109920D02*
X0356632Y0109920D01*
X0355091Y0111918D02*
X0326300Y0111918D01*
X0328772Y0112110D02*
X0328772Y0117079D01*
X0336709Y0117079D01*
X0336709Y0117470D01*
X0336586Y0118242D01*
X0336709Y0117079D02*
X0328772Y0117079D01*
X0328772Y0117079D01*
X0328772Y0112110D01*
X0328772Y0113917D02*
X0328772Y0113917D01*
X0328772Y0115915D02*
X0328772Y0115915D01*
X0328772Y0117079D02*
X0328772Y0117079D01*
X0332947Y0121911D02*
X0353946Y0121911D01*
X0352532Y0119912D02*
X0335823Y0119912D01*
X0336709Y0117079D02*
X0336709Y0116688D01*
X0336586Y0115915D01*
X0335584Y0113917D02*
X0353010Y0113917D01*
X0358299Y0113917D02*
X0358299Y0113917D01*
X0358299Y0115915D02*
X0358299Y0115915D01*
X0358299Y0117354D02*
X0364599Y0117354D01*
X0364599Y0117850D01*
X0364444Y0118830D01*
X0364138Y0119773D01*
X0363687Y0120656D01*
X0363105Y0121459D01*
X0362403Y0122160D01*
X0361601Y0122743D01*
X0360718Y0123193D01*
X0359774Y0123499D01*
X0358795Y0123654D01*
X0358299Y0123654D01*
X0358299Y0117354D01*
X0358299Y0117354D01*
X0358299Y0117914D02*
X0358299Y0117914D01*
X0358299Y0119912D02*
X0358299Y0119912D01*
X0358299Y0121911D02*
X0358299Y0121911D01*
X0362652Y0121911D02*
X0374653Y0121911D01*
X0374653Y0123909D02*
X0335880Y0123909D01*
X0336849Y0125908D02*
X0374653Y0125908D01*
X0374653Y0127906D02*
X0336909Y0127906D01*
X0336164Y0129905D02*
X0374653Y0129905D01*
X0374653Y0131903D02*
X0333599Y0131903D01*
X0332952Y0133902D02*
X0351518Y0133902D01*
X0352334Y0133564D02*
X0360327Y0133564D01*
X0362227Y0134351D01*
X0363681Y0135805D01*
X0364468Y0137704D01*
X0364468Y0139760D01*
X0363681Y0141660D01*
X0362227Y0143114D01*
X0360390Y0143875D01*
X0360463Y0143886D01*
X0361206Y0144128D01*
X0361903Y0144483D01*
X0362536Y0144943D01*
X0363089Y0145496D01*
X0363549Y0146128D01*
X0363904Y0146825D01*
X0364145Y0147569D01*
X0364268Y0148341D01*
X0364268Y0148732D01*
X0356331Y0148732D01*
X0356331Y0148732D01*
X0364268Y0148732D01*
X0364268Y0149123D01*
X0364145Y0149896D01*
X0363904Y0150640D01*
X0363549Y0151336D01*
X0363089Y0151969D01*
X0362536Y0152522D01*
X0361903Y0152982D01*
X0361206Y0153337D01*
X0360463Y0153578D01*
X0359690Y0153701D01*
X0356331Y0153701D01*
X0356331Y0148732D01*
X0348394Y0148732D01*
X0348394Y0148341D01*
X0348516Y0147569D01*
X0348758Y0146825D01*
X0349113Y0146128D01*
X0349572Y0145496D01*
X0350125Y0144943D01*
X0350758Y0144483D01*
X0351455Y0144128D01*
X0352199Y0143886D01*
X0352271Y0143875D01*
X0350434Y0143114D01*
X0348981Y0141660D01*
X0348194Y0139760D01*
X0348194Y0137704D01*
X0348981Y0135805D01*
X0350434Y0134351D01*
X0352334Y0133564D01*
X0348941Y0135900D02*
X0335824Y0135900D01*
X0335990Y0136128D02*
X0336345Y0136825D01*
X0336586Y0137569D01*
X0336709Y0138341D01*
X0336709Y0138732D01*
X0328772Y0138732D01*
X0328772Y0138732D01*
X0328772Y0133764D01*
X0332131Y0133764D01*
X0332904Y0133886D01*
X0333647Y0134128D01*
X0334344Y0134483D01*
X0334977Y0134943D01*
X0335530Y0135496D01*
X0335990Y0136128D01*
X0336639Y0137899D02*
X0348194Y0137899D01*
X0348250Y0139897D02*
X0336586Y0139897D01*
X0336586Y0139896D02*
X0336345Y0140640D01*
X0335990Y0141336D01*
X0335530Y0141969D01*
X0334977Y0142522D01*
X0334344Y0142982D01*
X0333647Y0143337D01*
X0332904Y0143578D01*
X0332831Y0143590D01*
X0334668Y0144351D01*
X0336122Y0145805D01*
X0336909Y0147704D01*
X0336909Y0149760D01*
X0336122Y0151660D01*
X0334668Y0153114D01*
X0332768Y0153901D01*
X0324775Y0153901D01*
X0322875Y0153114D01*
X0321422Y0151660D01*
X0320635Y0149760D01*
X0320635Y0147704D01*
X0321422Y0145805D01*
X0322875Y0144351D01*
X0324712Y0143590D01*
X0324640Y0143578D01*
X0323896Y0143337D01*
X0323199Y0142982D01*
X0322566Y0142522D01*
X0322013Y0141969D01*
X0321554Y0141336D01*
X0321199Y0140640D01*
X0320957Y0139896D01*
X0320835Y0139123D01*
X0320835Y0138732D01*
X0320835Y0138341D01*
X0320957Y0137569D01*
X0321199Y0136825D01*
X0321554Y0136128D01*
X0322013Y0135496D01*
X0322566Y0134943D01*
X0323199Y0134483D01*
X0323896Y0134128D01*
X0324640Y0133886D01*
X0325412Y0133764D01*
X0328772Y0133764D01*
X0328772Y0138732D01*
X0328772Y0138732D01*
X0336709Y0138732D01*
X0336709Y0139123D01*
X0336586Y0139896D01*
X0335583Y0141896D02*
X0349216Y0141896D01*
X0352174Y0143894D02*
X0333566Y0143894D01*
X0336158Y0145893D02*
X0349284Y0145893D01*
X0348465Y0147891D02*
X0336909Y0147891D01*
X0336855Y0149890D02*
X0348515Y0149890D01*
X0348516Y0149896D02*
X0348394Y0149123D01*
X0348394Y0148732D01*
X0356331Y0148732D01*
X0356331Y0148732D01*
X0356331Y0148732D01*
X0356331Y0153701D01*
X0352971Y0153701D01*
X0352199Y0153578D01*
X0351455Y0153337D01*
X0350758Y0152982D01*
X0350125Y0152522D01*
X0349572Y0151969D01*
X0349113Y0151336D01*
X0348758Y0150640D01*
X0348516Y0149896D01*
X0349514Y0151888D02*
X0335893Y0151888D01*
X0332802Y0153887D02*
X0374653Y0153887D01*
X0374653Y0155885D02*
X0136098Y0155885D01*
X0138097Y0153887D02*
X0324741Y0153887D01*
X0321650Y0151888D02*
X0140095Y0151888D01*
X0142094Y0149890D02*
X0320688Y0149890D01*
X0320635Y0147891D02*
X0305788Y0147891D01*
X0305460Y0148081D02*
X0302661Y0148831D01*
X0299764Y0148831D01*
X0296965Y0148081D01*
X0294456Y0146632D01*
X0292407Y0144583D01*
X0290959Y0142074D01*
X0290209Y0139275D01*
X0290209Y0136378D01*
X0290959Y0133579D01*
X0292407Y0131070D01*
X0294456Y0129021D01*
X0296965Y0127573D01*
X0299764Y0126823D01*
X0302661Y0126823D01*
X0305460Y0127573D01*
X0307969Y0129021D01*
X0310018Y0131070D01*
X0311467Y0133579D01*
X0312217Y0136378D01*
X0312217Y0139275D01*
X0311467Y0142074D01*
X0310018Y0144583D01*
X0307969Y0146632D01*
X0305460Y0148081D01*
X0308708Y0145893D02*
X0321385Y0145893D01*
X0323977Y0143894D02*
X0310416Y0143894D01*
X0311514Y0141896D02*
X0321960Y0141896D01*
X0320957Y0139897D02*
X0312050Y0139897D01*
X0312217Y0137899D02*
X0320905Y0137899D01*
X0320835Y0138732D02*
X0328772Y0138732D01*
X0328772Y0138732D01*
X0320835Y0138732D01*
X0321719Y0135900D02*
X0312088Y0135900D01*
X0311553Y0133902D02*
X0324592Y0133902D01*
X0323945Y0131903D02*
X0310499Y0131903D01*
X0308852Y0129905D02*
X0321379Y0129905D01*
X0320635Y0127906D02*
X0306038Y0127906D01*
X0296388Y0127906D02*
X0258546Y0127906D01*
X0260231Y0129905D02*
X0264743Y0129905D01*
X0262031Y0131903D02*
X0260866Y0131903D01*
X0256547Y0125908D02*
X0319969Y0125908D01*
X0317970Y0123909D02*
X0256400Y0123909D01*
X0256400Y0121911D02*
X0316032Y0121911D01*
X0315435Y0119912D02*
X0256400Y0119912D01*
X0256400Y0117914D02*
X0315435Y0117914D01*
X0317900Y0107921D02*
X0309790Y0107921D01*
X0311308Y0105923D02*
X0317900Y0105923D01*
X0317900Y0103924D02*
X0311609Y0103924D01*
X0310912Y0101926D02*
X0317900Y0101926D01*
X0317900Y0099927D02*
X0313964Y0099927D01*
X0315498Y0097929D02*
X0317900Y0097929D01*
X0317900Y0095930D02*
X0315498Y0095930D01*
X0314846Y0093932D02*
X0317900Y0093932D01*
X0317900Y0091933D02*
X0312848Y0091933D01*
X0310898Y0091933D02*
X0310898Y0091933D01*
X0308947Y0091933D02*
X0300919Y0091933D01*
X0302918Y0093932D02*
X0306949Y0093932D01*
X0306298Y0095930D02*
X0304916Y0095930D01*
X0310898Y0095930D02*
X0310898Y0095930D01*
X0310898Y0093932D02*
X0310898Y0093932D01*
X0310898Y0097929D02*
X0310898Y0097929D01*
X0310898Y0099927D02*
X0310898Y0099927D01*
X0326300Y0093932D02*
X0326666Y0093932D01*
X0326300Y0091933D02*
X0328665Y0091933D01*
X0358299Y0091933D02*
X0358299Y0091933D01*
X0358299Y0092158D02*
X0358299Y0085858D01*
X0358299Y0085858D01*
X0364599Y0085858D01*
X0364599Y0086354D01*
X0364444Y0087334D01*
X0364138Y0088277D01*
X0363687Y0089160D01*
X0363105Y0089962D01*
X0362403Y0090664D01*
X0361601Y0091247D01*
X0360718Y0091697D01*
X0359774Y0092003D01*
X0358795Y0092158D01*
X0358299Y0092158D01*
X0359990Y0091933D02*
X0374653Y0091933D01*
X0374653Y0089934D02*
X0363125Y0089934D01*
X0364248Y0087936D02*
X0374653Y0087936D01*
X0374653Y0085937D02*
X0364599Y0085937D01*
X0364300Y0083939D02*
X0374653Y0083939D01*
X0374653Y0081940D02*
X0363240Y0081940D01*
X0360478Y0079942D02*
X0374653Y0079942D01*
X0374653Y0077943D02*
X0361126Y0077943D01*
X0363625Y0075945D02*
X0374653Y0075945D01*
X0374653Y0073946D02*
X0364561Y0073946D01*
X0364799Y0071948D02*
X0374653Y0071948D01*
X0374653Y0069949D02*
X0364453Y0069949D01*
X0363364Y0067951D02*
X0374653Y0067951D01*
X0374653Y0065952D02*
X0360494Y0065952D01*
X0374653Y0063954D02*
X0276338Y0063954D01*
X0274340Y0061955D02*
X0374653Y0061955D01*
X0374653Y0059957D02*
X0272341Y0059957D01*
X0270343Y0057958D02*
X0374653Y0057958D01*
X0358299Y0079942D02*
X0358299Y0079942D01*
X0358299Y0081940D02*
X0358299Y0081940D01*
X0358299Y0083939D02*
X0358299Y0083939D01*
X0358299Y0085937D02*
X0358299Y0085937D01*
X0358299Y0087936D02*
X0358299Y0087936D01*
X0358299Y0089934D02*
X0358299Y0089934D01*
X0361653Y0097929D02*
X0374653Y0097929D01*
X0374653Y0099927D02*
X0363824Y0099927D01*
X0364652Y0101926D02*
X0374653Y0101926D01*
X0374653Y0103924D02*
X0364799Y0103924D01*
X0364362Y0105923D02*
X0374653Y0105923D01*
X0374653Y0107921D02*
X0363145Y0107921D01*
X0359967Y0109920D02*
X0374653Y0109920D01*
X0374653Y0111918D02*
X0361507Y0111918D01*
X0363589Y0113917D02*
X0374653Y0113917D01*
X0374653Y0115915D02*
X0364450Y0115915D01*
X0364589Y0117914D02*
X0374653Y0117914D01*
X0374653Y0119912D02*
X0364067Y0119912D01*
X0358299Y0111918D02*
X0358299Y0111918D01*
X0361143Y0133902D02*
X0374653Y0133902D01*
X0374653Y0135900D02*
X0363720Y0135900D01*
X0364468Y0137899D02*
X0374653Y0137899D01*
X0374653Y0139897D02*
X0364411Y0139897D01*
X0363445Y0141896D02*
X0374653Y0141896D01*
X0374653Y0143894D02*
X0360488Y0143894D01*
X0363378Y0145893D02*
X0374653Y0145893D01*
X0374653Y0147891D02*
X0364196Y0147891D01*
X0364146Y0149890D02*
X0374653Y0149890D01*
X0374653Y0151888D02*
X0363148Y0151888D01*
X0356331Y0151888D02*
X0356331Y0151888D01*
X0356331Y0149890D02*
X0356331Y0149890D01*
X0358153Y0161754D02*
X0361619Y0162881D01*
X0364568Y0165023D01*
X0366710Y0167971D01*
X0366710Y0167971D01*
X0367836Y0171438D01*
X0367836Y0175082D01*
X0366710Y0178548D01*
X0366710Y0178548D01*
X0364568Y0181497D01*
X0364568Y0181497D01*
X0364568Y0181497D01*
X0361619Y0183639D01*
X0358153Y0184765D01*
X0023800Y0184765D01*
X0020334Y0183639D01*
X0020334Y0183639D01*
X0017385Y0181497D01*
X0015243Y0178548D01*
X0014117Y0175082D01*
X0014117Y0174374D01*
X0014117Y0171438D01*
X0015243Y0167971D01*
X0017385Y0165023D01*
X0017385Y0165023D01*
X0020334Y0162881D01*
X0023800Y0161754D01*
X0358153Y0161754D01*
X0358543Y0161881D02*
X0374653Y0161881D01*
X0374653Y0163879D02*
X0362994Y0163879D01*
X0361619Y0162881D02*
X0361619Y0162881D01*
X0364568Y0165023D02*
X0364568Y0165023D01*
X0364568Y0165023D01*
X0365189Y0165878D02*
X0374653Y0165878D01*
X0374653Y0167876D02*
X0366641Y0167876D01*
X0367328Y0169875D02*
X0374653Y0169875D01*
X0374653Y0171873D02*
X0367836Y0171873D01*
X0367836Y0173872D02*
X0374653Y0173872D01*
X0374653Y0175870D02*
X0367580Y0175870D01*
X0366931Y0177869D02*
X0374653Y0177869D01*
X0374653Y0179868D02*
X0365752Y0179868D01*
X0364060Y0181866D02*
X0374653Y0181866D01*
X0374653Y0183865D02*
X0360925Y0183865D01*
X0361619Y0183639D02*
X0361619Y0183639D01*
X0363199Y0191427D02*
X0362158Y0191664D01*
X0361150Y0192017D01*
X0360187Y0192481D01*
X0359282Y0193049D01*
X0358447Y0193715D01*
X0357692Y0194471D01*
X0357026Y0195306D01*
X0356457Y0196211D01*
X0355994Y0197173D01*
X0355641Y0198182D01*
X0355403Y0199223D01*
X0355336Y0199819D01*
X0363795Y0199819D01*
X0363795Y0201819D01*
X0355336Y0201819D01*
X0355403Y0202415D01*
X0355641Y0203456D01*
X0355994Y0204465D01*
X0356457Y0205427D01*
X0357026Y0206332D01*
X0357692Y0207167D01*
X0358447Y0207922D01*
X0359282Y0208589D01*
X0360187Y0209157D01*
X0361150Y0209620D01*
X0362158Y0209973D01*
X0363199Y0210211D01*
X0363795Y0210278D01*
X0363795Y0201819D01*
X0365795Y0201819D01*
X0365795Y0210278D01*
X0366391Y0210211D01*
X0367433Y0209973D01*
X0368441Y0209620D01*
X0369404Y0209157D01*
X0370308Y0208589D01*
X0371143Y0207922D01*
X0371899Y0207167D01*
X0372565Y0206332D01*
X0373133Y0205427D01*
X0373597Y0204465D01*
X0373950Y0203456D01*
X0374187Y0202415D01*
X0374255Y0201819D01*
X0365795Y0201819D01*
X0365795Y0199819D01*
X0365795Y0191360D01*
X0366391Y0191427D01*
X0367433Y0191664D01*
X0368441Y0192017D01*
X0369404Y0192481D01*
X0370308Y0193049D01*
X0371143Y0193715D01*
X0371899Y0194471D01*
X0372565Y0195306D01*
X0373133Y0196211D01*
X0373597Y0197173D01*
X0373950Y0198182D01*
X0374187Y0199223D01*
X0374255Y0199819D01*
X0365795Y0199819D01*
X0363795Y0199819D01*
X0363795Y0191360D01*
X0363199Y0191427D01*
X0363795Y0191859D02*
X0365795Y0191859D01*
X0365795Y0193857D02*
X0363795Y0193857D01*
X0363795Y0195856D02*
X0365795Y0195856D01*
X0365795Y0197854D02*
X0363795Y0197854D01*
X0363795Y0199853D02*
X0350688Y0199853D01*
X0350688Y0199437D02*
X0349973Y0196766D01*
X0348590Y0194372D01*
X0346636Y0192417D01*
X0344242Y0191035D01*
X0341571Y0190320D01*
X0338807Y0190320D01*
X0336136Y0191035D01*
X0333742Y0192417D01*
X0331788Y0194372D01*
X0330405Y0196766D01*
X0329690Y0199437D01*
X0329690Y0202201D01*
X0330405Y0204871D01*
X0331788Y0207266D01*
X0333742Y0209220D01*
X0336136Y0210603D01*
X0338807Y0211318D01*
X0341571Y0211318D01*
X0344242Y0210603D01*
X0346636Y0209220D01*
X0348590Y0207266D01*
X0349973Y0204871D01*
X0350688Y0202201D01*
X0350688Y0199437D01*
X0350264Y0197854D02*
X0355755Y0197854D01*
X0356680Y0195856D02*
X0349447Y0195856D01*
X0348075Y0193857D02*
X0358305Y0193857D01*
X0361603Y0191859D02*
X0345668Y0191859D01*
X0334710Y0191859D02*
X0305732Y0191859D01*
X0307844Y0193857D02*
X0332303Y0193857D01*
X0330931Y0195856D02*
X0309085Y0195856D01*
X0309842Y0197854D02*
X0330114Y0197854D01*
X0329690Y0199853D02*
X0310248Y0199853D01*
X0310248Y0201851D02*
X0329690Y0201851D01*
X0330131Y0203850D02*
X0309824Y0203850D01*
X0309047Y0205848D02*
X0330969Y0205848D01*
X0332369Y0207847D02*
X0307778Y0207847D01*
X0305618Y0209845D02*
X0334825Y0209845D01*
X0326061Y0213842D02*
X0343928Y0213842D01*
X0343640Y0214204D02*
X0344306Y0213368D01*
X0345061Y0212613D01*
X0345897Y0211947D01*
X0346801Y0211378D01*
X0347764Y0210915D01*
X0348772Y0210562D01*
X0349814Y0210324D01*
X0350409Y0210257D01*
X0350409Y0218716D01*
X0352409Y0218716D01*
X0352409Y0210257D01*
X0353005Y0210324D01*
X0354047Y0210562D01*
X0355055Y0210915D01*
X0356018Y0211378D01*
X0356922Y0211947D01*
X0357758Y0212613D01*
X0358513Y0213368D01*
X0359179Y0214204D01*
X0359748Y0215108D01*
X0360211Y0216071D01*
X0360564Y0217079D01*
X0360802Y0218121D01*
X0360869Y0218717D01*
X0352409Y0218717D01*
X0352409Y0220717D01*
X0350409Y0220717D01*
X0350409Y0229176D01*
X0349814Y0229109D01*
X0348772Y0228871D01*
X0347764Y0228518D01*
X0346801Y0228055D01*
X0345897Y0227486D01*
X0345061Y0226820D01*
X0344306Y0226065D01*
X0343640Y0225229D01*
X0343071Y0224325D01*
X0342608Y0223362D01*
X0342255Y0222354D01*
X0342017Y0221312D01*
X0341950Y0220717D01*
X0350409Y0220717D01*
X0350409Y0218717D01*
X0341950Y0218717D01*
X0342017Y0218121D01*
X0342255Y0217079D01*
X0342608Y0216071D01*
X0343071Y0215108D01*
X0343640Y0214204D01*
X0342719Y0215841D02*
X0326600Y0215841D01*
X0326176Y0217839D02*
X0342081Y0217839D01*
X0346061Y0211844D02*
X0323390Y0211844D01*
X0324061Y0219838D02*
X0350409Y0219838D01*
X0350409Y0221836D02*
X0352409Y0221836D01*
X0352409Y0220717D02*
X0352409Y0229176D01*
X0353005Y0229109D01*
X0354047Y0228871D01*
X0355055Y0228518D01*
X0356018Y0228055D01*
X0356922Y0227486D01*
X0357758Y0226820D01*
X0358513Y0226065D01*
X0359179Y0225229D01*
X0359748Y0224325D01*
X0360211Y0223362D01*
X0360564Y0222354D01*
X0360802Y0221312D01*
X0360869Y0220717D01*
X0352409Y0220717D01*
X0352409Y0219838D02*
X0374653Y0219838D01*
X0374653Y0221836D02*
X0360682Y0221836D01*
X0359984Y0223835D02*
X0374653Y0223835D01*
X0374653Y0225833D02*
X0358698Y0225833D01*
X0356372Y0227832D02*
X0374653Y0227832D01*
X0374653Y0229830D02*
X0295059Y0229830D01*
X0295059Y0227832D02*
X0346447Y0227832D01*
X0344121Y0225833D02*
X0295059Y0225833D01*
X0295059Y0223835D02*
X0342835Y0223835D01*
X0342137Y0221836D02*
X0295059Y0221836D01*
X0294939Y0219838D02*
X0294418Y0219838D01*
X0292824Y0217839D02*
X0292697Y0217839D01*
X0292400Y0215841D02*
X0252490Y0215841D01*
X0254488Y0217839D02*
X0266421Y0217839D01*
X0264700Y0219838D02*
X0256487Y0219838D01*
X0258485Y0221836D02*
X0264059Y0221836D01*
X0264059Y0223835D02*
X0260484Y0223835D01*
X0262482Y0225833D02*
X0264059Y0225833D01*
X0256599Y0231829D02*
X0201339Y0231829D01*
X0199341Y0233827D02*
X0258597Y0233827D01*
X0260596Y0235826D02*
X0197342Y0235826D01*
X0195344Y0237824D02*
X0262594Y0237824D01*
X0264593Y0239823D02*
X0193345Y0239823D01*
X0191347Y0241821D02*
X0266591Y0241821D01*
X0268590Y0243820D02*
X0189348Y0243820D01*
X0187350Y0245818D02*
X0270588Y0245818D01*
X0272587Y0247817D02*
X0185351Y0247817D01*
X0183353Y0249815D02*
X0274585Y0249815D01*
X0276584Y0251814D02*
X0181354Y0251814D01*
X0179356Y0253812D02*
X0278582Y0253812D01*
X0280581Y0255811D02*
X0177357Y0255811D01*
X0175359Y0257809D02*
X0282579Y0257809D01*
X0284578Y0259808D02*
X0173360Y0259808D01*
X0171362Y0261806D02*
X0286576Y0261806D01*
X0288575Y0263805D02*
X0169363Y0263805D01*
X0167365Y0265803D02*
X0207340Y0265803D01*
X0205341Y0267802D02*
X0165366Y0267802D01*
X0163367Y0269801D02*
X0203343Y0269801D01*
X0203417Y0288013D02*
X0202826Y0289442D01*
X0201363Y0290904D01*
X0199452Y0291696D01*
X0197383Y0291696D01*
X0195472Y0290904D01*
X0194009Y0289442D01*
X0193417Y0288013D01*
X0192826Y0289442D01*
X0191363Y0290904D01*
X0189452Y0291696D01*
X0187383Y0291696D01*
X0185472Y0290904D01*
X0184009Y0289442D01*
X0183417Y0288013D01*
X0182826Y0289442D01*
X0181363Y0290904D01*
X0179452Y0291696D01*
X0177383Y0291696D01*
X0175472Y0290904D01*
X0174009Y0289442D01*
X0173417Y0288013D01*
X0172826Y0289442D01*
X0171363Y0290904D01*
X0169452Y0291696D01*
X0167383Y0291696D01*
X0165472Y0290904D01*
X0164009Y0289442D01*
X0163417Y0288013D01*
X0162826Y0289442D01*
X0161363Y0290904D01*
X0159452Y0291696D01*
X0157383Y0291696D01*
X0155472Y0290904D01*
X0154009Y0289442D01*
X0153417Y0288013D01*
X0152826Y0289442D01*
X0151363Y0290904D01*
X0149452Y0291696D01*
X0147383Y0291696D01*
X0145472Y0290904D01*
X0144009Y0289442D01*
X0143417Y0288013D01*
X0142826Y0289442D01*
X0141363Y0290904D01*
X0139452Y0291696D01*
X0137383Y0291696D01*
X0135472Y0290904D01*
X0134009Y0289442D01*
X0133417Y0288013D01*
X0132826Y0289442D01*
X0131363Y0290904D01*
X0129452Y0291696D01*
X0127383Y0291696D01*
X0125472Y0290904D01*
X0124009Y0289442D01*
X0123417Y0288013D01*
X0122826Y0289442D01*
X0121363Y0290904D01*
X0119452Y0291696D01*
X0117383Y0291696D01*
X0115472Y0290904D01*
X0114009Y0289442D01*
X0113417Y0288013D01*
X0112826Y0289442D01*
X0111363Y0290904D01*
X0109452Y0291696D01*
X0107383Y0291696D01*
X0105472Y0290904D01*
X0104009Y0289442D01*
X0103217Y0287530D01*
X0103217Y0279462D01*
X0103617Y0278496D01*
X0077116Y0278496D01*
X0048282Y0307330D01*
X0048368Y0307358D01*
X0049069Y0307716D01*
X0049706Y0308178D01*
X0050263Y0308735D01*
X0050725Y0309372D01*
X0051082Y0310073D01*
X0051326Y0310821D01*
X0051449Y0311599D01*
X0051572Y0310821D01*
X0051815Y0310073D01*
X0052172Y0309372D01*
X0052635Y0308735D01*
X0053192Y0308178D01*
X0053828Y0307716D01*
X0054529Y0307358D01*
X0055278Y0307115D01*
X0056055Y0306992D01*
X0056449Y0306992D01*
X0056842Y0306992D01*
X0057620Y0307115D01*
X0058368Y0307358D01*
X0059069Y0307716D01*
X0059706Y0308178D01*
X0060263Y0308735D01*
X0060725Y0309372D01*
X0061082Y0310073D01*
X0061326Y0310821D01*
X0061449Y0311599D01*
X0061572Y0310821D01*
X0061815Y0310073D01*
X0062172Y0309372D01*
X0062635Y0308735D01*
X0063192Y0308178D01*
X0063828Y0307716D01*
X0064529Y0307358D01*
X0065278Y0307115D01*
X0066055Y0306992D01*
X0066449Y0306992D01*
X0066842Y0306992D01*
X0067620Y0307115D01*
X0068368Y0307358D01*
X0069069Y0307716D01*
X0069706Y0308178D01*
X0070263Y0308735D01*
X0070725Y0309372D01*
X0071082Y0310073D01*
X0071317Y0310794D01*
X0072040Y0309047D01*
X0073503Y0307584D01*
X0075414Y0306792D01*
X0077483Y0306792D01*
X0079394Y0307584D01*
X0080857Y0309047D01*
X0081449Y0310475D01*
X0082040Y0309047D01*
X0083503Y0307584D01*
X0085414Y0306792D01*
X0087483Y0306792D01*
X0089394Y0307584D01*
X0090857Y0309047D01*
X0091449Y0310475D01*
X0092040Y0309047D01*
X0093503Y0307584D01*
X0095414Y0306792D01*
X0097483Y0306792D01*
X0099394Y0307584D01*
X0100857Y0309047D01*
X0101449Y0310475D01*
X0102040Y0309047D01*
X0103503Y0307584D01*
X0103770Y0307473D01*
X0112762Y0298481D01*
X0113944Y0297299D01*
X0115488Y0296660D01*
X0120245Y0296660D01*
X0120891Y0296392D01*
X0206160Y0296392D01*
X0213746Y0288807D01*
X0213417Y0288013D01*
X0212826Y0289442D01*
X0211363Y0290904D01*
X0209452Y0291696D01*
X0207383Y0291696D01*
X0205472Y0290904D01*
X0204009Y0289442D01*
X0203417Y0288013D01*
X0202482Y0289786D02*
X0204353Y0289786D01*
X0208770Y0293783D02*
X0061830Y0293783D01*
X0059831Y0295781D02*
X0206771Y0295781D01*
X0210768Y0291784D02*
X0063828Y0291784D01*
X0065827Y0289786D02*
X0104353Y0289786D01*
X0103324Y0287787D02*
X0067825Y0287787D01*
X0069824Y0285789D02*
X0103217Y0285789D01*
X0103217Y0283790D02*
X0071822Y0283790D01*
X0073821Y0281792D02*
X0103217Y0281792D01*
X0103217Y0279793D02*
X0075819Y0279793D01*
X0063222Y0265803D02*
X0007300Y0265803D01*
X0007300Y0263805D02*
X0065220Y0263805D01*
X0067219Y0261806D02*
X0007300Y0261806D01*
X0007300Y0259808D02*
X0069963Y0259808D01*
X0061223Y0267802D02*
X0007300Y0267802D01*
X0007300Y0269801D02*
X0059225Y0269801D01*
X0057226Y0271799D02*
X0007300Y0271799D01*
X0007300Y0273798D02*
X0055228Y0273798D01*
X0053229Y0275796D02*
X0007300Y0275796D01*
X0007300Y0277795D02*
X0051231Y0277795D01*
X0049232Y0279793D02*
X0007300Y0279793D01*
X0007300Y0281792D02*
X0047234Y0281792D01*
X0045235Y0283790D02*
X0007300Y0283790D01*
X0007300Y0285789D02*
X0043237Y0285789D01*
X0041238Y0287787D02*
X0007300Y0287787D01*
X0007300Y0289786D02*
X0039240Y0289786D01*
X0037241Y0291784D02*
X0007300Y0291784D01*
X0007300Y0293783D02*
X0035243Y0293783D01*
X0033244Y0295781D02*
X0007300Y0295781D01*
X0007300Y0297780D02*
X0031246Y0297780D01*
X0029247Y0299778D02*
X0007300Y0299778D01*
X0007300Y0301777D02*
X0027249Y0301777D01*
X0025858Y0303775D02*
X0007300Y0303775D01*
X0007300Y0305774D02*
X0025649Y0305774D01*
X0025649Y0307772D02*
X0007300Y0307772D01*
X0007300Y0309771D02*
X0025649Y0309771D01*
X0025649Y0311769D02*
X0023945Y0311769D01*
X0011551Y0311769D02*
X0007300Y0311769D01*
X0007300Y0313768D02*
X0009316Y0313768D01*
X0008004Y0315766D02*
X0007260Y0315766D01*
X0046449Y0314992D02*
X0051449Y0314992D01*
X0051449Y0311599D01*
X0051449Y0314992D01*
X0056449Y0314992D01*
X0056449Y0314992D01*
X0061449Y0314992D01*
X0061449Y0311599D01*
X0061449Y0314992D01*
X0066449Y0314992D01*
X0066449Y0306992D01*
X0066449Y0314992D01*
X0066449Y0314992D01*
X0066449Y0314992D01*
X0061449Y0314992D01*
X0061449Y0318386D01*
X0061572Y0319163D01*
X0061815Y0319911D01*
X0061856Y0319992D01*
X0061041Y0319992D01*
X0061082Y0319911D01*
X0061326Y0319163D01*
X0061449Y0318386D01*
X0061449Y0314992D01*
X0056449Y0314992D01*
X0056449Y0306992D01*
X0056449Y0314992D01*
X0056449Y0314992D01*
X0056449Y0314992D01*
X0051449Y0314992D01*
X0046449Y0314992D01*
X0046449Y0314992D01*
X0051449Y0314992D02*
X0051449Y0318386D01*
X0051449Y0314992D01*
X0051449Y0315766D02*
X0051449Y0315766D01*
X0051449Y0317765D02*
X0051449Y0317765D01*
X0051449Y0318386D02*
X0051572Y0319163D01*
X0051815Y0319911D01*
X0051856Y0319992D01*
X0051041Y0319992D01*
X0051082Y0319911D01*
X0051326Y0319163D01*
X0051449Y0318386D01*
X0051131Y0319763D02*
X0051767Y0319763D01*
X0056449Y0313768D02*
X0056449Y0313768D01*
X0056449Y0311769D02*
X0056449Y0311769D01*
X0056449Y0309771D02*
X0056449Y0309771D01*
X0056449Y0307772D02*
X0056449Y0307772D01*
X0059147Y0307772D02*
X0063750Y0307772D01*
X0061969Y0309771D02*
X0060929Y0309771D01*
X0066449Y0309771D02*
X0066449Y0309771D01*
X0066449Y0311769D02*
X0066449Y0311769D01*
X0066449Y0313768D02*
X0066449Y0313768D01*
X0061449Y0315766D02*
X0061449Y0315766D01*
X0061449Y0317765D02*
X0061449Y0317765D01*
X0061131Y0319763D02*
X0061767Y0319763D01*
X0070929Y0309771D02*
X0071740Y0309771D01*
X0073315Y0307772D02*
X0069147Y0307772D01*
X0066449Y0307772D02*
X0066449Y0307772D01*
X0055834Y0299778D02*
X0111465Y0299778D01*
X0109467Y0301777D02*
X0053836Y0301777D01*
X0051837Y0303775D02*
X0107468Y0303775D01*
X0105470Y0305774D02*
X0049839Y0305774D01*
X0049147Y0307772D02*
X0053750Y0307772D01*
X0051969Y0309771D02*
X0050929Y0309771D01*
X0057833Y0297780D02*
X0113464Y0297780D01*
X0114353Y0289786D02*
X0112482Y0289786D01*
X0122482Y0289786D02*
X0124353Y0289786D01*
X0132482Y0289786D02*
X0134353Y0289786D01*
X0142482Y0289786D02*
X0144353Y0289786D01*
X0152482Y0289786D02*
X0154353Y0289786D01*
X0162482Y0289786D02*
X0164353Y0289786D01*
X0172482Y0289786D02*
X0174353Y0289786D01*
X0182482Y0289786D02*
X0184353Y0289786D01*
X0192482Y0289786D02*
X0194353Y0289786D01*
X0212482Y0289786D02*
X0212767Y0289786D01*
X0218651Y0295781D02*
X0229200Y0295781D01*
X0229200Y0296135D02*
X0229200Y0294465D01*
X0229839Y0292921D01*
X0231021Y0291739D01*
X0232137Y0291277D01*
X0230339Y0289479D01*
X0229700Y0287935D01*
X0229700Y0286265D01*
X0230339Y0284721D01*
X0231360Y0283700D01*
X0225354Y0283700D01*
X0223810Y0283061D01*
X0223617Y0282868D01*
X0223617Y0287530D01*
X0222826Y0289442D01*
X0222617Y0289650D01*
X0222617Y0290910D01*
X0221978Y0292454D01*
X0220796Y0293635D01*
X0216500Y0297932D01*
X0216665Y0298000D01*
X0217846Y0299181D01*
X0218486Y0300725D01*
X0218486Y0302396D01*
X0217846Y0303939D01*
X0214696Y0307090D01*
X0215414Y0306792D01*
X0217483Y0306792D01*
X0219394Y0307584D01*
X0220857Y0309047D01*
X0221449Y0310475D01*
X0222040Y0309047D01*
X0222249Y0308838D01*
X0222249Y0303616D01*
X0222888Y0302072D01*
X0226521Y0298439D01*
X0228065Y0297800D01*
X0229735Y0297800D01*
X0230119Y0297959D01*
X0229839Y0297679D01*
X0229200Y0296135D01*
X0229940Y0297780D02*
X0216652Y0297780D01*
X0218093Y0299778D02*
X0225182Y0299778D01*
X0223184Y0301777D02*
X0218486Y0301777D01*
X0217914Y0303775D02*
X0222249Y0303775D01*
X0222249Y0305774D02*
X0216012Y0305774D01*
X0219583Y0307772D02*
X0222249Y0307772D01*
X0221741Y0309771D02*
X0221157Y0309771D01*
X0221344Y0319763D02*
X0221554Y0319763D01*
X0222865Y0321762D02*
X0220033Y0321762D01*
X0212865Y0321762D02*
X0210033Y0321762D01*
X0211344Y0319763D02*
X0211554Y0319763D01*
X0202865Y0321762D02*
X0200033Y0321762D01*
X0201344Y0319763D02*
X0201554Y0319763D01*
X0192865Y0321762D02*
X0190033Y0321762D01*
X0191344Y0319763D02*
X0191554Y0319763D01*
X0182865Y0321762D02*
X0180033Y0321762D01*
X0181344Y0319763D02*
X0181554Y0319763D01*
X0172865Y0321762D02*
X0170033Y0321762D01*
X0171344Y0319763D02*
X0171554Y0319763D01*
X0162865Y0321762D02*
X0160033Y0321762D01*
X0161344Y0319763D02*
X0161554Y0319763D01*
X0152865Y0321762D02*
X0150033Y0321762D01*
X0151344Y0319763D02*
X0151554Y0319763D01*
X0145388Y0323760D02*
X0288619Y0323760D01*
X0288990Y0325145D02*
X0288240Y0322346D01*
X0288240Y0319449D01*
X0288990Y0316650D01*
X0290439Y0314141D01*
X0292488Y0312092D01*
X0294997Y0310644D01*
X0297795Y0309894D01*
X0300693Y0309894D01*
X0303491Y0310644D01*
X0306001Y0312092D01*
X0308049Y0314141D01*
X0309498Y0316650D01*
X0310248Y0319449D01*
X0310248Y0322346D01*
X0309498Y0325145D01*
X0308049Y0327654D01*
X0306001Y0329703D01*
X0303491Y0331152D01*
X0300693Y0331902D01*
X0297795Y0331902D01*
X0294997Y0331152D01*
X0292488Y0329703D01*
X0290439Y0327654D01*
X0288990Y0325145D01*
X0289344Y0325759D02*
X0143390Y0325759D01*
X0141391Y0327757D02*
X0290542Y0327757D01*
X0292579Y0329756D02*
X0139393Y0329756D01*
X0137394Y0331754D02*
X0297246Y0331754D01*
X0301242Y0331754D02*
X0368550Y0331754D01*
X0370391Y0329756D02*
X0305909Y0329756D01*
X0307946Y0327757D02*
X0371857Y0327757D01*
X0372870Y0325759D02*
X0309144Y0325759D01*
X0309869Y0323760D02*
X0373795Y0323760D01*
X0374284Y0321762D02*
X0362870Y0321762D01*
X0362227Y0322405D02*
X0363681Y0320951D01*
X0364468Y0319052D01*
X0364468Y0316996D01*
X0363681Y0315096D01*
X0362227Y0313642D01*
X0360390Y0312881D01*
X0360463Y0312870D01*
X0361206Y0312628D01*
X0361903Y0312273D01*
X0362536Y0311813D01*
X0363089Y0311260D01*
X0363549Y0310628D01*
X0363904Y0309931D01*
X0364145Y0309187D01*
X0364268Y0308415D01*
X0364268Y0308024D01*
X0356331Y0308024D01*
X0356331Y0308024D01*
X0364268Y0308024D01*
X0364268Y0307633D01*
X0364145Y0306860D01*
X0363904Y0306116D01*
X0363549Y0305420D01*
X0363089Y0304787D01*
X0362536Y0304234D01*
X0361903Y0303774D01*
X0361206Y0303419D01*
X0360463Y0303177D01*
X0359690Y0303055D01*
X0356331Y0303055D01*
X0356331Y0308023D01*
X0356331Y0308023D01*
X0356331Y0303055D01*
X0352971Y0303055D01*
X0352199Y0303177D01*
X0351455Y0303419D01*
X0350758Y0303774D01*
X0350125Y0304234D01*
X0349572Y0304787D01*
X0349113Y0305420D01*
X0348758Y0306116D01*
X0348516Y0306860D01*
X0348394Y0307633D01*
X0348394Y0308024D01*
X0356331Y0308024D01*
X0356331Y0308024D01*
X0348394Y0308024D01*
X0348394Y0308415D01*
X0348516Y0309187D01*
X0348758Y0309931D01*
X0349113Y0310628D01*
X0349572Y0311260D01*
X0350125Y0311813D01*
X0350758Y0312273D01*
X0351455Y0312628D01*
X0352199Y0312870D01*
X0352271Y0312881D01*
X0350434Y0313642D01*
X0348981Y0315096D01*
X0348194Y0316996D01*
X0348194Y0319052D01*
X0348981Y0320951D01*
X0350434Y0322405D01*
X0352334Y0323192D01*
X0360327Y0323192D01*
X0362227Y0322405D01*
X0364173Y0319763D02*
X0374752Y0319763D01*
X0374839Y0317765D02*
X0364468Y0317765D01*
X0363959Y0315766D02*
X0374916Y0315766D01*
X0374653Y0313768D02*
X0362353Y0313768D01*
X0362580Y0311769D02*
X0374653Y0311769D01*
X0374653Y0309771D02*
X0363956Y0309771D01*
X0364268Y0307772D02*
X0374653Y0307772D01*
X0374653Y0305774D02*
X0363729Y0305774D01*
X0361905Y0303775D02*
X0374653Y0303775D01*
X0374653Y0301777D02*
X0320174Y0301777D01*
X0321902Y0299778D02*
X0318175Y0299778D01*
X0316177Y0297780D02*
X0320793Y0297780D01*
X0320551Y0295781D02*
X0314178Y0295781D01*
X0312180Y0293783D02*
X0318552Y0293783D01*
X0319687Y0294918D02*
X0319687Y0294918D01*
X0316554Y0291784D02*
X0310181Y0291784D01*
X0308183Y0289786D02*
X0314555Y0289786D01*
X0312557Y0287787D02*
X0306184Y0287787D01*
X0304186Y0285789D02*
X0310558Y0285789D01*
X0308560Y0283790D02*
X0302187Y0283790D01*
X0300188Y0281792D02*
X0306561Y0281792D01*
X0304563Y0279793D02*
X0298190Y0279793D01*
X0296191Y0277795D02*
X0302564Y0277795D01*
X0300566Y0275796D02*
X0294193Y0275796D01*
X0292194Y0273798D02*
X0298567Y0273798D01*
X0296569Y0271799D02*
X0290196Y0271799D01*
X0288197Y0269801D02*
X0294570Y0269801D01*
X0292572Y0267802D02*
X0230959Y0267802D01*
X0228960Y0265803D02*
X0290573Y0265803D01*
X0296457Y0259808D02*
X0354048Y0259808D01*
X0354195Y0259955D02*
X0353494Y0259254D01*
X0352911Y0258452D01*
X0352461Y0257568D01*
X0352154Y0256625D01*
X0351999Y0255645D01*
X0351999Y0255150D01*
X0358299Y0255150D01*
X0358299Y0261450D01*
X0357803Y0261450D01*
X0356824Y0261294D01*
X0355881Y0260988D01*
X0354997Y0260538D01*
X0354195Y0259955D01*
X0352584Y0257809D02*
X0294459Y0257809D01*
X0292460Y0255811D02*
X0352025Y0255811D01*
X0351999Y0255150D02*
X0351999Y0254654D01*
X0352154Y0253674D01*
X0352461Y0252731D01*
X0352911Y0251848D01*
X0353494Y0251045D01*
X0354195Y0250344D01*
X0354997Y0249761D01*
X0355881Y0249311D01*
X0356824Y0249005D01*
X0357803Y0248850D01*
X0358299Y0248850D01*
X0358299Y0255149D01*
X0358299Y0255149D01*
X0358299Y0255150D02*
X0351999Y0255150D01*
X0352132Y0253812D02*
X0290462Y0253812D01*
X0288463Y0251814D02*
X0352935Y0251814D01*
X0354923Y0249815D02*
X0286465Y0249815D01*
X0284466Y0247817D02*
X0356878Y0247817D01*
X0357006Y0247870D02*
X0354617Y0246880D01*
X0352789Y0245052D01*
X0351799Y0242663D01*
X0351799Y0240077D01*
X0352789Y0237688D01*
X0354617Y0235860D01*
X0357006Y0234870D01*
X0359592Y0234870D01*
X0361981Y0235860D01*
X0363810Y0237688D01*
X0364799Y0240077D01*
X0364799Y0242663D01*
X0363810Y0245052D01*
X0361981Y0246880D01*
X0359592Y0247870D01*
X0357006Y0247870D01*
X0358299Y0248850D02*
X0358795Y0248850D01*
X0359774Y0249005D01*
X0360718Y0249311D01*
X0361601Y0249761D01*
X0362403Y0250344D01*
X0363105Y0251045D01*
X0363687Y0251848D01*
X0364138Y0252731D01*
X0364444Y0253674D01*
X0364599Y0254654D01*
X0364599Y0255150D01*
X0364599Y0255645D01*
X0364444Y0256625D01*
X0364138Y0257568D01*
X0363687Y0258452D01*
X0363105Y0259254D01*
X0362403Y0259955D01*
X0361601Y0260538D01*
X0360718Y0260988D01*
X0359774Y0261294D01*
X0358795Y0261450D01*
X0358299Y0261450D01*
X0358299Y0255150D01*
X0358299Y0255150D01*
X0358299Y0255150D01*
X0364599Y0255150D01*
X0358299Y0255150D01*
X0358299Y0255150D01*
X0358299Y0255149D02*
X0358299Y0248850D01*
X0358299Y0249815D02*
X0358299Y0249815D01*
X0358299Y0251814D02*
X0358299Y0251814D01*
X0358299Y0253812D02*
X0358299Y0253812D01*
X0358299Y0255811D02*
X0358299Y0255811D01*
X0358299Y0257809D02*
X0358299Y0257809D01*
X0358299Y0259808D02*
X0358299Y0259808D01*
X0362550Y0259808D02*
X0374653Y0259808D01*
X0374653Y0261806D02*
X0335681Y0261806D01*
X0334854Y0260980D02*
X0337666Y0263791D01*
X0337666Y0267768D01*
X0334854Y0270580D01*
X0330878Y0270580D01*
X0328066Y0267768D01*
X0328066Y0263791D01*
X0330878Y0260980D01*
X0334854Y0260980D01*
X0337666Y0263805D02*
X0374653Y0263805D01*
X0374653Y0265803D02*
X0337666Y0265803D01*
X0337632Y0267802D02*
X0354171Y0267802D01*
X0354617Y0267356D02*
X0357006Y0266366D01*
X0359592Y0266366D01*
X0361981Y0267356D01*
X0363810Y0269184D01*
X0364799Y0271573D01*
X0364799Y0274159D01*
X0363810Y0276548D01*
X0361981Y0278377D01*
X0359592Y0279366D01*
X0357006Y0279366D01*
X0354617Y0278377D01*
X0352789Y0276548D01*
X0351799Y0274159D01*
X0351799Y0271573D01*
X0352789Y0269184D01*
X0354617Y0267356D01*
X0352533Y0269801D02*
X0335633Y0269801D01*
X0330099Y0269801D02*
X0315351Y0269801D01*
X0314772Y0270380D02*
X0317466Y0267685D01*
X0317466Y0265780D01*
X0312866Y0265780D01*
X0312866Y0270380D01*
X0310961Y0270380D01*
X0308266Y0267685D01*
X0308266Y0265780D01*
X0312866Y0265780D01*
X0312866Y0265780D01*
X0312866Y0270380D01*
X0314772Y0270380D01*
X0312866Y0269801D02*
X0312866Y0269801D01*
X0312866Y0267802D02*
X0312866Y0267802D01*
X0312866Y0265803D02*
X0312866Y0265803D01*
X0312866Y0265780D02*
X0312866Y0265779D01*
X0312866Y0265779D01*
X0312866Y0261180D01*
X0310961Y0261180D01*
X0308266Y0263874D01*
X0308266Y0265779D01*
X0312866Y0265779D01*
X0312866Y0261180D01*
X0314772Y0261180D01*
X0317466Y0263874D01*
X0317466Y0265779D01*
X0312866Y0265779D01*
X0312866Y0265780D01*
X0312866Y0263805D02*
X0312866Y0263805D01*
X0312866Y0261806D02*
X0312866Y0261806D01*
X0310334Y0261806D02*
X0298456Y0261806D01*
X0300454Y0263805D02*
X0308335Y0263805D01*
X0308266Y0265803D02*
X0302453Y0265803D01*
X0304451Y0267802D02*
X0308383Y0267802D01*
X0306450Y0269801D02*
X0310382Y0269801D01*
X0308448Y0271799D02*
X0351799Y0271799D01*
X0351799Y0273798D02*
X0310447Y0273798D01*
X0312445Y0275796D02*
X0352477Y0275796D01*
X0354035Y0277795D02*
X0314444Y0277795D01*
X0316442Y0279793D02*
X0374653Y0279793D01*
X0374653Y0277795D02*
X0362563Y0277795D01*
X0364121Y0275796D02*
X0374653Y0275796D01*
X0374653Y0273798D02*
X0364799Y0273798D01*
X0364799Y0271799D02*
X0374653Y0271799D01*
X0374653Y0269801D02*
X0364065Y0269801D01*
X0362427Y0267802D02*
X0374653Y0267802D01*
X0374653Y0257809D02*
X0364015Y0257809D01*
X0364573Y0255811D02*
X0374653Y0255811D01*
X0374653Y0253812D02*
X0364466Y0253812D01*
X0363663Y0251814D02*
X0374653Y0251814D01*
X0374653Y0249815D02*
X0361676Y0249815D01*
X0359721Y0247817D02*
X0374653Y0247817D01*
X0374653Y0245818D02*
X0363043Y0245818D01*
X0364320Y0243820D02*
X0374653Y0243820D01*
X0374653Y0241821D02*
X0364799Y0241821D01*
X0364694Y0239823D02*
X0374653Y0239823D01*
X0374653Y0237824D02*
X0363866Y0237824D01*
X0361900Y0235826D02*
X0374653Y0235826D01*
X0374653Y0233827D02*
X0292469Y0233827D01*
X0294373Y0231829D02*
X0374653Y0231829D01*
X0374653Y0217839D02*
X0360737Y0217839D01*
X0360100Y0215841D02*
X0374653Y0215841D01*
X0374653Y0213842D02*
X0358891Y0213842D01*
X0356758Y0211844D02*
X0374653Y0211844D01*
X0374653Y0209845D02*
X0367799Y0209845D01*
X0365795Y0209845D02*
X0363795Y0209845D01*
X0363795Y0207847D02*
X0365795Y0207847D01*
X0365795Y0205848D02*
X0363795Y0205848D01*
X0363795Y0203850D02*
X0365795Y0203850D01*
X0365795Y0201851D02*
X0363795Y0201851D01*
X0365795Y0199853D02*
X0374653Y0199853D01*
X0374653Y0201851D02*
X0374251Y0201851D01*
X0374653Y0203850D02*
X0373812Y0203850D01*
X0374653Y0205848D02*
X0372869Y0205848D01*
X0371219Y0207847D02*
X0374653Y0207847D01*
X0374653Y0197854D02*
X0373835Y0197854D01*
X0374653Y0195856D02*
X0372910Y0195856D01*
X0371285Y0193857D02*
X0374653Y0193857D01*
X0374653Y0191859D02*
X0367987Y0191859D01*
X0374653Y0189860D02*
X0300861Y0189860D01*
X0297627Y0189860D02*
X0226273Y0189860D01*
X0228508Y0191859D02*
X0292756Y0191859D01*
X0290644Y0193857D02*
X0230506Y0193857D01*
X0232505Y0195856D02*
X0289403Y0195856D01*
X0288646Y0197854D02*
X0234503Y0197854D01*
X0236502Y0199853D02*
X0288240Y0199853D01*
X0288240Y0201851D02*
X0238500Y0201851D01*
X0240499Y0203850D02*
X0288664Y0203850D01*
X0289441Y0205848D02*
X0242497Y0205848D01*
X0244496Y0207847D02*
X0290710Y0207847D01*
X0292870Y0209845D02*
X0246494Y0209845D01*
X0248493Y0211844D02*
X0295610Y0211844D01*
X0292939Y0213842D02*
X0250491Y0213842D01*
X0244608Y0219838D02*
X0213330Y0219838D01*
X0211332Y0221836D02*
X0246606Y0221836D01*
X0248605Y0223835D02*
X0209333Y0223835D01*
X0207335Y0225833D02*
X0250603Y0225833D01*
X0252602Y0227832D02*
X0205336Y0227832D01*
X0203338Y0229830D02*
X0254600Y0229830D01*
X0242609Y0217839D02*
X0215329Y0217839D01*
X0217327Y0215841D02*
X0240611Y0215841D01*
X0238612Y0213842D02*
X0219326Y0213842D01*
X0220915Y0212253D02*
X0220915Y0212253D01*
X0221324Y0211844D02*
X0236613Y0211844D01*
X0234615Y0209845D02*
X0222604Y0209845D01*
X0223508Y0207847D02*
X0232616Y0207847D01*
X0230618Y0205848D02*
X0223932Y0205848D01*
X0223932Y0203850D02*
X0228619Y0203850D01*
X0226621Y0201851D02*
X0223932Y0201851D01*
X0223932Y0199853D02*
X0224622Y0199853D01*
X0272697Y0217839D02*
X0276992Y0217839D01*
X0279459Y0217839D02*
X0279659Y0217839D01*
X0279659Y0219838D02*
X0279459Y0219838D01*
X0279459Y0221836D02*
X0279659Y0221836D01*
X0279659Y0223835D02*
X0279459Y0223835D01*
X0279459Y0227832D02*
X0279659Y0227832D01*
X0279659Y0229830D02*
X0279459Y0229830D01*
X0279459Y0231829D02*
X0279659Y0231829D01*
X0279659Y0233827D02*
X0279459Y0233827D01*
X0277203Y0233827D02*
X0272469Y0233827D01*
X0272475Y0235826D02*
X0310724Y0235826D01*
X0310961Y0235589D02*
X0308266Y0238284D01*
X0308266Y0240189D01*
X0312866Y0240189D01*
X0312866Y0240189D01*
X0308266Y0240189D01*
X0308266Y0242094D01*
X0310961Y0244789D01*
X0312866Y0244789D01*
X0312866Y0240189D01*
X0312866Y0240189D01*
X0312866Y0240189D01*
X0312866Y0235589D01*
X0310961Y0235589D01*
X0312866Y0235589D02*
X0314772Y0235589D01*
X0317466Y0238284D01*
X0317466Y0240189D01*
X0317466Y0242094D01*
X0314772Y0244789D01*
X0312866Y0244789D01*
X0312866Y0240189D01*
X0312866Y0235589D01*
X0312866Y0235826D02*
X0312866Y0235826D01*
X0312866Y0237824D02*
X0312866Y0237824D01*
X0312866Y0239823D02*
X0312866Y0239823D01*
X0312866Y0240189D02*
X0312866Y0240189D01*
X0317466Y0240189D01*
X0312866Y0240189D01*
X0312866Y0241821D02*
X0312866Y0241821D01*
X0312866Y0243820D02*
X0312866Y0243820D01*
X0309992Y0243820D02*
X0280469Y0243820D01*
X0282468Y0245818D02*
X0353555Y0245818D01*
X0352278Y0243820D02*
X0336023Y0243820D01*
X0334854Y0244989D02*
X0337666Y0242177D01*
X0337666Y0238201D01*
X0334854Y0235389D01*
X0330878Y0235389D01*
X0328066Y0238201D01*
X0328066Y0242177D01*
X0330878Y0244989D01*
X0334854Y0244989D01*
X0337666Y0241821D02*
X0351799Y0241821D01*
X0351905Y0239823D02*
X0337666Y0239823D01*
X0337290Y0237824D02*
X0352732Y0237824D01*
X0354699Y0235826D02*
X0335291Y0235826D01*
X0330441Y0235826D02*
X0315008Y0235826D01*
X0317007Y0237824D02*
X0328443Y0237824D01*
X0328066Y0239823D02*
X0317466Y0239823D01*
X0317466Y0241821D02*
X0328066Y0241821D01*
X0329709Y0243820D02*
X0315741Y0243820D01*
X0308266Y0241821D02*
X0278471Y0241821D01*
X0276472Y0239823D02*
X0308266Y0239823D01*
X0308725Y0237824D02*
X0274473Y0237824D01*
X0274373Y0231829D02*
X0275012Y0231829D01*
X0281915Y0233827D02*
X0286649Y0233827D01*
X0284745Y0231829D02*
X0284107Y0231829D01*
X0284161Y0219838D02*
X0284700Y0219838D01*
X0286421Y0217839D02*
X0282126Y0217839D01*
X0274957Y0219838D02*
X0274418Y0219838D01*
X0315398Y0261806D02*
X0330051Y0261806D01*
X0328066Y0263805D02*
X0317397Y0263805D01*
X0317466Y0265803D02*
X0328066Y0265803D01*
X0328100Y0267802D02*
X0317349Y0267802D01*
X0318441Y0281792D02*
X0323845Y0281792D01*
X0321541Y0283790D02*
X0320439Y0283790D01*
X0328772Y0283790D02*
X0328772Y0283790D01*
X0328772Y0281792D02*
X0328772Y0281792D01*
X0328772Y0281402D02*
X0328772Y0286370D01*
X0328772Y0286370D01*
X0328772Y0281402D01*
X0328772Y0285789D02*
X0328772Y0285789D01*
X0333698Y0281792D02*
X0354262Y0281792D01*
X0354195Y0281840D02*
X0354997Y0281257D01*
X0355881Y0280807D01*
X0356824Y0280501D01*
X0357803Y0280346D01*
X0358299Y0280346D01*
X0358299Y0286646D01*
X0358299Y0292946D01*
X0357803Y0292946D01*
X0356824Y0292791D01*
X0355881Y0292484D01*
X0354997Y0292034D01*
X0354195Y0291451D01*
X0353494Y0290750D01*
X0352911Y0289948D01*
X0352461Y0289064D01*
X0352154Y0288121D01*
X0351999Y0287141D01*
X0351999Y0286646D01*
X0358299Y0286646D01*
X0358299Y0286646D01*
X0358299Y0286646D01*
X0358299Y0292946D01*
X0358795Y0292946D01*
X0359774Y0292791D01*
X0360718Y0292484D01*
X0361601Y0292034D01*
X0362403Y0291451D01*
X0363105Y0290750D01*
X0363687Y0289948D01*
X0364138Y0289064D01*
X0364444Y0288121D01*
X0364599Y0287141D01*
X0364599Y0286646D01*
X0358299Y0286646D01*
X0351999Y0286646D01*
X0351999Y0286150D01*
X0352154Y0285170D01*
X0352461Y0284227D01*
X0352911Y0283344D01*
X0353494Y0282541D01*
X0354195Y0281840D01*
X0352684Y0283790D02*
X0336002Y0283790D01*
X0336678Y0285789D02*
X0352056Y0285789D01*
X0352101Y0287787D02*
X0336504Y0287787D01*
X0335351Y0289786D02*
X0352828Y0289786D01*
X0354654Y0291784D02*
X0334175Y0291784D01*
X0336263Y0293783D02*
X0374653Y0293783D01*
X0374653Y0295781D02*
X0336909Y0295781D01*
X0336751Y0297780D02*
X0374653Y0297780D01*
X0374653Y0299778D02*
X0335641Y0299778D01*
X0334346Y0303775D02*
X0350757Y0303775D01*
X0348932Y0305774D02*
X0336170Y0305774D01*
X0336709Y0307772D02*
X0348394Y0307772D01*
X0348706Y0309771D02*
X0336397Y0309771D01*
X0336709Y0308024D02*
X0328772Y0308024D01*
X0328772Y0308024D01*
X0336709Y0308024D01*
X0335021Y0311769D02*
X0350081Y0311769D01*
X0350309Y0313768D02*
X0334794Y0313768D01*
X0336399Y0315766D02*
X0348703Y0315766D01*
X0348194Y0317765D02*
X0336909Y0317765D01*
X0336614Y0319763D02*
X0348488Y0319763D01*
X0349791Y0321762D02*
X0335311Y0321762D01*
X0322232Y0321762D02*
X0310248Y0321762D01*
X0310248Y0319763D02*
X0320929Y0319763D01*
X0320635Y0317765D02*
X0309797Y0317765D01*
X0308988Y0315766D02*
X0318883Y0315766D01*
X0316884Y0313768D02*
X0307676Y0313768D01*
X0305441Y0311769D02*
X0315582Y0311769D01*
X0315435Y0309771D02*
X0281157Y0309771D01*
X0281649Y0311769D02*
X0293047Y0311769D01*
X0290812Y0313768D02*
X0281649Y0313768D01*
X0281649Y0315766D02*
X0289500Y0315766D01*
X0288691Y0317765D02*
X0281649Y0317765D01*
X0281344Y0319763D02*
X0288240Y0319763D01*
X0288240Y0321762D02*
X0280033Y0321762D01*
X0272865Y0321762D02*
X0270033Y0321762D01*
X0271344Y0319763D02*
X0271554Y0319763D01*
X0262865Y0321762D02*
X0260033Y0321762D01*
X0261344Y0319763D02*
X0261554Y0319763D01*
X0252865Y0321762D02*
X0250033Y0321762D01*
X0251344Y0319763D02*
X0251554Y0319763D01*
X0242865Y0321762D02*
X0240033Y0321762D01*
X0241344Y0319763D02*
X0241554Y0319763D01*
X0232865Y0321762D02*
X0230033Y0321762D01*
X0231344Y0319763D02*
X0231554Y0319763D01*
X0261157Y0309771D02*
X0261741Y0309771D01*
X0260649Y0307772D02*
X0263315Y0307772D01*
X0260649Y0305774D02*
X0312291Y0305774D01*
X0314290Y0307772D02*
X0279583Y0307772D01*
X0273315Y0307772D02*
X0269583Y0307772D01*
X0271157Y0309771D02*
X0271741Y0309771D01*
X0260649Y0303775D02*
X0310293Y0303775D01*
X0308294Y0301777D02*
X0260649Y0301777D01*
X0260054Y0299778D02*
X0306296Y0299778D01*
X0304297Y0297780D02*
X0258119Y0297780D01*
X0256121Y0295781D02*
X0276185Y0295781D01*
X0272299Y0293783D02*
X0254122Y0293783D01*
X0252124Y0291784D02*
X0270324Y0291784D01*
X0269170Y0289786D02*
X0250125Y0289786D01*
X0248127Y0287787D02*
X0268459Y0287787D01*
X0268059Y0285789D02*
X0246128Y0285789D01*
X0244130Y0283790D02*
X0268059Y0283790D01*
X0268454Y0281792D02*
X0242131Y0281792D01*
X0240133Y0279793D02*
X0269159Y0279793D01*
X0270313Y0277795D02*
X0238134Y0277795D01*
X0231270Y0283790D02*
X0223617Y0283790D01*
X0223617Y0285789D02*
X0229897Y0285789D01*
X0229700Y0287787D02*
X0223511Y0287787D01*
X0222617Y0289786D02*
X0230646Y0289786D01*
X0230976Y0291784D02*
X0222255Y0291784D01*
X0220649Y0293783D02*
X0229482Y0293783D01*
X0282933Y0295781D02*
X0302299Y0295781D01*
X0300300Y0293783D02*
X0286819Y0293783D01*
X0288794Y0291784D02*
X0298302Y0291784D01*
X0296303Y0289786D02*
X0289948Y0289786D01*
X0290659Y0287787D02*
X0294305Y0287787D01*
X0292306Y0285789D02*
X0291059Y0285789D01*
X0322172Y0303775D02*
X0323198Y0303775D01*
X0328772Y0303775D02*
X0328772Y0303775D01*
X0328772Y0303055D02*
X0328772Y0308023D01*
X0328772Y0308023D01*
X0328772Y0303055D01*
X0328772Y0305774D02*
X0328772Y0305774D01*
X0328772Y0307772D02*
X0328772Y0307772D01*
X0356331Y0307772D02*
X0356331Y0307772D01*
X0356331Y0305774D02*
X0356331Y0305774D01*
X0356331Y0303775D02*
X0356331Y0303775D01*
X0358299Y0291784D02*
X0358299Y0291784D01*
X0358299Y0289786D02*
X0358299Y0289786D01*
X0358299Y0287787D02*
X0358299Y0287787D01*
X0358299Y0286646D02*
X0358299Y0286646D01*
X0358299Y0286646D01*
X0364599Y0286646D01*
X0364599Y0286150D01*
X0364444Y0285170D01*
X0364138Y0284227D01*
X0363687Y0283344D01*
X0363105Y0282541D01*
X0362403Y0281840D01*
X0361601Y0281257D01*
X0360718Y0280807D01*
X0359774Y0280501D01*
X0358795Y0280346D01*
X0358299Y0280346D01*
X0358299Y0286646D01*
X0358299Y0285789D02*
X0358299Y0285789D01*
X0358299Y0283790D02*
X0358299Y0283790D01*
X0358299Y0281792D02*
X0358299Y0281792D01*
X0362336Y0281792D02*
X0374653Y0281792D01*
X0374653Y0283790D02*
X0363915Y0283790D01*
X0364542Y0285789D02*
X0374653Y0285789D01*
X0374653Y0287787D02*
X0364497Y0287787D01*
X0363770Y0289786D02*
X0374653Y0289786D01*
X0374653Y0291784D02*
X0361945Y0291784D01*
X0366191Y0333753D02*
X0135396Y0333753D01*
X0133397Y0335751D02*
X0362651Y0335751D01*
X0352409Y0227832D02*
X0350409Y0227832D01*
X0350409Y0225833D02*
X0352409Y0225833D01*
X0352409Y0223835D02*
X0350409Y0223835D01*
X0350409Y0217839D02*
X0352409Y0217839D01*
X0352409Y0215841D02*
X0350409Y0215841D01*
X0350409Y0213842D02*
X0352409Y0213842D01*
X0352409Y0211844D02*
X0350409Y0211844D01*
X0345553Y0209845D02*
X0361792Y0209845D01*
X0358371Y0207847D02*
X0348009Y0207847D01*
X0349409Y0205848D02*
X0356722Y0205848D01*
X0355778Y0203850D02*
X0350246Y0203850D01*
X0350688Y0201851D02*
X0355340Y0201851D01*
X0374653Y0187862D02*
X0007300Y0187862D01*
X0007300Y0189860D02*
X0016131Y0189860D01*
X0019365Y0189860D02*
X0084188Y0189860D01*
X0081953Y0191859D02*
X0024236Y0191859D01*
X0026348Y0193857D02*
X0079955Y0193857D01*
X0075310Y0195856D02*
X0072154Y0195856D01*
X0073560Y0197854D02*
X0073905Y0197854D01*
X0065310Y0195856D02*
X0027589Y0195856D01*
X0028346Y0197854D02*
X0063905Y0197854D01*
X0063532Y0199853D02*
X0028752Y0199853D01*
X0028752Y0201851D02*
X0063532Y0201851D01*
X0063532Y0203850D02*
X0028328Y0203850D01*
X0027551Y0205848D02*
X0063532Y0205848D01*
X0063957Y0207847D02*
X0026282Y0207847D01*
X0024122Y0209845D02*
X0065436Y0209845D01*
X0072028Y0209845D02*
X0075436Y0209845D01*
X0073957Y0207847D02*
X0073508Y0207847D01*
X0082028Y0209845D02*
X0085436Y0209845D01*
X0083957Y0207847D02*
X0083508Y0207847D01*
X0092028Y0209845D02*
X0095811Y0209845D01*
X0094170Y0207847D02*
X0093508Y0207847D01*
X0098732Y0207847D02*
X0098732Y0207847D01*
X0098732Y0209845D02*
X0098732Y0209845D01*
X0098732Y0210787D02*
X0098732Y0202788D01*
X0098732Y0202788D01*
X0098732Y0210787D01*
X0101654Y0209845D02*
X0105436Y0209845D01*
X0103957Y0207847D02*
X0103295Y0207847D01*
X0098732Y0205848D02*
X0098732Y0205848D01*
X0098732Y0203850D02*
X0098732Y0203850D01*
X0112028Y0209845D02*
X0115436Y0209845D01*
X0113957Y0207847D02*
X0113508Y0207847D01*
X0122028Y0209845D02*
X0125436Y0209845D01*
X0123957Y0207847D02*
X0123508Y0207847D01*
X0132028Y0209845D02*
X0135436Y0209845D01*
X0133957Y0207847D02*
X0133508Y0207847D01*
X0142028Y0209845D02*
X0145436Y0209845D01*
X0143957Y0207847D02*
X0143508Y0207847D01*
X0152028Y0209845D02*
X0155436Y0209845D01*
X0153957Y0207847D02*
X0153508Y0207847D01*
X0162028Y0209845D02*
X0164623Y0209845D01*
X0164623Y0211844D02*
X0007300Y0211844D01*
X0007300Y0213842D02*
X0164623Y0213842D01*
X0164623Y0215841D02*
X0007300Y0215841D01*
X0007300Y0217839D02*
X0164623Y0217839D01*
X0163969Y0219838D02*
X0007300Y0219838D01*
X0007300Y0221836D02*
X0161970Y0221836D01*
X0160372Y0223835D02*
X0007300Y0223835D01*
X0007300Y0225833D02*
X0158373Y0225833D01*
X0156375Y0227832D02*
X0007300Y0227832D01*
X0007300Y0229830D02*
X0154376Y0229830D01*
X0152378Y0231829D02*
X0007300Y0231829D01*
X0007300Y0233827D02*
X0150379Y0233827D01*
X0148381Y0235826D02*
X0007300Y0235826D01*
X0007300Y0237824D02*
X0146382Y0237824D01*
X0144384Y0239823D02*
X0007300Y0239823D01*
X0007300Y0241821D02*
X0095230Y0241821D01*
X0092874Y0243820D02*
X0007300Y0243820D01*
X0007300Y0245818D02*
X0092400Y0245818D01*
X0092889Y0247817D02*
X0007300Y0247817D01*
X0007300Y0249815D02*
X0092710Y0249815D01*
X0092400Y0251814D02*
X0007300Y0251814D01*
X0007300Y0253812D02*
X0093073Y0253812D01*
X0092334Y0255811D02*
X0007300Y0255811D01*
X0007300Y0257809D02*
X0092300Y0257809D01*
X0104713Y0243820D02*
X0140387Y0243820D01*
X0142385Y0241821D02*
X0102124Y0241821D01*
X0163508Y0207847D02*
X0163957Y0207847D01*
X0132101Y0159882D02*
X0374653Y0159882D01*
X0374653Y0157884D02*
X0134100Y0157884D01*
X0144092Y0147891D02*
X0296637Y0147891D01*
X0293717Y0145893D02*
X0277807Y0145893D01*
X0275091Y0145893D02*
X0267807Y0145893D01*
X0265091Y0145893D02*
X0257807Y0145893D01*
X0255091Y0145893D02*
X0247807Y0145893D01*
X0245091Y0145893D02*
X0237807Y0145893D01*
X0235091Y0145893D02*
X0227807Y0145893D01*
X0225091Y0145893D02*
X0217807Y0145893D01*
X0215091Y0145893D02*
X0207807Y0145893D01*
X0205091Y0145893D02*
X0197807Y0145893D01*
X0195091Y0145893D02*
X0187807Y0145893D01*
X0185091Y0145893D02*
X0177807Y0145893D01*
X0175091Y0145893D02*
X0167807Y0145893D01*
X0165091Y0145893D02*
X0157807Y0145893D01*
X0155091Y0145893D02*
X0147807Y0145893D01*
X0150735Y0143894D02*
X0152162Y0143894D01*
X0160735Y0143894D02*
X0162162Y0143894D01*
X0170735Y0143894D02*
X0172162Y0143894D01*
X0180735Y0143894D02*
X0182162Y0143894D01*
X0190735Y0143894D02*
X0192162Y0143894D01*
X0200735Y0143894D02*
X0202162Y0143894D01*
X0210735Y0143894D02*
X0212162Y0143894D01*
X0220735Y0143894D02*
X0222162Y0143894D01*
X0230735Y0143894D02*
X0232162Y0143894D01*
X0240735Y0143894D02*
X0242162Y0143894D01*
X0250735Y0143894D02*
X0252162Y0143894D01*
X0260735Y0143894D02*
X0262162Y0143894D01*
X0270735Y0143894D02*
X0272162Y0143894D01*
X0280735Y0143894D02*
X0292009Y0143894D01*
X0290911Y0141896D02*
X0281634Y0141896D01*
X0281649Y0139897D02*
X0290375Y0139897D01*
X0290209Y0137899D02*
X0281649Y0137899D01*
X0281649Y0135900D02*
X0290337Y0135900D01*
X0290872Y0133902D02*
X0281649Y0133902D01*
X0280866Y0131903D02*
X0291926Y0131903D01*
X0293573Y0129905D02*
X0278154Y0129905D01*
X0274743Y0129905D02*
X0268154Y0129905D01*
X0270866Y0131903D02*
X0272031Y0131903D01*
X0243171Y0101926D02*
X0228817Y0101926D01*
X0228817Y0103924D02*
X0241173Y0103924D01*
X0239174Y0105923D02*
X0228817Y0105923D01*
X0228817Y0107921D02*
X0237176Y0107921D01*
X0235177Y0109920D02*
X0228817Y0109920D01*
X0228340Y0111918D02*
X0233179Y0111918D01*
X0231180Y0113917D02*
X0226571Y0113917D01*
X0224572Y0115915D02*
X0229182Y0115915D01*
X0227183Y0117914D02*
X0222574Y0117914D01*
X0220575Y0119912D02*
X0225185Y0119912D01*
X0223186Y0121911D02*
X0218577Y0121911D01*
X0222249Y0123909D02*
X0129130Y0123909D01*
X0127132Y0125908D02*
X0222249Y0125908D01*
X0222249Y0127906D02*
X0125133Y0127906D01*
X0124743Y0129905D02*
X0123135Y0129905D01*
X0122031Y0131903D02*
X0121136Y0131903D01*
X0128154Y0129905D02*
X0134743Y0129905D01*
X0132031Y0131903D02*
X0130866Y0131903D01*
X0138154Y0129905D02*
X0144743Y0129905D01*
X0142031Y0131903D02*
X0140866Y0131903D01*
X0148154Y0129905D02*
X0154743Y0129905D01*
X0152031Y0131903D02*
X0150866Y0131903D01*
X0158154Y0129905D02*
X0164743Y0129905D01*
X0162031Y0131903D02*
X0160866Y0131903D01*
X0168154Y0129905D02*
X0174743Y0129905D01*
X0172031Y0131903D02*
X0170866Y0131903D01*
X0178154Y0129905D02*
X0184743Y0129905D01*
X0182031Y0131903D02*
X0180866Y0131903D01*
X0188154Y0129905D02*
X0194743Y0129905D01*
X0192031Y0131903D02*
X0190866Y0131903D01*
X0198154Y0129905D02*
X0204743Y0129905D01*
X0202031Y0131903D02*
X0200866Y0131903D01*
X0208154Y0129905D02*
X0214743Y0129905D01*
X0212031Y0131903D02*
X0210866Y0131903D01*
X0218154Y0129905D02*
X0222249Y0129905D01*
X0222031Y0131903D02*
X0220866Y0131903D01*
X0228817Y0099927D02*
X0230087Y0099927D01*
X0228821Y0097929D02*
X0228805Y0097929D01*
X0228714Y0095930D02*
X0227693Y0095930D01*
X0225694Y0093932D02*
X0229829Y0093932D01*
X0226051Y0089934D02*
X0287041Y0089934D01*
X0285043Y0087936D02*
X0228050Y0087936D01*
X0230048Y0085937D02*
X0283044Y0085937D01*
X0250871Y0049964D02*
X0197845Y0049964D01*
X0199843Y0047966D02*
X0248873Y0047966D01*
X0246874Y0045967D02*
X0201842Y0045967D01*
X0203840Y0043969D02*
X0244876Y0043969D01*
X0242877Y0041970D02*
X0205839Y0041970D01*
X0207837Y0039972D02*
X0240879Y0039972D01*
X0238880Y0037973D02*
X0209836Y0037973D01*
X0217065Y0035975D02*
X0236882Y0035975D01*
X0234883Y0033976D02*
X0219063Y0033976D01*
X0221062Y0031978D02*
X0232885Y0031978D01*
X0230886Y0029979D02*
X0222761Y0029979D01*
X0223811Y0027981D02*
X0228888Y0027981D01*
X0226889Y0025982D02*
X0223932Y0025982D01*
X0223932Y0023984D02*
X0224891Y0023984D01*
X0244764Y0031978D02*
X0325829Y0031978D01*
X0327789Y0033976D02*
X0321688Y0033976D01*
X0322700Y0035975D02*
X0332354Y0035975D01*
X0336213Y0035975D02*
X0341325Y0035975D01*
X0340777Y0033976D02*
X0354315Y0033976D01*
X0351794Y0031978D02*
X0342737Y0031978D01*
X0343891Y0029979D02*
X0350431Y0029979D01*
X0349672Y0027981D02*
X0344521Y0027981D01*
X0344504Y0035975D02*
X0346504Y0035975D01*
X0346504Y0037973D02*
X0344504Y0037973D01*
X0344504Y0039972D02*
X0346504Y0039972D01*
X0346504Y0041970D02*
X0344504Y0041970D01*
X0344504Y0047966D02*
X0346504Y0047966D01*
X0346504Y0049964D02*
X0344504Y0049964D01*
X0344504Y0051963D02*
X0346504Y0051963D01*
X0336329Y0041970D02*
X0290897Y0041970D01*
X0282870Y0037973D02*
X0276170Y0037973D01*
X0279650Y0039972D02*
X0280942Y0039972D01*
X0282700Y0035975D02*
X0248761Y0035975D01*
X0246763Y0033976D02*
X0283712Y0033976D01*
X0271279Y0039972D02*
X0269987Y0039972D01*
X0296097Y0007996D02*
X0024833Y0007996D01*
X0007300Y0031978D02*
X0164023Y0031978D01*
X0163984Y0033976D02*
X0007300Y0033976D01*
X0007300Y0035975D02*
X0161986Y0035975D01*
X0159987Y0037973D02*
X0007300Y0037973D01*
X0007300Y0039972D02*
X0157989Y0039972D01*
X0155990Y0041970D02*
X0007300Y0041970D01*
X0007300Y0043969D02*
X0153992Y0043969D01*
X0151993Y0045967D02*
X0007300Y0045967D01*
X0007300Y0047966D02*
X0149995Y0047966D01*
X0147996Y0049964D02*
X0007300Y0049964D01*
X0007300Y0051963D02*
X0145998Y0051963D01*
X0143999Y0053961D02*
X0007300Y0053961D01*
X0007300Y0055960D02*
X0142000Y0055960D01*
X0140002Y0057958D02*
X0007300Y0057958D01*
X0007300Y0059957D02*
X0138003Y0059957D01*
X0136005Y0061955D02*
X0007300Y0061955D01*
X0007300Y0063954D02*
X0134006Y0063954D01*
X0098732Y0031654D02*
X0098732Y0023654D01*
X0098732Y0031654D01*
X0098732Y0029979D02*
X0098732Y0029979D01*
X0098732Y0027981D02*
X0098732Y0027981D01*
X0098732Y0025982D02*
X0098732Y0025982D01*
X0098732Y0023984D02*
X0098732Y0023984D01*
X0098732Y0023654D02*
X0098732Y0023654D01*
X0093906Y0027981D02*
X0093811Y0027981D01*
X0092761Y0029979D02*
X0094987Y0029979D01*
X0102478Y0029979D02*
X0104704Y0029979D01*
X0103654Y0027981D02*
X0103558Y0027981D01*
X0112761Y0029979D02*
X0114704Y0029979D01*
X0122761Y0029979D02*
X0124704Y0029979D01*
X0132761Y0029979D02*
X0134704Y0029979D01*
X0142761Y0029979D02*
X0144704Y0029979D01*
X0152761Y0029979D02*
X0154704Y0029979D01*
X0162761Y0029979D02*
X0164023Y0029979D01*
X0093899Y0065952D02*
X0007300Y0065952D01*
X0007300Y0067951D02*
X0092680Y0067951D01*
X0092638Y0069949D02*
X0007300Y0069949D01*
X0007300Y0071948D02*
X0092258Y0071948D01*
X0091671Y0073946D02*
X0007300Y0073946D01*
X0007300Y0075945D02*
X0092048Y0075945D01*
X0092557Y0077943D02*
X0007300Y0077943D01*
X0007300Y0079942D02*
X0092300Y0079942D01*
X0103538Y0099554D02*
X0078893Y0099554D01*
X0048282Y0130165D01*
X0048368Y0130193D01*
X0049069Y0130550D01*
X0049706Y0131013D01*
X0050263Y0131569D01*
X0050725Y0132206D01*
X0051082Y0132907D01*
X0051326Y0133656D01*
X0051449Y0134433D01*
X0051572Y0133656D01*
X0051815Y0132907D01*
X0052172Y0132206D01*
X0052635Y0131569D01*
X0053192Y0131013D01*
X0053828Y0130550D01*
X0054529Y0130193D01*
X0055278Y0129950D01*
X0056055Y0129827D01*
X0056449Y0129827D01*
X0056842Y0129827D01*
X0057620Y0129950D01*
X0058368Y0130193D01*
X0059069Y0130550D01*
X0059706Y0131013D01*
X0060263Y0131569D01*
X0060725Y0132206D01*
X0061082Y0132907D01*
X0061326Y0133656D01*
X0061449Y0134433D01*
X0061572Y0133656D01*
X0061815Y0132907D01*
X0062172Y0132206D01*
X0062635Y0131569D01*
X0063192Y0131013D01*
X0063828Y0130550D01*
X0064529Y0130193D01*
X0065278Y0129950D01*
X0066055Y0129827D01*
X0066449Y0129827D01*
X0066842Y0129827D01*
X0067620Y0129950D01*
X0068368Y0130193D01*
X0069069Y0130550D01*
X0069706Y0131013D01*
X0070263Y0131569D01*
X0070725Y0132206D01*
X0071082Y0132907D01*
X0071317Y0133628D01*
X0072040Y0131881D01*
X0073503Y0130418D01*
X0075414Y0129627D01*
X0077483Y0129627D01*
X0079394Y0130418D01*
X0080857Y0131881D01*
X0081449Y0133310D01*
X0082040Y0131881D01*
X0083503Y0130418D01*
X0085414Y0129627D01*
X0087483Y0129627D01*
X0089394Y0130418D01*
X0090857Y0131881D01*
X0091449Y0133310D01*
X0092040Y0131881D01*
X0093503Y0130418D01*
X0095414Y0129627D01*
X0097483Y0129627D01*
X0099394Y0130418D01*
X0100857Y0131881D01*
X0101449Y0133310D01*
X0102040Y0131881D01*
X0102807Y0131115D01*
X0102888Y0130918D01*
X0104070Y0129737D01*
X0122623Y0111183D01*
X0123805Y0110002D01*
X0123871Y0109974D01*
X0123417Y0108879D01*
X0122826Y0110308D01*
X0121363Y0111771D01*
X0119452Y0112562D01*
X0117383Y0112562D01*
X0115472Y0111771D01*
X0114009Y0110308D01*
X0113417Y0108879D01*
X0112826Y0110308D01*
X0111363Y0111771D01*
X0109452Y0112562D01*
X0107383Y0112562D01*
X0105472Y0111771D01*
X0104009Y0110308D01*
X0103217Y0108397D01*
X0103217Y0100328D01*
X0103538Y0099554D01*
X0103383Y0099927D02*
X0078520Y0099927D01*
X0076522Y0101926D02*
X0103217Y0101926D01*
X0103217Y0103924D02*
X0074523Y0103924D01*
X0072525Y0105923D02*
X0103217Y0105923D01*
X0103217Y0107921D02*
X0070526Y0107921D01*
X0068528Y0109920D02*
X0103848Y0109920D01*
X0105828Y0111918D02*
X0066529Y0111918D01*
X0064530Y0113917D02*
X0119890Y0113917D01*
X0121007Y0111918D02*
X0121888Y0111918D01*
X0122623Y0111183D02*
X0122623Y0111183D01*
X0122986Y0109920D02*
X0123848Y0109920D01*
X0115828Y0111918D02*
X0111007Y0111918D01*
X0112986Y0109920D02*
X0113848Y0109920D01*
X0117891Y0115915D02*
X0062532Y0115915D01*
X0060533Y0117914D02*
X0115893Y0117914D01*
X0113894Y0119912D02*
X0058535Y0119912D01*
X0056536Y0121911D02*
X0111896Y0121911D01*
X0109897Y0123909D02*
X0054538Y0123909D01*
X0052539Y0125908D02*
X0107899Y0125908D01*
X0105900Y0127906D02*
X0050541Y0127906D01*
X0048542Y0129905D02*
X0055563Y0129905D01*
X0056449Y0129905D02*
X0056449Y0129905D01*
X0056449Y0129827D02*
X0056449Y0137827D01*
X0061449Y0137827D01*
X0066449Y0137827D01*
X0066449Y0137827D01*
X0066449Y0129827D01*
X0066449Y0137827D01*
X0066449Y0137827D01*
X0061449Y0137827D01*
X0061449Y0141220D01*
X0061572Y0141998D01*
X0061815Y0142746D01*
X0061856Y0142827D01*
X0061041Y0142827D01*
X0061082Y0142746D01*
X0061326Y0141998D01*
X0061449Y0141220D01*
X0061449Y0137827D01*
X0061449Y0134433D01*
X0061449Y0137827D01*
X0056449Y0137827D01*
X0056449Y0137827D01*
X0056449Y0137827D01*
X0051449Y0137827D01*
X0051449Y0141220D01*
X0051572Y0141998D01*
X0051815Y0142746D01*
X0051856Y0142827D01*
X0051041Y0142827D01*
X0051082Y0142746D01*
X0051326Y0141998D01*
X0051449Y0141220D01*
X0051449Y0137827D01*
X0046449Y0137827D01*
X0046449Y0137827D01*
X0051449Y0137827D01*
X0051449Y0134433D01*
X0051449Y0137827D01*
X0056449Y0137827D01*
X0056449Y0137827D01*
X0056449Y0129827D01*
X0057334Y0129905D02*
X0065563Y0129905D01*
X0066449Y0129905D02*
X0066449Y0129905D01*
X0067334Y0129905D02*
X0074743Y0129905D01*
X0072031Y0131903D02*
X0070505Y0131903D01*
X0066449Y0131903D02*
X0066449Y0131903D01*
X0066449Y0133902D02*
X0066449Y0133902D01*
X0066449Y0135900D02*
X0066449Y0135900D01*
X0061533Y0133902D02*
X0061365Y0133902D01*
X0060505Y0131903D02*
X0062393Y0131903D01*
X0056449Y0131903D02*
X0056449Y0131903D01*
X0056449Y0133902D02*
X0056449Y0133902D01*
X0056449Y0135900D02*
X0056449Y0135900D01*
X0061449Y0137899D02*
X0061449Y0137899D01*
X0061449Y0139897D02*
X0061449Y0139897D01*
X0061342Y0141896D02*
X0061556Y0141896D01*
X0052393Y0131903D02*
X0050505Y0131903D01*
X0051365Y0133902D02*
X0051533Y0133902D01*
X0051449Y0137899D02*
X0051449Y0137899D01*
X0051449Y0139897D02*
X0051449Y0139897D01*
X0051342Y0141896D02*
X0051556Y0141896D01*
X0030849Y0141896D02*
X0030018Y0141896D01*
X0029971Y0142074D02*
X0030720Y0139275D01*
X0030720Y0136378D01*
X0029971Y0133579D01*
X0028522Y0131070D01*
X0026473Y0129021D01*
X0023964Y0127573D01*
X0021165Y0126823D01*
X0018268Y0126823D01*
X0015469Y0127573D01*
X0012960Y0129021D01*
X0010911Y0131070D01*
X0009463Y0133579D01*
X0008713Y0136378D01*
X0008713Y0139275D01*
X0009463Y0142074D01*
X0010911Y0144583D01*
X0012960Y0146632D01*
X0015469Y0148081D01*
X0018268Y0148831D01*
X0021165Y0148831D01*
X0023964Y0148081D01*
X0026473Y0146632D01*
X0028522Y0144583D01*
X0029971Y0142074D01*
X0030849Y0143894D02*
X0028920Y0143894D01*
X0027212Y0145893D02*
X0030849Y0145893D01*
X0031473Y0147891D02*
X0024292Y0147891D01*
X0030570Y0149890D02*
X0007300Y0149890D01*
X0007300Y0151888D02*
X0029700Y0151888D01*
X0029928Y0153887D02*
X0007300Y0153887D01*
X0007300Y0155885D02*
X0031346Y0155885D01*
X0034090Y0157884D02*
X0007300Y0157884D01*
X0007300Y0159882D02*
X0036089Y0159882D01*
X0023410Y0161881D02*
X0007300Y0161881D01*
X0007300Y0163879D02*
X0018959Y0163879D01*
X0020334Y0162881D02*
X0020334Y0162881D01*
X0017385Y0165023D02*
X0017385Y0165023D01*
X0016764Y0165878D02*
X0007300Y0165878D01*
X0007300Y0167876D02*
X0015312Y0167876D01*
X0015243Y0167971D02*
X0015243Y0167971D01*
X0014624Y0169875D02*
X0007300Y0169875D01*
X0007300Y0171873D02*
X0014117Y0171873D01*
X0014117Y0173872D02*
X0007300Y0173872D01*
X0007300Y0175870D02*
X0014373Y0175870D01*
X0015022Y0177869D02*
X0007300Y0177869D01*
X0007300Y0179868D02*
X0016201Y0179868D01*
X0015243Y0178548D02*
X0015243Y0178548D01*
X0017385Y0181497D02*
X0017385Y0181497D01*
X0017893Y0181866D02*
X0007300Y0181866D01*
X0007300Y0183865D02*
X0021027Y0183865D01*
X0011260Y0191859D02*
X0007300Y0191859D01*
X0007300Y0193857D02*
X0009148Y0193857D01*
X0007907Y0195856D02*
X0007300Y0195856D01*
X0007300Y0205848D02*
X0007945Y0205848D01*
X0007300Y0207847D02*
X0009214Y0207847D01*
X0007300Y0209845D02*
X0011374Y0209845D01*
X0007300Y0185863D02*
X0374653Y0185863D01*
X0328772Y0137899D02*
X0328772Y0137899D01*
X0328772Y0135900D02*
X0328772Y0135900D01*
X0328772Y0133902D02*
X0328772Y0133902D01*
X0321196Y0039972D02*
X0337137Y0039972D01*
X0338599Y0037973D02*
X0322530Y0037973D01*
X0310596Y0011993D02*
X0368488Y0011993D01*
X0365762Y0009994D02*
X0309021Y0009994D01*
X0306329Y0007996D02*
X0361180Y0007996D01*
X0359890Y0017988D02*
X0357890Y0017988D01*
X0357890Y0019987D02*
X0359890Y0019987D01*
X0359890Y0021985D02*
X0357890Y0021985D01*
X0357890Y0027981D02*
X0359890Y0027981D01*
X0359890Y0029979D02*
X0357890Y0029979D01*
X0357890Y0031978D02*
X0359890Y0031978D01*
X0359890Y0033976D02*
X0357890Y0033976D01*
X0368272Y0023984D02*
X0374572Y0023984D01*
X0374198Y0021985D02*
X0367694Y0021985D01*
X0366562Y0019987D02*
X0373733Y0019987D01*
X0372905Y0017988D02*
X0364573Y0017988D01*
X0104070Y0129737D02*
X0104070Y0129737D01*
X0103902Y0129905D02*
X0098154Y0129905D01*
X0100866Y0131903D02*
X0102031Y0131903D01*
X0094743Y0129905D02*
X0088154Y0129905D01*
X0090866Y0131903D02*
X0092031Y0131903D01*
X0084743Y0129905D02*
X0078154Y0129905D01*
X0080866Y0131903D02*
X0082031Y0131903D01*
X0048081Y0101926D02*
X0007300Y0101926D01*
X0007300Y0103924D02*
X0046082Y0103924D01*
X0044084Y0105923D02*
X0007300Y0105923D01*
X0007300Y0107921D02*
X0042085Y0107921D01*
X0040087Y0109920D02*
X0007300Y0109920D01*
X0007300Y0111918D02*
X0038088Y0111918D01*
X0036090Y0113917D02*
X0007300Y0113917D01*
X0007300Y0115915D02*
X0034091Y0115915D01*
X0031247Y0117914D02*
X0007300Y0117914D01*
X0007300Y0119912D02*
X0029887Y0119912D01*
X0029700Y0121911D02*
X0007300Y0121911D01*
X0007300Y0123909D02*
X0030670Y0123909D01*
X0031473Y0125908D02*
X0007300Y0125908D01*
X0007300Y0127906D02*
X0014892Y0127906D01*
X0012077Y0129905D02*
X0007300Y0129905D01*
X0007300Y0131903D02*
X0010430Y0131903D01*
X0009376Y0133902D02*
X0007300Y0133902D01*
X0007300Y0135900D02*
X0008841Y0135900D01*
X0008713Y0137899D02*
X0007300Y0137899D01*
X0007300Y0139897D02*
X0008879Y0139897D01*
X0009415Y0141896D02*
X0007300Y0141896D01*
X0007300Y0143894D02*
X0010513Y0143894D01*
X0012221Y0145893D02*
X0007300Y0145893D01*
X0007300Y0147891D02*
X0015141Y0147891D01*
X0030554Y0139897D02*
X0030849Y0139897D01*
X0030849Y0137899D02*
X0030720Y0137899D01*
X0030592Y0135900D02*
X0030849Y0135900D01*
X0030849Y0133902D02*
X0030057Y0133902D01*
X0030849Y0131903D02*
X0029003Y0131903D01*
X0027356Y0129905D02*
X0030849Y0129905D01*
X0030849Y0127906D02*
X0024541Y0127906D01*
X0007300Y0099927D02*
X0050079Y0099927D01*
X0052078Y0097929D02*
X0007300Y0097929D01*
X0007300Y0095930D02*
X0054076Y0095930D01*
X0056075Y0093932D02*
X0007300Y0093932D01*
X0007300Y0091933D02*
X0058073Y0091933D01*
X0060072Y0089934D02*
X0007300Y0089934D01*
X0007300Y0087936D02*
X0062070Y0087936D01*
X0064069Y0085937D02*
X0007300Y0085937D01*
X0007300Y0083939D02*
X0066067Y0083939D01*
X0068066Y0081940D02*
X0007300Y0081940D01*
X0072761Y0029979D02*
X0074704Y0029979D01*
X0082761Y0029979D02*
X0084704Y0029979D01*
X0074208Y0017988D02*
X0073257Y0017988D01*
X0071061Y0015990D02*
X0076404Y0015990D01*
X0079583Y0307772D02*
X0083315Y0307772D01*
X0081741Y0309771D02*
X0081157Y0309771D01*
X0089583Y0307772D02*
X0093315Y0307772D01*
X0091741Y0309771D02*
X0091157Y0309771D01*
X0099583Y0307772D02*
X0103315Y0307772D01*
X0101741Y0309771D02*
X0101157Y0309771D01*
M02*
