G75*
%MOIN*%
%OFA0B0*%
%FSLAX25Y25*%
%IPPOS*%
%LPD*%
%AMOC8*
5,1,8,0,0,1.08239X$1,22.5*
%
%ADD10C,0.00600*%
%ADD11C,0.01200*%
%ADD12C,0.00000*%
%ADD13C,0.12808*%
%ADD14C,0.06800*%
%ADD15C,0.07400*%
%ADD16C,0.13800*%
%ADD17OC8,0.06000*%
%ADD18C,0.17398*%
%ADD19C,0.15824*%
%ADD20C,0.06737*%
%ADD21C,0.09400*%
%ADD22C,0.03778*%
D10*
X0025622Y0002000D02*
X0356331Y0002000D01*
X0356902Y0002007D01*
X0357472Y0002028D01*
X0358042Y0002062D01*
X0358611Y0002110D01*
X0359178Y0002172D01*
X0359744Y0002248D01*
X0360308Y0002337D01*
X0360869Y0002440D01*
X0361428Y0002557D01*
X0361984Y0002686D01*
X0362537Y0002830D01*
X0363086Y0002986D01*
X0363631Y0003156D01*
X0364171Y0003339D01*
X0364707Y0003535D01*
X0365239Y0003744D01*
X0365765Y0003966D01*
X0366285Y0004200D01*
X0366800Y0004447D01*
X0367309Y0004706D01*
X0367811Y0004977D01*
X0368306Y0005261D01*
X0368795Y0005556D01*
X0369276Y0005863D01*
X0369750Y0006181D01*
X0370216Y0006511D01*
X0370673Y0006852D01*
X0371123Y0007205D01*
X0371563Y0007567D01*
X0371995Y0007941D01*
X0372418Y0008324D01*
X0372831Y0008718D01*
X0373235Y0009122D01*
X0373629Y0009535D01*
X0374012Y0009958D01*
X0374386Y0010390D01*
X0374748Y0010830D01*
X0375101Y0011280D01*
X0375442Y0011737D01*
X0375772Y0012203D01*
X0376090Y0012677D01*
X0376397Y0013158D01*
X0376692Y0013647D01*
X0376976Y0014142D01*
X0377247Y0014644D01*
X0377506Y0015153D01*
X0377753Y0015668D01*
X0377987Y0016188D01*
X0378209Y0016714D01*
X0378418Y0017246D01*
X0378614Y0017782D01*
X0378797Y0018322D01*
X0378967Y0018867D01*
X0379123Y0019416D01*
X0379267Y0019969D01*
X0379396Y0020525D01*
X0379513Y0021084D01*
X0379616Y0021645D01*
X0379705Y0022209D01*
X0379781Y0022775D01*
X0379843Y0023342D01*
X0379891Y0023911D01*
X0379925Y0024481D01*
X0379946Y0025051D01*
X0379953Y0025622D01*
X0379953Y0313024D01*
X0380041Y0313643D01*
X0380113Y0314265D01*
X0380171Y0314888D01*
X0380213Y0315512D01*
X0380241Y0316137D01*
X0380253Y0316763D01*
X0380250Y0317389D01*
X0380233Y0318014D01*
X0380200Y0318639D01*
X0380151Y0319263D01*
X0380088Y0319885D01*
X0380010Y0320506D01*
X0379917Y0321125D01*
X0379809Y0321741D01*
X0379686Y0322354D01*
X0379548Y0322965D01*
X0379396Y0323572D01*
X0379229Y0324175D01*
X0379047Y0324773D01*
X0378851Y0325368D01*
X0378641Y0325957D01*
X0378417Y0326541D01*
X0378178Y0327119D01*
X0377926Y0327692D01*
X0377659Y0328258D01*
X0377380Y0328818D01*
X0377086Y0329371D01*
X0376780Y0329916D01*
X0376460Y0330454D01*
X0376128Y0330984D01*
X0375783Y0331506D01*
X0375425Y0332019D01*
X0375055Y0332524D01*
X0374673Y0333019D01*
X0374279Y0333505D01*
X0373873Y0333982D01*
X0373456Y0334448D01*
X0373028Y0334905D01*
X0372589Y0335350D01*
X0372139Y0335785D01*
X0371679Y0336209D01*
X0371209Y0336622D01*
X0370729Y0337024D01*
X0370240Y0337413D01*
X0369741Y0337791D01*
X0369233Y0338157D01*
X0368716Y0338510D01*
X0368192Y0338850D01*
X0367659Y0339178D01*
X0367118Y0339493D01*
X0366570Y0339794D01*
X0366014Y0340083D01*
X0365452Y0340358D01*
X0364884Y0340619D01*
X0364309Y0340866D01*
X0363728Y0341099D01*
X0363142Y0341319D01*
X0362551Y0341524D01*
X0361955Y0341715D01*
X0361355Y0341891D01*
X0360751Y0342052D01*
X0360142Y0342200D01*
X0359531Y0342332D01*
X0358916Y0342449D01*
X0358299Y0342552D01*
X0358299Y0342551D02*
X0027591Y0342551D01*
X0026925Y0342495D01*
X0026261Y0342423D01*
X0025599Y0342336D01*
X0024940Y0342232D01*
X0024283Y0342113D01*
X0023629Y0341977D01*
X0022979Y0341826D01*
X0022332Y0341659D01*
X0021690Y0341477D01*
X0021052Y0341279D01*
X0020420Y0341066D01*
X0019792Y0340837D01*
X0019171Y0340594D01*
X0018555Y0340335D01*
X0017946Y0340062D01*
X0017344Y0339774D01*
X0016748Y0339472D01*
X0016161Y0339155D01*
X0015581Y0338824D01*
X0015009Y0338479D01*
X0014445Y0338121D01*
X0013891Y0337749D01*
X0013346Y0337364D01*
X0012810Y0336965D01*
X0012284Y0336554D01*
X0011768Y0336130D01*
X0011262Y0335694D01*
X0010767Y0335246D01*
X0010283Y0334786D01*
X0009811Y0334315D01*
X0009350Y0333832D01*
X0008900Y0333338D01*
X0008463Y0332833D01*
X0008038Y0332319D01*
X0007626Y0331793D01*
X0007226Y0331259D01*
X0006839Y0330714D01*
X0006466Y0330161D01*
X0006106Y0329598D01*
X0005760Y0329027D01*
X0005428Y0328448D01*
X0005110Y0327861D01*
X0004806Y0327266D01*
X0004517Y0326665D01*
X0004242Y0326056D01*
X0003982Y0325441D01*
X0003737Y0324820D01*
X0003507Y0324193D01*
X0003292Y0323561D01*
X0003093Y0322924D01*
X0002909Y0322282D01*
X0002741Y0321636D01*
X0002588Y0320986D01*
X0002451Y0320333D01*
X0002330Y0319676D01*
X0002225Y0319017D01*
X0002135Y0318355D01*
X0002062Y0317691D01*
X0002005Y0317026D01*
X0001964Y0316360D01*
X0001939Y0315693D01*
X0001930Y0315025D01*
X0001937Y0314357D01*
X0001961Y0313690D01*
X0002000Y0313024D01*
X0002000Y0025622D01*
X0002007Y0025051D01*
X0002028Y0024481D01*
X0002062Y0023911D01*
X0002110Y0023342D01*
X0002172Y0022775D01*
X0002248Y0022209D01*
X0002337Y0021645D01*
X0002440Y0021084D01*
X0002557Y0020525D01*
X0002686Y0019969D01*
X0002830Y0019416D01*
X0002986Y0018867D01*
X0003156Y0018322D01*
X0003339Y0017782D01*
X0003535Y0017246D01*
X0003744Y0016714D01*
X0003966Y0016188D01*
X0004200Y0015668D01*
X0004447Y0015153D01*
X0004706Y0014644D01*
X0004977Y0014142D01*
X0005261Y0013647D01*
X0005556Y0013158D01*
X0005863Y0012677D01*
X0006181Y0012203D01*
X0006511Y0011737D01*
X0006852Y0011280D01*
X0007205Y0010830D01*
X0007567Y0010390D01*
X0007941Y0009958D01*
X0008324Y0009535D01*
X0008718Y0009122D01*
X0009122Y0008718D01*
X0009535Y0008324D01*
X0009958Y0007941D01*
X0010390Y0007567D01*
X0010830Y0007205D01*
X0011280Y0006852D01*
X0011737Y0006511D01*
X0012203Y0006181D01*
X0012677Y0005863D01*
X0013158Y0005556D01*
X0013647Y0005261D01*
X0014142Y0004977D01*
X0014644Y0004706D01*
X0015153Y0004447D01*
X0015668Y0004200D01*
X0016188Y0003966D01*
X0016714Y0003744D01*
X0017246Y0003535D01*
X0017782Y0003339D01*
X0018322Y0003156D01*
X0018867Y0002986D01*
X0019416Y0002830D01*
X0019969Y0002686D01*
X0020525Y0002557D01*
X0021084Y0002440D01*
X0021645Y0002337D01*
X0022209Y0002248D01*
X0022775Y0002172D01*
X0023342Y0002110D01*
X0023911Y0002062D01*
X0024481Y0002028D01*
X0025051Y0002007D01*
X0025622Y0002000D01*
D11*
X0025622Y0167354D02*
X0356331Y0167354D01*
X0362237Y0173260D02*
X0362235Y0173412D01*
X0362229Y0173564D01*
X0362219Y0173716D01*
X0362206Y0173867D01*
X0362188Y0174018D01*
X0362167Y0174169D01*
X0362141Y0174319D01*
X0362112Y0174468D01*
X0362079Y0174617D01*
X0362042Y0174764D01*
X0362002Y0174911D01*
X0361957Y0175056D01*
X0361909Y0175200D01*
X0361857Y0175343D01*
X0361802Y0175485D01*
X0361743Y0175625D01*
X0361680Y0175764D01*
X0361614Y0175901D01*
X0361544Y0176036D01*
X0361471Y0176169D01*
X0361394Y0176300D01*
X0361314Y0176430D01*
X0361231Y0176557D01*
X0361145Y0176682D01*
X0361055Y0176805D01*
X0360962Y0176925D01*
X0360866Y0177043D01*
X0360767Y0177159D01*
X0360665Y0177272D01*
X0360561Y0177382D01*
X0360453Y0177490D01*
X0360343Y0177594D01*
X0360230Y0177696D01*
X0360114Y0177795D01*
X0359996Y0177891D01*
X0359876Y0177984D01*
X0359753Y0178074D01*
X0359628Y0178160D01*
X0359501Y0178243D01*
X0359371Y0178323D01*
X0359240Y0178400D01*
X0359107Y0178473D01*
X0358972Y0178543D01*
X0358835Y0178609D01*
X0358696Y0178672D01*
X0358556Y0178731D01*
X0358414Y0178786D01*
X0358271Y0178838D01*
X0358127Y0178886D01*
X0357982Y0178931D01*
X0357835Y0178971D01*
X0357688Y0179008D01*
X0357539Y0179041D01*
X0357390Y0179070D01*
X0357240Y0179096D01*
X0357089Y0179117D01*
X0356938Y0179135D01*
X0356787Y0179148D01*
X0356635Y0179158D01*
X0356483Y0179164D01*
X0356331Y0179166D01*
X0356331Y0179165D02*
X0025622Y0179165D01*
X0025622Y0179166D02*
X0025470Y0179164D01*
X0025318Y0179158D01*
X0025166Y0179148D01*
X0025015Y0179135D01*
X0024864Y0179117D01*
X0024713Y0179096D01*
X0024563Y0179070D01*
X0024414Y0179041D01*
X0024265Y0179008D01*
X0024118Y0178971D01*
X0023971Y0178931D01*
X0023826Y0178886D01*
X0023682Y0178838D01*
X0023539Y0178786D01*
X0023397Y0178731D01*
X0023257Y0178672D01*
X0023118Y0178609D01*
X0022981Y0178543D01*
X0022846Y0178473D01*
X0022713Y0178400D01*
X0022582Y0178323D01*
X0022452Y0178243D01*
X0022325Y0178160D01*
X0022200Y0178074D01*
X0022077Y0177984D01*
X0021957Y0177891D01*
X0021839Y0177795D01*
X0021723Y0177696D01*
X0021610Y0177594D01*
X0021500Y0177490D01*
X0021392Y0177382D01*
X0021288Y0177272D01*
X0021186Y0177159D01*
X0021087Y0177043D01*
X0020991Y0176925D01*
X0020898Y0176805D01*
X0020808Y0176682D01*
X0020722Y0176557D01*
X0020639Y0176430D01*
X0020559Y0176300D01*
X0020482Y0176169D01*
X0020409Y0176036D01*
X0020339Y0175901D01*
X0020273Y0175764D01*
X0020210Y0175625D01*
X0020151Y0175485D01*
X0020096Y0175343D01*
X0020044Y0175200D01*
X0019996Y0175056D01*
X0019951Y0174911D01*
X0019911Y0174764D01*
X0019874Y0174617D01*
X0019841Y0174468D01*
X0019812Y0174319D01*
X0019786Y0174169D01*
X0019765Y0174018D01*
X0019747Y0173867D01*
X0019734Y0173716D01*
X0019724Y0173564D01*
X0019718Y0173412D01*
X0019716Y0173260D01*
X0019718Y0173108D01*
X0019724Y0172956D01*
X0019734Y0172804D01*
X0019747Y0172653D01*
X0019765Y0172502D01*
X0019786Y0172351D01*
X0019812Y0172201D01*
X0019841Y0172052D01*
X0019874Y0171903D01*
X0019911Y0171756D01*
X0019951Y0171609D01*
X0019996Y0171464D01*
X0020044Y0171320D01*
X0020096Y0171177D01*
X0020151Y0171035D01*
X0020210Y0170895D01*
X0020273Y0170756D01*
X0020339Y0170619D01*
X0020409Y0170484D01*
X0020482Y0170351D01*
X0020559Y0170220D01*
X0020639Y0170090D01*
X0020722Y0169963D01*
X0020808Y0169838D01*
X0020898Y0169715D01*
X0020991Y0169595D01*
X0021087Y0169477D01*
X0021186Y0169361D01*
X0021288Y0169248D01*
X0021392Y0169138D01*
X0021500Y0169030D01*
X0021610Y0168926D01*
X0021723Y0168824D01*
X0021839Y0168725D01*
X0021957Y0168629D01*
X0022077Y0168536D01*
X0022200Y0168446D01*
X0022325Y0168360D01*
X0022452Y0168277D01*
X0022582Y0168197D01*
X0022713Y0168120D01*
X0022846Y0168047D01*
X0022981Y0167977D01*
X0023118Y0167911D01*
X0023257Y0167848D01*
X0023397Y0167789D01*
X0023539Y0167734D01*
X0023682Y0167682D01*
X0023826Y0167634D01*
X0023971Y0167589D01*
X0024118Y0167549D01*
X0024265Y0167512D01*
X0024414Y0167479D01*
X0024563Y0167450D01*
X0024713Y0167424D01*
X0024864Y0167403D01*
X0025015Y0167385D01*
X0025166Y0167372D01*
X0025318Y0167362D01*
X0025470Y0167356D01*
X0025622Y0167354D01*
X0356331Y0167354D02*
X0356483Y0167356D01*
X0356635Y0167362D01*
X0356787Y0167372D01*
X0356938Y0167385D01*
X0357089Y0167403D01*
X0357240Y0167424D01*
X0357390Y0167450D01*
X0357539Y0167479D01*
X0357688Y0167512D01*
X0357835Y0167549D01*
X0357982Y0167589D01*
X0358127Y0167634D01*
X0358271Y0167682D01*
X0358414Y0167734D01*
X0358556Y0167789D01*
X0358696Y0167848D01*
X0358835Y0167911D01*
X0358972Y0167977D01*
X0359107Y0168047D01*
X0359240Y0168120D01*
X0359371Y0168197D01*
X0359501Y0168277D01*
X0359628Y0168360D01*
X0359753Y0168446D01*
X0359876Y0168536D01*
X0359996Y0168629D01*
X0360114Y0168725D01*
X0360230Y0168824D01*
X0360343Y0168926D01*
X0360453Y0169030D01*
X0360561Y0169138D01*
X0360665Y0169248D01*
X0360767Y0169361D01*
X0360866Y0169477D01*
X0360962Y0169595D01*
X0361055Y0169715D01*
X0361145Y0169838D01*
X0361231Y0169963D01*
X0361314Y0170090D01*
X0361394Y0170220D01*
X0361471Y0170351D01*
X0361544Y0170484D01*
X0361614Y0170619D01*
X0361680Y0170756D01*
X0361743Y0170895D01*
X0361802Y0171035D01*
X0361857Y0171177D01*
X0361909Y0171320D01*
X0361957Y0171464D01*
X0362002Y0171609D01*
X0362042Y0171756D01*
X0362079Y0171903D01*
X0362112Y0172052D01*
X0362141Y0172201D01*
X0362167Y0172351D01*
X0362188Y0172502D01*
X0362206Y0172653D01*
X0362219Y0172804D01*
X0362229Y0172956D01*
X0362235Y0173108D01*
X0362237Y0173260D01*
D12*
X0293240Y0200819D02*
X0293242Y0200974D01*
X0293248Y0201128D01*
X0293258Y0201282D01*
X0293272Y0201436D01*
X0293290Y0201590D01*
X0293312Y0201743D01*
X0293337Y0201895D01*
X0293367Y0202047D01*
X0293401Y0202198D01*
X0293438Y0202348D01*
X0293479Y0202497D01*
X0293524Y0202645D01*
X0293573Y0202792D01*
X0293626Y0202937D01*
X0293682Y0203081D01*
X0293742Y0203223D01*
X0293806Y0203364D01*
X0293873Y0203503D01*
X0293944Y0203641D01*
X0294019Y0203776D01*
X0294097Y0203910D01*
X0294178Y0204041D01*
X0294263Y0204171D01*
X0294351Y0204298D01*
X0294442Y0204423D01*
X0294536Y0204545D01*
X0294634Y0204665D01*
X0294734Y0204783D01*
X0294838Y0204897D01*
X0294944Y0205009D01*
X0295054Y0205119D01*
X0295166Y0205225D01*
X0295280Y0205329D01*
X0295398Y0205429D01*
X0295518Y0205527D01*
X0295640Y0205621D01*
X0295765Y0205712D01*
X0295892Y0205800D01*
X0296022Y0205885D01*
X0296153Y0205966D01*
X0296287Y0206044D01*
X0296422Y0206119D01*
X0296560Y0206190D01*
X0296699Y0206257D01*
X0296840Y0206321D01*
X0296982Y0206381D01*
X0297126Y0206437D01*
X0297271Y0206490D01*
X0297418Y0206539D01*
X0297566Y0206584D01*
X0297715Y0206625D01*
X0297865Y0206662D01*
X0298016Y0206696D01*
X0298168Y0206726D01*
X0298320Y0206751D01*
X0298473Y0206773D01*
X0298627Y0206791D01*
X0298781Y0206805D01*
X0298935Y0206815D01*
X0299089Y0206821D01*
X0299244Y0206823D01*
X0299399Y0206821D01*
X0299553Y0206815D01*
X0299707Y0206805D01*
X0299861Y0206791D01*
X0300015Y0206773D01*
X0300168Y0206751D01*
X0300320Y0206726D01*
X0300472Y0206696D01*
X0300623Y0206662D01*
X0300773Y0206625D01*
X0300922Y0206584D01*
X0301070Y0206539D01*
X0301217Y0206490D01*
X0301362Y0206437D01*
X0301506Y0206381D01*
X0301648Y0206321D01*
X0301789Y0206257D01*
X0301928Y0206190D01*
X0302066Y0206119D01*
X0302201Y0206044D01*
X0302335Y0205966D01*
X0302466Y0205885D01*
X0302596Y0205800D01*
X0302723Y0205712D01*
X0302848Y0205621D01*
X0302970Y0205527D01*
X0303090Y0205429D01*
X0303208Y0205329D01*
X0303322Y0205225D01*
X0303434Y0205119D01*
X0303544Y0205009D01*
X0303650Y0204897D01*
X0303754Y0204783D01*
X0303854Y0204665D01*
X0303952Y0204545D01*
X0304046Y0204423D01*
X0304137Y0204298D01*
X0304225Y0204171D01*
X0304310Y0204041D01*
X0304391Y0203910D01*
X0304469Y0203776D01*
X0304544Y0203641D01*
X0304615Y0203503D01*
X0304682Y0203364D01*
X0304746Y0203223D01*
X0304806Y0203081D01*
X0304862Y0202937D01*
X0304915Y0202792D01*
X0304964Y0202645D01*
X0305009Y0202497D01*
X0305050Y0202348D01*
X0305087Y0202198D01*
X0305121Y0202047D01*
X0305151Y0201895D01*
X0305176Y0201743D01*
X0305198Y0201590D01*
X0305216Y0201436D01*
X0305230Y0201282D01*
X0305240Y0201128D01*
X0305246Y0200974D01*
X0305248Y0200819D01*
X0305246Y0200664D01*
X0305240Y0200510D01*
X0305230Y0200356D01*
X0305216Y0200202D01*
X0305198Y0200048D01*
X0305176Y0199895D01*
X0305151Y0199743D01*
X0305121Y0199591D01*
X0305087Y0199440D01*
X0305050Y0199290D01*
X0305009Y0199141D01*
X0304964Y0198993D01*
X0304915Y0198846D01*
X0304862Y0198701D01*
X0304806Y0198557D01*
X0304746Y0198415D01*
X0304682Y0198274D01*
X0304615Y0198135D01*
X0304544Y0197997D01*
X0304469Y0197862D01*
X0304391Y0197728D01*
X0304310Y0197597D01*
X0304225Y0197467D01*
X0304137Y0197340D01*
X0304046Y0197215D01*
X0303952Y0197093D01*
X0303854Y0196973D01*
X0303754Y0196855D01*
X0303650Y0196741D01*
X0303544Y0196629D01*
X0303434Y0196519D01*
X0303322Y0196413D01*
X0303208Y0196309D01*
X0303090Y0196209D01*
X0302970Y0196111D01*
X0302848Y0196017D01*
X0302723Y0195926D01*
X0302596Y0195838D01*
X0302466Y0195753D01*
X0302335Y0195672D01*
X0302201Y0195594D01*
X0302066Y0195519D01*
X0301928Y0195448D01*
X0301789Y0195381D01*
X0301648Y0195317D01*
X0301506Y0195257D01*
X0301362Y0195201D01*
X0301217Y0195148D01*
X0301070Y0195099D01*
X0300922Y0195054D01*
X0300773Y0195013D01*
X0300623Y0194976D01*
X0300472Y0194942D01*
X0300320Y0194912D01*
X0300168Y0194887D01*
X0300015Y0194865D01*
X0299861Y0194847D01*
X0299707Y0194833D01*
X0299553Y0194823D01*
X0299399Y0194817D01*
X0299244Y0194815D01*
X0299089Y0194817D01*
X0298935Y0194823D01*
X0298781Y0194833D01*
X0298627Y0194847D01*
X0298473Y0194865D01*
X0298320Y0194887D01*
X0298168Y0194912D01*
X0298016Y0194942D01*
X0297865Y0194976D01*
X0297715Y0195013D01*
X0297566Y0195054D01*
X0297418Y0195099D01*
X0297271Y0195148D01*
X0297126Y0195201D01*
X0296982Y0195257D01*
X0296840Y0195317D01*
X0296699Y0195381D01*
X0296560Y0195448D01*
X0296422Y0195519D01*
X0296287Y0195594D01*
X0296153Y0195672D01*
X0296022Y0195753D01*
X0295892Y0195838D01*
X0295765Y0195926D01*
X0295640Y0196017D01*
X0295518Y0196111D01*
X0295398Y0196209D01*
X0295280Y0196309D01*
X0295166Y0196413D01*
X0295054Y0196519D01*
X0294944Y0196629D01*
X0294838Y0196741D01*
X0294734Y0196855D01*
X0294634Y0196973D01*
X0294536Y0197093D01*
X0294442Y0197215D01*
X0294351Y0197340D01*
X0294263Y0197467D01*
X0294178Y0197597D01*
X0294097Y0197728D01*
X0294019Y0197862D01*
X0293944Y0197997D01*
X0293873Y0198135D01*
X0293806Y0198274D01*
X0293742Y0198415D01*
X0293682Y0198557D01*
X0293626Y0198701D01*
X0293573Y0198846D01*
X0293524Y0198993D01*
X0293479Y0199141D01*
X0293438Y0199290D01*
X0293401Y0199440D01*
X0293367Y0199591D01*
X0293337Y0199743D01*
X0293312Y0199895D01*
X0293290Y0200048D01*
X0293272Y0200202D01*
X0293258Y0200356D01*
X0293248Y0200510D01*
X0293242Y0200664D01*
X0293240Y0200819D01*
X0295209Y0137827D02*
X0295211Y0137982D01*
X0295217Y0138136D01*
X0295227Y0138290D01*
X0295241Y0138444D01*
X0295259Y0138598D01*
X0295281Y0138751D01*
X0295306Y0138903D01*
X0295336Y0139055D01*
X0295370Y0139206D01*
X0295407Y0139356D01*
X0295448Y0139505D01*
X0295493Y0139653D01*
X0295542Y0139800D01*
X0295595Y0139945D01*
X0295651Y0140089D01*
X0295711Y0140231D01*
X0295775Y0140372D01*
X0295842Y0140511D01*
X0295913Y0140649D01*
X0295988Y0140784D01*
X0296066Y0140918D01*
X0296147Y0141049D01*
X0296232Y0141179D01*
X0296320Y0141306D01*
X0296411Y0141431D01*
X0296505Y0141553D01*
X0296603Y0141673D01*
X0296703Y0141791D01*
X0296807Y0141905D01*
X0296913Y0142017D01*
X0297023Y0142127D01*
X0297135Y0142233D01*
X0297249Y0142337D01*
X0297367Y0142437D01*
X0297487Y0142535D01*
X0297609Y0142629D01*
X0297734Y0142720D01*
X0297861Y0142808D01*
X0297991Y0142893D01*
X0298122Y0142974D01*
X0298256Y0143052D01*
X0298391Y0143127D01*
X0298529Y0143198D01*
X0298668Y0143265D01*
X0298809Y0143329D01*
X0298951Y0143389D01*
X0299095Y0143445D01*
X0299240Y0143498D01*
X0299387Y0143547D01*
X0299535Y0143592D01*
X0299684Y0143633D01*
X0299834Y0143670D01*
X0299985Y0143704D01*
X0300137Y0143734D01*
X0300289Y0143759D01*
X0300442Y0143781D01*
X0300596Y0143799D01*
X0300750Y0143813D01*
X0300904Y0143823D01*
X0301058Y0143829D01*
X0301213Y0143831D01*
X0301368Y0143829D01*
X0301522Y0143823D01*
X0301676Y0143813D01*
X0301830Y0143799D01*
X0301984Y0143781D01*
X0302137Y0143759D01*
X0302289Y0143734D01*
X0302441Y0143704D01*
X0302592Y0143670D01*
X0302742Y0143633D01*
X0302891Y0143592D01*
X0303039Y0143547D01*
X0303186Y0143498D01*
X0303331Y0143445D01*
X0303475Y0143389D01*
X0303617Y0143329D01*
X0303758Y0143265D01*
X0303897Y0143198D01*
X0304035Y0143127D01*
X0304170Y0143052D01*
X0304304Y0142974D01*
X0304435Y0142893D01*
X0304565Y0142808D01*
X0304692Y0142720D01*
X0304817Y0142629D01*
X0304939Y0142535D01*
X0305059Y0142437D01*
X0305177Y0142337D01*
X0305291Y0142233D01*
X0305403Y0142127D01*
X0305513Y0142017D01*
X0305619Y0141905D01*
X0305723Y0141791D01*
X0305823Y0141673D01*
X0305921Y0141553D01*
X0306015Y0141431D01*
X0306106Y0141306D01*
X0306194Y0141179D01*
X0306279Y0141049D01*
X0306360Y0140918D01*
X0306438Y0140784D01*
X0306513Y0140649D01*
X0306584Y0140511D01*
X0306651Y0140372D01*
X0306715Y0140231D01*
X0306775Y0140089D01*
X0306831Y0139945D01*
X0306884Y0139800D01*
X0306933Y0139653D01*
X0306978Y0139505D01*
X0307019Y0139356D01*
X0307056Y0139206D01*
X0307090Y0139055D01*
X0307120Y0138903D01*
X0307145Y0138751D01*
X0307167Y0138598D01*
X0307185Y0138444D01*
X0307199Y0138290D01*
X0307209Y0138136D01*
X0307215Y0137982D01*
X0307217Y0137827D01*
X0307215Y0137672D01*
X0307209Y0137518D01*
X0307199Y0137364D01*
X0307185Y0137210D01*
X0307167Y0137056D01*
X0307145Y0136903D01*
X0307120Y0136751D01*
X0307090Y0136599D01*
X0307056Y0136448D01*
X0307019Y0136298D01*
X0306978Y0136149D01*
X0306933Y0136001D01*
X0306884Y0135854D01*
X0306831Y0135709D01*
X0306775Y0135565D01*
X0306715Y0135423D01*
X0306651Y0135282D01*
X0306584Y0135143D01*
X0306513Y0135005D01*
X0306438Y0134870D01*
X0306360Y0134736D01*
X0306279Y0134605D01*
X0306194Y0134475D01*
X0306106Y0134348D01*
X0306015Y0134223D01*
X0305921Y0134101D01*
X0305823Y0133981D01*
X0305723Y0133863D01*
X0305619Y0133749D01*
X0305513Y0133637D01*
X0305403Y0133527D01*
X0305291Y0133421D01*
X0305177Y0133317D01*
X0305059Y0133217D01*
X0304939Y0133119D01*
X0304817Y0133025D01*
X0304692Y0132934D01*
X0304565Y0132846D01*
X0304435Y0132761D01*
X0304304Y0132680D01*
X0304170Y0132602D01*
X0304035Y0132527D01*
X0303897Y0132456D01*
X0303758Y0132389D01*
X0303617Y0132325D01*
X0303475Y0132265D01*
X0303331Y0132209D01*
X0303186Y0132156D01*
X0303039Y0132107D01*
X0302891Y0132062D01*
X0302742Y0132021D01*
X0302592Y0131984D01*
X0302441Y0131950D01*
X0302289Y0131920D01*
X0302137Y0131895D01*
X0301984Y0131873D01*
X0301830Y0131855D01*
X0301676Y0131841D01*
X0301522Y0131831D01*
X0301368Y0131825D01*
X0301213Y0131823D01*
X0301058Y0131825D01*
X0300904Y0131831D01*
X0300750Y0131841D01*
X0300596Y0131855D01*
X0300442Y0131873D01*
X0300289Y0131895D01*
X0300137Y0131920D01*
X0299985Y0131950D01*
X0299834Y0131984D01*
X0299684Y0132021D01*
X0299535Y0132062D01*
X0299387Y0132107D01*
X0299240Y0132156D01*
X0299095Y0132209D01*
X0298951Y0132265D01*
X0298809Y0132325D01*
X0298668Y0132389D01*
X0298529Y0132456D01*
X0298391Y0132527D01*
X0298256Y0132602D01*
X0298122Y0132680D01*
X0297991Y0132761D01*
X0297861Y0132846D01*
X0297734Y0132934D01*
X0297609Y0133025D01*
X0297487Y0133119D01*
X0297367Y0133217D01*
X0297249Y0133317D01*
X0297135Y0133421D01*
X0297023Y0133527D01*
X0296913Y0133637D01*
X0296807Y0133749D01*
X0296703Y0133863D01*
X0296603Y0133981D01*
X0296505Y0134101D01*
X0296411Y0134223D01*
X0296320Y0134348D01*
X0296232Y0134475D01*
X0296147Y0134605D01*
X0296066Y0134736D01*
X0295988Y0134870D01*
X0295913Y0135005D01*
X0295842Y0135143D01*
X0295775Y0135282D01*
X0295711Y0135423D01*
X0295651Y0135565D01*
X0295595Y0135709D01*
X0295542Y0135854D01*
X0295493Y0136001D01*
X0295448Y0136149D01*
X0295407Y0136298D01*
X0295370Y0136448D01*
X0295336Y0136599D01*
X0295306Y0136751D01*
X0295281Y0136903D01*
X0295259Y0137056D01*
X0295241Y0137210D01*
X0295227Y0137364D01*
X0295217Y0137518D01*
X0295211Y0137672D01*
X0295209Y0137827D01*
X0268965Y0105528D02*
X0268967Y0105689D01*
X0268973Y0105849D01*
X0268983Y0106010D01*
X0268997Y0106170D01*
X0269015Y0106330D01*
X0269036Y0106489D01*
X0269062Y0106648D01*
X0269092Y0106806D01*
X0269125Y0106963D01*
X0269163Y0107120D01*
X0269204Y0107275D01*
X0269249Y0107429D01*
X0269298Y0107582D01*
X0269351Y0107734D01*
X0269407Y0107885D01*
X0269468Y0108034D01*
X0269531Y0108182D01*
X0269599Y0108328D01*
X0269670Y0108472D01*
X0269744Y0108614D01*
X0269822Y0108755D01*
X0269904Y0108893D01*
X0269989Y0109030D01*
X0270077Y0109164D01*
X0270169Y0109296D01*
X0270264Y0109426D01*
X0270362Y0109554D01*
X0270463Y0109679D01*
X0270567Y0109801D01*
X0270674Y0109921D01*
X0270784Y0110038D01*
X0270897Y0110153D01*
X0271013Y0110264D01*
X0271132Y0110373D01*
X0271253Y0110478D01*
X0271377Y0110581D01*
X0271503Y0110681D01*
X0271631Y0110777D01*
X0271762Y0110870D01*
X0271896Y0110960D01*
X0272031Y0111047D01*
X0272169Y0111130D01*
X0272308Y0111210D01*
X0272450Y0111286D01*
X0272593Y0111359D01*
X0272738Y0111428D01*
X0272885Y0111494D01*
X0273033Y0111556D01*
X0273183Y0111614D01*
X0273334Y0111669D01*
X0273487Y0111720D01*
X0273641Y0111767D01*
X0273796Y0111810D01*
X0273952Y0111849D01*
X0274108Y0111885D01*
X0274266Y0111916D01*
X0274424Y0111944D01*
X0274583Y0111968D01*
X0274743Y0111988D01*
X0274903Y0112004D01*
X0275063Y0112016D01*
X0275224Y0112024D01*
X0275385Y0112028D01*
X0275545Y0112028D01*
X0275706Y0112024D01*
X0275867Y0112016D01*
X0276027Y0112004D01*
X0276187Y0111988D01*
X0276347Y0111968D01*
X0276506Y0111944D01*
X0276664Y0111916D01*
X0276822Y0111885D01*
X0276978Y0111849D01*
X0277134Y0111810D01*
X0277289Y0111767D01*
X0277443Y0111720D01*
X0277596Y0111669D01*
X0277747Y0111614D01*
X0277897Y0111556D01*
X0278045Y0111494D01*
X0278192Y0111428D01*
X0278337Y0111359D01*
X0278480Y0111286D01*
X0278622Y0111210D01*
X0278761Y0111130D01*
X0278899Y0111047D01*
X0279034Y0110960D01*
X0279168Y0110870D01*
X0279299Y0110777D01*
X0279427Y0110681D01*
X0279553Y0110581D01*
X0279677Y0110478D01*
X0279798Y0110373D01*
X0279917Y0110264D01*
X0280033Y0110153D01*
X0280146Y0110038D01*
X0280256Y0109921D01*
X0280363Y0109801D01*
X0280467Y0109679D01*
X0280568Y0109554D01*
X0280666Y0109426D01*
X0280761Y0109296D01*
X0280853Y0109164D01*
X0280941Y0109030D01*
X0281026Y0108893D01*
X0281108Y0108755D01*
X0281186Y0108614D01*
X0281260Y0108472D01*
X0281331Y0108328D01*
X0281399Y0108182D01*
X0281462Y0108034D01*
X0281523Y0107885D01*
X0281579Y0107734D01*
X0281632Y0107582D01*
X0281681Y0107429D01*
X0281726Y0107275D01*
X0281767Y0107120D01*
X0281805Y0106963D01*
X0281838Y0106806D01*
X0281868Y0106648D01*
X0281894Y0106489D01*
X0281915Y0106330D01*
X0281933Y0106170D01*
X0281947Y0106010D01*
X0281957Y0105849D01*
X0281963Y0105689D01*
X0281965Y0105528D01*
X0281963Y0105367D01*
X0281957Y0105207D01*
X0281947Y0105046D01*
X0281933Y0104886D01*
X0281915Y0104726D01*
X0281894Y0104567D01*
X0281868Y0104408D01*
X0281838Y0104250D01*
X0281805Y0104093D01*
X0281767Y0103936D01*
X0281726Y0103781D01*
X0281681Y0103627D01*
X0281632Y0103474D01*
X0281579Y0103322D01*
X0281523Y0103171D01*
X0281462Y0103022D01*
X0281399Y0102874D01*
X0281331Y0102728D01*
X0281260Y0102584D01*
X0281186Y0102442D01*
X0281108Y0102301D01*
X0281026Y0102163D01*
X0280941Y0102026D01*
X0280853Y0101892D01*
X0280761Y0101760D01*
X0280666Y0101630D01*
X0280568Y0101502D01*
X0280467Y0101377D01*
X0280363Y0101255D01*
X0280256Y0101135D01*
X0280146Y0101018D01*
X0280033Y0100903D01*
X0279917Y0100792D01*
X0279798Y0100683D01*
X0279677Y0100578D01*
X0279553Y0100475D01*
X0279427Y0100375D01*
X0279299Y0100279D01*
X0279168Y0100186D01*
X0279034Y0100096D01*
X0278899Y0100009D01*
X0278761Y0099926D01*
X0278622Y0099846D01*
X0278480Y0099770D01*
X0278337Y0099697D01*
X0278192Y0099628D01*
X0278045Y0099562D01*
X0277897Y0099500D01*
X0277747Y0099442D01*
X0277596Y0099387D01*
X0277443Y0099336D01*
X0277289Y0099289D01*
X0277134Y0099246D01*
X0276978Y0099207D01*
X0276822Y0099171D01*
X0276664Y0099140D01*
X0276506Y0099112D01*
X0276347Y0099088D01*
X0276187Y0099068D01*
X0276027Y0099052D01*
X0275867Y0099040D01*
X0275706Y0099032D01*
X0275545Y0099028D01*
X0275385Y0099028D01*
X0275224Y0099032D01*
X0275063Y0099040D01*
X0274903Y0099052D01*
X0274743Y0099068D01*
X0274583Y0099088D01*
X0274424Y0099112D01*
X0274266Y0099140D01*
X0274108Y0099171D01*
X0273952Y0099207D01*
X0273796Y0099246D01*
X0273641Y0099289D01*
X0273487Y0099336D01*
X0273334Y0099387D01*
X0273183Y0099442D01*
X0273033Y0099500D01*
X0272885Y0099562D01*
X0272738Y0099628D01*
X0272593Y0099697D01*
X0272450Y0099770D01*
X0272308Y0099846D01*
X0272169Y0099926D01*
X0272031Y0100009D01*
X0271896Y0100096D01*
X0271762Y0100186D01*
X0271631Y0100279D01*
X0271503Y0100375D01*
X0271377Y0100475D01*
X0271253Y0100578D01*
X0271132Y0100683D01*
X0271013Y0100792D01*
X0270897Y0100903D01*
X0270784Y0101018D01*
X0270674Y0101135D01*
X0270567Y0101255D01*
X0270463Y0101377D01*
X0270362Y0101502D01*
X0270264Y0101630D01*
X0270169Y0101760D01*
X0270077Y0101892D01*
X0269989Y0102026D01*
X0269904Y0102163D01*
X0269822Y0102301D01*
X0269744Y0102442D01*
X0269670Y0102584D01*
X0269599Y0102728D01*
X0269531Y0102874D01*
X0269468Y0103022D01*
X0269407Y0103171D01*
X0269351Y0103322D01*
X0269298Y0103474D01*
X0269249Y0103627D01*
X0269204Y0103781D01*
X0269163Y0103936D01*
X0269125Y0104093D01*
X0269092Y0104250D01*
X0269062Y0104408D01*
X0269036Y0104567D01*
X0269015Y0104726D01*
X0268997Y0104886D01*
X0268983Y0105046D01*
X0268973Y0105207D01*
X0268967Y0105367D01*
X0268965Y0105528D01*
X0295209Y0017748D02*
X0295211Y0017903D01*
X0295217Y0018057D01*
X0295227Y0018211D01*
X0295241Y0018365D01*
X0295259Y0018519D01*
X0295281Y0018672D01*
X0295306Y0018824D01*
X0295336Y0018976D01*
X0295370Y0019127D01*
X0295407Y0019277D01*
X0295448Y0019426D01*
X0295493Y0019574D01*
X0295542Y0019721D01*
X0295595Y0019866D01*
X0295651Y0020010D01*
X0295711Y0020152D01*
X0295775Y0020293D01*
X0295842Y0020432D01*
X0295913Y0020570D01*
X0295988Y0020705D01*
X0296066Y0020839D01*
X0296147Y0020970D01*
X0296232Y0021100D01*
X0296320Y0021227D01*
X0296411Y0021352D01*
X0296505Y0021474D01*
X0296603Y0021594D01*
X0296703Y0021712D01*
X0296807Y0021826D01*
X0296913Y0021938D01*
X0297023Y0022048D01*
X0297135Y0022154D01*
X0297249Y0022258D01*
X0297367Y0022358D01*
X0297487Y0022456D01*
X0297609Y0022550D01*
X0297734Y0022641D01*
X0297861Y0022729D01*
X0297991Y0022814D01*
X0298122Y0022895D01*
X0298256Y0022973D01*
X0298391Y0023048D01*
X0298529Y0023119D01*
X0298668Y0023186D01*
X0298809Y0023250D01*
X0298951Y0023310D01*
X0299095Y0023366D01*
X0299240Y0023419D01*
X0299387Y0023468D01*
X0299535Y0023513D01*
X0299684Y0023554D01*
X0299834Y0023591D01*
X0299985Y0023625D01*
X0300137Y0023655D01*
X0300289Y0023680D01*
X0300442Y0023702D01*
X0300596Y0023720D01*
X0300750Y0023734D01*
X0300904Y0023744D01*
X0301058Y0023750D01*
X0301213Y0023752D01*
X0301368Y0023750D01*
X0301522Y0023744D01*
X0301676Y0023734D01*
X0301830Y0023720D01*
X0301984Y0023702D01*
X0302137Y0023680D01*
X0302289Y0023655D01*
X0302441Y0023625D01*
X0302592Y0023591D01*
X0302742Y0023554D01*
X0302891Y0023513D01*
X0303039Y0023468D01*
X0303186Y0023419D01*
X0303331Y0023366D01*
X0303475Y0023310D01*
X0303617Y0023250D01*
X0303758Y0023186D01*
X0303897Y0023119D01*
X0304035Y0023048D01*
X0304170Y0022973D01*
X0304304Y0022895D01*
X0304435Y0022814D01*
X0304565Y0022729D01*
X0304692Y0022641D01*
X0304817Y0022550D01*
X0304939Y0022456D01*
X0305059Y0022358D01*
X0305177Y0022258D01*
X0305291Y0022154D01*
X0305403Y0022048D01*
X0305513Y0021938D01*
X0305619Y0021826D01*
X0305723Y0021712D01*
X0305823Y0021594D01*
X0305921Y0021474D01*
X0306015Y0021352D01*
X0306106Y0021227D01*
X0306194Y0021100D01*
X0306279Y0020970D01*
X0306360Y0020839D01*
X0306438Y0020705D01*
X0306513Y0020570D01*
X0306584Y0020432D01*
X0306651Y0020293D01*
X0306715Y0020152D01*
X0306775Y0020010D01*
X0306831Y0019866D01*
X0306884Y0019721D01*
X0306933Y0019574D01*
X0306978Y0019426D01*
X0307019Y0019277D01*
X0307056Y0019127D01*
X0307090Y0018976D01*
X0307120Y0018824D01*
X0307145Y0018672D01*
X0307167Y0018519D01*
X0307185Y0018365D01*
X0307199Y0018211D01*
X0307209Y0018057D01*
X0307215Y0017903D01*
X0307217Y0017748D01*
X0307215Y0017593D01*
X0307209Y0017439D01*
X0307199Y0017285D01*
X0307185Y0017131D01*
X0307167Y0016977D01*
X0307145Y0016824D01*
X0307120Y0016672D01*
X0307090Y0016520D01*
X0307056Y0016369D01*
X0307019Y0016219D01*
X0306978Y0016070D01*
X0306933Y0015922D01*
X0306884Y0015775D01*
X0306831Y0015630D01*
X0306775Y0015486D01*
X0306715Y0015344D01*
X0306651Y0015203D01*
X0306584Y0015064D01*
X0306513Y0014926D01*
X0306438Y0014791D01*
X0306360Y0014657D01*
X0306279Y0014526D01*
X0306194Y0014396D01*
X0306106Y0014269D01*
X0306015Y0014144D01*
X0305921Y0014022D01*
X0305823Y0013902D01*
X0305723Y0013784D01*
X0305619Y0013670D01*
X0305513Y0013558D01*
X0305403Y0013448D01*
X0305291Y0013342D01*
X0305177Y0013238D01*
X0305059Y0013138D01*
X0304939Y0013040D01*
X0304817Y0012946D01*
X0304692Y0012855D01*
X0304565Y0012767D01*
X0304435Y0012682D01*
X0304304Y0012601D01*
X0304170Y0012523D01*
X0304035Y0012448D01*
X0303897Y0012377D01*
X0303758Y0012310D01*
X0303617Y0012246D01*
X0303475Y0012186D01*
X0303331Y0012130D01*
X0303186Y0012077D01*
X0303039Y0012028D01*
X0302891Y0011983D01*
X0302742Y0011942D01*
X0302592Y0011905D01*
X0302441Y0011871D01*
X0302289Y0011841D01*
X0302137Y0011816D01*
X0301984Y0011794D01*
X0301830Y0011776D01*
X0301676Y0011762D01*
X0301522Y0011752D01*
X0301368Y0011746D01*
X0301213Y0011744D01*
X0301058Y0011746D01*
X0300904Y0011752D01*
X0300750Y0011762D01*
X0300596Y0011776D01*
X0300442Y0011794D01*
X0300289Y0011816D01*
X0300137Y0011841D01*
X0299985Y0011871D01*
X0299834Y0011905D01*
X0299684Y0011942D01*
X0299535Y0011983D01*
X0299387Y0012028D01*
X0299240Y0012077D01*
X0299095Y0012130D01*
X0298951Y0012186D01*
X0298809Y0012246D01*
X0298668Y0012310D01*
X0298529Y0012377D01*
X0298391Y0012448D01*
X0298256Y0012523D01*
X0298122Y0012601D01*
X0297991Y0012682D01*
X0297861Y0012767D01*
X0297734Y0012855D01*
X0297609Y0012946D01*
X0297487Y0013040D01*
X0297367Y0013138D01*
X0297249Y0013238D01*
X0297135Y0013342D01*
X0297023Y0013448D01*
X0296913Y0013558D01*
X0296807Y0013670D01*
X0296703Y0013784D01*
X0296603Y0013902D01*
X0296505Y0014022D01*
X0296411Y0014144D01*
X0296320Y0014269D01*
X0296232Y0014396D01*
X0296147Y0014526D01*
X0296066Y0014657D01*
X0295988Y0014791D01*
X0295913Y0014926D01*
X0295842Y0015064D01*
X0295775Y0015203D01*
X0295711Y0015344D01*
X0295651Y0015486D01*
X0295595Y0015630D01*
X0295542Y0015775D01*
X0295493Y0015922D01*
X0295448Y0016070D01*
X0295407Y0016219D01*
X0295370Y0016369D01*
X0295336Y0016520D01*
X0295306Y0016672D01*
X0295281Y0016824D01*
X0295259Y0016977D01*
X0295241Y0017131D01*
X0295227Y0017285D01*
X0295217Y0017439D01*
X0295211Y0017593D01*
X0295209Y0017748D01*
X0013713Y0017748D02*
X0013715Y0017903D01*
X0013721Y0018057D01*
X0013731Y0018211D01*
X0013745Y0018365D01*
X0013763Y0018519D01*
X0013785Y0018672D01*
X0013810Y0018824D01*
X0013840Y0018976D01*
X0013874Y0019127D01*
X0013911Y0019277D01*
X0013952Y0019426D01*
X0013997Y0019574D01*
X0014046Y0019721D01*
X0014099Y0019866D01*
X0014155Y0020010D01*
X0014215Y0020152D01*
X0014279Y0020293D01*
X0014346Y0020432D01*
X0014417Y0020570D01*
X0014492Y0020705D01*
X0014570Y0020839D01*
X0014651Y0020970D01*
X0014736Y0021100D01*
X0014824Y0021227D01*
X0014915Y0021352D01*
X0015009Y0021474D01*
X0015107Y0021594D01*
X0015207Y0021712D01*
X0015311Y0021826D01*
X0015417Y0021938D01*
X0015527Y0022048D01*
X0015639Y0022154D01*
X0015753Y0022258D01*
X0015871Y0022358D01*
X0015991Y0022456D01*
X0016113Y0022550D01*
X0016238Y0022641D01*
X0016365Y0022729D01*
X0016495Y0022814D01*
X0016626Y0022895D01*
X0016760Y0022973D01*
X0016895Y0023048D01*
X0017033Y0023119D01*
X0017172Y0023186D01*
X0017313Y0023250D01*
X0017455Y0023310D01*
X0017599Y0023366D01*
X0017744Y0023419D01*
X0017891Y0023468D01*
X0018039Y0023513D01*
X0018188Y0023554D01*
X0018338Y0023591D01*
X0018489Y0023625D01*
X0018641Y0023655D01*
X0018793Y0023680D01*
X0018946Y0023702D01*
X0019100Y0023720D01*
X0019254Y0023734D01*
X0019408Y0023744D01*
X0019562Y0023750D01*
X0019717Y0023752D01*
X0019872Y0023750D01*
X0020026Y0023744D01*
X0020180Y0023734D01*
X0020334Y0023720D01*
X0020488Y0023702D01*
X0020641Y0023680D01*
X0020793Y0023655D01*
X0020945Y0023625D01*
X0021096Y0023591D01*
X0021246Y0023554D01*
X0021395Y0023513D01*
X0021543Y0023468D01*
X0021690Y0023419D01*
X0021835Y0023366D01*
X0021979Y0023310D01*
X0022121Y0023250D01*
X0022262Y0023186D01*
X0022401Y0023119D01*
X0022539Y0023048D01*
X0022674Y0022973D01*
X0022808Y0022895D01*
X0022939Y0022814D01*
X0023069Y0022729D01*
X0023196Y0022641D01*
X0023321Y0022550D01*
X0023443Y0022456D01*
X0023563Y0022358D01*
X0023681Y0022258D01*
X0023795Y0022154D01*
X0023907Y0022048D01*
X0024017Y0021938D01*
X0024123Y0021826D01*
X0024227Y0021712D01*
X0024327Y0021594D01*
X0024425Y0021474D01*
X0024519Y0021352D01*
X0024610Y0021227D01*
X0024698Y0021100D01*
X0024783Y0020970D01*
X0024864Y0020839D01*
X0024942Y0020705D01*
X0025017Y0020570D01*
X0025088Y0020432D01*
X0025155Y0020293D01*
X0025219Y0020152D01*
X0025279Y0020010D01*
X0025335Y0019866D01*
X0025388Y0019721D01*
X0025437Y0019574D01*
X0025482Y0019426D01*
X0025523Y0019277D01*
X0025560Y0019127D01*
X0025594Y0018976D01*
X0025624Y0018824D01*
X0025649Y0018672D01*
X0025671Y0018519D01*
X0025689Y0018365D01*
X0025703Y0018211D01*
X0025713Y0018057D01*
X0025719Y0017903D01*
X0025721Y0017748D01*
X0025719Y0017593D01*
X0025713Y0017439D01*
X0025703Y0017285D01*
X0025689Y0017131D01*
X0025671Y0016977D01*
X0025649Y0016824D01*
X0025624Y0016672D01*
X0025594Y0016520D01*
X0025560Y0016369D01*
X0025523Y0016219D01*
X0025482Y0016070D01*
X0025437Y0015922D01*
X0025388Y0015775D01*
X0025335Y0015630D01*
X0025279Y0015486D01*
X0025219Y0015344D01*
X0025155Y0015203D01*
X0025088Y0015064D01*
X0025017Y0014926D01*
X0024942Y0014791D01*
X0024864Y0014657D01*
X0024783Y0014526D01*
X0024698Y0014396D01*
X0024610Y0014269D01*
X0024519Y0014144D01*
X0024425Y0014022D01*
X0024327Y0013902D01*
X0024227Y0013784D01*
X0024123Y0013670D01*
X0024017Y0013558D01*
X0023907Y0013448D01*
X0023795Y0013342D01*
X0023681Y0013238D01*
X0023563Y0013138D01*
X0023443Y0013040D01*
X0023321Y0012946D01*
X0023196Y0012855D01*
X0023069Y0012767D01*
X0022939Y0012682D01*
X0022808Y0012601D01*
X0022674Y0012523D01*
X0022539Y0012448D01*
X0022401Y0012377D01*
X0022262Y0012310D01*
X0022121Y0012246D01*
X0021979Y0012186D01*
X0021835Y0012130D01*
X0021690Y0012077D01*
X0021543Y0012028D01*
X0021395Y0011983D01*
X0021246Y0011942D01*
X0021096Y0011905D01*
X0020945Y0011871D01*
X0020793Y0011841D01*
X0020641Y0011816D01*
X0020488Y0011794D01*
X0020334Y0011776D01*
X0020180Y0011762D01*
X0020026Y0011752D01*
X0019872Y0011746D01*
X0019717Y0011744D01*
X0019562Y0011746D01*
X0019408Y0011752D01*
X0019254Y0011762D01*
X0019100Y0011776D01*
X0018946Y0011794D01*
X0018793Y0011816D01*
X0018641Y0011841D01*
X0018489Y0011871D01*
X0018338Y0011905D01*
X0018188Y0011942D01*
X0018039Y0011983D01*
X0017891Y0012028D01*
X0017744Y0012077D01*
X0017599Y0012130D01*
X0017455Y0012186D01*
X0017313Y0012246D01*
X0017172Y0012310D01*
X0017033Y0012377D01*
X0016895Y0012448D01*
X0016760Y0012523D01*
X0016626Y0012601D01*
X0016495Y0012682D01*
X0016365Y0012767D01*
X0016238Y0012855D01*
X0016113Y0012946D01*
X0015991Y0013040D01*
X0015871Y0013138D01*
X0015753Y0013238D01*
X0015639Y0013342D01*
X0015527Y0013448D01*
X0015417Y0013558D01*
X0015311Y0013670D01*
X0015207Y0013784D01*
X0015107Y0013902D01*
X0015009Y0014022D01*
X0014915Y0014144D01*
X0014824Y0014269D01*
X0014736Y0014396D01*
X0014651Y0014526D01*
X0014570Y0014657D01*
X0014492Y0014791D01*
X0014417Y0014926D01*
X0014346Y0015064D01*
X0014279Y0015203D01*
X0014215Y0015344D01*
X0014155Y0015486D01*
X0014099Y0015630D01*
X0014046Y0015775D01*
X0013997Y0015922D01*
X0013952Y0016070D01*
X0013911Y0016219D01*
X0013874Y0016369D01*
X0013840Y0016520D01*
X0013810Y0016672D01*
X0013785Y0016824D01*
X0013763Y0016977D01*
X0013745Y0017131D01*
X0013731Y0017285D01*
X0013721Y0017439D01*
X0013715Y0017593D01*
X0013713Y0017748D01*
X0013713Y0137827D02*
X0013715Y0137982D01*
X0013721Y0138136D01*
X0013731Y0138290D01*
X0013745Y0138444D01*
X0013763Y0138598D01*
X0013785Y0138751D01*
X0013810Y0138903D01*
X0013840Y0139055D01*
X0013874Y0139206D01*
X0013911Y0139356D01*
X0013952Y0139505D01*
X0013997Y0139653D01*
X0014046Y0139800D01*
X0014099Y0139945D01*
X0014155Y0140089D01*
X0014215Y0140231D01*
X0014279Y0140372D01*
X0014346Y0140511D01*
X0014417Y0140649D01*
X0014492Y0140784D01*
X0014570Y0140918D01*
X0014651Y0141049D01*
X0014736Y0141179D01*
X0014824Y0141306D01*
X0014915Y0141431D01*
X0015009Y0141553D01*
X0015107Y0141673D01*
X0015207Y0141791D01*
X0015311Y0141905D01*
X0015417Y0142017D01*
X0015527Y0142127D01*
X0015639Y0142233D01*
X0015753Y0142337D01*
X0015871Y0142437D01*
X0015991Y0142535D01*
X0016113Y0142629D01*
X0016238Y0142720D01*
X0016365Y0142808D01*
X0016495Y0142893D01*
X0016626Y0142974D01*
X0016760Y0143052D01*
X0016895Y0143127D01*
X0017033Y0143198D01*
X0017172Y0143265D01*
X0017313Y0143329D01*
X0017455Y0143389D01*
X0017599Y0143445D01*
X0017744Y0143498D01*
X0017891Y0143547D01*
X0018039Y0143592D01*
X0018188Y0143633D01*
X0018338Y0143670D01*
X0018489Y0143704D01*
X0018641Y0143734D01*
X0018793Y0143759D01*
X0018946Y0143781D01*
X0019100Y0143799D01*
X0019254Y0143813D01*
X0019408Y0143823D01*
X0019562Y0143829D01*
X0019717Y0143831D01*
X0019872Y0143829D01*
X0020026Y0143823D01*
X0020180Y0143813D01*
X0020334Y0143799D01*
X0020488Y0143781D01*
X0020641Y0143759D01*
X0020793Y0143734D01*
X0020945Y0143704D01*
X0021096Y0143670D01*
X0021246Y0143633D01*
X0021395Y0143592D01*
X0021543Y0143547D01*
X0021690Y0143498D01*
X0021835Y0143445D01*
X0021979Y0143389D01*
X0022121Y0143329D01*
X0022262Y0143265D01*
X0022401Y0143198D01*
X0022539Y0143127D01*
X0022674Y0143052D01*
X0022808Y0142974D01*
X0022939Y0142893D01*
X0023069Y0142808D01*
X0023196Y0142720D01*
X0023321Y0142629D01*
X0023443Y0142535D01*
X0023563Y0142437D01*
X0023681Y0142337D01*
X0023795Y0142233D01*
X0023907Y0142127D01*
X0024017Y0142017D01*
X0024123Y0141905D01*
X0024227Y0141791D01*
X0024327Y0141673D01*
X0024425Y0141553D01*
X0024519Y0141431D01*
X0024610Y0141306D01*
X0024698Y0141179D01*
X0024783Y0141049D01*
X0024864Y0140918D01*
X0024942Y0140784D01*
X0025017Y0140649D01*
X0025088Y0140511D01*
X0025155Y0140372D01*
X0025219Y0140231D01*
X0025279Y0140089D01*
X0025335Y0139945D01*
X0025388Y0139800D01*
X0025437Y0139653D01*
X0025482Y0139505D01*
X0025523Y0139356D01*
X0025560Y0139206D01*
X0025594Y0139055D01*
X0025624Y0138903D01*
X0025649Y0138751D01*
X0025671Y0138598D01*
X0025689Y0138444D01*
X0025703Y0138290D01*
X0025713Y0138136D01*
X0025719Y0137982D01*
X0025721Y0137827D01*
X0025719Y0137672D01*
X0025713Y0137518D01*
X0025703Y0137364D01*
X0025689Y0137210D01*
X0025671Y0137056D01*
X0025649Y0136903D01*
X0025624Y0136751D01*
X0025594Y0136599D01*
X0025560Y0136448D01*
X0025523Y0136298D01*
X0025482Y0136149D01*
X0025437Y0136001D01*
X0025388Y0135854D01*
X0025335Y0135709D01*
X0025279Y0135565D01*
X0025219Y0135423D01*
X0025155Y0135282D01*
X0025088Y0135143D01*
X0025017Y0135005D01*
X0024942Y0134870D01*
X0024864Y0134736D01*
X0024783Y0134605D01*
X0024698Y0134475D01*
X0024610Y0134348D01*
X0024519Y0134223D01*
X0024425Y0134101D01*
X0024327Y0133981D01*
X0024227Y0133863D01*
X0024123Y0133749D01*
X0024017Y0133637D01*
X0023907Y0133527D01*
X0023795Y0133421D01*
X0023681Y0133317D01*
X0023563Y0133217D01*
X0023443Y0133119D01*
X0023321Y0133025D01*
X0023196Y0132934D01*
X0023069Y0132846D01*
X0022939Y0132761D01*
X0022808Y0132680D01*
X0022674Y0132602D01*
X0022539Y0132527D01*
X0022401Y0132456D01*
X0022262Y0132389D01*
X0022121Y0132325D01*
X0021979Y0132265D01*
X0021835Y0132209D01*
X0021690Y0132156D01*
X0021543Y0132107D01*
X0021395Y0132062D01*
X0021246Y0132021D01*
X0021096Y0131984D01*
X0020945Y0131950D01*
X0020793Y0131920D01*
X0020641Y0131895D01*
X0020488Y0131873D01*
X0020334Y0131855D01*
X0020180Y0131841D01*
X0020026Y0131831D01*
X0019872Y0131825D01*
X0019717Y0131823D01*
X0019562Y0131825D01*
X0019408Y0131831D01*
X0019254Y0131841D01*
X0019100Y0131855D01*
X0018946Y0131873D01*
X0018793Y0131895D01*
X0018641Y0131920D01*
X0018489Y0131950D01*
X0018338Y0131984D01*
X0018188Y0132021D01*
X0018039Y0132062D01*
X0017891Y0132107D01*
X0017744Y0132156D01*
X0017599Y0132209D01*
X0017455Y0132265D01*
X0017313Y0132325D01*
X0017172Y0132389D01*
X0017033Y0132456D01*
X0016895Y0132527D01*
X0016760Y0132602D01*
X0016626Y0132680D01*
X0016495Y0132761D01*
X0016365Y0132846D01*
X0016238Y0132934D01*
X0016113Y0133025D01*
X0015991Y0133119D01*
X0015871Y0133217D01*
X0015753Y0133317D01*
X0015639Y0133421D01*
X0015527Y0133527D01*
X0015417Y0133637D01*
X0015311Y0133749D01*
X0015207Y0133863D01*
X0015107Y0133981D01*
X0015009Y0134101D01*
X0014915Y0134223D01*
X0014824Y0134348D01*
X0014736Y0134475D01*
X0014651Y0134605D01*
X0014570Y0134736D01*
X0014492Y0134870D01*
X0014417Y0135005D01*
X0014346Y0135143D01*
X0014279Y0135282D01*
X0014215Y0135423D01*
X0014155Y0135565D01*
X0014099Y0135709D01*
X0014046Y0135854D01*
X0013997Y0136001D01*
X0013952Y0136149D01*
X0013911Y0136298D01*
X0013874Y0136448D01*
X0013840Y0136599D01*
X0013810Y0136751D01*
X0013785Y0136903D01*
X0013763Y0137056D01*
X0013745Y0137210D01*
X0013731Y0137364D01*
X0013721Y0137518D01*
X0013715Y0137672D01*
X0013713Y0137827D01*
X0011744Y0200819D02*
X0011746Y0200974D01*
X0011752Y0201128D01*
X0011762Y0201282D01*
X0011776Y0201436D01*
X0011794Y0201590D01*
X0011816Y0201743D01*
X0011841Y0201895D01*
X0011871Y0202047D01*
X0011905Y0202198D01*
X0011942Y0202348D01*
X0011983Y0202497D01*
X0012028Y0202645D01*
X0012077Y0202792D01*
X0012130Y0202937D01*
X0012186Y0203081D01*
X0012246Y0203223D01*
X0012310Y0203364D01*
X0012377Y0203503D01*
X0012448Y0203641D01*
X0012523Y0203776D01*
X0012601Y0203910D01*
X0012682Y0204041D01*
X0012767Y0204171D01*
X0012855Y0204298D01*
X0012946Y0204423D01*
X0013040Y0204545D01*
X0013138Y0204665D01*
X0013238Y0204783D01*
X0013342Y0204897D01*
X0013448Y0205009D01*
X0013558Y0205119D01*
X0013670Y0205225D01*
X0013784Y0205329D01*
X0013902Y0205429D01*
X0014022Y0205527D01*
X0014144Y0205621D01*
X0014269Y0205712D01*
X0014396Y0205800D01*
X0014526Y0205885D01*
X0014657Y0205966D01*
X0014791Y0206044D01*
X0014926Y0206119D01*
X0015064Y0206190D01*
X0015203Y0206257D01*
X0015344Y0206321D01*
X0015486Y0206381D01*
X0015630Y0206437D01*
X0015775Y0206490D01*
X0015922Y0206539D01*
X0016070Y0206584D01*
X0016219Y0206625D01*
X0016369Y0206662D01*
X0016520Y0206696D01*
X0016672Y0206726D01*
X0016824Y0206751D01*
X0016977Y0206773D01*
X0017131Y0206791D01*
X0017285Y0206805D01*
X0017439Y0206815D01*
X0017593Y0206821D01*
X0017748Y0206823D01*
X0017903Y0206821D01*
X0018057Y0206815D01*
X0018211Y0206805D01*
X0018365Y0206791D01*
X0018519Y0206773D01*
X0018672Y0206751D01*
X0018824Y0206726D01*
X0018976Y0206696D01*
X0019127Y0206662D01*
X0019277Y0206625D01*
X0019426Y0206584D01*
X0019574Y0206539D01*
X0019721Y0206490D01*
X0019866Y0206437D01*
X0020010Y0206381D01*
X0020152Y0206321D01*
X0020293Y0206257D01*
X0020432Y0206190D01*
X0020570Y0206119D01*
X0020705Y0206044D01*
X0020839Y0205966D01*
X0020970Y0205885D01*
X0021100Y0205800D01*
X0021227Y0205712D01*
X0021352Y0205621D01*
X0021474Y0205527D01*
X0021594Y0205429D01*
X0021712Y0205329D01*
X0021826Y0205225D01*
X0021938Y0205119D01*
X0022048Y0205009D01*
X0022154Y0204897D01*
X0022258Y0204783D01*
X0022358Y0204665D01*
X0022456Y0204545D01*
X0022550Y0204423D01*
X0022641Y0204298D01*
X0022729Y0204171D01*
X0022814Y0204041D01*
X0022895Y0203910D01*
X0022973Y0203776D01*
X0023048Y0203641D01*
X0023119Y0203503D01*
X0023186Y0203364D01*
X0023250Y0203223D01*
X0023310Y0203081D01*
X0023366Y0202937D01*
X0023419Y0202792D01*
X0023468Y0202645D01*
X0023513Y0202497D01*
X0023554Y0202348D01*
X0023591Y0202198D01*
X0023625Y0202047D01*
X0023655Y0201895D01*
X0023680Y0201743D01*
X0023702Y0201590D01*
X0023720Y0201436D01*
X0023734Y0201282D01*
X0023744Y0201128D01*
X0023750Y0200974D01*
X0023752Y0200819D01*
X0023750Y0200664D01*
X0023744Y0200510D01*
X0023734Y0200356D01*
X0023720Y0200202D01*
X0023702Y0200048D01*
X0023680Y0199895D01*
X0023655Y0199743D01*
X0023625Y0199591D01*
X0023591Y0199440D01*
X0023554Y0199290D01*
X0023513Y0199141D01*
X0023468Y0198993D01*
X0023419Y0198846D01*
X0023366Y0198701D01*
X0023310Y0198557D01*
X0023250Y0198415D01*
X0023186Y0198274D01*
X0023119Y0198135D01*
X0023048Y0197997D01*
X0022973Y0197862D01*
X0022895Y0197728D01*
X0022814Y0197597D01*
X0022729Y0197467D01*
X0022641Y0197340D01*
X0022550Y0197215D01*
X0022456Y0197093D01*
X0022358Y0196973D01*
X0022258Y0196855D01*
X0022154Y0196741D01*
X0022048Y0196629D01*
X0021938Y0196519D01*
X0021826Y0196413D01*
X0021712Y0196309D01*
X0021594Y0196209D01*
X0021474Y0196111D01*
X0021352Y0196017D01*
X0021227Y0195926D01*
X0021100Y0195838D01*
X0020970Y0195753D01*
X0020839Y0195672D01*
X0020705Y0195594D01*
X0020570Y0195519D01*
X0020432Y0195448D01*
X0020293Y0195381D01*
X0020152Y0195317D01*
X0020010Y0195257D01*
X0019866Y0195201D01*
X0019721Y0195148D01*
X0019574Y0195099D01*
X0019426Y0195054D01*
X0019277Y0195013D01*
X0019127Y0194976D01*
X0018976Y0194942D01*
X0018824Y0194912D01*
X0018672Y0194887D01*
X0018519Y0194865D01*
X0018365Y0194847D01*
X0018211Y0194833D01*
X0018057Y0194823D01*
X0017903Y0194817D01*
X0017748Y0194815D01*
X0017593Y0194817D01*
X0017439Y0194823D01*
X0017285Y0194833D01*
X0017131Y0194847D01*
X0016977Y0194865D01*
X0016824Y0194887D01*
X0016672Y0194912D01*
X0016520Y0194942D01*
X0016369Y0194976D01*
X0016219Y0195013D01*
X0016070Y0195054D01*
X0015922Y0195099D01*
X0015775Y0195148D01*
X0015630Y0195201D01*
X0015486Y0195257D01*
X0015344Y0195317D01*
X0015203Y0195381D01*
X0015064Y0195448D01*
X0014926Y0195519D01*
X0014791Y0195594D01*
X0014657Y0195672D01*
X0014526Y0195753D01*
X0014396Y0195838D01*
X0014269Y0195926D01*
X0014144Y0196017D01*
X0014022Y0196111D01*
X0013902Y0196209D01*
X0013784Y0196309D01*
X0013670Y0196413D01*
X0013558Y0196519D01*
X0013448Y0196629D01*
X0013342Y0196741D01*
X0013238Y0196855D01*
X0013138Y0196973D01*
X0013040Y0197093D01*
X0012946Y0197215D01*
X0012855Y0197340D01*
X0012767Y0197467D01*
X0012682Y0197597D01*
X0012601Y0197728D01*
X0012523Y0197862D01*
X0012448Y0197997D01*
X0012377Y0198135D01*
X0012310Y0198274D01*
X0012246Y0198415D01*
X0012186Y0198557D01*
X0012130Y0198701D01*
X0012077Y0198846D01*
X0012028Y0198993D01*
X0011983Y0199141D01*
X0011942Y0199290D01*
X0011905Y0199440D01*
X0011871Y0199591D01*
X0011841Y0199743D01*
X0011816Y0199895D01*
X0011794Y0200048D01*
X0011776Y0200202D01*
X0011762Y0200356D01*
X0011752Y0200510D01*
X0011746Y0200664D01*
X0011744Y0200819D01*
X0011744Y0320898D02*
X0011746Y0321053D01*
X0011752Y0321207D01*
X0011762Y0321361D01*
X0011776Y0321515D01*
X0011794Y0321669D01*
X0011816Y0321822D01*
X0011841Y0321974D01*
X0011871Y0322126D01*
X0011905Y0322277D01*
X0011942Y0322427D01*
X0011983Y0322576D01*
X0012028Y0322724D01*
X0012077Y0322871D01*
X0012130Y0323016D01*
X0012186Y0323160D01*
X0012246Y0323302D01*
X0012310Y0323443D01*
X0012377Y0323582D01*
X0012448Y0323720D01*
X0012523Y0323855D01*
X0012601Y0323989D01*
X0012682Y0324120D01*
X0012767Y0324250D01*
X0012855Y0324377D01*
X0012946Y0324502D01*
X0013040Y0324624D01*
X0013138Y0324744D01*
X0013238Y0324862D01*
X0013342Y0324976D01*
X0013448Y0325088D01*
X0013558Y0325198D01*
X0013670Y0325304D01*
X0013784Y0325408D01*
X0013902Y0325508D01*
X0014022Y0325606D01*
X0014144Y0325700D01*
X0014269Y0325791D01*
X0014396Y0325879D01*
X0014526Y0325964D01*
X0014657Y0326045D01*
X0014791Y0326123D01*
X0014926Y0326198D01*
X0015064Y0326269D01*
X0015203Y0326336D01*
X0015344Y0326400D01*
X0015486Y0326460D01*
X0015630Y0326516D01*
X0015775Y0326569D01*
X0015922Y0326618D01*
X0016070Y0326663D01*
X0016219Y0326704D01*
X0016369Y0326741D01*
X0016520Y0326775D01*
X0016672Y0326805D01*
X0016824Y0326830D01*
X0016977Y0326852D01*
X0017131Y0326870D01*
X0017285Y0326884D01*
X0017439Y0326894D01*
X0017593Y0326900D01*
X0017748Y0326902D01*
X0017903Y0326900D01*
X0018057Y0326894D01*
X0018211Y0326884D01*
X0018365Y0326870D01*
X0018519Y0326852D01*
X0018672Y0326830D01*
X0018824Y0326805D01*
X0018976Y0326775D01*
X0019127Y0326741D01*
X0019277Y0326704D01*
X0019426Y0326663D01*
X0019574Y0326618D01*
X0019721Y0326569D01*
X0019866Y0326516D01*
X0020010Y0326460D01*
X0020152Y0326400D01*
X0020293Y0326336D01*
X0020432Y0326269D01*
X0020570Y0326198D01*
X0020705Y0326123D01*
X0020839Y0326045D01*
X0020970Y0325964D01*
X0021100Y0325879D01*
X0021227Y0325791D01*
X0021352Y0325700D01*
X0021474Y0325606D01*
X0021594Y0325508D01*
X0021712Y0325408D01*
X0021826Y0325304D01*
X0021938Y0325198D01*
X0022048Y0325088D01*
X0022154Y0324976D01*
X0022258Y0324862D01*
X0022358Y0324744D01*
X0022456Y0324624D01*
X0022550Y0324502D01*
X0022641Y0324377D01*
X0022729Y0324250D01*
X0022814Y0324120D01*
X0022895Y0323989D01*
X0022973Y0323855D01*
X0023048Y0323720D01*
X0023119Y0323582D01*
X0023186Y0323443D01*
X0023250Y0323302D01*
X0023310Y0323160D01*
X0023366Y0323016D01*
X0023419Y0322871D01*
X0023468Y0322724D01*
X0023513Y0322576D01*
X0023554Y0322427D01*
X0023591Y0322277D01*
X0023625Y0322126D01*
X0023655Y0321974D01*
X0023680Y0321822D01*
X0023702Y0321669D01*
X0023720Y0321515D01*
X0023734Y0321361D01*
X0023744Y0321207D01*
X0023750Y0321053D01*
X0023752Y0320898D01*
X0023750Y0320743D01*
X0023744Y0320589D01*
X0023734Y0320435D01*
X0023720Y0320281D01*
X0023702Y0320127D01*
X0023680Y0319974D01*
X0023655Y0319822D01*
X0023625Y0319670D01*
X0023591Y0319519D01*
X0023554Y0319369D01*
X0023513Y0319220D01*
X0023468Y0319072D01*
X0023419Y0318925D01*
X0023366Y0318780D01*
X0023310Y0318636D01*
X0023250Y0318494D01*
X0023186Y0318353D01*
X0023119Y0318214D01*
X0023048Y0318076D01*
X0022973Y0317941D01*
X0022895Y0317807D01*
X0022814Y0317676D01*
X0022729Y0317546D01*
X0022641Y0317419D01*
X0022550Y0317294D01*
X0022456Y0317172D01*
X0022358Y0317052D01*
X0022258Y0316934D01*
X0022154Y0316820D01*
X0022048Y0316708D01*
X0021938Y0316598D01*
X0021826Y0316492D01*
X0021712Y0316388D01*
X0021594Y0316288D01*
X0021474Y0316190D01*
X0021352Y0316096D01*
X0021227Y0316005D01*
X0021100Y0315917D01*
X0020970Y0315832D01*
X0020839Y0315751D01*
X0020705Y0315673D01*
X0020570Y0315598D01*
X0020432Y0315527D01*
X0020293Y0315460D01*
X0020152Y0315396D01*
X0020010Y0315336D01*
X0019866Y0315280D01*
X0019721Y0315227D01*
X0019574Y0315178D01*
X0019426Y0315133D01*
X0019277Y0315092D01*
X0019127Y0315055D01*
X0018976Y0315021D01*
X0018824Y0314991D01*
X0018672Y0314966D01*
X0018519Y0314944D01*
X0018365Y0314926D01*
X0018211Y0314912D01*
X0018057Y0314902D01*
X0017903Y0314896D01*
X0017748Y0314894D01*
X0017593Y0314896D01*
X0017439Y0314902D01*
X0017285Y0314912D01*
X0017131Y0314926D01*
X0016977Y0314944D01*
X0016824Y0314966D01*
X0016672Y0314991D01*
X0016520Y0315021D01*
X0016369Y0315055D01*
X0016219Y0315092D01*
X0016070Y0315133D01*
X0015922Y0315178D01*
X0015775Y0315227D01*
X0015630Y0315280D01*
X0015486Y0315336D01*
X0015344Y0315396D01*
X0015203Y0315460D01*
X0015064Y0315527D01*
X0014926Y0315598D01*
X0014791Y0315673D01*
X0014657Y0315751D01*
X0014526Y0315832D01*
X0014396Y0315917D01*
X0014269Y0316005D01*
X0014144Y0316096D01*
X0014022Y0316190D01*
X0013902Y0316288D01*
X0013784Y0316388D01*
X0013670Y0316492D01*
X0013558Y0316598D01*
X0013448Y0316708D01*
X0013342Y0316820D01*
X0013238Y0316934D01*
X0013138Y0317052D01*
X0013040Y0317172D01*
X0012946Y0317294D01*
X0012855Y0317419D01*
X0012767Y0317546D01*
X0012682Y0317676D01*
X0012601Y0317807D01*
X0012523Y0317941D01*
X0012448Y0318076D01*
X0012377Y0318214D01*
X0012310Y0318353D01*
X0012246Y0318494D01*
X0012186Y0318636D01*
X0012130Y0318780D01*
X0012077Y0318925D01*
X0012028Y0319072D01*
X0011983Y0319220D01*
X0011942Y0319369D01*
X0011905Y0319519D01*
X0011871Y0319670D01*
X0011841Y0319822D01*
X0011816Y0319974D01*
X0011794Y0320127D01*
X0011776Y0320281D01*
X0011762Y0320435D01*
X0011752Y0320589D01*
X0011746Y0320743D01*
X0011744Y0320898D01*
X0273059Y0284780D02*
X0273061Y0284941D01*
X0273067Y0285101D01*
X0273077Y0285262D01*
X0273091Y0285422D01*
X0273109Y0285582D01*
X0273130Y0285741D01*
X0273156Y0285900D01*
X0273186Y0286058D01*
X0273219Y0286215D01*
X0273257Y0286372D01*
X0273298Y0286527D01*
X0273343Y0286681D01*
X0273392Y0286834D01*
X0273445Y0286986D01*
X0273501Y0287137D01*
X0273562Y0287286D01*
X0273625Y0287434D01*
X0273693Y0287580D01*
X0273764Y0287724D01*
X0273838Y0287866D01*
X0273916Y0288007D01*
X0273998Y0288145D01*
X0274083Y0288282D01*
X0274171Y0288416D01*
X0274263Y0288548D01*
X0274358Y0288678D01*
X0274456Y0288806D01*
X0274557Y0288931D01*
X0274661Y0289053D01*
X0274768Y0289173D01*
X0274878Y0289290D01*
X0274991Y0289405D01*
X0275107Y0289516D01*
X0275226Y0289625D01*
X0275347Y0289730D01*
X0275471Y0289833D01*
X0275597Y0289933D01*
X0275725Y0290029D01*
X0275856Y0290122D01*
X0275990Y0290212D01*
X0276125Y0290299D01*
X0276263Y0290382D01*
X0276402Y0290462D01*
X0276544Y0290538D01*
X0276687Y0290611D01*
X0276832Y0290680D01*
X0276979Y0290746D01*
X0277127Y0290808D01*
X0277277Y0290866D01*
X0277428Y0290921D01*
X0277581Y0290972D01*
X0277735Y0291019D01*
X0277890Y0291062D01*
X0278046Y0291101D01*
X0278202Y0291137D01*
X0278360Y0291168D01*
X0278518Y0291196D01*
X0278677Y0291220D01*
X0278837Y0291240D01*
X0278997Y0291256D01*
X0279157Y0291268D01*
X0279318Y0291276D01*
X0279479Y0291280D01*
X0279639Y0291280D01*
X0279800Y0291276D01*
X0279961Y0291268D01*
X0280121Y0291256D01*
X0280281Y0291240D01*
X0280441Y0291220D01*
X0280600Y0291196D01*
X0280758Y0291168D01*
X0280916Y0291137D01*
X0281072Y0291101D01*
X0281228Y0291062D01*
X0281383Y0291019D01*
X0281537Y0290972D01*
X0281690Y0290921D01*
X0281841Y0290866D01*
X0281991Y0290808D01*
X0282139Y0290746D01*
X0282286Y0290680D01*
X0282431Y0290611D01*
X0282574Y0290538D01*
X0282716Y0290462D01*
X0282855Y0290382D01*
X0282993Y0290299D01*
X0283128Y0290212D01*
X0283262Y0290122D01*
X0283393Y0290029D01*
X0283521Y0289933D01*
X0283647Y0289833D01*
X0283771Y0289730D01*
X0283892Y0289625D01*
X0284011Y0289516D01*
X0284127Y0289405D01*
X0284240Y0289290D01*
X0284350Y0289173D01*
X0284457Y0289053D01*
X0284561Y0288931D01*
X0284662Y0288806D01*
X0284760Y0288678D01*
X0284855Y0288548D01*
X0284947Y0288416D01*
X0285035Y0288282D01*
X0285120Y0288145D01*
X0285202Y0288007D01*
X0285280Y0287866D01*
X0285354Y0287724D01*
X0285425Y0287580D01*
X0285493Y0287434D01*
X0285556Y0287286D01*
X0285617Y0287137D01*
X0285673Y0286986D01*
X0285726Y0286834D01*
X0285775Y0286681D01*
X0285820Y0286527D01*
X0285861Y0286372D01*
X0285899Y0286215D01*
X0285932Y0286058D01*
X0285962Y0285900D01*
X0285988Y0285741D01*
X0286009Y0285582D01*
X0286027Y0285422D01*
X0286041Y0285262D01*
X0286051Y0285101D01*
X0286057Y0284941D01*
X0286059Y0284780D01*
X0286057Y0284619D01*
X0286051Y0284459D01*
X0286041Y0284298D01*
X0286027Y0284138D01*
X0286009Y0283978D01*
X0285988Y0283819D01*
X0285962Y0283660D01*
X0285932Y0283502D01*
X0285899Y0283345D01*
X0285861Y0283188D01*
X0285820Y0283033D01*
X0285775Y0282879D01*
X0285726Y0282726D01*
X0285673Y0282574D01*
X0285617Y0282423D01*
X0285556Y0282274D01*
X0285493Y0282126D01*
X0285425Y0281980D01*
X0285354Y0281836D01*
X0285280Y0281694D01*
X0285202Y0281553D01*
X0285120Y0281415D01*
X0285035Y0281278D01*
X0284947Y0281144D01*
X0284855Y0281012D01*
X0284760Y0280882D01*
X0284662Y0280754D01*
X0284561Y0280629D01*
X0284457Y0280507D01*
X0284350Y0280387D01*
X0284240Y0280270D01*
X0284127Y0280155D01*
X0284011Y0280044D01*
X0283892Y0279935D01*
X0283771Y0279830D01*
X0283647Y0279727D01*
X0283521Y0279627D01*
X0283393Y0279531D01*
X0283262Y0279438D01*
X0283128Y0279348D01*
X0282993Y0279261D01*
X0282855Y0279178D01*
X0282716Y0279098D01*
X0282574Y0279022D01*
X0282431Y0278949D01*
X0282286Y0278880D01*
X0282139Y0278814D01*
X0281991Y0278752D01*
X0281841Y0278694D01*
X0281690Y0278639D01*
X0281537Y0278588D01*
X0281383Y0278541D01*
X0281228Y0278498D01*
X0281072Y0278459D01*
X0280916Y0278423D01*
X0280758Y0278392D01*
X0280600Y0278364D01*
X0280441Y0278340D01*
X0280281Y0278320D01*
X0280121Y0278304D01*
X0279961Y0278292D01*
X0279800Y0278284D01*
X0279639Y0278280D01*
X0279479Y0278280D01*
X0279318Y0278284D01*
X0279157Y0278292D01*
X0278997Y0278304D01*
X0278837Y0278320D01*
X0278677Y0278340D01*
X0278518Y0278364D01*
X0278360Y0278392D01*
X0278202Y0278423D01*
X0278046Y0278459D01*
X0277890Y0278498D01*
X0277735Y0278541D01*
X0277581Y0278588D01*
X0277428Y0278639D01*
X0277277Y0278694D01*
X0277127Y0278752D01*
X0276979Y0278814D01*
X0276832Y0278880D01*
X0276687Y0278949D01*
X0276544Y0279022D01*
X0276402Y0279098D01*
X0276263Y0279178D01*
X0276125Y0279261D01*
X0275990Y0279348D01*
X0275856Y0279438D01*
X0275725Y0279531D01*
X0275597Y0279627D01*
X0275471Y0279727D01*
X0275347Y0279830D01*
X0275226Y0279935D01*
X0275107Y0280044D01*
X0274991Y0280155D01*
X0274878Y0280270D01*
X0274768Y0280387D01*
X0274661Y0280507D01*
X0274557Y0280629D01*
X0274456Y0280754D01*
X0274358Y0280882D01*
X0274263Y0281012D01*
X0274171Y0281144D01*
X0274083Y0281278D01*
X0273998Y0281415D01*
X0273916Y0281553D01*
X0273838Y0281694D01*
X0273764Y0281836D01*
X0273693Y0281980D01*
X0273625Y0282126D01*
X0273562Y0282274D01*
X0273501Y0282423D01*
X0273445Y0282574D01*
X0273392Y0282726D01*
X0273343Y0282879D01*
X0273298Y0283033D01*
X0273257Y0283188D01*
X0273219Y0283345D01*
X0273186Y0283502D01*
X0273156Y0283660D01*
X0273130Y0283819D01*
X0273109Y0283978D01*
X0273091Y0284138D01*
X0273077Y0284298D01*
X0273067Y0284459D01*
X0273061Y0284619D01*
X0273059Y0284780D01*
X0293240Y0320898D02*
X0293242Y0321053D01*
X0293248Y0321207D01*
X0293258Y0321361D01*
X0293272Y0321515D01*
X0293290Y0321669D01*
X0293312Y0321822D01*
X0293337Y0321974D01*
X0293367Y0322126D01*
X0293401Y0322277D01*
X0293438Y0322427D01*
X0293479Y0322576D01*
X0293524Y0322724D01*
X0293573Y0322871D01*
X0293626Y0323016D01*
X0293682Y0323160D01*
X0293742Y0323302D01*
X0293806Y0323443D01*
X0293873Y0323582D01*
X0293944Y0323720D01*
X0294019Y0323855D01*
X0294097Y0323989D01*
X0294178Y0324120D01*
X0294263Y0324250D01*
X0294351Y0324377D01*
X0294442Y0324502D01*
X0294536Y0324624D01*
X0294634Y0324744D01*
X0294734Y0324862D01*
X0294838Y0324976D01*
X0294944Y0325088D01*
X0295054Y0325198D01*
X0295166Y0325304D01*
X0295280Y0325408D01*
X0295398Y0325508D01*
X0295518Y0325606D01*
X0295640Y0325700D01*
X0295765Y0325791D01*
X0295892Y0325879D01*
X0296022Y0325964D01*
X0296153Y0326045D01*
X0296287Y0326123D01*
X0296422Y0326198D01*
X0296560Y0326269D01*
X0296699Y0326336D01*
X0296840Y0326400D01*
X0296982Y0326460D01*
X0297126Y0326516D01*
X0297271Y0326569D01*
X0297418Y0326618D01*
X0297566Y0326663D01*
X0297715Y0326704D01*
X0297865Y0326741D01*
X0298016Y0326775D01*
X0298168Y0326805D01*
X0298320Y0326830D01*
X0298473Y0326852D01*
X0298627Y0326870D01*
X0298781Y0326884D01*
X0298935Y0326894D01*
X0299089Y0326900D01*
X0299244Y0326902D01*
X0299399Y0326900D01*
X0299553Y0326894D01*
X0299707Y0326884D01*
X0299861Y0326870D01*
X0300015Y0326852D01*
X0300168Y0326830D01*
X0300320Y0326805D01*
X0300472Y0326775D01*
X0300623Y0326741D01*
X0300773Y0326704D01*
X0300922Y0326663D01*
X0301070Y0326618D01*
X0301217Y0326569D01*
X0301362Y0326516D01*
X0301506Y0326460D01*
X0301648Y0326400D01*
X0301789Y0326336D01*
X0301928Y0326269D01*
X0302066Y0326198D01*
X0302201Y0326123D01*
X0302335Y0326045D01*
X0302466Y0325964D01*
X0302596Y0325879D01*
X0302723Y0325791D01*
X0302848Y0325700D01*
X0302970Y0325606D01*
X0303090Y0325508D01*
X0303208Y0325408D01*
X0303322Y0325304D01*
X0303434Y0325198D01*
X0303544Y0325088D01*
X0303650Y0324976D01*
X0303754Y0324862D01*
X0303854Y0324744D01*
X0303952Y0324624D01*
X0304046Y0324502D01*
X0304137Y0324377D01*
X0304225Y0324250D01*
X0304310Y0324120D01*
X0304391Y0323989D01*
X0304469Y0323855D01*
X0304544Y0323720D01*
X0304615Y0323582D01*
X0304682Y0323443D01*
X0304746Y0323302D01*
X0304806Y0323160D01*
X0304862Y0323016D01*
X0304915Y0322871D01*
X0304964Y0322724D01*
X0305009Y0322576D01*
X0305050Y0322427D01*
X0305087Y0322277D01*
X0305121Y0322126D01*
X0305151Y0321974D01*
X0305176Y0321822D01*
X0305198Y0321669D01*
X0305216Y0321515D01*
X0305230Y0321361D01*
X0305240Y0321207D01*
X0305246Y0321053D01*
X0305248Y0320898D01*
X0305246Y0320743D01*
X0305240Y0320589D01*
X0305230Y0320435D01*
X0305216Y0320281D01*
X0305198Y0320127D01*
X0305176Y0319974D01*
X0305151Y0319822D01*
X0305121Y0319670D01*
X0305087Y0319519D01*
X0305050Y0319369D01*
X0305009Y0319220D01*
X0304964Y0319072D01*
X0304915Y0318925D01*
X0304862Y0318780D01*
X0304806Y0318636D01*
X0304746Y0318494D01*
X0304682Y0318353D01*
X0304615Y0318214D01*
X0304544Y0318076D01*
X0304469Y0317941D01*
X0304391Y0317807D01*
X0304310Y0317676D01*
X0304225Y0317546D01*
X0304137Y0317419D01*
X0304046Y0317294D01*
X0303952Y0317172D01*
X0303854Y0317052D01*
X0303754Y0316934D01*
X0303650Y0316820D01*
X0303544Y0316708D01*
X0303434Y0316598D01*
X0303322Y0316492D01*
X0303208Y0316388D01*
X0303090Y0316288D01*
X0302970Y0316190D01*
X0302848Y0316096D01*
X0302723Y0316005D01*
X0302596Y0315917D01*
X0302466Y0315832D01*
X0302335Y0315751D01*
X0302201Y0315673D01*
X0302066Y0315598D01*
X0301928Y0315527D01*
X0301789Y0315460D01*
X0301648Y0315396D01*
X0301506Y0315336D01*
X0301362Y0315280D01*
X0301217Y0315227D01*
X0301070Y0315178D01*
X0300922Y0315133D01*
X0300773Y0315092D01*
X0300623Y0315055D01*
X0300472Y0315021D01*
X0300320Y0314991D01*
X0300168Y0314966D01*
X0300015Y0314944D01*
X0299861Y0314926D01*
X0299707Y0314912D01*
X0299553Y0314902D01*
X0299399Y0314896D01*
X0299244Y0314894D01*
X0299089Y0314896D01*
X0298935Y0314902D01*
X0298781Y0314912D01*
X0298627Y0314926D01*
X0298473Y0314944D01*
X0298320Y0314966D01*
X0298168Y0314991D01*
X0298016Y0315021D01*
X0297865Y0315055D01*
X0297715Y0315092D01*
X0297566Y0315133D01*
X0297418Y0315178D01*
X0297271Y0315227D01*
X0297126Y0315280D01*
X0296982Y0315336D01*
X0296840Y0315396D01*
X0296699Y0315460D01*
X0296560Y0315527D01*
X0296422Y0315598D01*
X0296287Y0315673D01*
X0296153Y0315751D01*
X0296022Y0315832D01*
X0295892Y0315917D01*
X0295765Y0316005D01*
X0295640Y0316096D01*
X0295518Y0316190D01*
X0295398Y0316288D01*
X0295280Y0316388D01*
X0295166Y0316492D01*
X0295054Y0316598D01*
X0294944Y0316708D01*
X0294838Y0316820D01*
X0294734Y0316934D01*
X0294634Y0317052D01*
X0294536Y0317172D01*
X0294442Y0317294D01*
X0294351Y0317419D01*
X0294263Y0317546D01*
X0294178Y0317676D01*
X0294097Y0317807D01*
X0294019Y0317941D01*
X0293944Y0318076D01*
X0293873Y0318214D01*
X0293806Y0318353D01*
X0293742Y0318494D01*
X0293682Y0318636D01*
X0293626Y0318780D01*
X0293573Y0318925D01*
X0293524Y0319072D01*
X0293479Y0319220D01*
X0293438Y0319369D01*
X0293401Y0319519D01*
X0293367Y0319670D01*
X0293337Y0319822D01*
X0293312Y0319974D01*
X0293290Y0320127D01*
X0293272Y0320281D01*
X0293258Y0320435D01*
X0293248Y0320589D01*
X0293242Y0320743D01*
X0293240Y0320898D01*
D13*
X0019717Y0017748D03*
X0019717Y0137827D03*
X0017748Y0200819D03*
X0017748Y0320898D03*
X0299244Y0320898D03*
X0299244Y0200819D03*
X0301213Y0137827D03*
X0301213Y0017748D03*
D14*
X0218732Y0020654D02*
X0218732Y0026654D01*
X0208732Y0026654D02*
X0208732Y0020654D01*
X0198732Y0020654D02*
X0198732Y0026654D01*
X0188732Y0026654D02*
X0188732Y0020654D01*
X0178732Y0020654D02*
X0178732Y0026654D01*
X0168732Y0026654D02*
X0168732Y0020654D01*
X0158732Y0020654D02*
X0158732Y0026654D01*
X0148732Y0026654D02*
X0148732Y0020654D01*
X0138732Y0020654D02*
X0138732Y0026654D01*
X0128732Y0026654D02*
X0128732Y0020654D01*
X0118732Y0020654D02*
X0118732Y0026654D01*
X0108732Y0026654D02*
X0108732Y0020654D01*
X0098732Y0020654D02*
X0098732Y0026654D01*
X0088732Y0026654D02*
X0088732Y0020654D01*
X0078732Y0020654D02*
X0078732Y0026654D01*
X0068732Y0026654D02*
X0068732Y0020654D01*
X0108417Y0101362D02*
X0108417Y0107362D01*
X0118417Y0107362D02*
X0118417Y0101362D01*
X0128417Y0101362D02*
X0128417Y0107362D01*
X0138417Y0107362D02*
X0138417Y0101362D01*
X0148417Y0101362D02*
X0148417Y0107362D01*
X0158417Y0107362D02*
X0158417Y0101362D01*
X0168417Y0101362D02*
X0168417Y0107362D01*
X0178417Y0107362D02*
X0178417Y0101362D01*
X0188417Y0101362D02*
X0188417Y0107362D01*
X0198417Y0107362D02*
X0198417Y0101362D01*
X0208417Y0101362D02*
X0208417Y0107362D01*
X0218417Y0107362D02*
X0218417Y0101362D01*
X0216449Y0134827D02*
X0216449Y0140827D01*
X0226449Y0140827D02*
X0226449Y0134827D01*
X0236449Y0134827D02*
X0236449Y0140827D01*
X0246449Y0140827D02*
X0246449Y0134827D01*
X0256449Y0134827D02*
X0256449Y0140827D01*
X0266449Y0140827D02*
X0266449Y0134827D01*
X0276449Y0134827D02*
X0276449Y0140827D01*
X0218732Y0199787D02*
X0218732Y0205787D01*
X0208732Y0205787D02*
X0208732Y0199787D01*
X0198732Y0199787D02*
X0198732Y0205787D01*
X0188732Y0205787D02*
X0188732Y0199787D01*
X0178732Y0199787D02*
X0178732Y0205787D01*
X0168732Y0205787D02*
X0168732Y0199787D01*
X0158732Y0199787D02*
X0158732Y0205787D01*
X0148732Y0205787D02*
X0148732Y0199787D01*
X0138732Y0199787D02*
X0138732Y0205787D01*
X0128732Y0205787D02*
X0128732Y0199787D01*
X0118732Y0199787D02*
X0118732Y0205787D01*
X0108732Y0205787D02*
X0108732Y0199787D01*
X0098732Y0199787D02*
X0098732Y0205787D01*
X0088732Y0205787D02*
X0088732Y0199787D01*
X0078732Y0199787D02*
X0078732Y0205787D01*
X0068732Y0205787D02*
X0068732Y0199787D01*
X0066449Y0140827D02*
X0066449Y0134827D01*
X0056449Y0134827D02*
X0056449Y0140827D01*
X0046449Y0140827D02*
X0046449Y0134827D01*
X0076449Y0134827D02*
X0076449Y0140827D01*
X0086449Y0140827D02*
X0086449Y0134827D01*
X0096449Y0134827D02*
X0096449Y0140827D01*
X0106449Y0140827D02*
X0106449Y0134827D01*
X0116449Y0134827D02*
X0116449Y0140827D01*
X0126449Y0140827D02*
X0126449Y0134827D01*
X0136449Y0134827D02*
X0136449Y0140827D01*
X0146449Y0140827D02*
X0146449Y0134827D01*
X0156449Y0134827D02*
X0156449Y0140827D01*
X0166449Y0140827D02*
X0166449Y0134827D01*
X0176449Y0134827D02*
X0176449Y0140827D01*
X0186449Y0140827D02*
X0186449Y0134827D01*
X0196449Y0134827D02*
X0196449Y0140827D01*
X0206449Y0140827D02*
X0206449Y0134827D01*
X0208417Y0280496D02*
X0208417Y0286496D01*
X0218417Y0286496D02*
X0218417Y0280496D01*
X0198417Y0280496D02*
X0198417Y0286496D01*
X0188417Y0286496D02*
X0188417Y0280496D01*
X0178417Y0280496D02*
X0178417Y0286496D01*
X0168417Y0286496D02*
X0168417Y0280496D01*
X0158417Y0280496D02*
X0158417Y0286496D01*
X0148417Y0286496D02*
X0148417Y0280496D01*
X0138417Y0280496D02*
X0138417Y0286496D01*
X0128417Y0286496D02*
X0128417Y0280496D01*
X0118417Y0280496D02*
X0118417Y0286496D01*
X0108417Y0286496D02*
X0108417Y0280496D01*
X0106449Y0311992D02*
X0106449Y0317992D01*
X0096449Y0317992D02*
X0096449Y0311992D01*
X0086449Y0311992D02*
X0086449Y0317992D01*
X0076449Y0317992D02*
X0076449Y0311992D01*
X0066449Y0311992D02*
X0066449Y0317992D01*
X0056449Y0317992D02*
X0056449Y0311992D01*
X0046449Y0311992D02*
X0046449Y0317992D01*
X0116449Y0317992D02*
X0116449Y0311992D01*
X0126449Y0311992D02*
X0126449Y0317992D01*
X0136449Y0317992D02*
X0136449Y0311992D01*
X0146449Y0311992D02*
X0146449Y0317992D01*
X0156449Y0317992D02*
X0156449Y0311992D01*
X0166449Y0311992D02*
X0166449Y0317992D01*
X0176449Y0317992D02*
X0176449Y0311992D01*
X0186449Y0311992D02*
X0186449Y0317992D01*
X0196449Y0317992D02*
X0196449Y0311992D01*
X0206449Y0311992D02*
X0206449Y0317992D01*
X0216449Y0317992D02*
X0216449Y0311992D01*
X0226449Y0311992D02*
X0226449Y0317992D01*
X0236449Y0317992D02*
X0236449Y0311992D01*
X0246449Y0311992D02*
X0246449Y0317992D01*
X0256449Y0317992D02*
X0256449Y0311992D01*
X0266449Y0311992D02*
X0266449Y0317992D01*
X0276449Y0317992D02*
X0276449Y0311992D01*
D15*
X0279559Y0229080D02*
X0279559Y0222480D01*
X0289559Y0222480D02*
X0289559Y0229080D01*
X0269559Y0229080D02*
X0269559Y0222480D01*
X0265465Y0049828D02*
X0265465Y0043228D01*
X0275465Y0043228D02*
X0275465Y0049828D01*
X0285465Y0049828D02*
X0285465Y0043228D01*
D16*
X0275465Y0105528D03*
X0279559Y0284780D03*
D17*
X0312866Y0265780D03*
X0332866Y0265780D03*
X0332866Y0240189D03*
X0312866Y0240189D03*
X0310898Y0096488D03*
X0330898Y0096488D03*
X0330898Y0070898D03*
X0310898Y0070898D03*
D18*
X0334283Y0025622D03*
X0340189Y0200819D03*
D19*
X0351409Y0219717D03*
X0364795Y0200819D03*
X0345504Y0044520D03*
X0358890Y0025622D03*
D20*
X0331740Y0117079D02*
X0325803Y0117079D01*
X0325803Y0127079D02*
X0331740Y0127079D01*
X0331740Y0138732D02*
X0325803Y0138732D01*
X0325803Y0148732D02*
X0331740Y0148732D01*
X0353362Y0148732D02*
X0359299Y0148732D01*
X0359299Y0138732D02*
X0353362Y0138732D01*
X0331740Y0286370D02*
X0325803Y0286370D01*
X0325803Y0296370D02*
X0331740Y0296370D01*
X0331740Y0308024D02*
X0325803Y0308024D01*
X0325803Y0318024D02*
X0331740Y0318024D01*
X0353362Y0318024D02*
X0359299Y0318024D01*
X0359299Y0308024D02*
X0353362Y0308024D01*
D21*
X0358299Y0286646D03*
X0358299Y0272866D03*
X0358299Y0255150D03*
X0358299Y0241370D03*
X0358299Y0117354D03*
X0358299Y0103575D03*
X0358299Y0085858D03*
X0358299Y0072079D03*
D22*
X0318500Y0036728D03*
X0286900Y0036728D03*
X0239700Y0023200D03*
X0162100Y0093028D03*
X0144819Y0074627D03*
X0155200Y0056100D03*
X0096791Y0069000D03*
X0095871Y0074200D03*
X0096500Y0079400D03*
X0102600Y0121300D03*
X0033900Y0121200D03*
X0033900Y0152500D03*
X0096600Y0245800D03*
X0096600Y0251400D03*
X0096449Y0256851D03*
X0162800Y0274300D03*
X0214286Y0301560D03*
X0223500Y0296400D03*
X0228900Y0302000D03*
X0233400Y0295300D03*
X0233900Y0287100D03*
X0226189Y0279500D03*
X0241000Y0244500D03*
X0296600Y0215980D03*
X0322400Y0215980D03*
X0244812Y0121968D03*
X0244305Y0114108D03*
X0248565Y0102472D03*
X0232900Y0096800D03*
X0307409Y0104362D03*
X0178100Y0219000D03*
M02*
