%
M48
M72
T01C0.02362
T02C0.03200
T03C0.03600
T04C0.04000
T05C0.04400
T06C0.11024
T07C0.12000
T08C0.12598
T09C0.13000
%
T01
X37911Y47237
X47911Y47237
X47911Y57237
X37911Y57237
X37911Y67237
X47911Y67237
X160197Y185008
X170197Y185008
X180197Y185008
X180197Y195008
X170197Y195008
X160197Y195008
T02
X124539Y217934
X114539Y217934
X67087Y233315
X57087Y233315
X37559Y233315
X27559Y233315
X58071Y144732
X68071Y144732
X80709Y144732
X90709Y144732
X123694Y131310
X131194Y126310
X123694Y121310
X122126Y93630
X129626Y88630
X122126Y83630
X123494Y55850
X130994Y50850
X123494Y45850
X199882Y208630
X207382Y213630
X199882Y218630
X199882Y246031
X207382Y251031
X199882Y256031
X199882Y283433
X207382Y288433
X199882Y293433
T03
X239843Y298276
X239843Y280559
X239843Y262843
X239843Y245126
X239843Y227409
X239843Y209693
X289843Y209693
X289843Y227409
X289843Y245126
X289843Y262843
X289843Y280559
X289843Y298276
X196339Y132921
X196339Y114220
X195354Y95520
X195354Y76819
X195354Y58118
X195354Y39417
X145354Y39417
X145354Y58118
X145354Y76819
X145354Y95520
X146339Y114220
X146339Y132921
X104803Y180165
X79213Y207724
X54803Y180165
X29213Y207724
T04
X85551Y230126
X95551Y230126
X105551Y230126
X140669Y235126
X150669Y235126
X160669Y235126
X160669Y266622
X150669Y266622
X140669Y266622
X140669Y298118
X150669Y298118
X160669Y298118
X197756Y184102
X207756Y184102
X217756Y184102
X102598Y118984
X92598Y118984
X82598Y118984
X82598Y86504
X92598Y86504
X102598Y86504
X103583Y54024
X93583Y54024
X83583Y54024
X70118Y18748
X60118Y18748
X50118Y18748
T05
X97205Y201819
X137205Y201819
T06
X47323Y253787
X33937Y272685
X33937Y113236
X47323Y94339
T07
X32559Y22685
X30591Y142764
X32559Y182134
X30591Y302213
X207756Y140795
X281575Y136858
X314055Y182134
X314055Y300244
X207756Y22685
T08
X58543Y113236
X58543Y272685
T09
X95551Y289126
M30
