G75*
%MOIN*%
%OFA0B0*%
%FSLAX25Y25*%
%IPPOS*%
%LPD*%
%AMOC8*
5,1,8,0,0,1.08239X$1,22.5*
%
%ADD10C,0.00600*%
%ADD11C,0.00000*%
%ADD12C,0.04000*%
%ADD13OC8,0.05200*%
%ADD14C,0.16598*%
%ADD15C,0.15024*%
%ADD16C,0.06000*%
%ADD17OC8,0.05600*%
%ADD18C,0.05200*%
%ADD19OC8,0.07000*%
%ADD20C,0.06600*%
D10*
X0016811Y0026622D02*
X0016811Y0030559D01*
X0016811Y0140795D01*
X0036496Y0156543D02*
X0203819Y0156543D01*
X0016811Y0186071D02*
X0016811Y0298276D01*
X0016811Y0300244D01*
D11*
X0024591Y0302213D02*
X0024593Y0302367D01*
X0024599Y0302522D01*
X0024609Y0302676D01*
X0024623Y0302830D01*
X0024641Y0302983D01*
X0024662Y0303136D01*
X0024688Y0303289D01*
X0024718Y0303440D01*
X0024751Y0303591D01*
X0024789Y0303741D01*
X0024830Y0303890D01*
X0024875Y0304038D01*
X0024924Y0304184D01*
X0024977Y0304330D01*
X0025033Y0304473D01*
X0025093Y0304616D01*
X0025157Y0304756D01*
X0025224Y0304896D01*
X0025295Y0305033D01*
X0025369Y0305168D01*
X0025447Y0305302D01*
X0025528Y0305433D01*
X0025613Y0305562D01*
X0025701Y0305690D01*
X0025792Y0305814D01*
X0025886Y0305937D01*
X0025984Y0306057D01*
X0026084Y0306174D01*
X0026188Y0306289D01*
X0026294Y0306401D01*
X0026403Y0306510D01*
X0026515Y0306616D01*
X0026630Y0306720D01*
X0026747Y0306820D01*
X0026867Y0306918D01*
X0026990Y0307012D01*
X0027114Y0307103D01*
X0027242Y0307191D01*
X0027371Y0307276D01*
X0027502Y0307357D01*
X0027636Y0307435D01*
X0027771Y0307509D01*
X0027908Y0307580D01*
X0028048Y0307647D01*
X0028188Y0307711D01*
X0028331Y0307771D01*
X0028474Y0307827D01*
X0028620Y0307880D01*
X0028766Y0307929D01*
X0028914Y0307974D01*
X0029063Y0308015D01*
X0029213Y0308053D01*
X0029364Y0308086D01*
X0029515Y0308116D01*
X0029668Y0308142D01*
X0029821Y0308163D01*
X0029974Y0308181D01*
X0030128Y0308195D01*
X0030282Y0308205D01*
X0030437Y0308211D01*
X0030591Y0308213D01*
X0030745Y0308211D01*
X0030900Y0308205D01*
X0031054Y0308195D01*
X0031208Y0308181D01*
X0031361Y0308163D01*
X0031514Y0308142D01*
X0031667Y0308116D01*
X0031818Y0308086D01*
X0031969Y0308053D01*
X0032119Y0308015D01*
X0032268Y0307974D01*
X0032416Y0307929D01*
X0032562Y0307880D01*
X0032708Y0307827D01*
X0032851Y0307771D01*
X0032994Y0307711D01*
X0033134Y0307647D01*
X0033274Y0307580D01*
X0033411Y0307509D01*
X0033546Y0307435D01*
X0033680Y0307357D01*
X0033811Y0307276D01*
X0033940Y0307191D01*
X0034068Y0307103D01*
X0034192Y0307012D01*
X0034315Y0306918D01*
X0034435Y0306820D01*
X0034552Y0306720D01*
X0034667Y0306616D01*
X0034779Y0306510D01*
X0034888Y0306401D01*
X0034994Y0306289D01*
X0035098Y0306174D01*
X0035198Y0306057D01*
X0035296Y0305937D01*
X0035390Y0305814D01*
X0035481Y0305690D01*
X0035569Y0305562D01*
X0035654Y0305433D01*
X0035735Y0305302D01*
X0035813Y0305168D01*
X0035887Y0305033D01*
X0035958Y0304896D01*
X0036025Y0304756D01*
X0036089Y0304616D01*
X0036149Y0304473D01*
X0036205Y0304330D01*
X0036258Y0304184D01*
X0036307Y0304038D01*
X0036352Y0303890D01*
X0036393Y0303741D01*
X0036431Y0303591D01*
X0036464Y0303440D01*
X0036494Y0303289D01*
X0036520Y0303136D01*
X0036541Y0302983D01*
X0036559Y0302830D01*
X0036573Y0302676D01*
X0036583Y0302522D01*
X0036589Y0302367D01*
X0036591Y0302213D01*
X0036589Y0302059D01*
X0036583Y0301904D01*
X0036573Y0301750D01*
X0036559Y0301596D01*
X0036541Y0301443D01*
X0036520Y0301290D01*
X0036494Y0301137D01*
X0036464Y0300986D01*
X0036431Y0300835D01*
X0036393Y0300685D01*
X0036352Y0300536D01*
X0036307Y0300388D01*
X0036258Y0300242D01*
X0036205Y0300096D01*
X0036149Y0299953D01*
X0036089Y0299810D01*
X0036025Y0299670D01*
X0035958Y0299530D01*
X0035887Y0299393D01*
X0035813Y0299258D01*
X0035735Y0299124D01*
X0035654Y0298993D01*
X0035569Y0298864D01*
X0035481Y0298736D01*
X0035390Y0298612D01*
X0035296Y0298489D01*
X0035198Y0298369D01*
X0035098Y0298252D01*
X0034994Y0298137D01*
X0034888Y0298025D01*
X0034779Y0297916D01*
X0034667Y0297810D01*
X0034552Y0297706D01*
X0034435Y0297606D01*
X0034315Y0297508D01*
X0034192Y0297414D01*
X0034068Y0297323D01*
X0033940Y0297235D01*
X0033811Y0297150D01*
X0033680Y0297069D01*
X0033546Y0296991D01*
X0033411Y0296917D01*
X0033274Y0296846D01*
X0033134Y0296779D01*
X0032994Y0296715D01*
X0032851Y0296655D01*
X0032708Y0296599D01*
X0032562Y0296546D01*
X0032416Y0296497D01*
X0032268Y0296452D01*
X0032119Y0296411D01*
X0031969Y0296373D01*
X0031818Y0296340D01*
X0031667Y0296310D01*
X0031514Y0296284D01*
X0031361Y0296263D01*
X0031208Y0296245D01*
X0031054Y0296231D01*
X0030900Y0296221D01*
X0030745Y0296215D01*
X0030591Y0296213D01*
X0030437Y0296215D01*
X0030282Y0296221D01*
X0030128Y0296231D01*
X0029974Y0296245D01*
X0029821Y0296263D01*
X0029668Y0296284D01*
X0029515Y0296310D01*
X0029364Y0296340D01*
X0029213Y0296373D01*
X0029063Y0296411D01*
X0028914Y0296452D01*
X0028766Y0296497D01*
X0028620Y0296546D01*
X0028474Y0296599D01*
X0028331Y0296655D01*
X0028188Y0296715D01*
X0028048Y0296779D01*
X0027908Y0296846D01*
X0027771Y0296917D01*
X0027636Y0296991D01*
X0027502Y0297069D01*
X0027371Y0297150D01*
X0027242Y0297235D01*
X0027114Y0297323D01*
X0026990Y0297414D01*
X0026867Y0297508D01*
X0026747Y0297606D01*
X0026630Y0297706D01*
X0026515Y0297810D01*
X0026403Y0297916D01*
X0026294Y0298025D01*
X0026188Y0298137D01*
X0026084Y0298252D01*
X0025984Y0298369D01*
X0025886Y0298489D01*
X0025792Y0298612D01*
X0025701Y0298736D01*
X0025613Y0298864D01*
X0025528Y0298993D01*
X0025447Y0299124D01*
X0025369Y0299258D01*
X0025295Y0299393D01*
X0025224Y0299530D01*
X0025157Y0299670D01*
X0025093Y0299810D01*
X0025033Y0299953D01*
X0024977Y0300096D01*
X0024924Y0300242D01*
X0024875Y0300388D01*
X0024830Y0300536D01*
X0024789Y0300685D01*
X0024751Y0300835D01*
X0024718Y0300986D01*
X0024688Y0301137D01*
X0024662Y0301290D01*
X0024641Y0301443D01*
X0024623Y0301596D01*
X0024609Y0301750D01*
X0024599Y0301904D01*
X0024593Y0302059D01*
X0024591Y0302213D01*
X0089051Y0289126D02*
X0089053Y0289287D01*
X0089059Y0289447D01*
X0089069Y0289608D01*
X0089083Y0289768D01*
X0089101Y0289928D01*
X0089122Y0290087D01*
X0089148Y0290246D01*
X0089178Y0290404D01*
X0089211Y0290561D01*
X0089249Y0290718D01*
X0089290Y0290873D01*
X0089335Y0291027D01*
X0089384Y0291180D01*
X0089437Y0291332D01*
X0089493Y0291483D01*
X0089554Y0291632D01*
X0089617Y0291780D01*
X0089685Y0291926D01*
X0089756Y0292070D01*
X0089830Y0292212D01*
X0089908Y0292353D01*
X0089990Y0292491D01*
X0090075Y0292628D01*
X0090163Y0292762D01*
X0090255Y0292894D01*
X0090350Y0293024D01*
X0090448Y0293152D01*
X0090549Y0293277D01*
X0090653Y0293399D01*
X0090760Y0293519D01*
X0090870Y0293636D01*
X0090983Y0293751D01*
X0091099Y0293862D01*
X0091218Y0293971D01*
X0091339Y0294076D01*
X0091463Y0294179D01*
X0091589Y0294279D01*
X0091717Y0294375D01*
X0091848Y0294468D01*
X0091982Y0294558D01*
X0092117Y0294645D01*
X0092255Y0294728D01*
X0092394Y0294808D01*
X0092536Y0294884D01*
X0092679Y0294957D01*
X0092824Y0295026D01*
X0092971Y0295092D01*
X0093119Y0295154D01*
X0093269Y0295212D01*
X0093420Y0295267D01*
X0093573Y0295318D01*
X0093727Y0295365D01*
X0093882Y0295408D01*
X0094038Y0295447D01*
X0094194Y0295483D01*
X0094352Y0295514D01*
X0094510Y0295542D01*
X0094669Y0295566D01*
X0094829Y0295586D01*
X0094989Y0295602D01*
X0095149Y0295614D01*
X0095310Y0295622D01*
X0095471Y0295626D01*
X0095631Y0295626D01*
X0095792Y0295622D01*
X0095953Y0295614D01*
X0096113Y0295602D01*
X0096273Y0295586D01*
X0096433Y0295566D01*
X0096592Y0295542D01*
X0096750Y0295514D01*
X0096908Y0295483D01*
X0097064Y0295447D01*
X0097220Y0295408D01*
X0097375Y0295365D01*
X0097529Y0295318D01*
X0097682Y0295267D01*
X0097833Y0295212D01*
X0097983Y0295154D01*
X0098131Y0295092D01*
X0098278Y0295026D01*
X0098423Y0294957D01*
X0098566Y0294884D01*
X0098708Y0294808D01*
X0098847Y0294728D01*
X0098985Y0294645D01*
X0099120Y0294558D01*
X0099254Y0294468D01*
X0099385Y0294375D01*
X0099513Y0294279D01*
X0099639Y0294179D01*
X0099763Y0294076D01*
X0099884Y0293971D01*
X0100003Y0293862D01*
X0100119Y0293751D01*
X0100232Y0293636D01*
X0100342Y0293519D01*
X0100449Y0293399D01*
X0100553Y0293277D01*
X0100654Y0293152D01*
X0100752Y0293024D01*
X0100847Y0292894D01*
X0100939Y0292762D01*
X0101027Y0292628D01*
X0101112Y0292491D01*
X0101194Y0292353D01*
X0101272Y0292212D01*
X0101346Y0292070D01*
X0101417Y0291926D01*
X0101485Y0291780D01*
X0101548Y0291632D01*
X0101609Y0291483D01*
X0101665Y0291332D01*
X0101718Y0291180D01*
X0101767Y0291027D01*
X0101812Y0290873D01*
X0101853Y0290718D01*
X0101891Y0290561D01*
X0101924Y0290404D01*
X0101954Y0290246D01*
X0101980Y0290087D01*
X0102001Y0289928D01*
X0102019Y0289768D01*
X0102033Y0289608D01*
X0102043Y0289447D01*
X0102049Y0289287D01*
X0102051Y0289126D01*
X0102049Y0288965D01*
X0102043Y0288805D01*
X0102033Y0288644D01*
X0102019Y0288484D01*
X0102001Y0288324D01*
X0101980Y0288165D01*
X0101954Y0288006D01*
X0101924Y0287848D01*
X0101891Y0287691D01*
X0101853Y0287534D01*
X0101812Y0287379D01*
X0101767Y0287225D01*
X0101718Y0287072D01*
X0101665Y0286920D01*
X0101609Y0286769D01*
X0101548Y0286620D01*
X0101485Y0286472D01*
X0101417Y0286326D01*
X0101346Y0286182D01*
X0101272Y0286040D01*
X0101194Y0285899D01*
X0101112Y0285761D01*
X0101027Y0285624D01*
X0100939Y0285490D01*
X0100847Y0285358D01*
X0100752Y0285228D01*
X0100654Y0285100D01*
X0100553Y0284975D01*
X0100449Y0284853D01*
X0100342Y0284733D01*
X0100232Y0284616D01*
X0100119Y0284501D01*
X0100003Y0284390D01*
X0099884Y0284281D01*
X0099763Y0284176D01*
X0099639Y0284073D01*
X0099513Y0283973D01*
X0099385Y0283877D01*
X0099254Y0283784D01*
X0099120Y0283694D01*
X0098985Y0283607D01*
X0098847Y0283524D01*
X0098708Y0283444D01*
X0098566Y0283368D01*
X0098423Y0283295D01*
X0098278Y0283226D01*
X0098131Y0283160D01*
X0097983Y0283098D01*
X0097833Y0283040D01*
X0097682Y0282985D01*
X0097529Y0282934D01*
X0097375Y0282887D01*
X0097220Y0282844D01*
X0097064Y0282805D01*
X0096908Y0282769D01*
X0096750Y0282738D01*
X0096592Y0282710D01*
X0096433Y0282686D01*
X0096273Y0282666D01*
X0096113Y0282650D01*
X0095953Y0282638D01*
X0095792Y0282630D01*
X0095631Y0282626D01*
X0095471Y0282626D01*
X0095310Y0282630D01*
X0095149Y0282638D01*
X0094989Y0282650D01*
X0094829Y0282666D01*
X0094669Y0282686D01*
X0094510Y0282710D01*
X0094352Y0282738D01*
X0094194Y0282769D01*
X0094038Y0282805D01*
X0093882Y0282844D01*
X0093727Y0282887D01*
X0093573Y0282934D01*
X0093420Y0282985D01*
X0093269Y0283040D01*
X0093119Y0283098D01*
X0092971Y0283160D01*
X0092824Y0283226D01*
X0092679Y0283295D01*
X0092536Y0283368D01*
X0092394Y0283444D01*
X0092255Y0283524D01*
X0092117Y0283607D01*
X0091982Y0283694D01*
X0091848Y0283784D01*
X0091717Y0283877D01*
X0091589Y0283973D01*
X0091463Y0284073D01*
X0091339Y0284176D01*
X0091218Y0284281D01*
X0091099Y0284390D01*
X0090983Y0284501D01*
X0090870Y0284616D01*
X0090760Y0284733D01*
X0090653Y0284853D01*
X0090549Y0284975D01*
X0090448Y0285100D01*
X0090350Y0285228D01*
X0090255Y0285358D01*
X0090163Y0285490D01*
X0090075Y0285624D01*
X0089990Y0285761D01*
X0089908Y0285899D01*
X0089830Y0286040D01*
X0089756Y0286182D01*
X0089685Y0286326D01*
X0089617Y0286472D01*
X0089554Y0286620D01*
X0089493Y0286769D01*
X0089437Y0286920D01*
X0089384Y0287072D01*
X0089335Y0287225D01*
X0089290Y0287379D01*
X0089249Y0287534D01*
X0089211Y0287691D01*
X0089178Y0287848D01*
X0089148Y0288006D01*
X0089122Y0288165D01*
X0089101Y0288324D01*
X0089083Y0288484D01*
X0089069Y0288644D01*
X0089059Y0288805D01*
X0089053Y0288965D01*
X0089051Y0289126D01*
X0026559Y0182134D02*
X0026561Y0182288D01*
X0026567Y0182443D01*
X0026577Y0182597D01*
X0026591Y0182751D01*
X0026609Y0182904D01*
X0026630Y0183057D01*
X0026656Y0183210D01*
X0026686Y0183361D01*
X0026719Y0183512D01*
X0026757Y0183662D01*
X0026798Y0183811D01*
X0026843Y0183959D01*
X0026892Y0184105D01*
X0026945Y0184251D01*
X0027001Y0184394D01*
X0027061Y0184537D01*
X0027125Y0184677D01*
X0027192Y0184817D01*
X0027263Y0184954D01*
X0027337Y0185089D01*
X0027415Y0185223D01*
X0027496Y0185354D01*
X0027581Y0185483D01*
X0027669Y0185611D01*
X0027760Y0185735D01*
X0027854Y0185858D01*
X0027952Y0185978D01*
X0028052Y0186095D01*
X0028156Y0186210D01*
X0028262Y0186322D01*
X0028371Y0186431D01*
X0028483Y0186537D01*
X0028598Y0186641D01*
X0028715Y0186741D01*
X0028835Y0186839D01*
X0028958Y0186933D01*
X0029082Y0187024D01*
X0029210Y0187112D01*
X0029339Y0187197D01*
X0029470Y0187278D01*
X0029604Y0187356D01*
X0029739Y0187430D01*
X0029876Y0187501D01*
X0030016Y0187568D01*
X0030156Y0187632D01*
X0030299Y0187692D01*
X0030442Y0187748D01*
X0030588Y0187801D01*
X0030734Y0187850D01*
X0030882Y0187895D01*
X0031031Y0187936D01*
X0031181Y0187974D01*
X0031332Y0188007D01*
X0031483Y0188037D01*
X0031636Y0188063D01*
X0031789Y0188084D01*
X0031942Y0188102D01*
X0032096Y0188116D01*
X0032250Y0188126D01*
X0032405Y0188132D01*
X0032559Y0188134D01*
X0032713Y0188132D01*
X0032868Y0188126D01*
X0033022Y0188116D01*
X0033176Y0188102D01*
X0033329Y0188084D01*
X0033482Y0188063D01*
X0033635Y0188037D01*
X0033786Y0188007D01*
X0033937Y0187974D01*
X0034087Y0187936D01*
X0034236Y0187895D01*
X0034384Y0187850D01*
X0034530Y0187801D01*
X0034676Y0187748D01*
X0034819Y0187692D01*
X0034962Y0187632D01*
X0035102Y0187568D01*
X0035242Y0187501D01*
X0035379Y0187430D01*
X0035514Y0187356D01*
X0035648Y0187278D01*
X0035779Y0187197D01*
X0035908Y0187112D01*
X0036036Y0187024D01*
X0036160Y0186933D01*
X0036283Y0186839D01*
X0036403Y0186741D01*
X0036520Y0186641D01*
X0036635Y0186537D01*
X0036747Y0186431D01*
X0036856Y0186322D01*
X0036962Y0186210D01*
X0037066Y0186095D01*
X0037166Y0185978D01*
X0037264Y0185858D01*
X0037358Y0185735D01*
X0037449Y0185611D01*
X0037537Y0185483D01*
X0037622Y0185354D01*
X0037703Y0185223D01*
X0037781Y0185089D01*
X0037855Y0184954D01*
X0037926Y0184817D01*
X0037993Y0184677D01*
X0038057Y0184537D01*
X0038117Y0184394D01*
X0038173Y0184251D01*
X0038226Y0184105D01*
X0038275Y0183959D01*
X0038320Y0183811D01*
X0038361Y0183662D01*
X0038399Y0183512D01*
X0038432Y0183361D01*
X0038462Y0183210D01*
X0038488Y0183057D01*
X0038509Y0182904D01*
X0038527Y0182751D01*
X0038541Y0182597D01*
X0038551Y0182443D01*
X0038557Y0182288D01*
X0038559Y0182134D01*
X0038557Y0181980D01*
X0038551Y0181825D01*
X0038541Y0181671D01*
X0038527Y0181517D01*
X0038509Y0181364D01*
X0038488Y0181211D01*
X0038462Y0181058D01*
X0038432Y0180907D01*
X0038399Y0180756D01*
X0038361Y0180606D01*
X0038320Y0180457D01*
X0038275Y0180309D01*
X0038226Y0180163D01*
X0038173Y0180017D01*
X0038117Y0179874D01*
X0038057Y0179731D01*
X0037993Y0179591D01*
X0037926Y0179451D01*
X0037855Y0179314D01*
X0037781Y0179179D01*
X0037703Y0179045D01*
X0037622Y0178914D01*
X0037537Y0178785D01*
X0037449Y0178657D01*
X0037358Y0178533D01*
X0037264Y0178410D01*
X0037166Y0178290D01*
X0037066Y0178173D01*
X0036962Y0178058D01*
X0036856Y0177946D01*
X0036747Y0177837D01*
X0036635Y0177731D01*
X0036520Y0177627D01*
X0036403Y0177527D01*
X0036283Y0177429D01*
X0036160Y0177335D01*
X0036036Y0177244D01*
X0035908Y0177156D01*
X0035779Y0177071D01*
X0035648Y0176990D01*
X0035514Y0176912D01*
X0035379Y0176838D01*
X0035242Y0176767D01*
X0035102Y0176700D01*
X0034962Y0176636D01*
X0034819Y0176576D01*
X0034676Y0176520D01*
X0034530Y0176467D01*
X0034384Y0176418D01*
X0034236Y0176373D01*
X0034087Y0176332D01*
X0033937Y0176294D01*
X0033786Y0176261D01*
X0033635Y0176231D01*
X0033482Y0176205D01*
X0033329Y0176184D01*
X0033176Y0176166D01*
X0033022Y0176152D01*
X0032868Y0176142D01*
X0032713Y0176136D01*
X0032559Y0176134D01*
X0032405Y0176136D01*
X0032250Y0176142D01*
X0032096Y0176152D01*
X0031942Y0176166D01*
X0031789Y0176184D01*
X0031636Y0176205D01*
X0031483Y0176231D01*
X0031332Y0176261D01*
X0031181Y0176294D01*
X0031031Y0176332D01*
X0030882Y0176373D01*
X0030734Y0176418D01*
X0030588Y0176467D01*
X0030442Y0176520D01*
X0030299Y0176576D01*
X0030156Y0176636D01*
X0030016Y0176700D01*
X0029876Y0176767D01*
X0029739Y0176838D01*
X0029604Y0176912D01*
X0029470Y0176990D01*
X0029339Y0177071D01*
X0029210Y0177156D01*
X0029082Y0177244D01*
X0028958Y0177335D01*
X0028835Y0177429D01*
X0028715Y0177527D01*
X0028598Y0177627D01*
X0028483Y0177731D01*
X0028371Y0177837D01*
X0028262Y0177946D01*
X0028156Y0178058D01*
X0028052Y0178173D01*
X0027952Y0178290D01*
X0027854Y0178410D01*
X0027760Y0178533D01*
X0027669Y0178657D01*
X0027581Y0178785D01*
X0027496Y0178914D01*
X0027415Y0179045D01*
X0027337Y0179179D01*
X0027263Y0179314D01*
X0027192Y0179451D01*
X0027125Y0179591D01*
X0027061Y0179731D01*
X0027001Y0179874D01*
X0026945Y0180017D01*
X0026892Y0180163D01*
X0026843Y0180309D01*
X0026798Y0180457D01*
X0026757Y0180606D01*
X0026719Y0180756D01*
X0026686Y0180907D01*
X0026656Y0181058D01*
X0026630Y0181211D01*
X0026609Y0181364D01*
X0026591Y0181517D01*
X0026577Y0181671D01*
X0026567Y0181825D01*
X0026561Y0181980D01*
X0026559Y0182134D01*
X0024591Y0142764D02*
X0024593Y0142918D01*
X0024599Y0143073D01*
X0024609Y0143227D01*
X0024623Y0143381D01*
X0024641Y0143534D01*
X0024662Y0143687D01*
X0024688Y0143840D01*
X0024718Y0143991D01*
X0024751Y0144142D01*
X0024789Y0144292D01*
X0024830Y0144441D01*
X0024875Y0144589D01*
X0024924Y0144735D01*
X0024977Y0144881D01*
X0025033Y0145024D01*
X0025093Y0145167D01*
X0025157Y0145307D01*
X0025224Y0145447D01*
X0025295Y0145584D01*
X0025369Y0145719D01*
X0025447Y0145853D01*
X0025528Y0145984D01*
X0025613Y0146113D01*
X0025701Y0146241D01*
X0025792Y0146365D01*
X0025886Y0146488D01*
X0025984Y0146608D01*
X0026084Y0146725D01*
X0026188Y0146840D01*
X0026294Y0146952D01*
X0026403Y0147061D01*
X0026515Y0147167D01*
X0026630Y0147271D01*
X0026747Y0147371D01*
X0026867Y0147469D01*
X0026990Y0147563D01*
X0027114Y0147654D01*
X0027242Y0147742D01*
X0027371Y0147827D01*
X0027502Y0147908D01*
X0027636Y0147986D01*
X0027771Y0148060D01*
X0027908Y0148131D01*
X0028048Y0148198D01*
X0028188Y0148262D01*
X0028331Y0148322D01*
X0028474Y0148378D01*
X0028620Y0148431D01*
X0028766Y0148480D01*
X0028914Y0148525D01*
X0029063Y0148566D01*
X0029213Y0148604D01*
X0029364Y0148637D01*
X0029515Y0148667D01*
X0029668Y0148693D01*
X0029821Y0148714D01*
X0029974Y0148732D01*
X0030128Y0148746D01*
X0030282Y0148756D01*
X0030437Y0148762D01*
X0030591Y0148764D01*
X0030745Y0148762D01*
X0030900Y0148756D01*
X0031054Y0148746D01*
X0031208Y0148732D01*
X0031361Y0148714D01*
X0031514Y0148693D01*
X0031667Y0148667D01*
X0031818Y0148637D01*
X0031969Y0148604D01*
X0032119Y0148566D01*
X0032268Y0148525D01*
X0032416Y0148480D01*
X0032562Y0148431D01*
X0032708Y0148378D01*
X0032851Y0148322D01*
X0032994Y0148262D01*
X0033134Y0148198D01*
X0033274Y0148131D01*
X0033411Y0148060D01*
X0033546Y0147986D01*
X0033680Y0147908D01*
X0033811Y0147827D01*
X0033940Y0147742D01*
X0034068Y0147654D01*
X0034192Y0147563D01*
X0034315Y0147469D01*
X0034435Y0147371D01*
X0034552Y0147271D01*
X0034667Y0147167D01*
X0034779Y0147061D01*
X0034888Y0146952D01*
X0034994Y0146840D01*
X0035098Y0146725D01*
X0035198Y0146608D01*
X0035296Y0146488D01*
X0035390Y0146365D01*
X0035481Y0146241D01*
X0035569Y0146113D01*
X0035654Y0145984D01*
X0035735Y0145853D01*
X0035813Y0145719D01*
X0035887Y0145584D01*
X0035958Y0145447D01*
X0036025Y0145307D01*
X0036089Y0145167D01*
X0036149Y0145024D01*
X0036205Y0144881D01*
X0036258Y0144735D01*
X0036307Y0144589D01*
X0036352Y0144441D01*
X0036393Y0144292D01*
X0036431Y0144142D01*
X0036464Y0143991D01*
X0036494Y0143840D01*
X0036520Y0143687D01*
X0036541Y0143534D01*
X0036559Y0143381D01*
X0036573Y0143227D01*
X0036583Y0143073D01*
X0036589Y0142918D01*
X0036591Y0142764D01*
X0036589Y0142610D01*
X0036583Y0142455D01*
X0036573Y0142301D01*
X0036559Y0142147D01*
X0036541Y0141994D01*
X0036520Y0141841D01*
X0036494Y0141688D01*
X0036464Y0141537D01*
X0036431Y0141386D01*
X0036393Y0141236D01*
X0036352Y0141087D01*
X0036307Y0140939D01*
X0036258Y0140793D01*
X0036205Y0140647D01*
X0036149Y0140504D01*
X0036089Y0140361D01*
X0036025Y0140221D01*
X0035958Y0140081D01*
X0035887Y0139944D01*
X0035813Y0139809D01*
X0035735Y0139675D01*
X0035654Y0139544D01*
X0035569Y0139415D01*
X0035481Y0139287D01*
X0035390Y0139163D01*
X0035296Y0139040D01*
X0035198Y0138920D01*
X0035098Y0138803D01*
X0034994Y0138688D01*
X0034888Y0138576D01*
X0034779Y0138467D01*
X0034667Y0138361D01*
X0034552Y0138257D01*
X0034435Y0138157D01*
X0034315Y0138059D01*
X0034192Y0137965D01*
X0034068Y0137874D01*
X0033940Y0137786D01*
X0033811Y0137701D01*
X0033680Y0137620D01*
X0033546Y0137542D01*
X0033411Y0137468D01*
X0033274Y0137397D01*
X0033134Y0137330D01*
X0032994Y0137266D01*
X0032851Y0137206D01*
X0032708Y0137150D01*
X0032562Y0137097D01*
X0032416Y0137048D01*
X0032268Y0137003D01*
X0032119Y0136962D01*
X0031969Y0136924D01*
X0031818Y0136891D01*
X0031667Y0136861D01*
X0031514Y0136835D01*
X0031361Y0136814D01*
X0031208Y0136796D01*
X0031054Y0136782D01*
X0030900Y0136772D01*
X0030745Y0136766D01*
X0030591Y0136764D01*
X0030437Y0136766D01*
X0030282Y0136772D01*
X0030128Y0136782D01*
X0029974Y0136796D01*
X0029821Y0136814D01*
X0029668Y0136835D01*
X0029515Y0136861D01*
X0029364Y0136891D01*
X0029213Y0136924D01*
X0029063Y0136962D01*
X0028914Y0137003D01*
X0028766Y0137048D01*
X0028620Y0137097D01*
X0028474Y0137150D01*
X0028331Y0137206D01*
X0028188Y0137266D01*
X0028048Y0137330D01*
X0027908Y0137397D01*
X0027771Y0137468D01*
X0027636Y0137542D01*
X0027502Y0137620D01*
X0027371Y0137701D01*
X0027242Y0137786D01*
X0027114Y0137874D01*
X0026990Y0137965D01*
X0026867Y0138059D01*
X0026747Y0138157D01*
X0026630Y0138257D01*
X0026515Y0138361D01*
X0026403Y0138467D01*
X0026294Y0138576D01*
X0026188Y0138688D01*
X0026084Y0138803D01*
X0025984Y0138920D01*
X0025886Y0139040D01*
X0025792Y0139163D01*
X0025701Y0139287D01*
X0025613Y0139415D01*
X0025528Y0139544D01*
X0025447Y0139675D01*
X0025369Y0139809D01*
X0025295Y0139944D01*
X0025224Y0140081D01*
X0025157Y0140221D01*
X0025093Y0140361D01*
X0025033Y0140504D01*
X0024977Y0140647D01*
X0024924Y0140793D01*
X0024875Y0140939D01*
X0024830Y0141087D01*
X0024789Y0141236D01*
X0024751Y0141386D01*
X0024718Y0141537D01*
X0024688Y0141688D01*
X0024662Y0141841D01*
X0024641Y0141994D01*
X0024623Y0142147D01*
X0024609Y0142301D01*
X0024599Y0142455D01*
X0024593Y0142610D01*
X0024591Y0142764D01*
X0026559Y0022685D02*
X0026561Y0022839D01*
X0026567Y0022994D01*
X0026577Y0023148D01*
X0026591Y0023302D01*
X0026609Y0023455D01*
X0026630Y0023608D01*
X0026656Y0023761D01*
X0026686Y0023912D01*
X0026719Y0024063D01*
X0026757Y0024213D01*
X0026798Y0024362D01*
X0026843Y0024510D01*
X0026892Y0024656D01*
X0026945Y0024802D01*
X0027001Y0024945D01*
X0027061Y0025088D01*
X0027125Y0025228D01*
X0027192Y0025368D01*
X0027263Y0025505D01*
X0027337Y0025640D01*
X0027415Y0025774D01*
X0027496Y0025905D01*
X0027581Y0026034D01*
X0027669Y0026162D01*
X0027760Y0026286D01*
X0027854Y0026409D01*
X0027952Y0026529D01*
X0028052Y0026646D01*
X0028156Y0026761D01*
X0028262Y0026873D01*
X0028371Y0026982D01*
X0028483Y0027088D01*
X0028598Y0027192D01*
X0028715Y0027292D01*
X0028835Y0027390D01*
X0028958Y0027484D01*
X0029082Y0027575D01*
X0029210Y0027663D01*
X0029339Y0027748D01*
X0029470Y0027829D01*
X0029604Y0027907D01*
X0029739Y0027981D01*
X0029876Y0028052D01*
X0030016Y0028119D01*
X0030156Y0028183D01*
X0030299Y0028243D01*
X0030442Y0028299D01*
X0030588Y0028352D01*
X0030734Y0028401D01*
X0030882Y0028446D01*
X0031031Y0028487D01*
X0031181Y0028525D01*
X0031332Y0028558D01*
X0031483Y0028588D01*
X0031636Y0028614D01*
X0031789Y0028635D01*
X0031942Y0028653D01*
X0032096Y0028667D01*
X0032250Y0028677D01*
X0032405Y0028683D01*
X0032559Y0028685D01*
X0032713Y0028683D01*
X0032868Y0028677D01*
X0033022Y0028667D01*
X0033176Y0028653D01*
X0033329Y0028635D01*
X0033482Y0028614D01*
X0033635Y0028588D01*
X0033786Y0028558D01*
X0033937Y0028525D01*
X0034087Y0028487D01*
X0034236Y0028446D01*
X0034384Y0028401D01*
X0034530Y0028352D01*
X0034676Y0028299D01*
X0034819Y0028243D01*
X0034962Y0028183D01*
X0035102Y0028119D01*
X0035242Y0028052D01*
X0035379Y0027981D01*
X0035514Y0027907D01*
X0035648Y0027829D01*
X0035779Y0027748D01*
X0035908Y0027663D01*
X0036036Y0027575D01*
X0036160Y0027484D01*
X0036283Y0027390D01*
X0036403Y0027292D01*
X0036520Y0027192D01*
X0036635Y0027088D01*
X0036747Y0026982D01*
X0036856Y0026873D01*
X0036962Y0026761D01*
X0037066Y0026646D01*
X0037166Y0026529D01*
X0037264Y0026409D01*
X0037358Y0026286D01*
X0037449Y0026162D01*
X0037537Y0026034D01*
X0037622Y0025905D01*
X0037703Y0025774D01*
X0037781Y0025640D01*
X0037855Y0025505D01*
X0037926Y0025368D01*
X0037993Y0025228D01*
X0038057Y0025088D01*
X0038117Y0024945D01*
X0038173Y0024802D01*
X0038226Y0024656D01*
X0038275Y0024510D01*
X0038320Y0024362D01*
X0038361Y0024213D01*
X0038399Y0024063D01*
X0038432Y0023912D01*
X0038462Y0023761D01*
X0038488Y0023608D01*
X0038509Y0023455D01*
X0038527Y0023302D01*
X0038541Y0023148D01*
X0038551Y0022994D01*
X0038557Y0022839D01*
X0038559Y0022685D01*
X0038557Y0022531D01*
X0038551Y0022376D01*
X0038541Y0022222D01*
X0038527Y0022068D01*
X0038509Y0021915D01*
X0038488Y0021762D01*
X0038462Y0021609D01*
X0038432Y0021458D01*
X0038399Y0021307D01*
X0038361Y0021157D01*
X0038320Y0021008D01*
X0038275Y0020860D01*
X0038226Y0020714D01*
X0038173Y0020568D01*
X0038117Y0020425D01*
X0038057Y0020282D01*
X0037993Y0020142D01*
X0037926Y0020002D01*
X0037855Y0019865D01*
X0037781Y0019730D01*
X0037703Y0019596D01*
X0037622Y0019465D01*
X0037537Y0019336D01*
X0037449Y0019208D01*
X0037358Y0019084D01*
X0037264Y0018961D01*
X0037166Y0018841D01*
X0037066Y0018724D01*
X0036962Y0018609D01*
X0036856Y0018497D01*
X0036747Y0018388D01*
X0036635Y0018282D01*
X0036520Y0018178D01*
X0036403Y0018078D01*
X0036283Y0017980D01*
X0036160Y0017886D01*
X0036036Y0017795D01*
X0035908Y0017707D01*
X0035779Y0017622D01*
X0035648Y0017541D01*
X0035514Y0017463D01*
X0035379Y0017389D01*
X0035242Y0017318D01*
X0035102Y0017251D01*
X0034962Y0017187D01*
X0034819Y0017127D01*
X0034676Y0017071D01*
X0034530Y0017018D01*
X0034384Y0016969D01*
X0034236Y0016924D01*
X0034087Y0016883D01*
X0033937Y0016845D01*
X0033786Y0016812D01*
X0033635Y0016782D01*
X0033482Y0016756D01*
X0033329Y0016735D01*
X0033176Y0016717D01*
X0033022Y0016703D01*
X0032868Y0016693D01*
X0032713Y0016687D01*
X0032559Y0016685D01*
X0032405Y0016687D01*
X0032250Y0016693D01*
X0032096Y0016703D01*
X0031942Y0016717D01*
X0031789Y0016735D01*
X0031636Y0016756D01*
X0031483Y0016782D01*
X0031332Y0016812D01*
X0031181Y0016845D01*
X0031031Y0016883D01*
X0030882Y0016924D01*
X0030734Y0016969D01*
X0030588Y0017018D01*
X0030442Y0017071D01*
X0030299Y0017127D01*
X0030156Y0017187D01*
X0030016Y0017251D01*
X0029876Y0017318D01*
X0029739Y0017389D01*
X0029604Y0017463D01*
X0029470Y0017541D01*
X0029339Y0017622D01*
X0029210Y0017707D01*
X0029082Y0017795D01*
X0028958Y0017886D01*
X0028835Y0017980D01*
X0028715Y0018078D01*
X0028598Y0018178D01*
X0028483Y0018282D01*
X0028371Y0018388D01*
X0028262Y0018497D01*
X0028156Y0018609D01*
X0028052Y0018724D01*
X0027952Y0018841D01*
X0027854Y0018961D01*
X0027760Y0019084D01*
X0027669Y0019208D01*
X0027581Y0019336D01*
X0027496Y0019465D01*
X0027415Y0019596D01*
X0027337Y0019730D01*
X0027263Y0019865D01*
X0027192Y0020002D01*
X0027125Y0020142D01*
X0027061Y0020282D01*
X0027001Y0020425D01*
X0026945Y0020568D01*
X0026892Y0020714D01*
X0026843Y0020860D01*
X0026798Y0021008D01*
X0026757Y0021157D01*
X0026719Y0021307D01*
X0026686Y0021458D01*
X0026656Y0021609D01*
X0026630Y0021762D01*
X0026609Y0021915D01*
X0026591Y0022068D01*
X0026577Y0022222D01*
X0026567Y0022376D01*
X0026561Y0022531D01*
X0026559Y0022685D01*
X0201756Y0022685D02*
X0201758Y0022839D01*
X0201764Y0022994D01*
X0201774Y0023148D01*
X0201788Y0023302D01*
X0201806Y0023455D01*
X0201827Y0023608D01*
X0201853Y0023761D01*
X0201883Y0023912D01*
X0201916Y0024063D01*
X0201954Y0024213D01*
X0201995Y0024362D01*
X0202040Y0024510D01*
X0202089Y0024656D01*
X0202142Y0024802D01*
X0202198Y0024945D01*
X0202258Y0025088D01*
X0202322Y0025228D01*
X0202389Y0025368D01*
X0202460Y0025505D01*
X0202534Y0025640D01*
X0202612Y0025774D01*
X0202693Y0025905D01*
X0202778Y0026034D01*
X0202866Y0026162D01*
X0202957Y0026286D01*
X0203051Y0026409D01*
X0203149Y0026529D01*
X0203249Y0026646D01*
X0203353Y0026761D01*
X0203459Y0026873D01*
X0203568Y0026982D01*
X0203680Y0027088D01*
X0203795Y0027192D01*
X0203912Y0027292D01*
X0204032Y0027390D01*
X0204155Y0027484D01*
X0204279Y0027575D01*
X0204407Y0027663D01*
X0204536Y0027748D01*
X0204667Y0027829D01*
X0204801Y0027907D01*
X0204936Y0027981D01*
X0205073Y0028052D01*
X0205213Y0028119D01*
X0205353Y0028183D01*
X0205496Y0028243D01*
X0205639Y0028299D01*
X0205785Y0028352D01*
X0205931Y0028401D01*
X0206079Y0028446D01*
X0206228Y0028487D01*
X0206378Y0028525D01*
X0206529Y0028558D01*
X0206680Y0028588D01*
X0206833Y0028614D01*
X0206986Y0028635D01*
X0207139Y0028653D01*
X0207293Y0028667D01*
X0207447Y0028677D01*
X0207602Y0028683D01*
X0207756Y0028685D01*
X0207910Y0028683D01*
X0208065Y0028677D01*
X0208219Y0028667D01*
X0208373Y0028653D01*
X0208526Y0028635D01*
X0208679Y0028614D01*
X0208832Y0028588D01*
X0208983Y0028558D01*
X0209134Y0028525D01*
X0209284Y0028487D01*
X0209433Y0028446D01*
X0209581Y0028401D01*
X0209727Y0028352D01*
X0209873Y0028299D01*
X0210016Y0028243D01*
X0210159Y0028183D01*
X0210299Y0028119D01*
X0210439Y0028052D01*
X0210576Y0027981D01*
X0210711Y0027907D01*
X0210845Y0027829D01*
X0210976Y0027748D01*
X0211105Y0027663D01*
X0211233Y0027575D01*
X0211357Y0027484D01*
X0211480Y0027390D01*
X0211600Y0027292D01*
X0211717Y0027192D01*
X0211832Y0027088D01*
X0211944Y0026982D01*
X0212053Y0026873D01*
X0212159Y0026761D01*
X0212263Y0026646D01*
X0212363Y0026529D01*
X0212461Y0026409D01*
X0212555Y0026286D01*
X0212646Y0026162D01*
X0212734Y0026034D01*
X0212819Y0025905D01*
X0212900Y0025774D01*
X0212978Y0025640D01*
X0213052Y0025505D01*
X0213123Y0025368D01*
X0213190Y0025228D01*
X0213254Y0025088D01*
X0213314Y0024945D01*
X0213370Y0024802D01*
X0213423Y0024656D01*
X0213472Y0024510D01*
X0213517Y0024362D01*
X0213558Y0024213D01*
X0213596Y0024063D01*
X0213629Y0023912D01*
X0213659Y0023761D01*
X0213685Y0023608D01*
X0213706Y0023455D01*
X0213724Y0023302D01*
X0213738Y0023148D01*
X0213748Y0022994D01*
X0213754Y0022839D01*
X0213756Y0022685D01*
X0213754Y0022531D01*
X0213748Y0022376D01*
X0213738Y0022222D01*
X0213724Y0022068D01*
X0213706Y0021915D01*
X0213685Y0021762D01*
X0213659Y0021609D01*
X0213629Y0021458D01*
X0213596Y0021307D01*
X0213558Y0021157D01*
X0213517Y0021008D01*
X0213472Y0020860D01*
X0213423Y0020714D01*
X0213370Y0020568D01*
X0213314Y0020425D01*
X0213254Y0020282D01*
X0213190Y0020142D01*
X0213123Y0020002D01*
X0213052Y0019865D01*
X0212978Y0019730D01*
X0212900Y0019596D01*
X0212819Y0019465D01*
X0212734Y0019336D01*
X0212646Y0019208D01*
X0212555Y0019084D01*
X0212461Y0018961D01*
X0212363Y0018841D01*
X0212263Y0018724D01*
X0212159Y0018609D01*
X0212053Y0018497D01*
X0211944Y0018388D01*
X0211832Y0018282D01*
X0211717Y0018178D01*
X0211600Y0018078D01*
X0211480Y0017980D01*
X0211357Y0017886D01*
X0211233Y0017795D01*
X0211105Y0017707D01*
X0210976Y0017622D01*
X0210845Y0017541D01*
X0210711Y0017463D01*
X0210576Y0017389D01*
X0210439Y0017318D01*
X0210299Y0017251D01*
X0210159Y0017187D01*
X0210016Y0017127D01*
X0209873Y0017071D01*
X0209727Y0017018D01*
X0209581Y0016969D01*
X0209433Y0016924D01*
X0209284Y0016883D01*
X0209134Y0016845D01*
X0208983Y0016812D01*
X0208832Y0016782D01*
X0208679Y0016756D01*
X0208526Y0016735D01*
X0208373Y0016717D01*
X0208219Y0016703D01*
X0208065Y0016693D01*
X0207910Y0016687D01*
X0207756Y0016685D01*
X0207602Y0016687D01*
X0207447Y0016693D01*
X0207293Y0016703D01*
X0207139Y0016717D01*
X0206986Y0016735D01*
X0206833Y0016756D01*
X0206680Y0016782D01*
X0206529Y0016812D01*
X0206378Y0016845D01*
X0206228Y0016883D01*
X0206079Y0016924D01*
X0205931Y0016969D01*
X0205785Y0017018D01*
X0205639Y0017071D01*
X0205496Y0017127D01*
X0205353Y0017187D01*
X0205213Y0017251D01*
X0205073Y0017318D01*
X0204936Y0017389D01*
X0204801Y0017463D01*
X0204667Y0017541D01*
X0204536Y0017622D01*
X0204407Y0017707D01*
X0204279Y0017795D01*
X0204155Y0017886D01*
X0204032Y0017980D01*
X0203912Y0018078D01*
X0203795Y0018178D01*
X0203680Y0018282D01*
X0203568Y0018388D01*
X0203459Y0018497D01*
X0203353Y0018609D01*
X0203249Y0018724D01*
X0203149Y0018841D01*
X0203051Y0018961D01*
X0202957Y0019084D01*
X0202866Y0019208D01*
X0202778Y0019336D01*
X0202693Y0019465D01*
X0202612Y0019596D01*
X0202534Y0019730D01*
X0202460Y0019865D01*
X0202389Y0020002D01*
X0202322Y0020142D01*
X0202258Y0020282D01*
X0202198Y0020425D01*
X0202142Y0020568D01*
X0202089Y0020714D01*
X0202040Y0020860D01*
X0201995Y0021008D01*
X0201954Y0021157D01*
X0201916Y0021307D01*
X0201883Y0021458D01*
X0201853Y0021609D01*
X0201827Y0021762D01*
X0201806Y0021915D01*
X0201788Y0022068D01*
X0201774Y0022222D01*
X0201764Y0022376D01*
X0201758Y0022531D01*
X0201756Y0022685D01*
X0275575Y0136858D02*
X0275577Y0137012D01*
X0275583Y0137167D01*
X0275593Y0137321D01*
X0275607Y0137475D01*
X0275625Y0137628D01*
X0275646Y0137781D01*
X0275672Y0137934D01*
X0275702Y0138085D01*
X0275735Y0138236D01*
X0275773Y0138386D01*
X0275814Y0138535D01*
X0275859Y0138683D01*
X0275908Y0138829D01*
X0275961Y0138975D01*
X0276017Y0139118D01*
X0276077Y0139261D01*
X0276141Y0139401D01*
X0276208Y0139541D01*
X0276279Y0139678D01*
X0276353Y0139813D01*
X0276431Y0139947D01*
X0276512Y0140078D01*
X0276597Y0140207D01*
X0276685Y0140335D01*
X0276776Y0140459D01*
X0276870Y0140582D01*
X0276968Y0140702D01*
X0277068Y0140819D01*
X0277172Y0140934D01*
X0277278Y0141046D01*
X0277387Y0141155D01*
X0277499Y0141261D01*
X0277614Y0141365D01*
X0277731Y0141465D01*
X0277851Y0141563D01*
X0277974Y0141657D01*
X0278098Y0141748D01*
X0278226Y0141836D01*
X0278355Y0141921D01*
X0278486Y0142002D01*
X0278620Y0142080D01*
X0278755Y0142154D01*
X0278892Y0142225D01*
X0279032Y0142292D01*
X0279172Y0142356D01*
X0279315Y0142416D01*
X0279458Y0142472D01*
X0279604Y0142525D01*
X0279750Y0142574D01*
X0279898Y0142619D01*
X0280047Y0142660D01*
X0280197Y0142698D01*
X0280348Y0142731D01*
X0280499Y0142761D01*
X0280652Y0142787D01*
X0280805Y0142808D01*
X0280958Y0142826D01*
X0281112Y0142840D01*
X0281266Y0142850D01*
X0281421Y0142856D01*
X0281575Y0142858D01*
X0281729Y0142856D01*
X0281884Y0142850D01*
X0282038Y0142840D01*
X0282192Y0142826D01*
X0282345Y0142808D01*
X0282498Y0142787D01*
X0282651Y0142761D01*
X0282802Y0142731D01*
X0282953Y0142698D01*
X0283103Y0142660D01*
X0283252Y0142619D01*
X0283400Y0142574D01*
X0283546Y0142525D01*
X0283692Y0142472D01*
X0283835Y0142416D01*
X0283978Y0142356D01*
X0284118Y0142292D01*
X0284258Y0142225D01*
X0284395Y0142154D01*
X0284530Y0142080D01*
X0284664Y0142002D01*
X0284795Y0141921D01*
X0284924Y0141836D01*
X0285052Y0141748D01*
X0285176Y0141657D01*
X0285299Y0141563D01*
X0285419Y0141465D01*
X0285536Y0141365D01*
X0285651Y0141261D01*
X0285763Y0141155D01*
X0285872Y0141046D01*
X0285978Y0140934D01*
X0286082Y0140819D01*
X0286182Y0140702D01*
X0286280Y0140582D01*
X0286374Y0140459D01*
X0286465Y0140335D01*
X0286553Y0140207D01*
X0286638Y0140078D01*
X0286719Y0139947D01*
X0286797Y0139813D01*
X0286871Y0139678D01*
X0286942Y0139541D01*
X0287009Y0139401D01*
X0287073Y0139261D01*
X0287133Y0139118D01*
X0287189Y0138975D01*
X0287242Y0138829D01*
X0287291Y0138683D01*
X0287336Y0138535D01*
X0287377Y0138386D01*
X0287415Y0138236D01*
X0287448Y0138085D01*
X0287478Y0137934D01*
X0287504Y0137781D01*
X0287525Y0137628D01*
X0287543Y0137475D01*
X0287557Y0137321D01*
X0287567Y0137167D01*
X0287573Y0137012D01*
X0287575Y0136858D01*
X0287573Y0136704D01*
X0287567Y0136549D01*
X0287557Y0136395D01*
X0287543Y0136241D01*
X0287525Y0136088D01*
X0287504Y0135935D01*
X0287478Y0135782D01*
X0287448Y0135631D01*
X0287415Y0135480D01*
X0287377Y0135330D01*
X0287336Y0135181D01*
X0287291Y0135033D01*
X0287242Y0134887D01*
X0287189Y0134741D01*
X0287133Y0134598D01*
X0287073Y0134455D01*
X0287009Y0134315D01*
X0286942Y0134175D01*
X0286871Y0134038D01*
X0286797Y0133903D01*
X0286719Y0133769D01*
X0286638Y0133638D01*
X0286553Y0133509D01*
X0286465Y0133381D01*
X0286374Y0133257D01*
X0286280Y0133134D01*
X0286182Y0133014D01*
X0286082Y0132897D01*
X0285978Y0132782D01*
X0285872Y0132670D01*
X0285763Y0132561D01*
X0285651Y0132455D01*
X0285536Y0132351D01*
X0285419Y0132251D01*
X0285299Y0132153D01*
X0285176Y0132059D01*
X0285052Y0131968D01*
X0284924Y0131880D01*
X0284795Y0131795D01*
X0284664Y0131714D01*
X0284530Y0131636D01*
X0284395Y0131562D01*
X0284258Y0131491D01*
X0284118Y0131424D01*
X0283978Y0131360D01*
X0283835Y0131300D01*
X0283692Y0131244D01*
X0283546Y0131191D01*
X0283400Y0131142D01*
X0283252Y0131097D01*
X0283103Y0131056D01*
X0282953Y0131018D01*
X0282802Y0130985D01*
X0282651Y0130955D01*
X0282498Y0130929D01*
X0282345Y0130908D01*
X0282192Y0130890D01*
X0282038Y0130876D01*
X0281884Y0130866D01*
X0281729Y0130860D01*
X0281575Y0130858D01*
X0281421Y0130860D01*
X0281266Y0130866D01*
X0281112Y0130876D01*
X0280958Y0130890D01*
X0280805Y0130908D01*
X0280652Y0130929D01*
X0280499Y0130955D01*
X0280348Y0130985D01*
X0280197Y0131018D01*
X0280047Y0131056D01*
X0279898Y0131097D01*
X0279750Y0131142D01*
X0279604Y0131191D01*
X0279458Y0131244D01*
X0279315Y0131300D01*
X0279172Y0131360D01*
X0279032Y0131424D01*
X0278892Y0131491D01*
X0278755Y0131562D01*
X0278620Y0131636D01*
X0278486Y0131714D01*
X0278355Y0131795D01*
X0278226Y0131880D01*
X0278098Y0131968D01*
X0277974Y0132059D01*
X0277851Y0132153D01*
X0277731Y0132251D01*
X0277614Y0132351D01*
X0277499Y0132455D01*
X0277387Y0132561D01*
X0277278Y0132670D01*
X0277172Y0132782D01*
X0277068Y0132897D01*
X0276968Y0133014D01*
X0276870Y0133134D01*
X0276776Y0133257D01*
X0276685Y0133381D01*
X0276597Y0133509D01*
X0276512Y0133638D01*
X0276431Y0133769D01*
X0276353Y0133903D01*
X0276279Y0134038D01*
X0276208Y0134175D01*
X0276141Y0134315D01*
X0276077Y0134455D01*
X0276017Y0134598D01*
X0275961Y0134741D01*
X0275908Y0134887D01*
X0275859Y0135033D01*
X0275814Y0135181D01*
X0275773Y0135330D01*
X0275735Y0135480D01*
X0275702Y0135631D01*
X0275672Y0135782D01*
X0275646Y0135935D01*
X0275625Y0136088D01*
X0275607Y0136241D01*
X0275593Y0136395D01*
X0275583Y0136549D01*
X0275577Y0136704D01*
X0275575Y0136858D01*
X0308055Y0182134D02*
X0308057Y0182288D01*
X0308063Y0182443D01*
X0308073Y0182597D01*
X0308087Y0182751D01*
X0308105Y0182904D01*
X0308126Y0183057D01*
X0308152Y0183210D01*
X0308182Y0183361D01*
X0308215Y0183512D01*
X0308253Y0183662D01*
X0308294Y0183811D01*
X0308339Y0183959D01*
X0308388Y0184105D01*
X0308441Y0184251D01*
X0308497Y0184394D01*
X0308557Y0184537D01*
X0308621Y0184677D01*
X0308688Y0184817D01*
X0308759Y0184954D01*
X0308833Y0185089D01*
X0308911Y0185223D01*
X0308992Y0185354D01*
X0309077Y0185483D01*
X0309165Y0185611D01*
X0309256Y0185735D01*
X0309350Y0185858D01*
X0309448Y0185978D01*
X0309548Y0186095D01*
X0309652Y0186210D01*
X0309758Y0186322D01*
X0309867Y0186431D01*
X0309979Y0186537D01*
X0310094Y0186641D01*
X0310211Y0186741D01*
X0310331Y0186839D01*
X0310454Y0186933D01*
X0310578Y0187024D01*
X0310706Y0187112D01*
X0310835Y0187197D01*
X0310966Y0187278D01*
X0311100Y0187356D01*
X0311235Y0187430D01*
X0311372Y0187501D01*
X0311512Y0187568D01*
X0311652Y0187632D01*
X0311795Y0187692D01*
X0311938Y0187748D01*
X0312084Y0187801D01*
X0312230Y0187850D01*
X0312378Y0187895D01*
X0312527Y0187936D01*
X0312677Y0187974D01*
X0312828Y0188007D01*
X0312979Y0188037D01*
X0313132Y0188063D01*
X0313285Y0188084D01*
X0313438Y0188102D01*
X0313592Y0188116D01*
X0313746Y0188126D01*
X0313901Y0188132D01*
X0314055Y0188134D01*
X0314209Y0188132D01*
X0314364Y0188126D01*
X0314518Y0188116D01*
X0314672Y0188102D01*
X0314825Y0188084D01*
X0314978Y0188063D01*
X0315131Y0188037D01*
X0315282Y0188007D01*
X0315433Y0187974D01*
X0315583Y0187936D01*
X0315732Y0187895D01*
X0315880Y0187850D01*
X0316026Y0187801D01*
X0316172Y0187748D01*
X0316315Y0187692D01*
X0316458Y0187632D01*
X0316598Y0187568D01*
X0316738Y0187501D01*
X0316875Y0187430D01*
X0317010Y0187356D01*
X0317144Y0187278D01*
X0317275Y0187197D01*
X0317404Y0187112D01*
X0317532Y0187024D01*
X0317656Y0186933D01*
X0317779Y0186839D01*
X0317899Y0186741D01*
X0318016Y0186641D01*
X0318131Y0186537D01*
X0318243Y0186431D01*
X0318352Y0186322D01*
X0318458Y0186210D01*
X0318562Y0186095D01*
X0318662Y0185978D01*
X0318760Y0185858D01*
X0318854Y0185735D01*
X0318945Y0185611D01*
X0319033Y0185483D01*
X0319118Y0185354D01*
X0319199Y0185223D01*
X0319277Y0185089D01*
X0319351Y0184954D01*
X0319422Y0184817D01*
X0319489Y0184677D01*
X0319553Y0184537D01*
X0319613Y0184394D01*
X0319669Y0184251D01*
X0319722Y0184105D01*
X0319771Y0183959D01*
X0319816Y0183811D01*
X0319857Y0183662D01*
X0319895Y0183512D01*
X0319928Y0183361D01*
X0319958Y0183210D01*
X0319984Y0183057D01*
X0320005Y0182904D01*
X0320023Y0182751D01*
X0320037Y0182597D01*
X0320047Y0182443D01*
X0320053Y0182288D01*
X0320055Y0182134D01*
X0320053Y0181980D01*
X0320047Y0181825D01*
X0320037Y0181671D01*
X0320023Y0181517D01*
X0320005Y0181364D01*
X0319984Y0181211D01*
X0319958Y0181058D01*
X0319928Y0180907D01*
X0319895Y0180756D01*
X0319857Y0180606D01*
X0319816Y0180457D01*
X0319771Y0180309D01*
X0319722Y0180163D01*
X0319669Y0180017D01*
X0319613Y0179874D01*
X0319553Y0179731D01*
X0319489Y0179591D01*
X0319422Y0179451D01*
X0319351Y0179314D01*
X0319277Y0179179D01*
X0319199Y0179045D01*
X0319118Y0178914D01*
X0319033Y0178785D01*
X0318945Y0178657D01*
X0318854Y0178533D01*
X0318760Y0178410D01*
X0318662Y0178290D01*
X0318562Y0178173D01*
X0318458Y0178058D01*
X0318352Y0177946D01*
X0318243Y0177837D01*
X0318131Y0177731D01*
X0318016Y0177627D01*
X0317899Y0177527D01*
X0317779Y0177429D01*
X0317656Y0177335D01*
X0317532Y0177244D01*
X0317404Y0177156D01*
X0317275Y0177071D01*
X0317144Y0176990D01*
X0317010Y0176912D01*
X0316875Y0176838D01*
X0316738Y0176767D01*
X0316598Y0176700D01*
X0316458Y0176636D01*
X0316315Y0176576D01*
X0316172Y0176520D01*
X0316026Y0176467D01*
X0315880Y0176418D01*
X0315732Y0176373D01*
X0315583Y0176332D01*
X0315433Y0176294D01*
X0315282Y0176261D01*
X0315131Y0176231D01*
X0314978Y0176205D01*
X0314825Y0176184D01*
X0314672Y0176166D01*
X0314518Y0176152D01*
X0314364Y0176142D01*
X0314209Y0176136D01*
X0314055Y0176134D01*
X0313901Y0176136D01*
X0313746Y0176142D01*
X0313592Y0176152D01*
X0313438Y0176166D01*
X0313285Y0176184D01*
X0313132Y0176205D01*
X0312979Y0176231D01*
X0312828Y0176261D01*
X0312677Y0176294D01*
X0312527Y0176332D01*
X0312378Y0176373D01*
X0312230Y0176418D01*
X0312084Y0176467D01*
X0311938Y0176520D01*
X0311795Y0176576D01*
X0311652Y0176636D01*
X0311512Y0176700D01*
X0311372Y0176767D01*
X0311235Y0176838D01*
X0311100Y0176912D01*
X0310966Y0176990D01*
X0310835Y0177071D01*
X0310706Y0177156D01*
X0310578Y0177244D01*
X0310454Y0177335D01*
X0310331Y0177429D01*
X0310211Y0177527D01*
X0310094Y0177627D01*
X0309979Y0177731D01*
X0309867Y0177837D01*
X0309758Y0177946D01*
X0309652Y0178058D01*
X0309548Y0178173D01*
X0309448Y0178290D01*
X0309350Y0178410D01*
X0309256Y0178533D01*
X0309165Y0178657D01*
X0309077Y0178785D01*
X0308992Y0178914D01*
X0308911Y0179045D01*
X0308833Y0179179D01*
X0308759Y0179314D01*
X0308688Y0179451D01*
X0308621Y0179591D01*
X0308557Y0179731D01*
X0308497Y0179874D01*
X0308441Y0180017D01*
X0308388Y0180163D01*
X0308339Y0180309D01*
X0308294Y0180457D01*
X0308253Y0180606D01*
X0308215Y0180756D01*
X0308182Y0180907D01*
X0308152Y0181058D01*
X0308126Y0181211D01*
X0308105Y0181364D01*
X0308087Y0181517D01*
X0308073Y0181671D01*
X0308063Y0181825D01*
X0308057Y0181980D01*
X0308055Y0182134D01*
X0201756Y0140795D02*
X0201758Y0140949D01*
X0201764Y0141104D01*
X0201774Y0141258D01*
X0201788Y0141412D01*
X0201806Y0141565D01*
X0201827Y0141718D01*
X0201853Y0141871D01*
X0201883Y0142022D01*
X0201916Y0142173D01*
X0201954Y0142323D01*
X0201995Y0142472D01*
X0202040Y0142620D01*
X0202089Y0142766D01*
X0202142Y0142912D01*
X0202198Y0143055D01*
X0202258Y0143198D01*
X0202322Y0143338D01*
X0202389Y0143478D01*
X0202460Y0143615D01*
X0202534Y0143750D01*
X0202612Y0143884D01*
X0202693Y0144015D01*
X0202778Y0144144D01*
X0202866Y0144272D01*
X0202957Y0144396D01*
X0203051Y0144519D01*
X0203149Y0144639D01*
X0203249Y0144756D01*
X0203353Y0144871D01*
X0203459Y0144983D01*
X0203568Y0145092D01*
X0203680Y0145198D01*
X0203795Y0145302D01*
X0203912Y0145402D01*
X0204032Y0145500D01*
X0204155Y0145594D01*
X0204279Y0145685D01*
X0204407Y0145773D01*
X0204536Y0145858D01*
X0204667Y0145939D01*
X0204801Y0146017D01*
X0204936Y0146091D01*
X0205073Y0146162D01*
X0205213Y0146229D01*
X0205353Y0146293D01*
X0205496Y0146353D01*
X0205639Y0146409D01*
X0205785Y0146462D01*
X0205931Y0146511D01*
X0206079Y0146556D01*
X0206228Y0146597D01*
X0206378Y0146635D01*
X0206529Y0146668D01*
X0206680Y0146698D01*
X0206833Y0146724D01*
X0206986Y0146745D01*
X0207139Y0146763D01*
X0207293Y0146777D01*
X0207447Y0146787D01*
X0207602Y0146793D01*
X0207756Y0146795D01*
X0207910Y0146793D01*
X0208065Y0146787D01*
X0208219Y0146777D01*
X0208373Y0146763D01*
X0208526Y0146745D01*
X0208679Y0146724D01*
X0208832Y0146698D01*
X0208983Y0146668D01*
X0209134Y0146635D01*
X0209284Y0146597D01*
X0209433Y0146556D01*
X0209581Y0146511D01*
X0209727Y0146462D01*
X0209873Y0146409D01*
X0210016Y0146353D01*
X0210159Y0146293D01*
X0210299Y0146229D01*
X0210439Y0146162D01*
X0210576Y0146091D01*
X0210711Y0146017D01*
X0210845Y0145939D01*
X0210976Y0145858D01*
X0211105Y0145773D01*
X0211233Y0145685D01*
X0211357Y0145594D01*
X0211480Y0145500D01*
X0211600Y0145402D01*
X0211717Y0145302D01*
X0211832Y0145198D01*
X0211944Y0145092D01*
X0212053Y0144983D01*
X0212159Y0144871D01*
X0212263Y0144756D01*
X0212363Y0144639D01*
X0212461Y0144519D01*
X0212555Y0144396D01*
X0212646Y0144272D01*
X0212734Y0144144D01*
X0212819Y0144015D01*
X0212900Y0143884D01*
X0212978Y0143750D01*
X0213052Y0143615D01*
X0213123Y0143478D01*
X0213190Y0143338D01*
X0213254Y0143198D01*
X0213314Y0143055D01*
X0213370Y0142912D01*
X0213423Y0142766D01*
X0213472Y0142620D01*
X0213517Y0142472D01*
X0213558Y0142323D01*
X0213596Y0142173D01*
X0213629Y0142022D01*
X0213659Y0141871D01*
X0213685Y0141718D01*
X0213706Y0141565D01*
X0213724Y0141412D01*
X0213738Y0141258D01*
X0213748Y0141104D01*
X0213754Y0140949D01*
X0213756Y0140795D01*
X0213754Y0140641D01*
X0213748Y0140486D01*
X0213738Y0140332D01*
X0213724Y0140178D01*
X0213706Y0140025D01*
X0213685Y0139872D01*
X0213659Y0139719D01*
X0213629Y0139568D01*
X0213596Y0139417D01*
X0213558Y0139267D01*
X0213517Y0139118D01*
X0213472Y0138970D01*
X0213423Y0138824D01*
X0213370Y0138678D01*
X0213314Y0138535D01*
X0213254Y0138392D01*
X0213190Y0138252D01*
X0213123Y0138112D01*
X0213052Y0137975D01*
X0212978Y0137840D01*
X0212900Y0137706D01*
X0212819Y0137575D01*
X0212734Y0137446D01*
X0212646Y0137318D01*
X0212555Y0137194D01*
X0212461Y0137071D01*
X0212363Y0136951D01*
X0212263Y0136834D01*
X0212159Y0136719D01*
X0212053Y0136607D01*
X0211944Y0136498D01*
X0211832Y0136392D01*
X0211717Y0136288D01*
X0211600Y0136188D01*
X0211480Y0136090D01*
X0211357Y0135996D01*
X0211233Y0135905D01*
X0211105Y0135817D01*
X0210976Y0135732D01*
X0210845Y0135651D01*
X0210711Y0135573D01*
X0210576Y0135499D01*
X0210439Y0135428D01*
X0210299Y0135361D01*
X0210159Y0135297D01*
X0210016Y0135237D01*
X0209873Y0135181D01*
X0209727Y0135128D01*
X0209581Y0135079D01*
X0209433Y0135034D01*
X0209284Y0134993D01*
X0209134Y0134955D01*
X0208983Y0134922D01*
X0208832Y0134892D01*
X0208679Y0134866D01*
X0208526Y0134845D01*
X0208373Y0134827D01*
X0208219Y0134813D01*
X0208065Y0134803D01*
X0207910Y0134797D01*
X0207756Y0134795D01*
X0207602Y0134797D01*
X0207447Y0134803D01*
X0207293Y0134813D01*
X0207139Y0134827D01*
X0206986Y0134845D01*
X0206833Y0134866D01*
X0206680Y0134892D01*
X0206529Y0134922D01*
X0206378Y0134955D01*
X0206228Y0134993D01*
X0206079Y0135034D01*
X0205931Y0135079D01*
X0205785Y0135128D01*
X0205639Y0135181D01*
X0205496Y0135237D01*
X0205353Y0135297D01*
X0205213Y0135361D01*
X0205073Y0135428D01*
X0204936Y0135499D01*
X0204801Y0135573D01*
X0204667Y0135651D01*
X0204536Y0135732D01*
X0204407Y0135817D01*
X0204279Y0135905D01*
X0204155Y0135996D01*
X0204032Y0136090D01*
X0203912Y0136188D01*
X0203795Y0136288D01*
X0203680Y0136392D01*
X0203568Y0136498D01*
X0203459Y0136607D01*
X0203353Y0136719D01*
X0203249Y0136834D01*
X0203149Y0136951D01*
X0203051Y0137071D01*
X0202957Y0137194D01*
X0202866Y0137318D01*
X0202778Y0137446D01*
X0202693Y0137575D01*
X0202612Y0137706D01*
X0202534Y0137840D01*
X0202460Y0137975D01*
X0202389Y0138112D01*
X0202322Y0138252D01*
X0202258Y0138392D01*
X0202198Y0138535D01*
X0202142Y0138678D01*
X0202089Y0138824D01*
X0202040Y0138970D01*
X0201995Y0139118D01*
X0201954Y0139267D01*
X0201916Y0139417D01*
X0201883Y0139568D01*
X0201853Y0139719D01*
X0201827Y0139872D01*
X0201806Y0140025D01*
X0201788Y0140178D01*
X0201774Y0140332D01*
X0201764Y0140486D01*
X0201758Y0140641D01*
X0201756Y0140795D01*
X0308055Y0300244D02*
X0308057Y0300398D01*
X0308063Y0300553D01*
X0308073Y0300707D01*
X0308087Y0300861D01*
X0308105Y0301014D01*
X0308126Y0301167D01*
X0308152Y0301320D01*
X0308182Y0301471D01*
X0308215Y0301622D01*
X0308253Y0301772D01*
X0308294Y0301921D01*
X0308339Y0302069D01*
X0308388Y0302215D01*
X0308441Y0302361D01*
X0308497Y0302504D01*
X0308557Y0302647D01*
X0308621Y0302787D01*
X0308688Y0302927D01*
X0308759Y0303064D01*
X0308833Y0303199D01*
X0308911Y0303333D01*
X0308992Y0303464D01*
X0309077Y0303593D01*
X0309165Y0303721D01*
X0309256Y0303845D01*
X0309350Y0303968D01*
X0309448Y0304088D01*
X0309548Y0304205D01*
X0309652Y0304320D01*
X0309758Y0304432D01*
X0309867Y0304541D01*
X0309979Y0304647D01*
X0310094Y0304751D01*
X0310211Y0304851D01*
X0310331Y0304949D01*
X0310454Y0305043D01*
X0310578Y0305134D01*
X0310706Y0305222D01*
X0310835Y0305307D01*
X0310966Y0305388D01*
X0311100Y0305466D01*
X0311235Y0305540D01*
X0311372Y0305611D01*
X0311512Y0305678D01*
X0311652Y0305742D01*
X0311795Y0305802D01*
X0311938Y0305858D01*
X0312084Y0305911D01*
X0312230Y0305960D01*
X0312378Y0306005D01*
X0312527Y0306046D01*
X0312677Y0306084D01*
X0312828Y0306117D01*
X0312979Y0306147D01*
X0313132Y0306173D01*
X0313285Y0306194D01*
X0313438Y0306212D01*
X0313592Y0306226D01*
X0313746Y0306236D01*
X0313901Y0306242D01*
X0314055Y0306244D01*
X0314209Y0306242D01*
X0314364Y0306236D01*
X0314518Y0306226D01*
X0314672Y0306212D01*
X0314825Y0306194D01*
X0314978Y0306173D01*
X0315131Y0306147D01*
X0315282Y0306117D01*
X0315433Y0306084D01*
X0315583Y0306046D01*
X0315732Y0306005D01*
X0315880Y0305960D01*
X0316026Y0305911D01*
X0316172Y0305858D01*
X0316315Y0305802D01*
X0316458Y0305742D01*
X0316598Y0305678D01*
X0316738Y0305611D01*
X0316875Y0305540D01*
X0317010Y0305466D01*
X0317144Y0305388D01*
X0317275Y0305307D01*
X0317404Y0305222D01*
X0317532Y0305134D01*
X0317656Y0305043D01*
X0317779Y0304949D01*
X0317899Y0304851D01*
X0318016Y0304751D01*
X0318131Y0304647D01*
X0318243Y0304541D01*
X0318352Y0304432D01*
X0318458Y0304320D01*
X0318562Y0304205D01*
X0318662Y0304088D01*
X0318760Y0303968D01*
X0318854Y0303845D01*
X0318945Y0303721D01*
X0319033Y0303593D01*
X0319118Y0303464D01*
X0319199Y0303333D01*
X0319277Y0303199D01*
X0319351Y0303064D01*
X0319422Y0302927D01*
X0319489Y0302787D01*
X0319553Y0302647D01*
X0319613Y0302504D01*
X0319669Y0302361D01*
X0319722Y0302215D01*
X0319771Y0302069D01*
X0319816Y0301921D01*
X0319857Y0301772D01*
X0319895Y0301622D01*
X0319928Y0301471D01*
X0319958Y0301320D01*
X0319984Y0301167D01*
X0320005Y0301014D01*
X0320023Y0300861D01*
X0320037Y0300707D01*
X0320047Y0300553D01*
X0320053Y0300398D01*
X0320055Y0300244D01*
X0320053Y0300090D01*
X0320047Y0299935D01*
X0320037Y0299781D01*
X0320023Y0299627D01*
X0320005Y0299474D01*
X0319984Y0299321D01*
X0319958Y0299168D01*
X0319928Y0299017D01*
X0319895Y0298866D01*
X0319857Y0298716D01*
X0319816Y0298567D01*
X0319771Y0298419D01*
X0319722Y0298273D01*
X0319669Y0298127D01*
X0319613Y0297984D01*
X0319553Y0297841D01*
X0319489Y0297701D01*
X0319422Y0297561D01*
X0319351Y0297424D01*
X0319277Y0297289D01*
X0319199Y0297155D01*
X0319118Y0297024D01*
X0319033Y0296895D01*
X0318945Y0296767D01*
X0318854Y0296643D01*
X0318760Y0296520D01*
X0318662Y0296400D01*
X0318562Y0296283D01*
X0318458Y0296168D01*
X0318352Y0296056D01*
X0318243Y0295947D01*
X0318131Y0295841D01*
X0318016Y0295737D01*
X0317899Y0295637D01*
X0317779Y0295539D01*
X0317656Y0295445D01*
X0317532Y0295354D01*
X0317404Y0295266D01*
X0317275Y0295181D01*
X0317144Y0295100D01*
X0317010Y0295022D01*
X0316875Y0294948D01*
X0316738Y0294877D01*
X0316598Y0294810D01*
X0316458Y0294746D01*
X0316315Y0294686D01*
X0316172Y0294630D01*
X0316026Y0294577D01*
X0315880Y0294528D01*
X0315732Y0294483D01*
X0315583Y0294442D01*
X0315433Y0294404D01*
X0315282Y0294371D01*
X0315131Y0294341D01*
X0314978Y0294315D01*
X0314825Y0294294D01*
X0314672Y0294276D01*
X0314518Y0294262D01*
X0314364Y0294252D01*
X0314209Y0294246D01*
X0314055Y0294244D01*
X0313901Y0294246D01*
X0313746Y0294252D01*
X0313592Y0294262D01*
X0313438Y0294276D01*
X0313285Y0294294D01*
X0313132Y0294315D01*
X0312979Y0294341D01*
X0312828Y0294371D01*
X0312677Y0294404D01*
X0312527Y0294442D01*
X0312378Y0294483D01*
X0312230Y0294528D01*
X0312084Y0294577D01*
X0311938Y0294630D01*
X0311795Y0294686D01*
X0311652Y0294746D01*
X0311512Y0294810D01*
X0311372Y0294877D01*
X0311235Y0294948D01*
X0311100Y0295022D01*
X0310966Y0295100D01*
X0310835Y0295181D01*
X0310706Y0295266D01*
X0310578Y0295354D01*
X0310454Y0295445D01*
X0310331Y0295539D01*
X0310211Y0295637D01*
X0310094Y0295737D01*
X0309979Y0295841D01*
X0309867Y0295947D01*
X0309758Y0296056D01*
X0309652Y0296168D01*
X0309548Y0296283D01*
X0309448Y0296400D01*
X0309350Y0296520D01*
X0309256Y0296643D01*
X0309165Y0296767D01*
X0309077Y0296895D01*
X0308992Y0297024D01*
X0308911Y0297155D01*
X0308833Y0297289D01*
X0308759Y0297424D01*
X0308688Y0297561D01*
X0308621Y0297701D01*
X0308557Y0297841D01*
X0308497Y0297984D01*
X0308441Y0298127D01*
X0308388Y0298273D01*
X0308339Y0298419D01*
X0308294Y0298567D01*
X0308253Y0298716D01*
X0308215Y0298866D01*
X0308182Y0299017D01*
X0308152Y0299168D01*
X0308126Y0299321D01*
X0308105Y0299474D01*
X0308087Y0299627D01*
X0308073Y0299781D01*
X0308063Y0299935D01*
X0308057Y0300090D01*
X0308055Y0300244D01*
D12*
X0308149Y0317961D02*
X0308673Y0318002D01*
X0309198Y0318031D01*
X0309723Y0318046D01*
X0310249Y0318050D01*
X0310774Y0318040D01*
X0311299Y0318018D01*
X0311823Y0317983D01*
X0312346Y0317936D01*
X0312868Y0317875D01*
X0313389Y0317803D01*
X0313907Y0317717D01*
X0314423Y0317619D01*
X0314937Y0317509D01*
X0315448Y0317387D01*
X0315956Y0317252D01*
X0316460Y0317104D01*
X0316961Y0316945D01*
X0317458Y0316774D01*
X0317950Y0316590D01*
X0318438Y0316395D01*
X0318921Y0316188D01*
X0319399Y0315970D01*
X0319871Y0315740D01*
X0320338Y0315498D01*
X0320799Y0315246D01*
X0321253Y0314982D01*
X0321701Y0314708D01*
X0322142Y0314422D01*
X0322577Y0314127D01*
X0323004Y0313820D01*
X0323423Y0313504D01*
X0323835Y0313177D01*
X0324238Y0312841D01*
X0324634Y0312495D01*
X0325021Y0312140D01*
X0325399Y0311775D01*
X0325768Y0311401D01*
X0326128Y0311018D01*
X0326479Y0310627D01*
X0326820Y0310228D01*
X0327152Y0309820D01*
X0327473Y0309405D01*
X0327785Y0308981D01*
X0328086Y0308551D01*
X0328377Y0308113D01*
X0328657Y0307668D01*
X0328926Y0307217D01*
X0329184Y0306759D01*
X0329431Y0306296D01*
X0329667Y0305826D01*
X0329891Y0305351D01*
X0330104Y0304871D01*
X0330305Y0304385D01*
X0330494Y0303895D01*
X0330671Y0303400D01*
X0330837Y0302902D01*
X0330990Y0302399D01*
X0331131Y0301893D01*
X0331260Y0301384D01*
X0331377Y0300871D01*
X0331481Y0300356D01*
X0331572Y0299839D01*
X0331651Y0299319D01*
X0331718Y0298798D01*
X0331772Y0298276D01*
X0331772Y0030559D01*
X0331771Y0030559D02*
X0331788Y0029964D01*
X0331790Y0029369D01*
X0331778Y0028774D01*
X0331751Y0028180D01*
X0331711Y0027586D01*
X0331655Y0026994D01*
X0331586Y0026403D01*
X0331502Y0025813D01*
X0331404Y0025226D01*
X0331292Y0024642D01*
X0331166Y0024060D01*
X0331025Y0023482D01*
X0330871Y0022907D01*
X0330703Y0022336D01*
X0330521Y0021770D01*
X0330326Y0021208D01*
X0330117Y0020650D01*
X0329895Y0020098D01*
X0329659Y0019552D01*
X0329410Y0019011D01*
X0329148Y0018477D01*
X0328874Y0017949D01*
X0328587Y0017428D01*
X0328287Y0016914D01*
X0327975Y0016407D01*
X0327650Y0015908D01*
X0327314Y0015417D01*
X0326966Y0014934D01*
X0326607Y0014460D01*
X0326236Y0013995D01*
X0325854Y0013538D01*
X0325461Y0013092D01*
X0325057Y0012654D01*
X0324643Y0012227D01*
X0324219Y0011810D01*
X0323784Y0011403D01*
X0323341Y0011006D01*
X0322887Y0010621D01*
X0322425Y0010247D01*
X0321953Y0009884D01*
X0321473Y0009532D01*
X0320984Y0009192D01*
X0320488Y0008864D01*
X0319983Y0008548D01*
X0319472Y0008245D01*
X0318953Y0007953D01*
X0318427Y0007675D01*
X0317894Y0007409D01*
X0317356Y0007156D01*
X0316811Y0006917D01*
X0316260Y0006690D01*
X0315705Y0006477D01*
X0315144Y0006278D01*
X0314579Y0006092D01*
X0314009Y0005919D01*
X0313436Y0005761D01*
X0312858Y0005616D01*
X0312278Y0005486D01*
X0311694Y0005369D01*
X0311108Y0005267D01*
X0310520Y0005179D01*
X0309929Y0005105D01*
X0309337Y0005045D01*
X0308744Y0005000D01*
X0308149Y0004969D01*
X0308150Y0004969D02*
X0040433Y0004969D01*
X0044176Y0025694D02*
X0043741Y0027317D01*
X0042161Y0030053D01*
X0039927Y0032287D01*
X0037191Y0033867D01*
X0034139Y0034685D01*
X0030979Y0034685D01*
X0027927Y0033867D01*
X0025191Y0032287D01*
X0024832Y0031928D01*
X0024811Y0031985D01*
X0024811Y0108002D01*
X0025350Y0107144D01*
X0026087Y0106221D01*
X0026921Y0105386D01*
X0027845Y0104650D01*
X0028844Y0104022D01*
X0029908Y0103509D01*
X0031022Y0103119D01*
X0032173Y0102857D01*
X0033181Y0102743D01*
X0033181Y0112480D01*
X0034693Y0112480D01*
X0034693Y0102743D01*
X0035701Y0102857D01*
X0036852Y0103119D01*
X0037966Y0103509D01*
X0039030Y0104022D01*
X0040029Y0104650D01*
X0040953Y0105386D01*
X0041787Y0106221D01*
X0042524Y0107144D01*
X0043152Y0108143D01*
X0043664Y0109207D01*
X0044054Y0110322D01*
X0044317Y0111473D01*
X0044430Y0112480D01*
X0034693Y0112480D01*
X0034693Y0113992D01*
X0044430Y0113992D01*
X0044317Y0115000D01*
X0044054Y0116151D01*
X0043664Y0117265D01*
X0043152Y0118329D01*
X0042524Y0119329D01*
X0041787Y0120252D01*
X0040953Y0121087D01*
X0040029Y0121823D01*
X0039030Y0122451D01*
X0037966Y0122963D01*
X0036852Y0123353D01*
X0035701Y0123616D01*
X0034693Y0123729D01*
X0034693Y0113992D01*
X0033181Y0113992D01*
X0033181Y0123729D01*
X0032173Y0123616D01*
X0031022Y0123353D01*
X0029908Y0122963D01*
X0028844Y0122451D01*
X0027845Y0121823D01*
X0026921Y0121087D01*
X0026087Y0120252D01*
X0025350Y0119329D01*
X0024811Y0118470D01*
X0024811Y0132244D01*
X0025959Y0131582D01*
X0029011Y0130764D01*
X0032170Y0130764D01*
X0035222Y0131582D01*
X0037959Y0133161D01*
X0040193Y0135396D01*
X0041773Y0138132D01*
X0042591Y0141184D01*
X0042591Y0144344D01*
X0041773Y0147396D01*
X0041110Y0148543D01*
X0052548Y0148543D01*
X0051471Y0147466D01*
X0051471Y0141998D01*
X0055337Y0138132D01*
X0060805Y0138132D01*
X0063778Y0141106D01*
X0065751Y0139132D01*
X0068071Y0139132D01*
X0070390Y0139132D01*
X0073671Y0142413D01*
X0073671Y0144732D01*
X0068071Y0144732D01*
X0068071Y0139132D01*
X0068071Y0144732D01*
X0068071Y0144732D01*
X0068071Y0144732D01*
X0073671Y0144732D01*
X0073671Y0147052D01*
X0072179Y0148543D01*
X0075186Y0148543D01*
X0075113Y0148471D01*
X0074109Y0146045D01*
X0074109Y0143419D01*
X0075113Y0140994D01*
X0076970Y0139137D01*
X0079396Y0138132D01*
X0082021Y0138132D01*
X0084447Y0139137D01*
X0086304Y0140994D01*
X0086369Y0141152D01*
X0088389Y0139132D01*
X0090709Y0139132D01*
X0093028Y0139132D01*
X0096309Y0142413D01*
X0096309Y0144732D01*
X0090709Y0144732D01*
X0090709Y0144732D01*
X0090709Y0139132D01*
X0090709Y0144732D01*
X0090709Y0144732D01*
X0096309Y0144732D01*
X0096309Y0147052D01*
X0094817Y0148543D01*
X0198533Y0148543D01*
X0198154Y0148163D01*
X0196574Y0145427D01*
X0195756Y0142375D01*
X0195756Y0139215D01*
X0195888Y0138721D01*
X0193936Y0138721D01*
X0190539Y0135324D01*
X0190539Y0132921D01*
X0153139Y0132921D01*
X0153139Y0130105D02*
X0149155Y0126121D01*
X0143522Y0126121D01*
X0139539Y0130105D01*
X0139539Y0135738D01*
X0143522Y0139721D01*
X0149155Y0139721D01*
X0153139Y0135738D01*
X0153139Y0130105D01*
X0151956Y0128922D02*
X0192135Y0128922D01*
X0190539Y0130519D02*
X0193936Y0127121D01*
X0196339Y0127121D01*
X0198741Y0127121D01*
X0201925Y0130305D01*
X0203124Y0129613D01*
X0206176Y0128795D01*
X0209336Y0128795D01*
X0212388Y0129613D01*
X0215124Y0131193D01*
X0217358Y0133427D01*
X0217472Y0133625D01*
X0217472Y0029855D01*
X0217358Y0030053D01*
X0215124Y0032287D01*
X0212388Y0033867D01*
X0209336Y0034685D01*
X0206176Y0034685D01*
X0203124Y0033867D01*
X0200388Y0032287D01*
X0198154Y0030053D01*
X0196574Y0027317D01*
X0195756Y0024265D01*
X0195756Y0021105D01*
X0196574Y0018053D01*
X0198154Y0015317D01*
X0200388Y0013083D01*
X0200585Y0012968D01*
X0076544Y0012968D01*
X0077118Y0014356D01*
X0077118Y0023140D01*
X0076052Y0025713D01*
X0074083Y0027682D01*
X0071510Y0028748D01*
X0068726Y0028748D01*
X0066153Y0027682D01*
X0065118Y0026648D01*
X0064083Y0027682D01*
X0061510Y0028748D01*
X0058726Y0028748D01*
X0056153Y0027682D01*
X0055118Y0026648D01*
X0054083Y0027682D01*
X0051510Y0028748D01*
X0048726Y0028748D01*
X0046153Y0027682D01*
X0044184Y0025713D01*
X0044176Y0025694D01*
X0042793Y0028960D02*
X0197522Y0028960D01*
X0198171Y0032617D02*
X0202154Y0036601D01*
X0202154Y0042234D01*
X0198171Y0046217D01*
X0192538Y0046217D01*
X0188554Y0042234D01*
X0188554Y0036601D01*
X0192538Y0032617D01*
X0198171Y0032617D01*
X0198512Y0032958D02*
X0201549Y0032958D01*
X0202154Y0036957D02*
X0217472Y0036957D01*
X0217472Y0040955D02*
X0202154Y0040955D01*
X0199435Y0044954D02*
X0217472Y0044954D01*
X0217472Y0048952D02*
X0137594Y0048952D01*
X0137594Y0048116D02*
X0137594Y0053583D01*
X0133728Y0057450D01*
X0129094Y0057450D01*
X0129094Y0058169D01*
X0125814Y0061450D01*
X0123495Y0061450D01*
X0123495Y0055850D01*
X0123494Y0055850D01*
X0123494Y0055850D01*
X0117894Y0055850D01*
X0117894Y0058169D01*
X0121175Y0061450D01*
X0123494Y0061450D01*
X0123494Y0055850D01*
X0117894Y0055850D01*
X0117894Y0053530D01*
X0119868Y0051557D01*
X0116894Y0048583D01*
X0116894Y0043116D01*
X0120761Y0039250D01*
X0126228Y0039250D01*
X0130094Y0043116D01*
X0130094Y0044250D01*
X0133728Y0044250D01*
X0137594Y0048116D01*
X0134432Y0044954D02*
X0141274Y0044954D01*
X0142538Y0046217D02*
X0138554Y0042234D01*
X0138554Y0036601D01*
X0142538Y0032617D01*
X0148171Y0032617D01*
X0152154Y0036601D01*
X0152154Y0042234D01*
X0148171Y0046217D01*
X0142538Y0046217D01*
X0142538Y0051318D02*
X0148171Y0051318D01*
X0152154Y0055301D01*
X0152154Y0060935D01*
X0148171Y0064918D01*
X0142538Y0064918D01*
X0138554Y0060935D01*
X0138554Y0055301D01*
X0142538Y0051318D01*
X0140905Y0052951D02*
X0137594Y0052951D01*
X0138554Y0056949D02*
X0134229Y0056949D01*
X0138567Y0060948D02*
X0126316Y0060948D01*
X0123495Y0060948D02*
X0123494Y0060948D01*
X0120673Y0060948D02*
X0109534Y0060948D01*
X0109517Y0060989D02*
X0107548Y0062958D01*
X0104975Y0064024D01*
X0102190Y0064024D01*
X0099617Y0062958D01*
X0098583Y0061923D01*
X0097548Y0062958D01*
X0094975Y0064024D01*
X0092190Y0064024D01*
X0089617Y0062958D01*
X0088583Y0061923D01*
X0087548Y0062958D01*
X0084975Y0064024D01*
X0082190Y0064024D01*
X0079617Y0062958D01*
X0077648Y0060989D01*
X0076583Y0058416D01*
X0076583Y0049631D01*
X0077648Y0047058D01*
X0079617Y0045089D01*
X0082190Y0044024D01*
X0084975Y0044024D01*
X0087548Y0045089D01*
X0088583Y0046124D01*
X0089617Y0045089D01*
X0092190Y0044024D01*
X0094975Y0044024D01*
X0097548Y0045089D01*
X0098583Y0046124D01*
X0099617Y0045089D01*
X0102190Y0044024D01*
X0104975Y0044024D01*
X0107548Y0045089D01*
X0109517Y0047058D01*
X0110583Y0049631D01*
X0110583Y0058416D01*
X0109517Y0060989D01*
X0110583Y0056949D02*
X0117894Y0056949D01*
X0118474Y0052951D02*
X0110583Y0052951D01*
X0110301Y0048952D02*
X0117263Y0048952D01*
X0116894Y0044954D02*
X0107220Y0044954D01*
X0099945Y0044954D02*
X0097220Y0044954D01*
X0089945Y0044954D02*
X0087220Y0044954D01*
X0079945Y0044954D02*
X0055411Y0044954D01*
X0055411Y0044130D02*
X0055411Y0050344D01*
X0053518Y0052237D01*
X0055411Y0054130D01*
X0055411Y0060344D01*
X0053518Y0062237D01*
X0055411Y0064130D01*
X0055411Y0070344D01*
X0051018Y0074737D01*
X0044804Y0074737D01*
X0042911Y0072844D01*
X0041018Y0074737D01*
X0034804Y0074737D01*
X0030411Y0070344D01*
X0030411Y0064130D01*
X0032304Y0062237D01*
X0030411Y0060344D01*
X0030411Y0054130D01*
X0032304Y0052237D01*
X0030411Y0050344D01*
X0030411Y0044130D01*
X0034804Y0039737D01*
X0041018Y0039737D01*
X0042911Y0041630D01*
X0044804Y0039737D01*
X0051018Y0039737D01*
X0055411Y0044130D01*
X0052236Y0040955D02*
X0119055Y0040955D01*
X0127934Y0040955D02*
X0138554Y0040955D01*
X0138554Y0036957D02*
X0024811Y0036957D01*
X0024811Y0040955D02*
X0033586Y0040955D01*
X0030411Y0044954D02*
X0024811Y0044954D01*
X0024811Y0048952D02*
X0030411Y0048952D01*
X0031591Y0052951D02*
X0024811Y0052951D01*
X0024811Y0056949D02*
X0030411Y0056949D01*
X0031015Y0060948D02*
X0024811Y0060948D01*
X0024811Y0064946D02*
X0030411Y0064946D01*
X0030411Y0068945D02*
X0024811Y0068945D01*
X0024811Y0072943D02*
X0033011Y0072943D01*
X0024811Y0076942D02*
X0080149Y0076942D01*
X0081206Y0076504D02*
X0083991Y0076504D01*
X0086564Y0077570D01*
X0087598Y0078604D01*
X0088633Y0077570D01*
X0091206Y0076504D01*
X0093991Y0076504D01*
X0096564Y0077570D01*
X0097598Y0078604D01*
X0098633Y0077570D01*
X0101206Y0076504D01*
X0103991Y0076504D01*
X0106564Y0077570D01*
X0108533Y0079539D01*
X0109598Y0082112D01*
X0109598Y0090896D01*
X0108533Y0093469D01*
X0106564Y0095438D01*
X0103991Y0096504D01*
X0101206Y0096504D01*
X0098633Y0095438D01*
X0097598Y0094403D01*
X0096564Y0095438D01*
X0093991Y0096504D01*
X0091206Y0096504D01*
X0088633Y0095438D01*
X0087598Y0094403D01*
X0086564Y0095438D01*
X0083991Y0096504D01*
X0081206Y0096504D01*
X0078633Y0095438D01*
X0076664Y0093469D01*
X0075598Y0090896D01*
X0075598Y0082112D01*
X0076664Y0079539D01*
X0078633Y0077570D01*
X0081206Y0076504D01*
X0085048Y0076942D02*
X0090149Y0076942D01*
X0095048Y0076942D02*
X0100149Y0076942D01*
X0105048Y0076942D02*
X0138554Y0076942D01*
X0138554Y0079636D02*
X0138554Y0074002D01*
X0142538Y0070019D01*
X0148171Y0070019D01*
X0152154Y0074002D01*
X0152154Y0079636D01*
X0148171Y0083619D01*
X0142538Y0083619D01*
X0138554Y0079636D01*
X0139859Y0080940D02*
X0128726Y0080940D01*
X0128726Y0080896D02*
X0124860Y0077030D01*
X0119392Y0077030D01*
X0115526Y0080896D01*
X0115526Y0086364D01*
X0118499Y0089337D01*
X0116526Y0091310D01*
X0116526Y0093630D01*
X0122126Y0093630D01*
X0122126Y0093630D01*
X0122126Y0099230D01*
X0124446Y0099230D01*
X0127726Y0095950D01*
X0127726Y0095230D01*
X0132360Y0095230D01*
X0136226Y0091364D01*
X0136226Y0085896D01*
X0132360Y0082030D01*
X0128726Y0082030D01*
X0128726Y0080896D01*
X0135269Y0084939D02*
X0217472Y0084939D01*
X0217472Y0080940D02*
X0200850Y0080940D01*
X0202154Y0079636D02*
X0198171Y0083619D01*
X0192538Y0083619D01*
X0188554Y0079636D01*
X0188554Y0074002D01*
X0192538Y0070019D01*
X0198171Y0070019D01*
X0202154Y0074002D01*
X0202154Y0079636D01*
X0202154Y0076942D02*
X0217472Y0076942D01*
X0217472Y0072943D02*
X0201095Y0072943D01*
X0197757Y0063918D02*
X0195354Y0063918D01*
X0192952Y0063918D01*
X0189554Y0060521D01*
X0189554Y0058118D01*
X0189554Y0055716D01*
X0192952Y0052318D01*
X0195354Y0052318D01*
X0195354Y0058118D01*
X0189554Y0058118D01*
X0195354Y0058118D01*
X0195354Y0058118D01*
X0195354Y0058118D01*
X0195354Y0063918D01*
X0195354Y0058118D01*
X0195354Y0058118D01*
X0195354Y0052318D01*
X0197757Y0052318D01*
X0201154Y0055716D01*
X0201154Y0058118D01*
X0195354Y0058118D01*
X0195354Y0058118D01*
X0201154Y0058118D01*
X0201154Y0060521D01*
X0197757Y0063918D01*
X0195354Y0060948D02*
X0195354Y0060948D01*
X0195354Y0056949D02*
X0195354Y0056949D01*
X0195354Y0052951D02*
X0195354Y0052951D01*
X0192319Y0052951D02*
X0149804Y0052951D01*
X0152154Y0056949D02*
X0189554Y0056949D01*
X0189981Y0060948D02*
X0152141Y0060948D01*
X0151095Y0072943D02*
X0189613Y0072943D01*
X0188554Y0076942D02*
X0152154Y0076942D01*
X0150850Y0080940D02*
X0189859Y0080940D01*
X0192952Y0089720D02*
X0195354Y0089720D01*
X0195354Y0095520D01*
X0195354Y0101320D01*
X0192952Y0101320D01*
X0189554Y0097922D01*
X0189554Y0095520D01*
X0195354Y0095520D01*
X0195354Y0095520D01*
X0195354Y0095520D01*
X0195354Y0101320D01*
X0197757Y0101320D01*
X0201154Y0097922D01*
X0201154Y0095520D01*
X0195354Y0095520D01*
X0189554Y0095520D01*
X0189554Y0093117D01*
X0192952Y0089720D01*
X0195354Y0089720D02*
X0197757Y0089720D01*
X0201154Y0093117D01*
X0201154Y0095520D01*
X0195354Y0095520D01*
X0195354Y0095520D01*
X0195354Y0095520D01*
X0195354Y0089720D01*
X0195354Y0092936D02*
X0195354Y0092936D01*
X0195354Y0096934D02*
X0195354Y0096934D01*
X0195354Y0100933D02*
X0195354Y0100933D01*
X0192565Y0100933D02*
X0149558Y0100933D01*
X0148171Y0102320D02*
X0142538Y0102320D01*
X0138554Y0098336D01*
X0138554Y0092703D01*
X0142538Y0088720D01*
X0148171Y0088720D01*
X0152154Y0092703D01*
X0152154Y0098336D01*
X0148171Y0102320D01*
X0149155Y0107420D02*
X0143522Y0107420D01*
X0139539Y0111404D01*
X0139539Y0117037D01*
X0143522Y0121020D01*
X0149155Y0121020D01*
X0153139Y0117037D01*
X0153139Y0111404D01*
X0149155Y0107420D01*
X0150665Y0108930D02*
X0192013Y0108930D01*
X0193522Y0107420D02*
X0189539Y0111404D01*
X0189539Y0117037D01*
X0193522Y0121020D01*
X0199155Y0121020D01*
X0203139Y0117037D01*
X0203139Y0111404D01*
X0199155Y0107420D01*
X0193522Y0107420D01*
X0189539Y0112928D02*
X0153139Y0112928D01*
X0153139Y0116927D02*
X0189539Y0116927D01*
X0193427Y0120925D02*
X0149250Y0120925D01*
X0143427Y0120925D02*
X0135143Y0120925D01*
X0133928Y0119710D02*
X0137794Y0123576D01*
X0137794Y0129044D01*
X0133928Y0132910D01*
X0129294Y0132910D01*
X0129294Y0133630D01*
X0126014Y0136910D01*
X0123695Y0136910D01*
X0123695Y0131310D01*
X0123694Y0131310D01*
X0118094Y0131310D01*
X0118094Y0128991D01*
X0120068Y0127017D01*
X0117094Y0124044D01*
X0117094Y0118576D01*
X0120961Y0114710D01*
X0126428Y0114710D01*
X0130294Y0118576D01*
X0130294Y0119710D01*
X0133928Y0119710D01*
X0128645Y0116927D02*
X0139539Y0116927D01*
X0139539Y0112928D02*
X0108909Y0112928D01*
X0108533Y0112019D02*
X0109598Y0114592D01*
X0109598Y0123377D01*
X0108533Y0125949D01*
X0106564Y0127919D01*
X0103991Y0128984D01*
X0101206Y0128984D01*
X0098633Y0127919D01*
X0097598Y0126884D01*
X0096564Y0127919D01*
X0093991Y0128984D01*
X0091206Y0128984D01*
X0088633Y0127919D01*
X0087598Y0126884D01*
X0086564Y0127919D01*
X0083991Y0128984D01*
X0081206Y0128984D01*
X0078633Y0127919D01*
X0076664Y0125949D01*
X0075598Y0123377D01*
X0075598Y0114592D01*
X0076664Y0112019D01*
X0078633Y0110050D01*
X0081206Y0108984D01*
X0083991Y0108984D01*
X0086564Y0110050D01*
X0087598Y0111085D01*
X0088633Y0110050D01*
X0091206Y0108984D01*
X0093991Y0108984D01*
X0096564Y0110050D01*
X0097598Y0111085D01*
X0098633Y0110050D01*
X0101206Y0108984D01*
X0103991Y0108984D01*
X0106564Y0110050D01*
X0108533Y0112019D01*
X0109598Y0116927D02*
X0118744Y0116927D01*
X0117094Y0120925D02*
X0109598Y0120925D01*
X0108958Y0124924D02*
X0117974Y0124924D01*
X0118163Y0128922D02*
X0104140Y0128922D01*
X0101057Y0128922D02*
X0094140Y0128922D01*
X0091057Y0128922D02*
X0084140Y0128922D01*
X0081057Y0128922D02*
X0024811Y0128922D01*
X0024811Y0124924D02*
X0054642Y0124924D01*
X0053796Y0124697D02*
X0050991Y0123078D01*
X0048701Y0120788D01*
X0047082Y0117984D01*
X0046244Y0114855D01*
X0046244Y0111617D01*
X0047082Y0108489D01*
X0048701Y0105684D01*
X0049840Y0104546D01*
X0049086Y0104718D01*
X0048079Y0104832D01*
X0048079Y0095095D01*
X0046567Y0095095D01*
X0046567Y0104832D01*
X0045559Y0104718D01*
X0044408Y0104455D01*
X0043294Y0104066D01*
X0042230Y0103553D01*
X0041230Y0102925D01*
X0040307Y0102189D01*
X0039472Y0101354D01*
X0038736Y0100431D01*
X0038108Y0099431D01*
X0037596Y0098368D01*
X0037206Y0097253D01*
X0036943Y0096102D01*
X0036830Y0095094D01*
X0046567Y0095094D01*
X0046567Y0093583D01*
X0036830Y0093583D01*
X0036943Y0092575D01*
X0037206Y0091424D01*
X0037596Y0090310D01*
X0038108Y0089246D01*
X0038736Y0088246D01*
X0039472Y0087323D01*
X0040307Y0086488D01*
X0041230Y0085752D01*
X0042230Y0085124D01*
X0043294Y0084612D01*
X0044408Y0084222D01*
X0045559Y0083959D01*
X0046567Y0083845D01*
X0046567Y0093583D01*
X0048079Y0093583D01*
X0048079Y0095094D01*
X0057816Y0095094D01*
X0057702Y0096102D01*
X0057440Y0097253D01*
X0057050Y0098368D01*
X0056537Y0099431D01*
X0055909Y0100431D01*
X0055173Y0101354D01*
X0055102Y0101425D01*
X0056924Y0100937D01*
X0060163Y0100937D01*
X0063291Y0101775D01*
X0066095Y0103394D01*
X0068385Y0105684D01*
X0070004Y0108489D01*
X0070843Y0111617D01*
X0070843Y0114855D01*
X0070004Y0117984D01*
X0068385Y0120788D01*
X0066095Y0123078D01*
X0063291Y0124697D01*
X0060163Y0125535D01*
X0056924Y0125535D01*
X0053796Y0124697D01*
X0048839Y0120925D02*
X0041114Y0120925D01*
X0043782Y0116927D02*
X0046799Y0116927D01*
X0046244Y0112928D02*
X0034693Y0112928D01*
X0034693Y0108930D02*
X0033181Y0108930D01*
X0033181Y0104931D02*
X0034693Y0104931D01*
X0040383Y0104931D02*
X0049455Y0104931D01*
X0048079Y0100933D02*
X0046567Y0100933D01*
X0046567Y0096934D02*
X0048079Y0096934D01*
X0048079Y0093583D02*
X0057816Y0093583D01*
X0057702Y0092575D01*
X0057440Y0091424D01*
X0057050Y0090310D01*
X0056537Y0089246D01*
X0055909Y0088246D01*
X0055173Y0087323D01*
X0054338Y0086488D01*
X0053415Y0085752D01*
X0052416Y0085124D01*
X0051352Y0084612D01*
X0050237Y0084222D01*
X0049086Y0083959D01*
X0048079Y0083845D01*
X0048079Y0093583D01*
X0048079Y0092936D02*
X0046567Y0092936D01*
X0046567Y0088937D02*
X0048079Y0088937D01*
X0048079Y0084939D02*
X0046567Y0084939D01*
X0042615Y0084939D02*
X0024811Y0084939D01*
X0024811Y0080940D02*
X0076084Y0080940D01*
X0075598Y0084939D02*
X0052031Y0084939D01*
X0056344Y0088937D02*
X0075598Y0088937D01*
X0076443Y0092936D02*
X0057743Y0092936D01*
X0057513Y0096934D02*
X0117511Y0096934D01*
X0116526Y0095950D02*
X0116526Y0093630D01*
X0122126Y0093630D01*
X0122126Y0099230D01*
X0119806Y0099230D01*
X0116526Y0095950D01*
X0116526Y0092936D02*
X0108754Y0092936D01*
X0109598Y0088937D02*
X0118100Y0088937D01*
X0122126Y0093630D02*
X0122126Y0093630D01*
X0122126Y0096934D02*
X0122126Y0096934D01*
X0126741Y0096934D02*
X0138554Y0096934D01*
X0138554Y0092936D02*
X0134654Y0092936D01*
X0136226Y0088937D02*
X0142320Y0088937D01*
X0148389Y0088937D02*
X0217472Y0088937D01*
X0217472Y0092936D02*
X0200973Y0092936D01*
X0201154Y0096934D02*
X0217472Y0096934D01*
X0217472Y0100933D02*
X0198144Y0100933D01*
X0189554Y0096934D02*
X0152154Y0096934D01*
X0152154Y0092936D02*
X0189736Y0092936D01*
X0200665Y0108930D02*
X0217472Y0108930D01*
X0217472Y0112928D02*
X0203139Y0112928D01*
X0203139Y0116927D02*
X0217472Y0116927D01*
X0217472Y0120925D02*
X0199250Y0120925D01*
X0196339Y0127121D02*
X0196339Y0132921D01*
X0196339Y0132921D01*
X0196339Y0132921D01*
X0196339Y0127121D01*
X0196339Y0128922D02*
X0196339Y0128922D01*
X0196338Y0132921D02*
X0190539Y0132921D01*
X0190539Y0130519D01*
X0190539Y0132921D02*
X0196338Y0132921D01*
X0196338Y0132921D01*
X0192134Y0136919D02*
X0151957Y0136919D01*
X0140720Y0136919D02*
X0041073Y0136919D01*
X0042519Y0140918D02*
X0052551Y0140918D01*
X0051471Y0144916D02*
X0042437Y0144916D01*
X0032559Y0156543D02*
X0213661Y0156543D01*
X0213785Y0156545D01*
X0213908Y0156551D01*
X0214032Y0156560D01*
X0214154Y0156574D01*
X0214277Y0156591D01*
X0214399Y0156613D01*
X0214520Y0156638D01*
X0214640Y0156667D01*
X0214759Y0156699D01*
X0214878Y0156736D01*
X0214995Y0156776D01*
X0215110Y0156819D01*
X0215225Y0156867D01*
X0215337Y0156918D01*
X0215448Y0156972D01*
X0215558Y0157030D01*
X0215665Y0157091D01*
X0215771Y0157156D01*
X0215874Y0157224D01*
X0215975Y0157295D01*
X0216074Y0157369D01*
X0216171Y0157446D01*
X0216265Y0157527D01*
X0216356Y0157610D01*
X0216445Y0157696D01*
X0216531Y0157785D01*
X0216614Y0157876D01*
X0216695Y0157970D01*
X0216772Y0158067D01*
X0216846Y0158166D01*
X0216917Y0158267D01*
X0216985Y0158370D01*
X0217050Y0158476D01*
X0217111Y0158583D01*
X0217169Y0158693D01*
X0217223Y0158804D01*
X0217274Y0158916D01*
X0217322Y0159031D01*
X0217365Y0159146D01*
X0217405Y0159263D01*
X0217442Y0159382D01*
X0217474Y0159501D01*
X0217503Y0159621D01*
X0217528Y0159742D01*
X0217550Y0159864D01*
X0217567Y0159987D01*
X0217581Y0160109D01*
X0217590Y0160233D01*
X0217596Y0160356D01*
X0217598Y0160480D01*
X0217596Y0160604D01*
X0217590Y0160727D01*
X0217581Y0160851D01*
X0217567Y0160973D01*
X0217550Y0161096D01*
X0217528Y0161218D01*
X0217503Y0161339D01*
X0217474Y0161459D01*
X0217442Y0161578D01*
X0217405Y0161697D01*
X0217365Y0161814D01*
X0217322Y0161929D01*
X0217274Y0162044D01*
X0217223Y0162156D01*
X0217169Y0162267D01*
X0217111Y0162377D01*
X0217050Y0162484D01*
X0216985Y0162590D01*
X0216917Y0162693D01*
X0216846Y0162794D01*
X0216772Y0162893D01*
X0216695Y0162990D01*
X0216614Y0163084D01*
X0216531Y0163175D01*
X0216445Y0163264D01*
X0216356Y0163350D01*
X0216265Y0163433D01*
X0216171Y0163514D01*
X0216074Y0163591D01*
X0215975Y0163665D01*
X0215874Y0163736D01*
X0215771Y0163804D01*
X0215665Y0163869D01*
X0215558Y0163930D01*
X0215448Y0163988D01*
X0215337Y0164042D01*
X0215225Y0164093D01*
X0215110Y0164141D01*
X0214995Y0164184D01*
X0214878Y0164224D01*
X0214759Y0164261D01*
X0214640Y0164293D01*
X0214520Y0164322D01*
X0214399Y0164347D01*
X0214277Y0164369D01*
X0214154Y0164386D01*
X0214032Y0164400D01*
X0213908Y0164409D01*
X0213785Y0164415D01*
X0213661Y0164417D01*
X0032559Y0164417D01*
X0028622Y0160480D02*
X0028624Y0160356D01*
X0028630Y0160233D01*
X0028639Y0160109D01*
X0028653Y0159987D01*
X0028670Y0159864D01*
X0028692Y0159742D01*
X0028717Y0159621D01*
X0028746Y0159501D01*
X0028778Y0159382D01*
X0028815Y0159263D01*
X0028855Y0159146D01*
X0028898Y0159031D01*
X0028946Y0158916D01*
X0028997Y0158804D01*
X0029051Y0158693D01*
X0029109Y0158583D01*
X0029170Y0158476D01*
X0029235Y0158370D01*
X0029303Y0158267D01*
X0029374Y0158166D01*
X0029448Y0158067D01*
X0029525Y0157970D01*
X0029606Y0157876D01*
X0029689Y0157785D01*
X0029775Y0157696D01*
X0029864Y0157610D01*
X0029955Y0157527D01*
X0030049Y0157446D01*
X0030146Y0157369D01*
X0030245Y0157295D01*
X0030346Y0157224D01*
X0030449Y0157156D01*
X0030555Y0157091D01*
X0030662Y0157030D01*
X0030772Y0156972D01*
X0030883Y0156918D01*
X0030995Y0156867D01*
X0031110Y0156819D01*
X0031225Y0156776D01*
X0031342Y0156736D01*
X0031461Y0156699D01*
X0031580Y0156667D01*
X0031700Y0156638D01*
X0031821Y0156613D01*
X0031943Y0156591D01*
X0032066Y0156574D01*
X0032188Y0156560D01*
X0032312Y0156551D01*
X0032435Y0156545D01*
X0032559Y0156543D01*
X0028622Y0160480D02*
X0028624Y0160604D01*
X0028630Y0160727D01*
X0028639Y0160851D01*
X0028653Y0160973D01*
X0028670Y0161096D01*
X0028692Y0161218D01*
X0028717Y0161339D01*
X0028746Y0161459D01*
X0028778Y0161578D01*
X0028815Y0161697D01*
X0028855Y0161814D01*
X0028898Y0161929D01*
X0028946Y0162044D01*
X0028997Y0162156D01*
X0029051Y0162267D01*
X0029109Y0162377D01*
X0029170Y0162484D01*
X0029235Y0162590D01*
X0029303Y0162693D01*
X0029374Y0162794D01*
X0029448Y0162893D01*
X0029525Y0162990D01*
X0029606Y0163084D01*
X0029689Y0163175D01*
X0029775Y0163264D01*
X0029864Y0163350D01*
X0029955Y0163433D01*
X0030049Y0163514D01*
X0030146Y0163591D01*
X0030245Y0163665D01*
X0030346Y0163736D01*
X0030449Y0163804D01*
X0030555Y0163869D01*
X0030662Y0163930D01*
X0030772Y0163988D01*
X0030883Y0164042D01*
X0030995Y0164093D01*
X0031110Y0164141D01*
X0031225Y0164184D01*
X0031342Y0164224D01*
X0031461Y0164261D01*
X0031580Y0164293D01*
X0031700Y0164322D01*
X0031821Y0164347D01*
X0031943Y0164369D01*
X0032066Y0164386D01*
X0032188Y0164400D01*
X0032312Y0164409D01*
X0032435Y0164415D01*
X0032559Y0164417D01*
X0039729Y0172417D02*
X0039927Y0172531D01*
X0042161Y0174766D01*
X0043741Y0177502D01*
X0044559Y0180554D01*
X0044559Y0183714D01*
X0043741Y0186766D01*
X0042161Y0189502D01*
X0039927Y0191736D01*
X0037191Y0193316D01*
X0034139Y0194134D01*
X0030979Y0194134D01*
X0027927Y0193316D01*
X0025191Y0191736D01*
X0024811Y0191356D01*
X0024811Y0202509D01*
X0026396Y0200924D01*
X0032029Y0200924D01*
X0036013Y0204908D01*
X0036013Y0210541D01*
X0032029Y0214524D01*
X0026396Y0214524D01*
X0024811Y0212939D01*
X0024811Y0227309D01*
X0026246Y0226715D01*
X0028872Y0226715D01*
X0031298Y0227720D01*
X0033154Y0229576D01*
X0033220Y0229735D01*
X0035239Y0227715D01*
X0037559Y0227715D01*
X0037559Y0233315D01*
X0037559Y0238915D01*
X0035239Y0238915D01*
X0033220Y0236895D01*
X0033154Y0237054D01*
X0031298Y0238910D01*
X0028872Y0239915D01*
X0026246Y0239915D01*
X0024811Y0239320D01*
X0024811Y0267451D01*
X0025350Y0266593D01*
X0026087Y0265669D01*
X0026921Y0264835D01*
X0027845Y0264099D01*
X0028844Y0263470D01*
X0029908Y0262958D01*
X0031022Y0262568D01*
X0032173Y0262305D01*
X0033181Y0262192D01*
X0033181Y0271929D01*
X0034693Y0271929D01*
X0034693Y0262192D01*
X0035701Y0262305D01*
X0036852Y0262568D01*
X0037966Y0262958D01*
X0039030Y0263470D01*
X0040029Y0264099D01*
X0040953Y0264835D01*
X0041787Y0265669D01*
X0042524Y0266593D01*
X0043152Y0267592D01*
X0043664Y0268656D01*
X0044054Y0269770D01*
X0044317Y0270921D01*
X0044430Y0271929D01*
X0034693Y0271929D01*
X0034693Y0273441D01*
X0044430Y0273441D01*
X0044317Y0274449D01*
X0044054Y0275600D01*
X0043664Y0276714D01*
X0043152Y0277778D01*
X0042524Y0278777D01*
X0041787Y0279701D01*
X0040953Y0280535D01*
X0040029Y0281272D01*
X0039030Y0281900D01*
X0037966Y0282412D01*
X0036852Y0282802D01*
X0035701Y0283065D01*
X0034693Y0283178D01*
X0034693Y0273441D01*
X0033181Y0273441D01*
X0033181Y0283178D01*
X0032173Y0283065D01*
X0031022Y0282802D01*
X0029908Y0282412D01*
X0028844Y0281900D01*
X0027845Y0281272D01*
X0026921Y0280535D01*
X0026087Y0279701D01*
X0025350Y0278777D01*
X0024811Y0277919D01*
X0024811Y0291693D01*
X0025959Y0291030D01*
X0029011Y0290213D01*
X0032170Y0290213D01*
X0035222Y0291030D01*
X0037959Y0292610D01*
X0040193Y0294844D01*
X0041773Y0297581D01*
X0042591Y0300633D01*
X0042591Y0303792D01*
X0041773Y0306844D01*
X0040193Y0309581D01*
X0039813Y0309961D01*
X0040070Y0309961D01*
X0041294Y0309849D01*
X0041651Y0309961D01*
X0306885Y0309961D01*
X0306687Y0309846D01*
X0304453Y0307612D01*
X0302873Y0304876D01*
X0302055Y0301824D01*
X0302055Y0298664D01*
X0302873Y0295612D01*
X0304453Y0292876D01*
X0306687Y0290642D01*
X0309423Y0289062D01*
X0312475Y0288244D01*
X0315635Y0288244D01*
X0318687Y0289062D01*
X0321423Y0290642D01*
X0323657Y0292876D01*
X0323772Y0293074D01*
X0323772Y0189304D01*
X0323657Y0189502D01*
X0321423Y0191736D01*
X0318687Y0193316D01*
X0315635Y0194134D01*
X0312475Y0194134D01*
X0309423Y0193316D01*
X0306687Y0191736D01*
X0304453Y0189502D01*
X0302873Y0186766D01*
X0302055Y0183714D01*
X0302055Y0180554D01*
X0302873Y0177502D01*
X0304453Y0174766D01*
X0306687Y0172531D01*
X0306885Y0172417D01*
X0245235Y0172417D01*
X0241639Y0171249D01*
X0238580Y0169026D01*
X0236357Y0165967D01*
X0235189Y0162371D01*
X0235189Y0158590D01*
X0236357Y0154993D01*
X0237210Y0153819D01*
X0234896Y0155501D01*
X0231300Y0156669D01*
X0227519Y0156669D01*
X0224674Y0155745D01*
X0225598Y0158590D01*
X0225598Y0162371D01*
X0224430Y0165967D01*
X0224430Y0165967D01*
X0222207Y0169026D01*
X0219148Y0171249D01*
X0215552Y0172417D01*
X0039729Y0172417D01*
X0040302Y0172906D02*
X0306312Y0172906D01*
X0303218Y0176904D02*
X0223458Y0176904D01*
X0223690Y0177137D02*
X0224756Y0179710D01*
X0224756Y0188495D01*
X0223690Y0191068D01*
X0221721Y0193037D01*
X0219148Y0194102D01*
X0216364Y0194102D01*
X0213791Y0193037D01*
X0212756Y0192002D01*
X0211721Y0193037D01*
X0209148Y0194102D01*
X0206364Y0194102D01*
X0203791Y0193037D01*
X0202756Y0192002D01*
X0201721Y0193037D01*
X0199148Y0194102D01*
X0196364Y0194102D01*
X0193791Y0193037D01*
X0191822Y0191068D01*
X0190756Y0188495D01*
X0190756Y0179710D01*
X0191822Y0177137D01*
X0193791Y0175168D01*
X0196364Y0174102D01*
X0199148Y0174102D01*
X0201721Y0175168D01*
X0202756Y0176203D01*
X0203791Y0175168D01*
X0206364Y0174102D01*
X0209148Y0174102D01*
X0211721Y0175168D01*
X0212756Y0176203D01*
X0213791Y0175168D01*
X0216364Y0174102D01*
X0219148Y0174102D01*
X0221721Y0175168D01*
X0223690Y0177137D01*
X0219148Y0171249D02*
X0219148Y0171249D01*
X0222207Y0169026D02*
X0222207Y0169026D01*
X0222207Y0169026D01*
X0222294Y0168907D02*
X0238494Y0168907D01*
X0238580Y0169026D02*
X0238580Y0169026D01*
X0238580Y0169026D01*
X0236357Y0165967D02*
X0236357Y0165967D01*
X0236014Y0164909D02*
X0224774Y0164909D01*
X0225598Y0160910D02*
X0235189Y0160910D01*
X0235734Y0156912D02*
X0225053Y0156912D01*
X0234896Y0155501D02*
X0234896Y0155501D01*
X0236357Y0154993D02*
X0236357Y0154993D01*
X0233346Y0144732D02*
X0233346Y0026622D01*
X0233344Y0026498D01*
X0233338Y0026375D01*
X0233329Y0026251D01*
X0233315Y0026129D01*
X0233298Y0026006D01*
X0233276Y0025884D01*
X0233251Y0025763D01*
X0233222Y0025643D01*
X0233190Y0025524D01*
X0233153Y0025405D01*
X0233113Y0025288D01*
X0233070Y0025173D01*
X0233022Y0025058D01*
X0232971Y0024946D01*
X0232917Y0024835D01*
X0232859Y0024725D01*
X0232798Y0024618D01*
X0232733Y0024512D01*
X0232665Y0024409D01*
X0232594Y0024308D01*
X0232520Y0024209D01*
X0232443Y0024112D01*
X0232362Y0024018D01*
X0232279Y0023927D01*
X0232193Y0023838D01*
X0232104Y0023752D01*
X0232013Y0023669D01*
X0231919Y0023588D01*
X0231822Y0023511D01*
X0231723Y0023437D01*
X0231622Y0023366D01*
X0231519Y0023298D01*
X0231413Y0023233D01*
X0231306Y0023172D01*
X0231196Y0023114D01*
X0231085Y0023060D01*
X0230973Y0023009D01*
X0230858Y0022961D01*
X0230743Y0022918D01*
X0230626Y0022878D01*
X0230507Y0022841D01*
X0230388Y0022809D01*
X0230268Y0022780D01*
X0230147Y0022755D01*
X0230025Y0022733D01*
X0229902Y0022716D01*
X0229780Y0022702D01*
X0229656Y0022693D01*
X0229533Y0022687D01*
X0229409Y0022685D01*
X0229285Y0022687D01*
X0229162Y0022693D01*
X0229038Y0022702D01*
X0228916Y0022716D01*
X0228793Y0022733D01*
X0228671Y0022755D01*
X0228550Y0022780D01*
X0228430Y0022809D01*
X0228311Y0022841D01*
X0228192Y0022878D01*
X0228075Y0022918D01*
X0227960Y0022961D01*
X0227845Y0023009D01*
X0227733Y0023060D01*
X0227622Y0023114D01*
X0227512Y0023172D01*
X0227405Y0023233D01*
X0227299Y0023298D01*
X0227196Y0023366D01*
X0227095Y0023437D01*
X0226996Y0023511D01*
X0226899Y0023588D01*
X0226805Y0023669D01*
X0226714Y0023752D01*
X0226625Y0023838D01*
X0226539Y0023927D01*
X0226456Y0024018D01*
X0226375Y0024112D01*
X0226298Y0024209D01*
X0226224Y0024308D01*
X0226153Y0024409D01*
X0226085Y0024512D01*
X0226020Y0024618D01*
X0225959Y0024725D01*
X0225901Y0024835D01*
X0225847Y0024946D01*
X0225796Y0025058D01*
X0225748Y0025173D01*
X0225705Y0025288D01*
X0225665Y0025405D01*
X0225628Y0025524D01*
X0225596Y0025643D01*
X0225567Y0025763D01*
X0225542Y0025884D01*
X0225520Y0026006D01*
X0225503Y0026129D01*
X0225489Y0026251D01*
X0225480Y0026375D01*
X0225474Y0026498D01*
X0225472Y0026622D01*
X0225472Y0144732D01*
X0229409Y0148669D02*
X0229533Y0148667D01*
X0229656Y0148661D01*
X0229780Y0148652D01*
X0229902Y0148638D01*
X0230025Y0148621D01*
X0230147Y0148599D01*
X0230268Y0148574D01*
X0230388Y0148545D01*
X0230507Y0148513D01*
X0230626Y0148476D01*
X0230743Y0148436D01*
X0230858Y0148393D01*
X0230973Y0148345D01*
X0231085Y0148294D01*
X0231196Y0148240D01*
X0231306Y0148182D01*
X0231413Y0148121D01*
X0231519Y0148056D01*
X0231622Y0147988D01*
X0231723Y0147917D01*
X0231822Y0147843D01*
X0231919Y0147766D01*
X0232013Y0147685D01*
X0232104Y0147602D01*
X0232193Y0147516D01*
X0232279Y0147427D01*
X0232362Y0147336D01*
X0232443Y0147242D01*
X0232520Y0147145D01*
X0232594Y0147046D01*
X0232665Y0146945D01*
X0232733Y0146842D01*
X0232798Y0146736D01*
X0232859Y0146629D01*
X0232917Y0146519D01*
X0232971Y0146408D01*
X0233022Y0146296D01*
X0233070Y0146181D01*
X0233113Y0146066D01*
X0233153Y0145949D01*
X0233190Y0145830D01*
X0233222Y0145711D01*
X0233251Y0145591D01*
X0233276Y0145470D01*
X0233298Y0145348D01*
X0233315Y0145225D01*
X0233329Y0145103D01*
X0233338Y0144979D01*
X0233344Y0144856D01*
X0233346Y0144732D01*
X0229409Y0148669D02*
X0229285Y0148667D01*
X0229162Y0148661D01*
X0229038Y0148652D01*
X0228916Y0148638D01*
X0228793Y0148621D01*
X0228671Y0148599D01*
X0228550Y0148574D01*
X0228430Y0148545D01*
X0228311Y0148513D01*
X0228192Y0148476D01*
X0228075Y0148436D01*
X0227960Y0148393D01*
X0227845Y0148345D01*
X0227733Y0148294D01*
X0227622Y0148240D01*
X0227512Y0148182D01*
X0227405Y0148121D01*
X0227299Y0148056D01*
X0227196Y0147988D01*
X0227095Y0147917D01*
X0226996Y0147843D01*
X0226899Y0147766D01*
X0226805Y0147685D01*
X0226714Y0147602D01*
X0226625Y0147516D01*
X0226539Y0147427D01*
X0226456Y0147336D01*
X0226375Y0147242D01*
X0226298Y0147145D01*
X0226224Y0147046D01*
X0226153Y0146945D01*
X0226085Y0146842D01*
X0226020Y0146736D01*
X0225959Y0146629D01*
X0225901Y0146519D01*
X0225847Y0146408D01*
X0225796Y0146296D01*
X0225748Y0146181D01*
X0225705Y0146066D01*
X0225665Y0145949D01*
X0225628Y0145830D01*
X0225596Y0145711D01*
X0225567Y0145591D01*
X0225542Y0145470D01*
X0225520Y0145348D01*
X0225503Y0145225D01*
X0225489Y0145103D01*
X0225480Y0144979D01*
X0225474Y0144856D01*
X0225472Y0144732D01*
X0217472Y0132921D02*
X0216852Y0132921D01*
X0217472Y0128922D02*
X0209810Y0128922D01*
X0205702Y0128922D02*
X0200542Y0128922D01*
X0195756Y0140918D02*
X0094814Y0140918D01*
X0090709Y0140918D02*
X0090709Y0140918D01*
X0086603Y0140918D02*
X0086228Y0140918D01*
X0096309Y0144916D02*
X0196437Y0144916D01*
X0217472Y0124924D02*
X0137794Y0124924D01*
X0137794Y0128922D02*
X0140721Y0128922D01*
X0139539Y0132921D02*
X0129294Y0132921D01*
X0123695Y0132921D02*
X0123694Y0132921D01*
X0123694Y0131310D02*
X0123694Y0136910D01*
X0121375Y0136910D01*
X0118094Y0133630D01*
X0118094Y0131310D01*
X0123694Y0131310D01*
X0123694Y0131310D01*
X0118094Y0132921D02*
X0037542Y0132921D01*
X0034693Y0120925D02*
X0033181Y0120925D01*
X0033181Y0116927D02*
X0034693Y0116927D01*
X0043530Y0108930D02*
X0046964Y0108930D01*
X0039136Y0100933D02*
X0024811Y0100933D01*
X0024811Y0104931D02*
X0027491Y0104931D01*
X0024811Y0096934D02*
X0037133Y0096934D01*
X0036903Y0092936D02*
X0024811Y0092936D01*
X0024811Y0088937D02*
X0038302Y0088937D01*
X0042811Y0072943D02*
X0043011Y0072943D01*
X0052811Y0072943D02*
X0139613Y0072943D01*
X0123495Y0056949D02*
X0123494Y0056949D01*
X0115526Y0080940D02*
X0109113Y0080940D01*
X0109598Y0084939D02*
X0115526Y0084939D01*
X0141151Y0100933D02*
X0055509Y0100933D01*
X0067632Y0104931D02*
X0217472Y0104931D01*
X0217472Y0068945D02*
X0055411Y0068945D01*
X0055411Y0064946D02*
X0217472Y0064946D01*
X0217472Y0060948D02*
X0200727Y0060948D01*
X0201154Y0056949D02*
X0217472Y0056949D01*
X0217472Y0052951D02*
X0198389Y0052951D01*
X0191274Y0044954D02*
X0149435Y0044954D01*
X0152154Y0040955D02*
X0188554Y0040955D01*
X0188554Y0036957D02*
X0152154Y0036957D01*
X0148512Y0032958D02*
X0192197Y0032958D01*
X0195942Y0024961D02*
X0076364Y0024961D01*
X0077118Y0020963D02*
X0195794Y0020963D01*
X0197203Y0016964D02*
X0077118Y0016964D01*
X0076864Y0048952D02*
X0055411Y0048952D01*
X0054231Y0052951D02*
X0076583Y0052951D01*
X0076583Y0056949D02*
X0055411Y0056949D01*
X0054807Y0060948D02*
X0077631Y0060948D01*
X0043586Y0040955D02*
X0042236Y0040955D01*
X0038766Y0032958D02*
X0142197Y0032958D01*
X0213962Y0032958D02*
X0217472Y0032958D01*
X0261890Y0032528D02*
X0261890Y0071898D01*
X0279606Y0054181D01*
X0279606Y0032528D01*
X0285512Y0032528D02*
X0285512Y0056150D01*
X0261890Y0079772D01*
X0261890Y0125047D01*
X0267795Y0125047D02*
X0267795Y0081740D01*
X0291417Y0058118D01*
X0291417Y0032528D01*
X0297323Y0032528D02*
X0297323Y0060087D01*
X0273701Y0083709D01*
X0273701Y0125047D01*
X0279606Y0125047D02*
X0279606Y0085677D01*
X0303228Y0062055D01*
X0303228Y0032528D01*
X0273701Y0032528D02*
X0273701Y0052213D01*
X0267795Y0058118D01*
X0267795Y0032528D01*
X0303228Y0069929D02*
X0285512Y0087646D01*
X0285512Y0125047D01*
X0291417Y0125047D02*
X0291417Y0089614D01*
X0303228Y0077803D01*
X0303228Y0085677D02*
X0297323Y0091583D01*
X0297323Y0125047D01*
X0303228Y0125047D02*
X0303228Y0093551D01*
X0316024Y0156543D02*
X0247126Y0156543D01*
X0243189Y0160480D02*
X0243191Y0160604D01*
X0243197Y0160727D01*
X0243206Y0160851D01*
X0243220Y0160973D01*
X0243237Y0161096D01*
X0243259Y0161218D01*
X0243284Y0161339D01*
X0243313Y0161459D01*
X0243345Y0161578D01*
X0243382Y0161697D01*
X0243422Y0161814D01*
X0243465Y0161929D01*
X0243513Y0162044D01*
X0243564Y0162156D01*
X0243618Y0162267D01*
X0243676Y0162377D01*
X0243737Y0162484D01*
X0243802Y0162590D01*
X0243870Y0162693D01*
X0243941Y0162794D01*
X0244015Y0162893D01*
X0244092Y0162990D01*
X0244173Y0163084D01*
X0244256Y0163175D01*
X0244342Y0163264D01*
X0244431Y0163350D01*
X0244522Y0163433D01*
X0244616Y0163514D01*
X0244713Y0163591D01*
X0244812Y0163665D01*
X0244913Y0163736D01*
X0245016Y0163804D01*
X0245122Y0163869D01*
X0245229Y0163930D01*
X0245339Y0163988D01*
X0245450Y0164042D01*
X0245562Y0164093D01*
X0245677Y0164141D01*
X0245792Y0164184D01*
X0245909Y0164224D01*
X0246028Y0164261D01*
X0246147Y0164293D01*
X0246267Y0164322D01*
X0246388Y0164347D01*
X0246510Y0164369D01*
X0246633Y0164386D01*
X0246755Y0164400D01*
X0246879Y0164409D01*
X0247002Y0164415D01*
X0247126Y0164417D01*
X0316024Y0164417D01*
X0319961Y0160480D02*
X0319959Y0160356D01*
X0319953Y0160233D01*
X0319944Y0160109D01*
X0319930Y0159987D01*
X0319913Y0159864D01*
X0319891Y0159742D01*
X0319866Y0159621D01*
X0319837Y0159501D01*
X0319805Y0159382D01*
X0319768Y0159263D01*
X0319728Y0159146D01*
X0319685Y0159031D01*
X0319637Y0158916D01*
X0319586Y0158804D01*
X0319532Y0158693D01*
X0319474Y0158583D01*
X0319413Y0158476D01*
X0319348Y0158370D01*
X0319280Y0158267D01*
X0319209Y0158166D01*
X0319135Y0158067D01*
X0319058Y0157970D01*
X0318977Y0157876D01*
X0318894Y0157785D01*
X0318808Y0157696D01*
X0318719Y0157610D01*
X0318628Y0157527D01*
X0318534Y0157446D01*
X0318437Y0157369D01*
X0318338Y0157295D01*
X0318237Y0157224D01*
X0318134Y0157156D01*
X0318028Y0157091D01*
X0317921Y0157030D01*
X0317811Y0156972D01*
X0317700Y0156918D01*
X0317588Y0156867D01*
X0317473Y0156819D01*
X0317358Y0156776D01*
X0317241Y0156736D01*
X0317122Y0156699D01*
X0317003Y0156667D01*
X0316883Y0156638D01*
X0316762Y0156613D01*
X0316640Y0156591D01*
X0316517Y0156574D01*
X0316395Y0156560D01*
X0316271Y0156551D01*
X0316148Y0156545D01*
X0316024Y0156543D01*
X0319961Y0160480D02*
X0319959Y0160604D01*
X0319953Y0160727D01*
X0319944Y0160851D01*
X0319930Y0160973D01*
X0319913Y0161096D01*
X0319891Y0161218D01*
X0319866Y0161339D01*
X0319837Y0161459D01*
X0319805Y0161578D01*
X0319768Y0161697D01*
X0319728Y0161814D01*
X0319685Y0161929D01*
X0319637Y0162044D01*
X0319586Y0162156D01*
X0319532Y0162267D01*
X0319474Y0162377D01*
X0319413Y0162484D01*
X0319348Y0162590D01*
X0319280Y0162693D01*
X0319209Y0162794D01*
X0319135Y0162893D01*
X0319058Y0162990D01*
X0318977Y0163084D01*
X0318894Y0163175D01*
X0318808Y0163264D01*
X0318719Y0163350D01*
X0318628Y0163433D01*
X0318534Y0163514D01*
X0318437Y0163591D01*
X0318338Y0163665D01*
X0318237Y0163736D01*
X0318134Y0163804D01*
X0318028Y0163869D01*
X0317921Y0163930D01*
X0317811Y0163988D01*
X0317700Y0164042D01*
X0317588Y0164093D01*
X0317473Y0164141D01*
X0317358Y0164184D01*
X0317241Y0164224D01*
X0317122Y0164261D01*
X0317003Y0164293D01*
X0316883Y0164322D01*
X0316762Y0164347D01*
X0316640Y0164369D01*
X0316517Y0164386D01*
X0316395Y0164400D01*
X0316271Y0164409D01*
X0316148Y0164415D01*
X0316024Y0164417D01*
X0302055Y0180903D02*
X0224756Y0180903D01*
X0224756Y0184902D02*
X0302373Y0184902D01*
X0304105Y0188900D02*
X0224588Y0188900D01*
X0221859Y0192899D02*
X0308700Y0192899D01*
X0319410Y0192899D02*
X0323772Y0192899D01*
X0323772Y0196897D02*
X0187697Y0196897D01*
X0187697Y0198114D02*
X0187697Y0191901D01*
X0185803Y0190008D01*
X0187697Y0188114D01*
X0187697Y0181901D01*
X0183303Y0177508D01*
X0177090Y0177508D01*
X0175197Y0179401D01*
X0173303Y0177508D01*
X0167090Y0177508D01*
X0165197Y0179401D01*
X0163303Y0177508D01*
X0157090Y0177508D01*
X0152697Y0181901D01*
X0152697Y0188114D01*
X0154590Y0190008D01*
X0152697Y0191901D01*
X0152697Y0198114D01*
X0157090Y0202508D01*
X0163303Y0202508D01*
X0165197Y0200614D01*
X0167090Y0202508D01*
X0173303Y0202508D01*
X0175197Y0200614D01*
X0177090Y0202508D01*
X0183303Y0202508D01*
X0187697Y0198114D01*
X0184916Y0200896D02*
X0323772Y0200896D01*
X0323772Y0204894D02*
X0293246Y0204894D01*
X0292245Y0203893D02*
X0295643Y0207290D01*
X0295643Y0209693D01*
X0295643Y0212095D01*
X0292245Y0215493D01*
X0289843Y0215493D01*
X0289843Y0209693D01*
X0295643Y0209693D01*
X0289843Y0209693D01*
X0289843Y0209693D01*
X0289842Y0209693D01*
X0289842Y0209693D01*
X0284043Y0209693D01*
X0284043Y0212095D01*
X0287440Y0215493D01*
X0289842Y0215493D01*
X0289842Y0209693D01*
X0284043Y0209693D01*
X0284043Y0207290D01*
X0287440Y0203893D01*
X0289842Y0203893D01*
X0289842Y0209693D01*
X0289843Y0209693D01*
X0289843Y0203893D01*
X0292245Y0203893D01*
X0289843Y0204894D02*
X0289842Y0204894D01*
X0286439Y0204894D02*
X0244660Y0204894D01*
X0246643Y0206876D02*
X0242659Y0202893D01*
X0237026Y0202893D01*
X0233043Y0206876D01*
X0233043Y0212510D01*
X0237026Y0216493D01*
X0242659Y0216493D01*
X0246643Y0212510D01*
X0246643Y0206876D01*
X0246643Y0208893D02*
X0284043Y0208893D01*
X0284838Y0212891D02*
X0246261Y0212891D01*
X0242659Y0220609D02*
X0237026Y0220609D01*
X0233043Y0224593D01*
X0233043Y0230226D01*
X0237026Y0234209D01*
X0242659Y0234209D01*
X0246643Y0230226D01*
X0246643Y0224593D01*
X0242659Y0220609D01*
X0242938Y0220888D02*
X0286747Y0220888D01*
X0287026Y0220609D02*
X0292659Y0220609D01*
X0296643Y0224593D01*
X0296643Y0230226D01*
X0292659Y0234209D01*
X0287026Y0234209D01*
X0283043Y0230226D01*
X0283043Y0224593D01*
X0287026Y0220609D01*
X0283043Y0224887D02*
X0246643Y0224887D01*
X0246643Y0228885D02*
X0283043Y0228885D01*
X0285700Y0232884D02*
X0243985Y0232884D01*
X0242659Y0238326D02*
X0237026Y0238326D01*
X0233043Y0242309D01*
X0233043Y0247943D01*
X0237026Y0251926D01*
X0242659Y0251926D01*
X0246643Y0247943D01*
X0246643Y0242309D01*
X0242659Y0238326D01*
X0245214Y0240881D02*
X0285885Y0240881D01*
X0287440Y0239326D02*
X0284043Y0242724D01*
X0284043Y0245126D01*
X0289842Y0245126D01*
X0289842Y0245126D01*
X0284043Y0245126D01*
X0284043Y0247528D01*
X0287440Y0250926D01*
X0289842Y0250926D01*
X0289842Y0245126D01*
X0289843Y0245126D01*
X0295643Y0245126D01*
X0295643Y0247528D01*
X0292245Y0250926D01*
X0289843Y0250926D01*
X0289843Y0245126D01*
X0289843Y0245126D01*
X0295643Y0245126D01*
X0295643Y0242724D01*
X0292245Y0239326D01*
X0289843Y0239326D01*
X0289843Y0245126D01*
X0289842Y0245126D01*
X0289842Y0239326D01*
X0287440Y0239326D01*
X0289842Y0240881D02*
X0289843Y0240881D01*
X0293800Y0240881D02*
X0323772Y0240881D01*
X0323772Y0244879D02*
X0295643Y0244879D01*
X0294293Y0248878D02*
X0323772Y0248878D01*
X0323772Y0252876D02*
X0213982Y0252876D01*
X0213982Y0253765D02*
X0213982Y0248298D01*
X0210116Y0244431D01*
X0206482Y0244431D01*
X0206482Y0243298D01*
X0202616Y0239431D01*
X0197148Y0239431D01*
X0193282Y0243298D01*
X0193282Y0248765D01*
X0196255Y0251739D01*
X0194282Y0253712D01*
X0194282Y0256031D01*
X0199882Y0256031D01*
X0199882Y0256032D01*
X0199882Y0256032D01*
X0199882Y0261631D01*
X0202201Y0261631D01*
X0205482Y0258351D01*
X0205482Y0257631D01*
X0210116Y0257631D01*
X0213982Y0253765D01*
X0210872Y0256875D02*
X0236194Y0256875D01*
X0237026Y0256043D02*
X0233043Y0260026D01*
X0233043Y0265659D01*
X0237026Y0269643D01*
X0242659Y0269643D01*
X0246643Y0265659D01*
X0246643Y0260026D01*
X0242659Y0256043D01*
X0237026Y0256043D01*
X0233043Y0260873D02*
X0202960Y0260873D01*
X0199882Y0260873D02*
X0199882Y0260873D01*
X0199882Y0261631D02*
X0197562Y0261631D01*
X0194282Y0258351D01*
X0194282Y0256032D01*
X0199882Y0256032D01*
X0199882Y0261631D01*
X0196804Y0260873D02*
X0167107Y0260873D01*
X0166604Y0259657D02*
X0167669Y0262230D01*
X0167669Y0271014D01*
X0166604Y0273587D01*
X0164634Y0275556D01*
X0162062Y0276622D01*
X0159277Y0276622D01*
X0156704Y0275556D01*
X0155669Y0274522D01*
X0154634Y0275556D01*
X0152062Y0276622D01*
X0149277Y0276622D01*
X0146704Y0275556D01*
X0145669Y0274522D01*
X0144634Y0275556D01*
X0142062Y0276622D01*
X0139277Y0276622D01*
X0136704Y0275556D01*
X0134735Y0273587D01*
X0133669Y0271014D01*
X0133669Y0262230D01*
X0134735Y0259657D01*
X0136704Y0257688D01*
X0139277Y0256622D01*
X0142062Y0256622D01*
X0144634Y0257688D01*
X0145669Y0258723D01*
X0146704Y0257688D01*
X0149277Y0256622D01*
X0152062Y0256622D01*
X0154634Y0257688D01*
X0155669Y0258723D01*
X0156704Y0257688D01*
X0159277Y0256622D01*
X0162062Y0256622D01*
X0164634Y0257688D01*
X0166604Y0259657D01*
X0162672Y0256875D02*
X0194282Y0256875D01*
X0195118Y0252876D02*
X0057798Y0252876D01*
X0057816Y0253031D02*
X0048079Y0253031D01*
X0048079Y0243294D01*
X0049086Y0243408D01*
X0050237Y0243671D01*
X0051352Y0244060D01*
X0052416Y0244573D01*
X0053415Y0245201D01*
X0054338Y0245937D01*
X0055173Y0246772D01*
X0055909Y0247695D01*
X0056537Y0248695D01*
X0057050Y0249758D01*
X0057440Y0250873D01*
X0057702Y0252024D01*
X0057816Y0253031D01*
X0057816Y0254543D02*
X0057702Y0255551D01*
X0057440Y0256702D01*
X0057050Y0257816D01*
X0056537Y0258880D01*
X0055909Y0259880D01*
X0055173Y0260803D01*
X0055102Y0260874D01*
X0056924Y0260386D01*
X0060163Y0260386D01*
X0063291Y0261224D01*
X0066095Y0262843D01*
X0068385Y0265133D01*
X0070004Y0267938D01*
X0070843Y0271066D01*
X0070843Y0274304D01*
X0070004Y0277432D01*
X0068385Y0280237D01*
X0066095Y0282527D01*
X0063291Y0284146D01*
X0060163Y0284984D01*
X0056924Y0284984D01*
X0053796Y0284146D01*
X0050991Y0282527D01*
X0048701Y0280237D01*
X0047082Y0277432D01*
X0046244Y0274304D01*
X0046244Y0271066D01*
X0047082Y0267938D01*
X0048701Y0265133D01*
X0049840Y0263995D01*
X0049086Y0264167D01*
X0048079Y0264281D01*
X0048079Y0254543D01*
X0057816Y0254543D01*
X0057379Y0256875D02*
X0138667Y0256875D01*
X0142672Y0256875D02*
X0148667Y0256875D01*
X0152672Y0256875D02*
X0158667Y0256875D01*
X0167669Y0264872D02*
X0233043Y0264872D01*
X0236254Y0268870D02*
X0167669Y0268870D01*
X0166901Y0272869D02*
X0323772Y0272869D01*
X0323772Y0268870D02*
X0293431Y0268870D01*
X0292659Y0269643D02*
X0296643Y0265659D01*
X0296643Y0260026D01*
X0292659Y0256043D01*
X0287026Y0256043D01*
X0283043Y0260026D01*
X0283043Y0265659D01*
X0287026Y0269643D01*
X0292659Y0269643D01*
X0286254Y0268870D02*
X0243431Y0268870D01*
X0246643Y0264872D02*
X0283043Y0264872D01*
X0283043Y0260873D02*
X0246643Y0260873D01*
X0243491Y0256875D02*
X0286194Y0256875D01*
X0293491Y0256875D02*
X0323772Y0256875D01*
X0323772Y0260873D02*
X0296643Y0260873D01*
X0296643Y0264872D02*
X0323772Y0264872D01*
X0323772Y0276867D02*
X0294353Y0276867D01*
X0295643Y0278157D02*
X0295643Y0280559D01*
X0295643Y0282961D01*
X0292245Y0286359D01*
X0289843Y0286359D01*
X0289843Y0280559D01*
X0289843Y0280559D01*
X0295643Y0280559D01*
X0289843Y0280559D01*
X0289843Y0274759D01*
X0292245Y0274759D01*
X0295643Y0278157D01*
X0295643Y0280866D02*
X0323772Y0280866D01*
X0323772Y0284864D02*
X0293740Y0284864D01*
X0289843Y0284864D02*
X0289842Y0284864D01*
X0289842Y0286359D02*
X0287440Y0286359D01*
X0284043Y0282961D01*
X0284043Y0280559D01*
X0284043Y0278157D01*
X0287440Y0274759D01*
X0289842Y0274759D01*
X0289842Y0280559D01*
X0284043Y0280559D01*
X0289842Y0280559D01*
X0289842Y0280559D01*
X0289843Y0280559D01*
X0289842Y0280559D01*
X0289842Y0286359D01*
X0287026Y0291476D02*
X0292659Y0291476D01*
X0296643Y0295459D01*
X0296643Y0301092D01*
X0292659Y0305076D01*
X0287026Y0305076D01*
X0283043Y0301092D01*
X0283043Y0295459D01*
X0287026Y0291476D01*
X0285640Y0292861D02*
X0244045Y0292861D01*
X0242659Y0291476D02*
X0246643Y0295459D01*
X0246643Y0301092D01*
X0242659Y0305076D01*
X0237026Y0305076D01*
X0233043Y0301092D01*
X0233043Y0295459D01*
X0237026Y0291476D01*
X0242659Y0291476D01*
X0242659Y0287359D02*
X0237026Y0287359D01*
X0233043Y0283376D01*
X0233043Y0277742D01*
X0237026Y0273759D01*
X0242659Y0273759D01*
X0246643Y0277742D01*
X0246643Y0283376D01*
X0242659Y0287359D01*
X0245154Y0284864D02*
X0285945Y0284864D01*
X0284043Y0280866D02*
X0246643Y0280866D01*
X0245767Y0276867D02*
X0285332Y0276867D01*
X0289842Y0276867D02*
X0289843Y0276867D01*
X0289842Y0280866D02*
X0289843Y0280866D01*
X0294045Y0292861D02*
X0304467Y0292861D01*
X0302539Y0296860D02*
X0296643Y0296860D01*
X0296643Y0300858D02*
X0302055Y0300858D01*
X0302868Y0304857D02*
X0292878Y0304857D01*
X0286807Y0304857D02*
X0242878Y0304857D01*
X0246643Y0300858D02*
X0283043Y0300858D01*
X0283043Y0296860D02*
X0246643Y0296860D01*
X0235640Y0292861D02*
X0212287Y0292861D01*
X0213982Y0291167D02*
X0210116Y0295033D01*
X0205482Y0295033D01*
X0205482Y0295753D01*
X0202201Y0299033D01*
X0199882Y0299033D01*
X0199882Y0293433D01*
X0199882Y0293433D01*
X0194282Y0293433D01*
X0194282Y0291113D01*
X0196255Y0289140D01*
X0193282Y0286167D01*
X0193282Y0280699D01*
X0197148Y0276833D01*
X0202616Y0276833D01*
X0206482Y0280699D01*
X0206482Y0281833D01*
X0210116Y0281833D01*
X0213982Y0285699D01*
X0213982Y0291167D01*
X0213982Y0288863D02*
X0310166Y0288863D01*
X0317944Y0288863D02*
X0323772Y0288863D01*
X0323772Y0292861D02*
X0323643Y0292861D01*
X0331772Y0298276D02*
X0331718Y0298798D01*
X0331651Y0299319D01*
X0331572Y0299839D01*
X0331481Y0300356D01*
X0331377Y0300871D01*
X0331260Y0301384D01*
X0331131Y0301893D01*
X0330990Y0302399D01*
X0330837Y0302902D01*
X0330671Y0303400D01*
X0330494Y0303895D01*
X0330305Y0304385D01*
X0330104Y0304871D01*
X0329891Y0305351D01*
X0329667Y0305826D01*
X0329431Y0306296D01*
X0329184Y0306759D01*
X0328926Y0307217D01*
X0328657Y0307668D01*
X0328377Y0308113D01*
X0328086Y0308551D01*
X0327785Y0308981D01*
X0327473Y0309405D01*
X0327152Y0309820D01*
X0326820Y0310228D01*
X0326479Y0310627D01*
X0326128Y0311018D01*
X0325768Y0311401D01*
X0325399Y0311775D01*
X0325021Y0312140D01*
X0324634Y0312495D01*
X0324238Y0312841D01*
X0323835Y0313177D01*
X0323423Y0313504D01*
X0323004Y0313820D01*
X0322577Y0314127D01*
X0322142Y0314422D01*
X0321701Y0314708D01*
X0321253Y0314982D01*
X0320799Y0315246D01*
X0320338Y0315498D01*
X0319871Y0315740D01*
X0319399Y0315970D01*
X0318921Y0316188D01*
X0318438Y0316395D01*
X0317950Y0316590D01*
X0317458Y0316774D01*
X0316961Y0316945D01*
X0316460Y0317104D01*
X0315956Y0317252D01*
X0315448Y0317387D01*
X0314937Y0317509D01*
X0314423Y0317619D01*
X0313907Y0317717D01*
X0313389Y0317803D01*
X0312868Y0317875D01*
X0312346Y0317936D01*
X0311823Y0317983D01*
X0311299Y0318018D01*
X0310774Y0318040D01*
X0310249Y0318050D01*
X0309723Y0318046D01*
X0309198Y0318031D01*
X0308673Y0318002D01*
X0308149Y0317961D01*
X0308150Y0317961D02*
X0040433Y0317961D01*
X0040612Y0308855D02*
X0305696Y0308855D01*
X0289843Y0248878D02*
X0289842Y0248878D01*
X0289842Y0244879D02*
X0289843Y0244879D01*
X0284043Y0244879D02*
X0246643Y0244879D01*
X0245707Y0248878D02*
X0285392Y0248878D01*
X0293985Y0232884D02*
X0323772Y0232884D01*
X0323772Y0228885D02*
X0296643Y0228885D01*
X0296643Y0224887D02*
X0323772Y0224887D01*
X0323772Y0220888D02*
X0292938Y0220888D01*
X0294847Y0212891D02*
X0323772Y0212891D01*
X0323772Y0208893D02*
X0295643Y0208893D01*
X0289843Y0208893D02*
X0289842Y0208893D01*
X0289842Y0212891D02*
X0289843Y0212891D01*
X0323772Y0216890D02*
X0213456Y0216890D01*
X0213982Y0216364D02*
X0210116Y0220230D01*
X0205482Y0220230D01*
X0205482Y0220950D01*
X0202201Y0224230D01*
X0199882Y0224230D01*
X0199882Y0218630D01*
X0199882Y0218630D01*
X0199882Y0224230D01*
X0197562Y0224230D01*
X0194282Y0220950D01*
X0194282Y0218630D01*
X0199882Y0218630D01*
X0199882Y0218630D01*
X0194282Y0218630D01*
X0194282Y0216310D01*
X0196255Y0214337D01*
X0193282Y0211364D01*
X0193282Y0205896D01*
X0197148Y0202030D01*
X0202616Y0202030D01*
X0206482Y0205896D01*
X0206482Y0207030D01*
X0210116Y0207030D01*
X0213982Y0210896D01*
X0213982Y0216364D01*
X0213982Y0212891D02*
X0233424Y0212891D01*
X0233043Y0208893D02*
X0211978Y0208893D01*
X0205480Y0204894D02*
X0235025Y0204894D01*
X0236747Y0220888D02*
X0205482Y0220888D01*
X0199882Y0220888D02*
X0199882Y0220888D01*
X0194282Y0220888D02*
X0129504Y0220888D01*
X0130139Y0220253D02*
X0126858Y0223534D01*
X0124539Y0223534D01*
X0124539Y0217934D01*
X0130139Y0217934D01*
X0130139Y0220253D01*
X0130139Y0217934D02*
X0124539Y0217934D01*
X0124539Y0217934D01*
X0124539Y0217934D01*
X0124539Y0212334D01*
X0126858Y0212334D01*
X0130139Y0215614D01*
X0130139Y0217934D01*
X0130139Y0216890D02*
X0194282Y0216890D01*
X0194809Y0212891D02*
X0127415Y0212891D01*
X0124539Y0212891D02*
X0124539Y0212891D01*
X0124539Y0212334D02*
X0124539Y0217934D01*
X0124539Y0217934D01*
X0124539Y0223534D01*
X0122219Y0223534D01*
X0120246Y0221561D01*
X0117272Y0224534D01*
X0112054Y0224534D01*
X0112551Y0225734D01*
X0112551Y0234518D01*
X0111485Y0237091D01*
X0109516Y0239060D01*
X0106944Y0240126D01*
X0104159Y0240126D01*
X0101586Y0239060D01*
X0100551Y0238025D01*
X0099516Y0239060D01*
X0096944Y0240126D01*
X0094159Y0240126D01*
X0091586Y0239060D01*
X0090551Y0238025D01*
X0089516Y0239060D01*
X0086944Y0240126D01*
X0084159Y0240126D01*
X0081586Y0239060D01*
X0079617Y0237091D01*
X0078551Y0234518D01*
X0078551Y0225734D01*
X0079617Y0223161D01*
X0081586Y0221192D01*
X0084159Y0220126D01*
X0086944Y0220126D01*
X0089516Y0221192D01*
X0090551Y0222227D01*
X0091586Y0221192D01*
X0094159Y0220126D01*
X0096944Y0220126D01*
X0099516Y0221192D01*
X0100551Y0222227D01*
X0101586Y0221192D01*
X0104159Y0220126D01*
X0106944Y0220126D01*
X0107939Y0220538D01*
X0107939Y0215200D01*
X0111805Y0211334D01*
X0117272Y0211334D01*
X0120246Y0214307D01*
X0122219Y0212334D01*
X0124539Y0212334D01*
X0121662Y0212891D02*
X0118830Y0212891D01*
X0124539Y0216890D02*
X0124539Y0216890D01*
X0124539Y0220888D02*
X0124539Y0220888D01*
X0134735Y0228161D02*
X0133669Y0230734D01*
X0133669Y0239518D01*
X0134735Y0242091D01*
X0136704Y0244060D01*
X0139277Y0245126D01*
X0142062Y0245126D01*
X0144634Y0244060D01*
X0145669Y0243025D01*
X0146704Y0244060D01*
X0149277Y0245126D01*
X0152062Y0245126D01*
X0154634Y0244060D01*
X0155669Y0243025D01*
X0156704Y0244060D01*
X0159277Y0245126D01*
X0162062Y0245126D01*
X0164634Y0244060D01*
X0166604Y0242091D01*
X0167669Y0239518D01*
X0167669Y0230734D01*
X0166604Y0228161D01*
X0164634Y0226192D01*
X0162062Y0225126D01*
X0159277Y0225126D01*
X0156704Y0226192D01*
X0155669Y0227227D01*
X0154634Y0226192D01*
X0152062Y0225126D01*
X0149277Y0225126D01*
X0146704Y0226192D01*
X0145669Y0227227D01*
X0144634Y0226192D01*
X0142062Y0225126D01*
X0139277Y0225126D01*
X0136704Y0226192D01*
X0134735Y0228161D01*
X0134435Y0228885D02*
X0112551Y0228885D01*
X0112551Y0232884D02*
X0133669Y0232884D01*
X0133669Y0236882D02*
X0111572Y0236882D01*
X0112200Y0224887D02*
X0233043Y0224887D01*
X0233043Y0228885D02*
X0166904Y0228885D01*
X0167669Y0232884D02*
X0235700Y0232884D01*
X0234471Y0240881D02*
X0204065Y0240881D01*
X0210563Y0244879D02*
X0233043Y0244879D01*
X0233978Y0248878D02*
X0213982Y0248878D01*
X0199882Y0256875D02*
X0199882Y0256875D01*
X0193394Y0248878D02*
X0056626Y0248878D01*
X0052903Y0244879D02*
X0138681Y0244879D01*
X0142657Y0244879D02*
X0148681Y0244879D01*
X0152657Y0244879D02*
X0158681Y0244879D01*
X0162657Y0244879D02*
X0193282Y0244879D01*
X0195699Y0240881D02*
X0167105Y0240881D01*
X0167669Y0236882D02*
X0323772Y0236882D01*
X0241639Y0171249D02*
X0241639Y0171249D01*
X0243189Y0160480D02*
X0243191Y0160356D01*
X0243197Y0160233D01*
X0243206Y0160109D01*
X0243220Y0159987D01*
X0243237Y0159864D01*
X0243259Y0159742D01*
X0243284Y0159621D01*
X0243313Y0159501D01*
X0243345Y0159382D01*
X0243382Y0159263D01*
X0243422Y0159146D01*
X0243465Y0159031D01*
X0243513Y0158916D01*
X0243564Y0158804D01*
X0243618Y0158693D01*
X0243676Y0158583D01*
X0243737Y0158476D01*
X0243802Y0158370D01*
X0243870Y0158267D01*
X0243941Y0158166D01*
X0244015Y0158067D01*
X0244092Y0157970D01*
X0244173Y0157876D01*
X0244256Y0157785D01*
X0244342Y0157696D01*
X0244431Y0157610D01*
X0244522Y0157527D01*
X0244616Y0157446D01*
X0244713Y0157369D01*
X0244812Y0157295D01*
X0244913Y0157224D01*
X0245016Y0157156D01*
X0245122Y0157091D01*
X0245229Y0157030D01*
X0245339Y0156972D01*
X0245450Y0156918D01*
X0245562Y0156867D01*
X0245677Y0156819D01*
X0245792Y0156776D01*
X0245909Y0156736D01*
X0246028Y0156699D01*
X0246147Y0156667D01*
X0246267Y0156638D01*
X0246388Y0156613D01*
X0246510Y0156591D01*
X0246633Y0156574D01*
X0246755Y0156560D01*
X0246879Y0156551D01*
X0247002Y0156545D01*
X0247126Y0156543D01*
X0213653Y0192899D02*
X0211859Y0192899D01*
X0203653Y0192899D02*
X0201859Y0192899D01*
X0193653Y0192899D02*
X0187697Y0192899D01*
X0186911Y0188900D02*
X0190924Y0188900D01*
X0190756Y0184902D02*
X0187697Y0184902D01*
X0186699Y0180903D02*
X0190756Y0180903D01*
X0192054Y0176904D02*
X0111159Y0176904D01*
X0111603Y0177349D02*
X0107620Y0173365D01*
X0101986Y0173365D01*
X0098003Y0177349D01*
X0098003Y0182982D01*
X0101986Y0186965D01*
X0107620Y0186965D01*
X0111603Y0182982D01*
X0111603Y0177349D01*
X0111603Y0180903D02*
X0153695Y0180903D01*
X0152697Y0184902D02*
X0109684Y0184902D01*
X0099923Y0184902D02*
X0058269Y0184902D01*
X0057206Y0185965D02*
X0054803Y0185965D01*
X0052401Y0185965D01*
X0049003Y0182568D01*
X0049003Y0180165D01*
X0049003Y0177763D01*
X0052401Y0174365D01*
X0054803Y0174365D01*
X0054803Y0180165D01*
X0054803Y0180165D01*
X0049003Y0180165D01*
X0054803Y0180165D01*
X0054803Y0180165D01*
X0054803Y0174365D01*
X0057206Y0174365D01*
X0060603Y0177763D01*
X0060603Y0180165D01*
X0054803Y0180165D01*
X0054803Y0180165D01*
X0060603Y0180165D01*
X0060603Y0182568D01*
X0057206Y0185965D01*
X0054803Y0185965D02*
X0054803Y0180165D01*
X0054803Y0185965D01*
X0054803Y0184902D02*
X0054803Y0184902D01*
X0051337Y0184902D02*
X0044241Y0184902D01*
X0044559Y0180903D02*
X0049003Y0180903D01*
X0054803Y0180903D02*
X0054803Y0180903D01*
X0054803Y0180165D02*
X0054803Y0180165D01*
X0054803Y0176904D02*
X0054803Y0176904D01*
X0049862Y0176904D02*
X0043396Y0176904D01*
X0042509Y0188900D02*
X0153482Y0188900D01*
X0152697Y0192899D02*
X0037914Y0192899D01*
X0027204Y0192899D02*
X0024811Y0192899D01*
X0024811Y0196897D02*
X0091803Y0196897D01*
X0091016Y0197684D02*
X0093070Y0195630D01*
X0095753Y0194519D01*
X0098657Y0194519D01*
X0101340Y0195630D01*
X0103393Y0197684D01*
X0104505Y0200367D01*
X0104505Y0203271D01*
X0103393Y0205954D01*
X0101340Y0208008D01*
X0098657Y0209119D01*
X0095753Y0209119D01*
X0093070Y0208008D01*
X0091016Y0205954D01*
X0089905Y0203271D01*
X0089905Y0200367D01*
X0091016Y0197684D01*
X0089905Y0200896D02*
X0024811Y0200896D01*
X0035999Y0204894D02*
X0072426Y0204894D01*
X0072413Y0204908D02*
X0076396Y0200924D01*
X0082029Y0200924D01*
X0086013Y0204908D01*
X0086013Y0210541D01*
X0082029Y0214524D01*
X0076396Y0214524D01*
X0072413Y0210541D01*
X0072413Y0204908D01*
X0072413Y0208893D02*
X0036013Y0208893D01*
X0033663Y0212891D02*
X0074763Y0212891D01*
X0083663Y0212891D02*
X0110248Y0212891D01*
X0107939Y0216890D02*
X0024811Y0216890D01*
X0024811Y0220888D02*
X0082319Y0220888D01*
X0078902Y0224887D02*
X0024811Y0224887D01*
X0032463Y0228885D02*
X0034069Y0228885D01*
X0037559Y0228885D02*
X0037559Y0228885D01*
X0037559Y0227715D02*
X0039879Y0227715D01*
X0043159Y0230995D01*
X0043159Y0233315D01*
X0043159Y0235635D01*
X0039879Y0238915D01*
X0037559Y0238915D01*
X0037559Y0233315D01*
X0037559Y0233315D01*
X0043159Y0233315D01*
X0037559Y0233315D01*
X0037559Y0233315D01*
X0037559Y0233315D01*
X0037559Y0227715D01*
X0041049Y0228885D02*
X0053597Y0228885D01*
X0054767Y0227715D02*
X0057087Y0227715D01*
X0059406Y0227715D01*
X0061426Y0229735D01*
X0061491Y0229576D01*
X0063348Y0227720D01*
X0065774Y0226715D01*
X0068399Y0226715D01*
X0070825Y0227720D01*
X0072682Y0229576D01*
X0073687Y0232002D01*
X0073687Y0234628D01*
X0072682Y0237054D01*
X0070825Y0238910D01*
X0068399Y0239915D01*
X0065774Y0239915D01*
X0063348Y0238910D01*
X0061491Y0237054D01*
X0061426Y0236895D01*
X0059406Y0238915D01*
X0057087Y0238915D01*
X0057087Y0233315D01*
X0057087Y0233315D01*
X0057087Y0227715D01*
X0057087Y0233315D01*
X0057087Y0233315D01*
X0057087Y0238915D01*
X0054767Y0238915D01*
X0051487Y0235635D01*
X0051487Y0233315D01*
X0057086Y0233315D01*
X0057086Y0233315D01*
X0051487Y0233315D01*
X0051487Y0230995D01*
X0054767Y0227715D01*
X0057087Y0228885D02*
X0057087Y0228885D01*
X0060576Y0228885D02*
X0062183Y0228885D01*
X0057087Y0232884D02*
X0057087Y0232884D01*
X0057087Y0236882D02*
X0057087Y0236882D01*
X0052734Y0236882D02*
X0041911Y0236882D01*
X0045559Y0243408D02*
X0046567Y0243294D01*
X0046567Y0253031D01*
X0048079Y0253031D01*
X0048079Y0254543D01*
X0046567Y0254543D01*
X0046567Y0253031D01*
X0036830Y0253031D01*
X0036943Y0252024D01*
X0037206Y0250873D01*
X0037596Y0249758D01*
X0038108Y0248695D01*
X0038736Y0247695D01*
X0039472Y0246772D01*
X0040307Y0245937D01*
X0041230Y0245201D01*
X0042230Y0244573D01*
X0043294Y0244060D01*
X0044408Y0243671D01*
X0045559Y0243408D01*
X0046567Y0244879D02*
X0048079Y0244879D01*
X0048079Y0248878D02*
X0046567Y0248878D01*
X0046567Y0252876D02*
X0048079Y0252876D01*
X0046567Y0254543D02*
X0036830Y0254543D01*
X0036943Y0255551D01*
X0037206Y0256702D01*
X0037596Y0257816D01*
X0038108Y0258880D01*
X0038736Y0259880D01*
X0039472Y0260803D01*
X0040307Y0261638D01*
X0041230Y0262374D01*
X0042230Y0263002D01*
X0043294Y0263514D01*
X0044408Y0263904D01*
X0045559Y0264167D01*
X0046567Y0264281D01*
X0046567Y0254543D01*
X0046567Y0256875D02*
X0048079Y0256875D01*
X0048079Y0260873D02*
X0046567Y0260873D01*
X0048963Y0264872D02*
X0040990Y0264872D01*
X0039543Y0260873D02*
X0024811Y0260873D01*
X0024811Y0256875D02*
X0037266Y0256875D01*
X0036847Y0252876D02*
X0024811Y0252876D01*
X0024811Y0248878D02*
X0038020Y0248878D01*
X0041742Y0244879D02*
X0024811Y0244879D01*
X0024811Y0240881D02*
X0134234Y0240881D01*
X0134231Y0260873D02*
X0061982Y0260873D01*
X0055105Y0260873D02*
X0055103Y0260873D01*
X0046832Y0268870D02*
X0043739Y0268870D01*
X0046244Y0272869D02*
X0034693Y0272869D01*
X0034693Y0268870D02*
X0033181Y0268870D01*
X0033181Y0264872D02*
X0034693Y0264872D01*
X0026884Y0264872D02*
X0024811Y0264872D01*
X0033181Y0276867D02*
X0034693Y0276867D01*
X0034693Y0280866D02*
X0033181Y0280866D01*
X0027336Y0280866D02*
X0024811Y0280866D01*
X0024811Y0284864D02*
X0056476Y0284864D01*
X0060610Y0284864D02*
X0077540Y0284864D01*
X0077051Y0286690D02*
X0078312Y0281985D01*
X0080747Y0277767D01*
X0084192Y0274322D01*
X0088410Y0271887D01*
X0093116Y0270626D01*
X0097987Y0270626D01*
X0102692Y0271887D01*
X0106910Y0274322D01*
X0110355Y0277767D01*
X0112790Y0281985D01*
X0114051Y0286690D01*
X0114051Y0291562D01*
X0112790Y0296267D01*
X0110355Y0300485D01*
X0106910Y0303930D01*
X0102692Y0306365D01*
X0097987Y0307626D01*
X0093116Y0307626D01*
X0088410Y0306365D01*
X0084192Y0303930D01*
X0080747Y0300485D01*
X0078312Y0296267D01*
X0077051Y0291562D01*
X0077051Y0286690D01*
X0077051Y0288863D02*
X0024811Y0288863D01*
X0016811Y0298276D02*
X0016811Y0030559D01*
X0024811Y0032958D02*
X0026353Y0032958D01*
X0016811Y0030559D02*
X0016794Y0029964D01*
X0016792Y0029369D01*
X0016804Y0028774D01*
X0016831Y0028180D01*
X0016871Y0027586D01*
X0016927Y0026994D01*
X0016996Y0026403D01*
X0017080Y0025813D01*
X0017178Y0025226D01*
X0017290Y0024642D01*
X0017416Y0024060D01*
X0017557Y0023482D01*
X0017711Y0022907D01*
X0017879Y0022336D01*
X0018061Y0021770D01*
X0018256Y0021208D01*
X0018465Y0020650D01*
X0018687Y0020098D01*
X0018923Y0019552D01*
X0019172Y0019011D01*
X0019434Y0018477D01*
X0019708Y0017949D01*
X0019995Y0017428D01*
X0020295Y0016914D01*
X0020607Y0016407D01*
X0020932Y0015908D01*
X0021268Y0015417D01*
X0021616Y0014934D01*
X0021975Y0014460D01*
X0022346Y0013995D01*
X0022728Y0013538D01*
X0023121Y0013092D01*
X0023525Y0012654D01*
X0023939Y0012227D01*
X0024363Y0011810D01*
X0024798Y0011403D01*
X0025241Y0011006D01*
X0025695Y0010621D01*
X0026157Y0010247D01*
X0026629Y0009884D01*
X0027109Y0009532D01*
X0027598Y0009192D01*
X0028094Y0008864D01*
X0028599Y0008548D01*
X0029110Y0008245D01*
X0029629Y0007953D01*
X0030155Y0007675D01*
X0030688Y0007409D01*
X0031226Y0007156D01*
X0031771Y0006917D01*
X0032322Y0006690D01*
X0032877Y0006477D01*
X0033438Y0006278D01*
X0034003Y0006092D01*
X0034573Y0005919D01*
X0035146Y0005761D01*
X0035724Y0005616D01*
X0036304Y0005486D01*
X0036888Y0005369D01*
X0037474Y0005267D01*
X0038062Y0005179D01*
X0038653Y0005105D01*
X0039245Y0005045D01*
X0039838Y0005000D01*
X0040433Y0004969D01*
X0039838Y0005000D01*
X0039245Y0005045D01*
X0038653Y0005105D01*
X0038062Y0005179D01*
X0037474Y0005267D01*
X0036888Y0005369D01*
X0036304Y0005486D01*
X0035724Y0005616D01*
X0035146Y0005761D01*
X0034573Y0005919D01*
X0034003Y0006092D01*
X0033438Y0006278D01*
X0032877Y0006477D01*
X0032322Y0006690D01*
X0031771Y0006917D01*
X0031226Y0007156D01*
X0030688Y0007409D01*
X0030155Y0007675D01*
X0029629Y0007953D01*
X0029110Y0008245D01*
X0028599Y0008548D01*
X0028094Y0008864D01*
X0027598Y0009192D01*
X0027109Y0009532D01*
X0026629Y0009884D01*
X0026157Y0010247D01*
X0025695Y0010621D01*
X0025241Y0011006D01*
X0024798Y0011403D01*
X0024363Y0011810D01*
X0023939Y0012227D01*
X0023525Y0012654D01*
X0023121Y0013092D01*
X0022728Y0013538D01*
X0022346Y0013995D01*
X0021975Y0014460D01*
X0021616Y0014934D01*
X0021268Y0015417D01*
X0020932Y0015908D01*
X0020607Y0016407D01*
X0020295Y0016914D01*
X0019995Y0017428D01*
X0019708Y0017949D01*
X0019434Y0018477D01*
X0019172Y0019011D01*
X0018923Y0019552D01*
X0018687Y0020098D01*
X0018465Y0020650D01*
X0018256Y0021208D01*
X0018061Y0021770D01*
X0017879Y0022336D01*
X0017711Y0022907D01*
X0017557Y0023482D01*
X0017416Y0024060D01*
X0017290Y0024642D01*
X0017178Y0025226D01*
X0017080Y0025813D01*
X0016996Y0026403D01*
X0016927Y0026994D01*
X0016871Y0027586D01*
X0016831Y0028180D01*
X0016804Y0028774D01*
X0016792Y0029369D01*
X0016794Y0029964D01*
X0016811Y0030559D01*
X0070122Y0108930D02*
X0142013Y0108930D01*
X0076287Y0112928D02*
X0070843Y0112928D01*
X0070287Y0116927D02*
X0075598Y0116927D01*
X0075598Y0120925D02*
X0068248Y0120925D01*
X0062445Y0124924D02*
X0076239Y0124924D01*
X0075189Y0140918D02*
X0072176Y0140918D01*
X0068071Y0140918D02*
X0068071Y0140918D01*
X0063966Y0140918D02*
X0063590Y0140918D01*
X0073671Y0144916D02*
X0074109Y0144916D01*
X0059745Y0176904D02*
X0098447Y0176904D01*
X0098003Y0180903D02*
X0060603Y0180903D01*
X0085999Y0204894D02*
X0090577Y0204894D01*
X0086013Y0208893D02*
X0095206Y0208893D01*
X0099203Y0208893D02*
X0135206Y0208893D01*
X0135753Y0209119D02*
X0133070Y0208008D01*
X0131016Y0205954D01*
X0129905Y0203271D01*
X0129905Y0200367D01*
X0131016Y0197684D01*
X0133070Y0195630D01*
X0135753Y0194519D01*
X0138657Y0194519D01*
X0141340Y0195630D01*
X0143393Y0197684D01*
X0144505Y0200367D01*
X0144505Y0203271D01*
X0143393Y0205954D01*
X0141340Y0208008D01*
X0138657Y0209119D01*
X0135753Y0209119D01*
X0139203Y0208893D02*
X0193282Y0208893D01*
X0194284Y0204894D02*
X0143832Y0204894D01*
X0144505Y0200896D02*
X0155478Y0200896D01*
X0152697Y0196897D02*
X0142607Y0196897D01*
X0131803Y0196897D02*
X0102607Y0196897D01*
X0104505Y0200896D02*
X0129905Y0200896D01*
X0130577Y0204894D02*
X0103832Y0204894D01*
X0102319Y0220888D02*
X0098784Y0220888D01*
X0092319Y0220888D02*
X0088784Y0220888D01*
X0078551Y0228885D02*
X0071991Y0228885D01*
X0073687Y0232884D02*
X0078551Y0232884D01*
X0079530Y0236882D02*
X0072753Y0236882D01*
X0051487Y0232884D02*
X0043159Y0232884D01*
X0037559Y0232884D02*
X0037559Y0232884D01*
X0037559Y0236882D02*
X0037559Y0236882D01*
X0068124Y0264872D02*
X0133669Y0264872D01*
X0133669Y0268870D02*
X0070254Y0268870D01*
X0070843Y0272869D02*
X0086709Y0272869D01*
X0081647Y0276867D02*
X0070156Y0276867D01*
X0067756Y0280866D02*
X0078958Y0280866D01*
X0077399Y0292861D02*
X0038210Y0292861D01*
X0016811Y0298276D02*
X0016865Y0298798D01*
X0016932Y0299319D01*
X0017011Y0299839D01*
X0017102Y0300356D01*
X0017206Y0300871D01*
X0017323Y0301384D01*
X0017452Y0301893D01*
X0017593Y0302399D01*
X0017746Y0302902D01*
X0017912Y0303400D01*
X0018089Y0303895D01*
X0018278Y0304385D01*
X0018479Y0304871D01*
X0018692Y0305351D01*
X0018916Y0305826D01*
X0019152Y0306296D01*
X0019399Y0306759D01*
X0019657Y0307217D01*
X0019926Y0307668D01*
X0020206Y0308113D01*
X0020497Y0308551D01*
X0020798Y0308981D01*
X0021110Y0309405D01*
X0021431Y0309820D01*
X0021763Y0310228D01*
X0022104Y0310627D01*
X0022455Y0311018D01*
X0022815Y0311401D01*
X0023184Y0311775D01*
X0023562Y0312140D01*
X0023949Y0312495D01*
X0024345Y0312841D01*
X0024748Y0313177D01*
X0025160Y0313504D01*
X0025579Y0313820D01*
X0026006Y0314127D01*
X0026441Y0314422D01*
X0026882Y0314708D01*
X0027330Y0314982D01*
X0027784Y0315246D01*
X0028245Y0315498D01*
X0028712Y0315740D01*
X0029184Y0315970D01*
X0029662Y0316188D01*
X0030145Y0316395D01*
X0030633Y0316590D01*
X0031125Y0316774D01*
X0031622Y0316945D01*
X0032123Y0317104D01*
X0032627Y0317252D01*
X0033135Y0317387D01*
X0033646Y0317509D01*
X0034160Y0317619D01*
X0034676Y0317717D01*
X0035194Y0317803D01*
X0035715Y0317875D01*
X0036237Y0317936D01*
X0036760Y0317983D01*
X0037284Y0318018D01*
X0037809Y0318040D01*
X0038334Y0318050D01*
X0038860Y0318046D01*
X0039385Y0318031D01*
X0039910Y0318002D01*
X0040434Y0317961D01*
X0042305Y0304857D02*
X0085798Y0304857D01*
X0081121Y0300858D02*
X0042591Y0300858D01*
X0041357Y0296860D02*
X0078654Y0296860D01*
X0105305Y0304857D02*
X0134641Y0304857D01*
X0134735Y0305083D02*
X0133669Y0302510D01*
X0133669Y0293726D01*
X0134735Y0291153D01*
X0136704Y0289184D01*
X0139277Y0288118D01*
X0142062Y0288118D01*
X0144634Y0289184D01*
X0145669Y0290219D01*
X0146704Y0289184D01*
X0149277Y0288118D01*
X0152062Y0288118D01*
X0154634Y0289184D01*
X0155669Y0290219D01*
X0156704Y0289184D01*
X0159277Y0288118D01*
X0162062Y0288118D01*
X0164634Y0289184D01*
X0166604Y0291153D01*
X0167669Y0293726D01*
X0167669Y0302510D01*
X0166604Y0305083D01*
X0164634Y0307052D01*
X0162062Y0308118D01*
X0159277Y0308118D01*
X0156704Y0307052D01*
X0155669Y0306018D01*
X0154634Y0307052D01*
X0152062Y0308118D01*
X0149277Y0308118D01*
X0146704Y0307052D01*
X0145669Y0306018D01*
X0144634Y0307052D01*
X0142062Y0308118D01*
X0139277Y0308118D01*
X0136704Y0307052D01*
X0134735Y0305083D01*
X0133669Y0300858D02*
X0109982Y0300858D01*
X0112448Y0296860D02*
X0133669Y0296860D01*
X0134027Y0292861D02*
X0113703Y0292861D01*
X0114051Y0288863D02*
X0137479Y0288863D01*
X0143860Y0288863D02*
X0147479Y0288863D01*
X0153860Y0288863D02*
X0157479Y0288863D01*
X0163860Y0288863D02*
X0195978Y0288863D01*
X0193282Y0284864D02*
X0113562Y0284864D01*
X0112144Y0280866D02*
X0193282Y0280866D01*
X0197114Y0276867D02*
X0109455Y0276867D01*
X0104393Y0272869D02*
X0134437Y0272869D01*
X0167311Y0292861D02*
X0194282Y0292861D01*
X0194282Y0293433D02*
X0199882Y0293433D01*
X0199882Y0293433D01*
X0199882Y0299033D01*
X0197562Y0299033D01*
X0194282Y0295753D01*
X0194282Y0293433D01*
X0195389Y0296860D02*
X0167669Y0296860D01*
X0167669Y0300858D02*
X0233043Y0300858D01*
X0233043Y0296860D02*
X0204375Y0296860D01*
X0199882Y0296860D02*
X0199882Y0296860D01*
X0213147Y0284864D02*
X0234531Y0284864D01*
X0233043Y0280866D02*
X0206482Y0280866D01*
X0202650Y0276867D02*
X0233918Y0276867D01*
X0236807Y0304857D02*
X0166697Y0304857D01*
X0165478Y0200896D02*
X0164916Y0200896D01*
X0174916Y0200896D02*
X0175478Y0200896D01*
X0049330Y0280866D02*
X0040538Y0280866D01*
X0043590Y0276867D02*
X0046931Y0276867D01*
X0016811Y0298276D02*
X0016865Y0298798D01*
X0016932Y0299319D01*
X0017011Y0299839D01*
X0017102Y0300356D01*
X0017206Y0300871D01*
X0017323Y0301384D01*
X0017452Y0301893D01*
X0017593Y0302399D01*
X0017746Y0302902D01*
X0017912Y0303400D01*
X0018089Y0303895D01*
X0018278Y0304385D01*
X0018479Y0304871D01*
X0018692Y0305351D01*
X0018916Y0305826D01*
X0019152Y0306296D01*
X0019399Y0306759D01*
X0019657Y0307217D01*
X0019926Y0307668D01*
X0020206Y0308113D01*
X0020497Y0308551D01*
X0020798Y0308981D01*
X0021110Y0309405D01*
X0021431Y0309820D01*
X0021763Y0310228D01*
X0022104Y0310627D01*
X0022455Y0311018D01*
X0022815Y0311401D01*
X0023184Y0311775D01*
X0023562Y0312140D01*
X0023949Y0312495D01*
X0024345Y0312841D01*
X0024748Y0313177D01*
X0025160Y0313504D01*
X0025579Y0313820D01*
X0026006Y0314127D01*
X0026441Y0314422D01*
X0026882Y0314708D01*
X0027330Y0314982D01*
X0027784Y0315246D01*
X0028245Y0315498D01*
X0028712Y0315740D01*
X0029184Y0315970D01*
X0029662Y0316188D01*
X0030145Y0316395D01*
X0030633Y0316590D01*
X0031125Y0316774D01*
X0031622Y0316945D01*
X0032123Y0317104D01*
X0032627Y0317252D01*
X0033135Y0317387D01*
X0033646Y0317509D01*
X0034160Y0317619D01*
X0034676Y0317717D01*
X0035194Y0317803D01*
X0035715Y0317875D01*
X0036237Y0317936D01*
X0036760Y0317983D01*
X0037284Y0318018D01*
X0037809Y0318040D01*
X0038334Y0318050D01*
X0038860Y0318046D01*
X0039385Y0318031D01*
X0039910Y0318002D01*
X0040434Y0317961D01*
X0026760Y0120925D02*
X0024811Y0120925D01*
D13*
X0058071Y0144732D03*
X0068071Y0144732D03*
X0090709Y0144732D03*
X0123694Y0131310D03*
X0131194Y0126310D03*
X0123694Y0121310D03*
X0122126Y0093630D03*
X0129626Y0088630D03*
X0122126Y0083630D03*
X0123494Y0055850D03*
X0130994Y0050850D03*
X0123494Y0045850D03*
X0199882Y0208630D03*
X0207382Y0213630D03*
X0199882Y0218630D03*
X0199882Y0246031D03*
X0207382Y0251031D03*
X0199882Y0256031D03*
X0199882Y0283433D03*
X0207382Y0288433D03*
X0199882Y0293433D03*
X0124539Y0217934D03*
X0114539Y0217934D03*
X0057087Y0233315D03*
X0037559Y0233315D03*
D14*
X0058543Y0272685D03*
X0058543Y0113236D03*
D15*
X0047323Y0094339D03*
X0033937Y0113236D03*
X0047323Y0253787D03*
X0033937Y0272685D03*
D16*
X0085551Y0233126D02*
X0085551Y0227126D01*
X0095551Y0227126D02*
X0095551Y0233126D01*
X0105551Y0233126D02*
X0105551Y0227126D01*
X0140669Y0232126D02*
X0140669Y0238126D01*
X0150669Y0238126D02*
X0150669Y0232126D01*
X0160669Y0232126D02*
X0160669Y0238126D01*
X0160669Y0263622D02*
X0160669Y0269622D01*
X0150669Y0269622D02*
X0150669Y0263622D01*
X0140669Y0263622D02*
X0140669Y0269622D01*
X0140669Y0295118D02*
X0140669Y0301118D01*
X0150669Y0301118D02*
X0150669Y0295118D01*
X0160669Y0295118D02*
X0160669Y0301118D01*
X0197756Y0187102D02*
X0197756Y0181102D01*
X0207756Y0181102D02*
X0207756Y0187102D01*
X0217756Y0187102D02*
X0217756Y0181102D01*
X0102598Y0121984D02*
X0102598Y0115984D01*
X0092598Y0115984D02*
X0092598Y0121984D01*
X0082598Y0121984D02*
X0082598Y0115984D01*
X0082598Y0089504D02*
X0082598Y0083504D01*
X0092598Y0083504D02*
X0092598Y0089504D01*
X0102598Y0089504D02*
X0102598Y0083504D01*
X0103583Y0057024D02*
X0103583Y0051024D01*
X0093583Y0051024D02*
X0093583Y0057024D01*
X0083583Y0057024D02*
X0083583Y0051024D01*
X0070118Y0021748D02*
X0070118Y0015748D01*
X0060118Y0015748D02*
X0060118Y0021748D01*
X0050118Y0021748D02*
X0050118Y0015748D01*
D17*
X0145354Y0039417D03*
X0145354Y0058118D03*
X0145354Y0076819D03*
X0145354Y0095520D03*
X0146339Y0114220D03*
X0146339Y0132921D03*
X0196339Y0132921D03*
X0196339Y0114220D03*
X0195354Y0095520D03*
X0195354Y0076819D03*
X0195354Y0058118D03*
X0195354Y0039417D03*
X0104803Y0180165D03*
X0079213Y0207724D03*
X0054803Y0180165D03*
X0029213Y0207724D03*
X0239843Y0209693D03*
X0239843Y0227409D03*
X0239843Y0245126D03*
X0239843Y0262843D03*
X0239843Y0280559D03*
X0239843Y0298276D03*
X0289843Y0298276D03*
X0289843Y0280559D03*
X0289843Y0262843D03*
X0289843Y0245126D03*
X0289843Y0227409D03*
X0289843Y0209693D03*
D18*
X0080709Y0144732D03*
X0067087Y0233315D03*
X0027559Y0233315D03*
D19*
X0160197Y0195008D03*
X0170197Y0195008D03*
X0180197Y0195008D03*
X0180197Y0185008D03*
X0170197Y0185008D03*
X0160197Y0185008D03*
X0047911Y0067237D03*
X0037911Y0067237D03*
X0037911Y0057237D03*
X0047911Y0057237D03*
X0047911Y0047237D03*
X0037911Y0047237D03*
D20*
X0097205Y0201819D03*
X0137205Y0201819D03*
M02*
