G75*
%MOIN*%
%OFA0B0*%
%FSLAX25Y25*%
%IPPOS*%
%LPD*%
%AMOC8*
5,1,8,0,0,1.08239X$1,22.5*
%
%ADD10C,0.00600*%
%ADD11C,0.00000*%
%ADD12C,0.04000*%
%ADD13R,0.03898X0.00433*%
%ADD14R,0.03031X0.00433*%
%ADD15R,0.02165X0.00433*%
%ADD16R,0.02598X0.00433*%
%ADD17R,0.03465X0.00433*%
%ADD18R,0.04764X0.00433*%
%ADD19R,0.06496X0.00433*%
%ADD20R,0.05197X0.00433*%
%ADD21R,0.05630X0.00433*%
%ADD22R,0.06929X0.00433*%
%ADD23R,0.06063X0.00433*%
%ADD24R,0.07362X0.00433*%
%ADD25R,0.01732X0.00433*%
%ADD26R,0.00433X0.00433*%
%ADD27R,0.07795X0.00433*%
%ADD28R,0.01299X0.00433*%
%ADD29R,0.00866X0.00433*%
%ADD30R,0.08661X0.00433*%
%ADD31R,0.09961X0.00433*%
%ADD32R,0.11260X0.00433*%
%ADD33R,0.12559X0.00433*%
%ADD34R,0.13425X0.00433*%
%ADD35R,0.14291X0.00433*%
%ADD36R,0.15591X0.00433*%
%ADD37R,0.16024X0.00433*%
%ADD38R,0.17323X0.00433*%
%ADD39R,0.18189X0.00433*%
%ADD40R,0.18622X0.00433*%
%ADD41R,0.19921X0.00433*%
%ADD42R,0.20787X0.00433*%
%ADD43R,0.21220X0.00433*%
%ADD44R,0.22087X0.00433*%
%ADD45R,0.22520X0.00433*%
%ADD46R,0.23386X0.00433*%
%ADD47R,0.24252X0.00433*%
%ADD48R,0.24685X0.00433*%
%ADD49R,0.25551X0.00433*%
%ADD50R,0.26417X0.00433*%
%ADD51R,0.27283X0.00433*%
%ADD52R,0.28150X0.00433*%
%ADD53R,0.28583X0.00433*%
%ADD54R,0.29016X0.00433*%
%ADD55R,0.29449X0.00433*%
%ADD56R,0.30315X0.00433*%
%ADD57R,0.30748X0.00433*%
%ADD58R,0.31181X0.00433*%
%ADD59R,0.32047X0.00433*%
%ADD60R,0.32480X0.00433*%
%ADD61R,0.32913X0.00433*%
%ADD62R,0.33346X0.00433*%
%ADD63R,0.33780X0.00433*%
%ADD64R,0.34213X0.00433*%
%ADD65R,0.35079X0.00433*%
%ADD66R,0.23819X0.00433*%
%ADD67R,0.04331X0.00433*%
%ADD68R,0.20354X0.00433*%
%ADD69R,0.15157X0.00433*%
%ADD70R,0.13858X0.00433*%
%ADD71R,0.12126X0.00433*%
%ADD72R,0.10827X0.00433*%
%ADD73R,0.09094X0.00433*%
%ADD74R,0.08228X0.00433*%
%ADD75R,0.09528X0.00433*%
%ADD76R,0.10394X0.00433*%
%ADD77R,0.11693X0.00433*%
%ADD78R,0.19488X0.00433*%
%ADD79R,0.16890X0.00433*%
%ADD80R,0.21654X0.00433*%
%ADD81R,0.50236X0.00433*%
%ADD82R,0.50669X0.00433*%
%ADD83R,0.49803X0.00433*%
%ADD84R,0.48937X0.00433*%
%ADD85R,0.48071X0.00433*%
%ADD86R,0.47638X0.00433*%
%ADD87R,0.47205X0.00433*%
%ADD88R,0.46339X0.00433*%
%ADD89R,0.45472X0.00433*%
%ADD90R,0.44606X0.00433*%
%ADD91R,0.43740X0.00433*%
%ADD92R,0.42874X0.00433*%
%ADD93R,0.42008X0.00433*%
%ADD94R,0.41142X0.00433*%
%ADD95R,0.40276X0.00433*%
%ADD96R,0.39409X0.00433*%
%ADD97R,0.38543X0.00433*%
%ADD98R,0.37677X0.00433*%
%ADD99R,0.35945X0.00433*%
%ADD100R,0.31614X0.00433*%
%ADD101R,0.29882X0.00433*%
%ADD102R,0.22953X0.00433*%
%ADD103R,0.17756X0.00433*%
%ADD104C,0.01700*%
D10*
X0016811Y0026622D02*
X0016811Y0030559D01*
X0016811Y0140795D01*
X0036496Y0156543D02*
X0203819Y0156543D01*
X0016811Y0186071D02*
X0016811Y0298276D01*
X0016811Y0300244D01*
D11*
X0024591Y0302213D02*
X0024593Y0302367D01*
X0024599Y0302522D01*
X0024609Y0302676D01*
X0024623Y0302830D01*
X0024641Y0302983D01*
X0024662Y0303136D01*
X0024688Y0303289D01*
X0024718Y0303440D01*
X0024751Y0303591D01*
X0024789Y0303741D01*
X0024830Y0303890D01*
X0024875Y0304038D01*
X0024924Y0304184D01*
X0024977Y0304330D01*
X0025033Y0304473D01*
X0025093Y0304616D01*
X0025157Y0304756D01*
X0025224Y0304896D01*
X0025295Y0305033D01*
X0025369Y0305168D01*
X0025447Y0305302D01*
X0025528Y0305433D01*
X0025613Y0305562D01*
X0025701Y0305690D01*
X0025792Y0305814D01*
X0025886Y0305937D01*
X0025984Y0306057D01*
X0026084Y0306174D01*
X0026188Y0306289D01*
X0026294Y0306401D01*
X0026403Y0306510D01*
X0026515Y0306616D01*
X0026630Y0306720D01*
X0026747Y0306820D01*
X0026867Y0306918D01*
X0026990Y0307012D01*
X0027114Y0307103D01*
X0027242Y0307191D01*
X0027371Y0307276D01*
X0027502Y0307357D01*
X0027636Y0307435D01*
X0027771Y0307509D01*
X0027908Y0307580D01*
X0028048Y0307647D01*
X0028188Y0307711D01*
X0028331Y0307771D01*
X0028474Y0307827D01*
X0028620Y0307880D01*
X0028766Y0307929D01*
X0028914Y0307974D01*
X0029063Y0308015D01*
X0029213Y0308053D01*
X0029364Y0308086D01*
X0029515Y0308116D01*
X0029668Y0308142D01*
X0029821Y0308163D01*
X0029974Y0308181D01*
X0030128Y0308195D01*
X0030282Y0308205D01*
X0030437Y0308211D01*
X0030591Y0308213D01*
X0030745Y0308211D01*
X0030900Y0308205D01*
X0031054Y0308195D01*
X0031208Y0308181D01*
X0031361Y0308163D01*
X0031514Y0308142D01*
X0031667Y0308116D01*
X0031818Y0308086D01*
X0031969Y0308053D01*
X0032119Y0308015D01*
X0032268Y0307974D01*
X0032416Y0307929D01*
X0032562Y0307880D01*
X0032708Y0307827D01*
X0032851Y0307771D01*
X0032994Y0307711D01*
X0033134Y0307647D01*
X0033274Y0307580D01*
X0033411Y0307509D01*
X0033546Y0307435D01*
X0033680Y0307357D01*
X0033811Y0307276D01*
X0033940Y0307191D01*
X0034068Y0307103D01*
X0034192Y0307012D01*
X0034315Y0306918D01*
X0034435Y0306820D01*
X0034552Y0306720D01*
X0034667Y0306616D01*
X0034779Y0306510D01*
X0034888Y0306401D01*
X0034994Y0306289D01*
X0035098Y0306174D01*
X0035198Y0306057D01*
X0035296Y0305937D01*
X0035390Y0305814D01*
X0035481Y0305690D01*
X0035569Y0305562D01*
X0035654Y0305433D01*
X0035735Y0305302D01*
X0035813Y0305168D01*
X0035887Y0305033D01*
X0035958Y0304896D01*
X0036025Y0304756D01*
X0036089Y0304616D01*
X0036149Y0304473D01*
X0036205Y0304330D01*
X0036258Y0304184D01*
X0036307Y0304038D01*
X0036352Y0303890D01*
X0036393Y0303741D01*
X0036431Y0303591D01*
X0036464Y0303440D01*
X0036494Y0303289D01*
X0036520Y0303136D01*
X0036541Y0302983D01*
X0036559Y0302830D01*
X0036573Y0302676D01*
X0036583Y0302522D01*
X0036589Y0302367D01*
X0036591Y0302213D01*
X0036589Y0302059D01*
X0036583Y0301904D01*
X0036573Y0301750D01*
X0036559Y0301596D01*
X0036541Y0301443D01*
X0036520Y0301290D01*
X0036494Y0301137D01*
X0036464Y0300986D01*
X0036431Y0300835D01*
X0036393Y0300685D01*
X0036352Y0300536D01*
X0036307Y0300388D01*
X0036258Y0300242D01*
X0036205Y0300096D01*
X0036149Y0299953D01*
X0036089Y0299810D01*
X0036025Y0299670D01*
X0035958Y0299530D01*
X0035887Y0299393D01*
X0035813Y0299258D01*
X0035735Y0299124D01*
X0035654Y0298993D01*
X0035569Y0298864D01*
X0035481Y0298736D01*
X0035390Y0298612D01*
X0035296Y0298489D01*
X0035198Y0298369D01*
X0035098Y0298252D01*
X0034994Y0298137D01*
X0034888Y0298025D01*
X0034779Y0297916D01*
X0034667Y0297810D01*
X0034552Y0297706D01*
X0034435Y0297606D01*
X0034315Y0297508D01*
X0034192Y0297414D01*
X0034068Y0297323D01*
X0033940Y0297235D01*
X0033811Y0297150D01*
X0033680Y0297069D01*
X0033546Y0296991D01*
X0033411Y0296917D01*
X0033274Y0296846D01*
X0033134Y0296779D01*
X0032994Y0296715D01*
X0032851Y0296655D01*
X0032708Y0296599D01*
X0032562Y0296546D01*
X0032416Y0296497D01*
X0032268Y0296452D01*
X0032119Y0296411D01*
X0031969Y0296373D01*
X0031818Y0296340D01*
X0031667Y0296310D01*
X0031514Y0296284D01*
X0031361Y0296263D01*
X0031208Y0296245D01*
X0031054Y0296231D01*
X0030900Y0296221D01*
X0030745Y0296215D01*
X0030591Y0296213D01*
X0030437Y0296215D01*
X0030282Y0296221D01*
X0030128Y0296231D01*
X0029974Y0296245D01*
X0029821Y0296263D01*
X0029668Y0296284D01*
X0029515Y0296310D01*
X0029364Y0296340D01*
X0029213Y0296373D01*
X0029063Y0296411D01*
X0028914Y0296452D01*
X0028766Y0296497D01*
X0028620Y0296546D01*
X0028474Y0296599D01*
X0028331Y0296655D01*
X0028188Y0296715D01*
X0028048Y0296779D01*
X0027908Y0296846D01*
X0027771Y0296917D01*
X0027636Y0296991D01*
X0027502Y0297069D01*
X0027371Y0297150D01*
X0027242Y0297235D01*
X0027114Y0297323D01*
X0026990Y0297414D01*
X0026867Y0297508D01*
X0026747Y0297606D01*
X0026630Y0297706D01*
X0026515Y0297810D01*
X0026403Y0297916D01*
X0026294Y0298025D01*
X0026188Y0298137D01*
X0026084Y0298252D01*
X0025984Y0298369D01*
X0025886Y0298489D01*
X0025792Y0298612D01*
X0025701Y0298736D01*
X0025613Y0298864D01*
X0025528Y0298993D01*
X0025447Y0299124D01*
X0025369Y0299258D01*
X0025295Y0299393D01*
X0025224Y0299530D01*
X0025157Y0299670D01*
X0025093Y0299810D01*
X0025033Y0299953D01*
X0024977Y0300096D01*
X0024924Y0300242D01*
X0024875Y0300388D01*
X0024830Y0300536D01*
X0024789Y0300685D01*
X0024751Y0300835D01*
X0024718Y0300986D01*
X0024688Y0301137D01*
X0024662Y0301290D01*
X0024641Y0301443D01*
X0024623Y0301596D01*
X0024609Y0301750D01*
X0024599Y0301904D01*
X0024593Y0302059D01*
X0024591Y0302213D01*
X0089051Y0289126D02*
X0089053Y0289287D01*
X0089059Y0289447D01*
X0089069Y0289608D01*
X0089083Y0289768D01*
X0089101Y0289928D01*
X0089122Y0290087D01*
X0089148Y0290246D01*
X0089178Y0290404D01*
X0089211Y0290561D01*
X0089249Y0290718D01*
X0089290Y0290873D01*
X0089335Y0291027D01*
X0089384Y0291180D01*
X0089437Y0291332D01*
X0089493Y0291483D01*
X0089554Y0291632D01*
X0089617Y0291780D01*
X0089685Y0291926D01*
X0089756Y0292070D01*
X0089830Y0292212D01*
X0089908Y0292353D01*
X0089990Y0292491D01*
X0090075Y0292628D01*
X0090163Y0292762D01*
X0090255Y0292894D01*
X0090350Y0293024D01*
X0090448Y0293152D01*
X0090549Y0293277D01*
X0090653Y0293399D01*
X0090760Y0293519D01*
X0090870Y0293636D01*
X0090983Y0293751D01*
X0091099Y0293862D01*
X0091218Y0293971D01*
X0091339Y0294076D01*
X0091463Y0294179D01*
X0091589Y0294279D01*
X0091717Y0294375D01*
X0091848Y0294468D01*
X0091982Y0294558D01*
X0092117Y0294645D01*
X0092255Y0294728D01*
X0092394Y0294808D01*
X0092536Y0294884D01*
X0092679Y0294957D01*
X0092824Y0295026D01*
X0092971Y0295092D01*
X0093119Y0295154D01*
X0093269Y0295212D01*
X0093420Y0295267D01*
X0093573Y0295318D01*
X0093727Y0295365D01*
X0093882Y0295408D01*
X0094038Y0295447D01*
X0094194Y0295483D01*
X0094352Y0295514D01*
X0094510Y0295542D01*
X0094669Y0295566D01*
X0094829Y0295586D01*
X0094989Y0295602D01*
X0095149Y0295614D01*
X0095310Y0295622D01*
X0095471Y0295626D01*
X0095631Y0295626D01*
X0095792Y0295622D01*
X0095953Y0295614D01*
X0096113Y0295602D01*
X0096273Y0295586D01*
X0096433Y0295566D01*
X0096592Y0295542D01*
X0096750Y0295514D01*
X0096908Y0295483D01*
X0097064Y0295447D01*
X0097220Y0295408D01*
X0097375Y0295365D01*
X0097529Y0295318D01*
X0097682Y0295267D01*
X0097833Y0295212D01*
X0097983Y0295154D01*
X0098131Y0295092D01*
X0098278Y0295026D01*
X0098423Y0294957D01*
X0098566Y0294884D01*
X0098708Y0294808D01*
X0098847Y0294728D01*
X0098985Y0294645D01*
X0099120Y0294558D01*
X0099254Y0294468D01*
X0099385Y0294375D01*
X0099513Y0294279D01*
X0099639Y0294179D01*
X0099763Y0294076D01*
X0099884Y0293971D01*
X0100003Y0293862D01*
X0100119Y0293751D01*
X0100232Y0293636D01*
X0100342Y0293519D01*
X0100449Y0293399D01*
X0100553Y0293277D01*
X0100654Y0293152D01*
X0100752Y0293024D01*
X0100847Y0292894D01*
X0100939Y0292762D01*
X0101027Y0292628D01*
X0101112Y0292491D01*
X0101194Y0292353D01*
X0101272Y0292212D01*
X0101346Y0292070D01*
X0101417Y0291926D01*
X0101485Y0291780D01*
X0101548Y0291632D01*
X0101609Y0291483D01*
X0101665Y0291332D01*
X0101718Y0291180D01*
X0101767Y0291027D01*
X0101812Y0290873D01*
X0101853Y0290718D01*
X0101891Y0290561D01*
X0101924Y0290404D01*
X0101954Y0290246D01*
X0101980Y0290087D01*
X0102001Y0289928D01*
X0102019Y0289768D01*
X0102033Y0289608D01*
X0102043Y0289447D01*
X0102049Y0289287D01*
X0102051Y0289126D01*
X0102049Y0288965D01*
X0102043Y0288805D01*
X0102033Y0288644D01*
X0102019Y0288484D01*
X0102001Y0288324D01*
X0101980Y0288165D01*
X0101954Y0288006D01*
X0101924Y0287848D01*
X0101891Y0287691D01*
X0101853Y0287534D01*
X0101812Y0287379D01*
X0101767Y0287225D01*
X0101718Y0287072D01*
X0101665Y0286920D01*
X0101609Y0286769D01*
X0101548Y0286620D01*
X0101485Y0286472D01*
X0101417Y0286326D01*
X0101346Y0286182D01*
X0101272Y0286040D01*
X0101194Y0285899D01*
X0101112Y0285761D01*
X0101027Y0285624D01*
X0100939Y0285490D01*
X0100847Y0285358D01*
X0100752Y0285228D01*
X0100654Y0285100D01*
X0100553Y0284975D01*
X0100449Y0284853D01*
X0100342Y0284733D01*
X0100232Y0284616D01*
X0100119Y0284501D01*
X0100003Y0284390D01*
X0099884Y0284281D01*
X0099763Y0284176D01*
X0099639Y0284073D01*
X0099513Y0283973D01*
X0099385Y0283877D01*
X0099254Y0283784D01*
X0099120Y0283694D01*
X0098985Y0283607D01*
X0098847Y0283524D01*
X0098708Y0283444D01*
X0098566Y0283368D01*
X0098423Y0283295D01*
X0098278Y0283226D01*
X0098131Y0283160D01*
X0097983Y0283098D01*
X0097833Y0283040D01*
X0097682Y0282985D01*
X0097529Y0282934D01*
X0097375Y0282887D01*
X0097220Y0282844D01*
X0097064Y0282805D01*
X0096908Y0282769D01*
X0096750Y0282738D01*
X0096592Y0282710D01*
X0096433Y0282686D01*
X0096273Y0282666D01*
X0096113Y0282650D01*
X0095953Y0282638D01*
X0095792Y0282630D01*
X0095631Y0282626D01*
X0095471Y0282626D01*
X0095310Y0282630D01*
X0095149Y0282638D01*
X0094989Y0282650D01*
X0094829Y0282666D01*
X0094669Y0282686D01*
X0094510Y0282710D01*
X0094352Y0282738D01*
X0094194Y0282769D01*
X0094038Y0282805D01*
X0093882Y0282844D01*
X0093727Y0282887D01*
X0093573Y0282934D01*
X0093420Y0282985D01*
X0093269Y0283040D01*
X0093119Y0283098D01*
X0092971Y0283160D01*
X0092824Y0283226D01*
X0092679Y0283295D01*
X0092536Y0283368D01*
X0092394Y0283444D01*
X0092255Y0283524D01*
X0092117Y0283607D01*
X0091982Y0283694D01*
X0091848Y0283784D01*
X0091717Y0283877D01*
X0091589Y0283973D01*
X0091463Y0284073D01*
X0091339Y0284176D01*
X0091218Y0284281D01*
X0091099Y0284390D01*
X0090983Y0284501D01*
X0090870Y0284616D01*
X0090760Y0284733D01*
X0090653Y0284853D01*
X0090549Y0284975D01*
X0090448Y0285100D01*
X0090350Y0285228D01*
X0090255Y0285358D01*
X0090163Y0285490D01*
X0090075Y0285624D01*
X0089990Y0285761D01*
X0089908Y0285899D01*
X0089830Y0286040D01*
X0089756Y0286182D01*
X0089685Y0286326D01*
X0089617Y0286472D01*
X0089554Y0286620D01*
X0089493Y0286769D01*
X0089437Y0286920D01*
X0089384Y0287072D01*
X0089335Y0287225D01*
X0089290Y0287379D01*
X0089249Y0287534D01*
X0089211Y0287691D01*
X0089178Y0287848D01*
X0089148Y0288006D01*
X0089122Y0288165D01*
X0089101Y0288324D01*
X0089083Y0288484D01*
X0089069Y0288644D01*
X0089059Y0288805D01*
X0089053Y0288965D01*
X0089051Y0289126D01*
X0026559Y0182134D02*
X0026561Y0182288D01*
X0026567Y0182443D01*
X0026577Y0182597D01*
X0026591Y0182751D01*
X0026609Y0182904D01*
X0026630Y0183057D01*
X0026656Y0183210D01*
X0026686Y0183361D01*
X0026719Y0183512D01*
X0026757Y0183662D01*
X0026798Y0183811D01*
X0026843Y0183959D01*
X0026892Y0184105D01*
X0026945Y0184251D01*
X0027001Y0184394D01*
X0027061Y0184537D01*
X0027125Y0184677D01*
X0027192Y0184817D01*
X0027263Y0184954D01*
X0027337Y0185089D01*
X0027415Y0185223D01*
X0027496Y0185354D01*
X0027581Y0185483D01*
X0027669Y0185611D01*
X0027760Y0185735D01*
X0027854Y0185858D01*
X0027952Y0185978D01*
X0028052Y0186095D01*
X0028156Y0186210D01*
X0028262Y0186322D01*
X0028371Y0186431D01*
X0028483Y0186537D01*
X0028598Y0186641D01*
X0028715Y0186741D01*
X0028835Y0186839D01*
X0028958Y0186933D01*
X0029082Y0187024D01*
X0029210Y0187112D01*
X0029339Y0187197D01*
X0029470Y0187278D01*
X0029604Y0187356D01*
X0029739Y0187430D01*
X0029876Y0187501D01*
X0030016Y0187568D01*
X0030156Y0187632D01*
X0030299Y0187692D01*
X0030442Y0187748D01*
X0030588Y0187801D01*
X0030734Y0187850D01*
X0030882Y0187895D01*
X0031031Y0187936D01*
X0031181Y0187974D01*
X0031332Y0188007D01*
X0031483Y0188037D01*
X0031636Y0188063D01*
X0031789Y0188084D01*
X0031942Y0188102D01*
X0032096Y0188116D01*
X0032250Y0188126D01*
X0032405Y0188132D01*
X0032559Y0188134D01*
X0032713Y0188132D01*
X0032868Y0188126D01*
X0033022Y0188116D01*
X0033176Y0188102D01*
X0033329Y0188084D01*
X0033482Y0188063D01*
X0033635Y0188037D01*
X0033786Y0188007D01*
X0033937Y0187974D01*
X0034087Y0187936D01*
X0034236Y0187895D01*
X0034384Y0187850D01*
X0034530Y0187801D01*
X0034676Y0187748D01*
X0034819Y0187692D01*
X0034962Y0187632D01*
X0035102Y0187568D01*
X0035242Y0187501D01*
X0035379Y0187430D01*
X0035514Y0187356D01*
X0035648Y0187278D01*
X0035779Y0187197D01*
X0035908Y0187112D01*
X0036036Y0187024D01*
X0036160Y0186933D01*
X0036283Y0186839D01*
X0036403Y0186741D01*
X0036520Y0186641D01*
X0036635Y0186537D01*
X0036747Y0186431D01*
X0036856Y0186322D01*
X0036962Y0186210D01*
X0037066Y0186095D01*
X0037166Y0185978D01*
X0037264Y0185858D01*
X0037358Y0185735D01*
X0037449Y0185611D01*
X0037537Y0185483D01*
X0037622Y0185354D01*
X0037703Y0185223D01*
X0037781Y0185089D01*
X0037855Y0184954D01*
X0037926Y0184817D01*
X0037993Y0184677D01*
X0038057Y0184537D01*
X0038117Y0184394D01*
X0038173Y0184251D01*
X0038226Y0184105D01*
X0038275Y0183959D01*
X0038320Y0183811D01*
X0038361Y0183662D01*
X0038399Y0183512D01*
X0038432Y0183361D01*
X0038462Y0183210D01*
X0038488Y0183057D01*
X0038509Y0182904D01*
X0038527Y0182751D01*
X0038541Y0182597D01*
X0038551Y0182443D01*
X0038557Y0182288D01*
X0038559Y0182134D01*
X0038557Y0181980D01*
X0038551Y0181825D01*
X0038541Y0181671D01*
X0038527Y0181517D01*
X0038509Y0181364D01*
X0038488Y0181211D01*
X0038462Y0181058D01*
X0038432Y0180907D01*
X0038399Y0180756D01*
X0038361Y0180606D01*
X0038320Y0180457D01*
X0038275Y0180309D01*
X0038226Y0180163D01*
X0038173Y0180017D01*
X0038117Y0179874D01*
X0038057Y0179731D01*
X0037993Y0179591D01*
X0037926Y0179451D01*
X0037855Y0179314D01*
X0037781Y0179179D01*
X0037703Y0179045D01*
X0037622Y0178914D01*
X0037537Y0178785D01*
X0037449Y0178657D01*
X0037358Y0178533D01*
X0037264Y0178410D01*
X0037166Y0178290D01*
X0037066Y0178173D01*
X0036962Y0178058D01*
X0036856Y0177946D01*
X0036747Y0177837D01*
X0036635Y0177731D01*
X0036520Y0177627D01*
X0036403Y0177527D01*
X0036283Y0177429D01*
X0036160Y0177335D01*
X0036036Y0177244D01*
X0035908Y0177156D01*
X0035779Y0177071D01*
X0035648Y0176990D01*
X0035514Y0176912D01*
X0035379Y0176838D01*
X0035242Y0176767D01*
X0035102Y0176700D01*
X0034962Y0176636D01*
X0034819Y0176576D01*
X0034676Y0176520D01*
X0034530Y0176467D01*
X0034384Y0176418D01*
X0034236Y0176373D01*
X0034087Y0176332D01*
X0033937Y0176294D01*
X0033786Y0176261D01*
X0033635Y0176231D01*
X0033482Y0176205D01*
X0033329Y0176184D01*
X0033176Y0176166D01*
X0033022Y0176152D01*
X0032868Y0176142D01*
X0032713Y0176136D01*
X0032559Y0176134D01*
X0032405Y0176136D01*
X0032250Y0176142D01*
X0032096Y0176152D01*
X0031942Y0176166D01*
X0031789Y0176184D01*
X0031636Y0176205D01*
X0031483Y0176231D01*
X0031332Y0176261D01*
X0031181Y0176294D01*
X0031031Y0176332D01*
X0030882Y0176373D01*
X0030734Y0176418D01*
X0030588Y0176467D01*
X0030442Y0176520D01*
X0030299Y0176576D01*
X0030156Y0176636D01*
X0030016Y0176700D01*
X0029876Y0176767D01*
X0029739Y0176838D01*
X0029604Y0176912D01*
X0029470Y0176990D01*
X0029339Y0177071D01*
X0029210Y0177156D01*
X0029082Y0177244D01*
X0028958Y0177335D01*
X0028835Y0177429D01*
X0028715Y0177527D01*
X0028598Y0177627D01*
X0028483Y0177731D01*
X0028371Y0177837D01*
X0028262Y0177946D01*
X0028156Y0178058D01*
X0028052Y0178173D01*
X0027952Y0178290D01*
X0027854Y0178410D01*
X0027760Y0178533D01*
X0027669Y0178657D01*
X0027581Y0178785D01*
X0027496Y0178914D01*
X0027415Y0179045D01*
X0027337Y0179179D01*
X0027263Y0179314D01*
X0027192Y0179451D01*
X0027125Y0179591D01*
X0027061Y0179731D01*
X0027001Y0179874D01*
X0026945Y0180017D01*
X0026892Y0180163D01*
X0026843Y0180309D01*
X0026798Y0180457D01*
X0026757Y0180606D01*
X0026719Y0180756D01*
X0026686Y0180907D01*
X0026656Y0181058D01*
X0026630Y0181211D01*
X0026609Y0181364D01*
X0026591Y0181517D01*
X0026577Y0181671D01*
X0026567Y0181825D01*
X0026561Y0181980D01*
X0026559Y0182134D01*
X0024591Y0142764D02*
X0024593Y0142918D01*
X0024599Y0143073D01*
X0024609Y0143227D01*
X0024623Y0143381D01*
X0024641Y0143534D01*
X0024662Y0143687D01*
X0024688Y0143840D01*
X0024718Y0143991D01*
X0024751Y0144142D01*
X0024789Y0144292D01*
X0024830Y0144441D01*
X0024875Y0144589D01*
X0024924Y0144735D01*
X0024977Y0144881D01*
X0025033Y0145024D01*
X0025093Y0145167D01*
X0025157Y0145307D01*
X0025224Y0145447D01*
X0025295Y0145584D01*
X0025369Y0145719D01*
X0025447Y0145853D01*
X0025528Y0145984D01*
X0025613Y0146113D01*
X0025701Y0146241D01*
X0025792Y0146365D01*
X0025886Y0146488D01*
X0025984Y0146608D01*
X0026084Y0146725D01*
X0026188Y0146840D01*
X0026294Y0146952D01*
X0026403Y0147061D01*
X0026515Y0147167D01*
X0026630Y0147271D01*
X0026747Y0147371D01*
X0026867Y0147469D01*
X0026990Y0147563D01*
X0027114Y0147654D01*
X0027242Y0147742D01*
X0027371Y0147827D01*
X0027502Y0147908D01*
X0027636Y0147986D01*
X0027771Y0148060D01*
X0027908Y0148131D01*
X0028048Y0148198D01*
X0028188Y0148262D01*
X0028331Y0148322D01*
X0028474Y0148378D01*
X0028620Y0148431D01*
X0028766Y0148480D01*
X0028914Y0148525D01*
X0029063Y0148566D01*
X0029213Y0148604D01*
X0029364Y0148637D01*
X0029515Y0148667D01*
X0029668Y0148693D01*
X0029821Y0148714D01*
X0029974Y0148732D01*
X0030128Y0148746D01*
X0030282Y0148756D01*
X0030437Y0148762D01*
X0030591Y0148764D01*
X0030745Y0148762D01*
X0030900Y0148756D01*
X0031054Y0148746D01*
X0031208Y0148732D01*
X0031361Y0148714D01*
X0031514Y0148693D01*
X0031667Y0148667D01*
X0031818Y0148637D01*
X0031969Y0148604D01*
X0032119Y0148566D01*
X0032268Y0148525D01*
X0032416Y0148480D01*
X0032562Y0148431D01*
X0032708Y0148378D01*
X0032851Y0148322D01*
X0032994Y0148262D01*
X0033134Y0148198D01*
X0033274Y0148131D01*
X0033411Y0148060D01*
X0033546Y0147986D01*
X0033680Y0147908D01*
X0033811Y0147827D01*
X0033940Y0147742D01*
X0034068Y0147654D01*
X0034192Y0147563D01*
X0034315Y0147469D01*
X0034435Y0147371D01*
X0034552Y0147271D01*
X0034667Y0147167D01*
X0034779Y0147061D01*
X0034888Y0146952D01*
X0034994Y0146840D01*
X0035098Y0146725D01*
X0035198Y0146608D01*
X0035296Y0146488D01*
X0035390Y0146365D01*
X0035481Y0146241D01*
X0035569Y0146113D01*
X0035654Y0145984D01*
X0035735Y0145853D01*
X0035813Y0145719D01*
X0035887Y0145584D01*
X0035958Y0145447D01*
X0036025Y0145307D01*
X0036089Y0145167D01*
X0036149Y0145024D01*
X0036205Y0144881D01*
X0036258Y0144735D01*
X0036307Y0144589D01*
X0036352Y0144441D01*
X0036393Y0144292D01*
X0036431Y0144142D01*
X0036464Y0143991D01*
X0036494Y0143840D01*
X0036520Y0143687D01*
X0036541Y0143534D01*
X0036559Y0143381D01*
X0036573Y0143227D01*
X0036583Y0143073D01*
X0036589Y0142918D01*
X0036591Y0142764D01*
X0036589Y0142610D01*
X0036583Y0142455D01*
X0036573Y0142301D01*
X0036559Y0142147D01*
X0036541Y0141994D01*
X0036520Y0141841D01*
X0036494Y0141688D01*
X0036464Y0141537D01*
X0036431Y0141386D01*
X0036393Y0141236D01*
X0036352Y0141087D01*
X0036307Y0140939D01*
X0036258Y0140793D01*
X0036205Y0140647D01*
X0036149Y0140504D01*
X0036089Y0140361D01*
X0036025Y0140221D01*
X0035958Y0140081D01*
X0035887Y0139944D01*
X0035813Y0139809D01*
X0035735Y0139675D01*
X0035654Y0139544D01*
X0035569Y0139415D01*
X0035481Y0139287D01*
X0035390Y0139163D01*
X0035296Y0139040D01*
X0035198Y0138920D01*
X0035098Y0138803D01*
X0034994Y0138688D01*
X0034888Y0138576D01*
X0034779Y0138467D01*
X0034667Y0138361D01*
X0034552Y0138257D01*
X0034435Y0138157D01*
X0034315Y0138059D01*
X0034192Y0137965D01*
X0034068Y0137874D01*
X0033940Y0137786D01*
X0033811Y0137701D01*
X0033680Y0137620D01*
X0033546Y0137542D01*
X0033411Y0137468D01*
X0033274Y0137397D01*
X0033134Y0137330D01*
X0032994Y0137266D01*
X0032851Y0137206D01*
X0032708Y0137150D01*
X0032562Y0137097D01*
X0032416Y0137048D01*
X0032268Y0137003D01*
X0032119Y0136962D01*
X0031969Y0136924D01*
X0031818Y0136891D01*
X0031667Y0136861D01*
X0031514Y0136835D01*
X0031361Y0136814D01*
X0031208Y0136796D01*
X0031054Y0136782D01*
X0030900Y0136772D01*
X0030745Y0136766D01*
X0030591Y0136764D01*
X0030437Y0136766D01*
X0030282Y0136772D01*
X0030128Y0136782D01*
X0029974Y0136796D01*
X0029821Y0136814D01*
X0029668Y0136835D01*
X0029515Y0136861D01*
X0029364Y0136891D01*
X0029213Y0136924D01*
X0029063Y0136962D01*
X0028914Y0137003D01*
X0028766Y0137048D01*
X0028620Y0137097D01*
X0028474Y0137150D01*
X0028331Y0137206D01*
X0028188Y0137266D01*
X0028048Y0137330D01*
X0027908Y0137397D01*
X0027771Y0137468D01*
X0027636Y0137542D01*
X0027502Y0137620D01*
X0027371Y0137701D01*
X0027242Y0137786D01*
X0027114Y0137874D01*
X0026990Y0137965D01*
X0026867Y0138059D01*
X0026747Y0138157D01*
X0026630Y0138257D01*
X0026515Y0138361D01*
X0026403Y0138467D01*
X0026294Y0138576D01*
X0026188Y0138688D01*
X0026084Y0138803D01*
X0025984Y0138920D01*
X0025886Y0139040D01*
X0025792Y0139163D01*
X0025701Y0139287D01*
X0025613Y0139415D01*
X0025528Y0139544D01*
X0025447Y0139675D01*
X0025369Y0139809D01*
X0025295Y0139944D01*
X0025224Y0140081D01*
X0025157Y0140221D01*
X0025093Y0140361D01*
X0025033Y0140504D01*
X0024977Y0140647D01*
X0024924Y0140793D01*
X0024875Y0140939D01*
X0024830Y0141087D01*
X0024789Y0141236D01*
X0024751Y0141386D01*
X0024718Y0141537D01*
X0024688Y0141688D01*
X0024662Y0141841D01*
X0024641Y0141994D01*
X0024623Y0142147D01*
X0024609Y0142301D01*
X0024599Y0142455D01*
X0024593Y0142610D01*
X0024591Y0142764D01*
X0026559Y0022685D02*
X0026561Y0022839D01*
X0026567Y0022994D01*
X0026577Y0023148D01*
X0026591Y0023302D01*
X0026609Y0023455D01*
X0026630Y0023608D01*
X0026656Y0023761D01*
X0026686Y0023912D01*
X0026719Y0024063D01*
X0026757Y0024213D01*
X0026798Y0024362D01*
X0026843Y0024510D01*
X0026892Y0024656D01*
X0026945Y0024802D01*
X0027001Y0024945D01*
X0027061Y0025088D01*
X0027125Y0025228D01*
X0027192Y0025368D01*
X0027263Y0025505D01*
X0027337Y0025640D01*
X0027415Y0025774D01*
X0027496Y0025905D01*
X0027581Y0026034D01*
X0027669Y0026162D01*
X0027760Y0026286D01*
X0027854Y0026409D01*
X0027952Y0026529D01*
X0028052Y0026646D01*
X0028156Y0026761D01*
X0028262Y0026873D01*
X0028371Y0026982D01*
X0028483Y0027088D01*
X0028598Y0027192D01*
X0028715Y0027292D01*
X0028835Y0027390D01*
X0028958Y0027484D01*
X0029082Y0027575D01*
X0029210Y0027663D01*
X0029339Y0027748D01*
X0029470Y0027829D01*
X0029604Y0027907D01*
X0029739Y0027981D01*
X0029876Y0028052D01*
X0030016Y0028119D01*
X0030156Y0028183D01*
X0030299Y0028243D01*
X0030442Y0028299D01*
X0030588Y0028352D01*
X0030734Y0028401D01*
X0030882Y0028446D01*
X0031031Y0028487D01*
X0031181Y0028525D01*
X0031332Y0028558D01*
X0031483Y0028588D01*
X0031636Y0028614D01*
X0031789Y0028635D01*
X0031942Y0028653D01*
X0032096Y0028667D01*
X0032250Y0028677D01*
X0032405Y0028683D01*
X0032559Y0028685D01*
X0032713Y0028683D01*
X0032868Y0028677D01*
X0033022Y0028667D01*
X0033176Y0028653D01*
X0033329Y0028635D01*
X0033482Y0028614D01*
X0033635Y0028588D01*
X0033786Y0028558D01*
X0033937Y0028525D01*
X0034087Y0028487D01*
X0034236Y0028446D01*
X0034384Y0028401D01*
X0034530Y0028352D01*
X0034676Y0028299D01*
X0034819Y0028243D01*
X0034962Y0028183D01*
X0035102Y0028119D01*
X0035242Y0028052D01*
X0035379Y0027981D01*
X0035514Y0027907D01*
X0035648Y0027829D01*
X0035779Y0027748D01*
X0035908Y0027663D01*
X0036036Y0027575D01*
X0036160Y0027484D01*
X0036283Y0027390D01*
X0036403Y0027292D01*
X0036520Y0027192D01*
X0036635Y0027088D01*
X0036747Y0026982D01*
X0036856Y0026873D01*
X0036962Y0026761D01*
X0037066Y0026646D01*
X0037166Y0026529D01*
X0037264Y0026409D01*
X0037358Y0026286D01*
X0037449Y0026162D01*
X0037537Y0026034D01*
X0037622Y0025905D01*
X0037703Y0025774D01*
X0037781Y0025640D01*
X0037855Y0025505D01*
X0037926Y0025368D01*
X0037993Y0025228D01*
X0038057Y0025088D01*
X0038117Y0024945D01*
X0038173Y0024802D01*
X0038226Y0024656D01*
X0038275Y0024510D01*
X0038320Y0024362D01*
X0038361Y0024213D01*
X0038399Y0024063D01*
X0038432Y0023912D01*
X0038462Y0023761D01*
X0038488Y0023608D01*
X0038509Y0023455D01*
X0038527Y0023302D01*
X0038541Y0023148D01*
X0038551Y0022994D01*
X0038557Y0022839D01*
X0038559Y0022685D01*
X0038557Y0022531D01*
X0038551Y0022376D01*
X0038541Y0022222D01*
X0038527Y0022068D01*
X0038509Y0021915D01*
X0038488Y0021762D01*
X0038462Y0021609D01*
X0038432Y0021458D01*
X0038399Y0021307D01*
X0038361Y0021157D01*
X0038320Y0021008D01*
X0038275Y0020860D01*
X0038226Y0020714D01*
X0038173Y0020568D01*
X0038117Y0020425D01*
X0038057Y0020282D01*
X0037993Y0020142D01*
X0037926Y0020002D01*
X0037855Y0019865D01*
X0037781Y0019730D01*
X0037703Y0019596D01*
X0037622Y0019465D01*
X0037537Y0019336D01*
X0037449Y0019208D01*
X0037358Y0019084D01*
X0037264Y0018961D01*
X0037166Y0018841D01*
X0037066Y0018724D01*
X0036962Y0018609D01*
X0036856Y0018497D01*
X0036747Y0018388D01*
X0036635Y0018282D01*
X0036520Y0018178D01*
X0036403Y0018078D01*
X0036283Y0017980D01*
X0036160Y0017886D01*
X0036036Y0017795D01*
X0035908Y0017707D01*
X0035779Y0017622D01*
X0035648Y0017541D01*
X0035514Y0017463D01*
X0035379Y0017389D01*
X0035242Y0017318D01*
X0035102Y0017251D01*
X0034962Y0017187D01*
X0034819Y0017127D01*
X0034676Y0017071D01*
X0034530Y0017018D01*
X0034384Y0016969D01*
X0034236Y0016924D01*
X0034087Y0016883D01*
X0033937Y0016845D01*
X0033786Y0016812D01*
X0033635Y0016782D01*
X0033482Y0016756D01*
X0033329Y0016735D01*
X0033176Y0016717D01*
X0033022Y0016703D01*
X0032868Y0016693D01*
X0032713Y0016687D01*
X0032559Y0016685D01*
X0032405Y0016687D01*
X0032250Y0016693D01*
X0032096Y0016703D01*
X0031942Y0016717D01*
X0031789Y0016735D01*
X0031636Y0016756D01*
X0031483Y0016782D01*
X0031332Y0016812D01*
X0031181Y0016845D01*
X0031031Y0016883D01*
X0030882Y0016924D01*
X0030734Y0016969D01*
X0030588Y0017018D01*
X0030442Y0017071D01*
X0030299Y0017127D01*
X0030156Y0017187D01*
X0030016Y0017251D01*
X0029876Y0017318D01*
X0029739Y0017389D01*
X0029604Y0017463D01*
X0029470Y0017541D01*
X0029339Y0017622D01*
X0029210Y0017707D01*
X0029082Y0017795D01*
X0028958Y0017886D01*
X0028835Y0017980D01*
X0028715Y0018078D01*
X0028598Y0018178D01*
X0028483Y0018282D01*
X0028371Y0018388D01*
X0028262Y0018497D01*
X0028156Y0018609D01*
X0028052Y0018724D01*
X0027952Y0018841D01*
X0027854Y0018961D01*
X0027760Y0019084D01*
X0027669Y0019208D01*
X0027581Y0019336D01*
X0027496Y0019465D01*
X0027415Y0019596D01*
X0027337Y0019730D01*
X0027263Y0019865D01*
X0027192Y0020002D01*
X0027125Y0020142D01*
X0027061Y0020282D01*
X0027001Y0020425D01*
X0026945Y0020568D01*
X0026892Y0020714D01*
X0026843Y0020860D01*
X0026798Y0021008D01*
X0026757Y0021157D01*
X0026719Y0021307D01*
X0026686Y0021458D01*
X0026656Y0021609D01*
X0026630Y0021762D01*
X0026609Y0021915D01*
X0026591Y0022068D01*
X0026577Y0022222D01*
X0026567Y0022376D01*
X0026561Y0022531D01*
X0026559Y0022685D01*
X0201756Y0022685D02*
X0201758Y0022839D01*
X0201764Y0022994D01*
X0201774Y0023148D01*
X0201788Y0023302D01*
X0201806Y0023455D01*
X0201827Y0023608D01*
X0201853Y0023761D01*
X0201883Y0023912D01*
X0201916Y0024063D01*
X0201954Y0024213D01*
X0201995Y0024362D01*
X0202040Y0024510D01*
X0202089Y0024656D01*
X0202142Y0024802D01*
X0202198Y0024945D01*
X0202258Y0025088D01*
X0202322Y0025228D01*
X0202389Y0025368D01*
X0202460Y0025505D01*
X0202534Y0025640D01*
X0202612Y0025774D01*
X0202693Y0025905D01*
X0202778Y0026034D01*
X0202866Y0026162D01*
X0202957Y0026286D01*
X0203051Y0026409D01*
X0203149Y0026529D01*
X0203249Y0026646D01*
X0203353Y0026761D01*
X0203459Y0026873D01*
X0203568Y0026982D01*
X0203680Y0027088D01*
X0203795Y0027192D01*
X0203912Y0027292D01*
X0204032Y0027390D01*
X0204155Y0027484D01*
X0204279Y0027575D01*
X0204407Y0027663D01*
X0204536Y0027748D01*
X0204667Y0027829D01*
X0204801Y0027907D01*
X0204936Y0027981D01*
X0205073Y0028052D01*
X0205213Y0028119D01*
X0205353Y0028183D01*
X0205496Y0028243D01*
X0205639Y0028299D01*
X0205785Y0028352D01*
X0205931Y0028401D01*
X0206079Y0028446D01*
X0206228Y0028487D01*
X0206378Y0028525D01*
X0206529Y0028558D01*
X0206680Y0028588D01*
X0206833Y0028614D01*
X0206986Y0028635D01*
X0207139Y0028653D01*
X0207293Y0028667D01*
X0207447Y0028677D01*
X0207602Y0028683D01*
X0207756Y0028685D01*
X0207910Y0028683D01*
X0208065Y0028677D01*
X0208219Y0028667D01*
X0208373Y0028653D01*
X0208526Y0028635D01*
X0208679Y0028614D01*
X0208832Y0028588D01*
X0208983Y0028558D01*
X0209134Y0028525D01*
X0209284Y0028487D01*
X0209433Y0028446D01*
X0209581Y0028401D01*
X0209727Y0028352D01*
X0209873Y0028299D01*
X0210016Y0028243D01*
X0210159Y0028183D01*
X0210299Y0028119D01*
X0210439Y0028052D01*
X0210576Y0027981D01*
X0210711Y0027907D01*
X0210845Y0027829D01*
X0210976Y0027748D01*
X0211105Y0027663D01*
X0211233Y0027575D01*
X0211357Y0027484D01*
X0211480Y0027390D01*
X0211600Y0027292D01*
X0211717Y0027192D01*
X0211832Y0027088D01*
X0211944Y0026982D01*
X0212053Y0026873D01*
X0212159Y0026761D01*
X0212263Y0026646D01*
X0212363Y0026529D01*
X0212461Y0026409D01*
X0212555Y0026286D01*
X0212646Y0026162D01*
X0212734Y0026034D01*
X0212819Y0025905D01*
X0212900Y0025774D01*
X0212978Y0025640D01*
X0213052Y0025505D01*
X0213123Y0025368D01*
X0213190Y0025228D01*
X0213254Y0025088D01*
X0213314Y0024945D01*
X0213370Y0024802D01*
X0213423Y0024656D01*
X0213472Y0024510D01*
X0213517Y0024362D01*
X0213558Y0024213D01*
X0213596Y0024063D01*
X0213629Y0023912D01*
X0213659Y0023761D01*
X0213685Y0023608D01*
X0213706Y0023455D01*
X0213724Y0023302D01*
X0213738Y0023148D01*
X0213748Y0022994D01*
X0213754Y0022839D01*
X0213756Y0022685D01*
X0213754Y0022531D01*
X0213748Y0022376D01*
X0213738Y0022222D01*
X0213724Y0022068D01*
X0213706Y0021915D01*
X0213685Y0021762D01*
X0213659Y0021609D01*
X0213629Y0021458D01*
X0213596Y0021307D01*
X0213558Y0021157D01*
X0213517Y0021008D01*
X0213472Y0020860D01*
X0213423Y0020714D01*
X0213370Y0020568D01*
X0213314Y0020425D01*
X0213254Y0020282D01*
X0213190Y0020142D01*
X0213123Y0020002D01*
X0213052Y0019865D01*
X0212978Y0019730D01*
X0212900Y0019596D01*
X0212819Y0019465D01*
X0212734Y0019336D01*
X0212646Y0019208D01*
X0212555Y0019084D01*
X0212461Y0018961D01*
X0212363Y0018841D01*
X0212263Y0018724D01*
X0212159Y0018609D01*
X0212053Y0018497D01*
X0211944Y0018388D01*
X0211832Y0018282D01*
X0211717Y0018178D01*
X0211600Y0018078D01*
X0211480Y0017980D01*
X0211357Y0017886D01*
X0211233Y0017795D01*
X0211105Y0017707D01*
X0210976Y0017622D01*
X0210845Y0017541D01*
X0210711Y0017463D01*
X0210576Y0017389D01*
X0210439Y0017318D01*
X0210299Y0017251D01*
X0210159Y0017187D01*
X0210016Y0017127D01*
X0209873Y0017071D01*
X0209727Y0017018D01*
X0209581Y0016969D01*
X0209433Y0016924D01*
X0209284Y0016883D01*
X0209134Y0016845D01*
X0208983Y0016812D01*
X0208832Y0016782D01*
X0208679Y0016756D01*
X0208526Y0016735D01*
X0208373Y0016717D01*
X0208219Y0016703D01*
X0208065Y0016693D01*
X0207910Y0016687D01*
X0207756Y0016685D01*
X0207602Y0016687D01*
X0207447Y0016693D01*
X0207293Y0016703D01*
X0207139Y0016717D01*
X0206986Y0016735D01*
X0206833Y0016756D01*
X0206680Y0016782D01*
X0206529Y0016812D01*
X0206378Y0016845D01*
X0206228Y0016883D01*
X0206079Y0016924D01*
X0205931Y0016969D01*
X0205785Y0017018D01*
X0205639Y0017071D01*
X0205496Y0017127D01*
X0205353Y0017187D01*
X0205213Y0017251D01*
X0205073Y0017318D01*
X0204936Y0017389D01*
X0204801Y0017463D01*
X0204667Y0017541D01*
X0204536Y0017622D01*
X0204407Y0017707D01*
X0204279Y0017795D01*
X0204155Y0017886D01*
X0204032Y0017980D01*
X0203912Y0018078D01*
X0203795Y0018178D01*
X0203680Y0018282D01*
X0203568Y0018388D01*
X0203459Y0018497D01*
X0203353Y0018609D01*
X0203249Y0018724D01*
X0203149Y0018841D01*
X0203051Y0018961D01*
X0202957Y0019084D01*
X0202866Y0019208D01*
X0202778Y0019336D01*
X0202693Y0019465D01*
X0202612Y0019596D01*
X0202534Y0019730D01*
X0202460Y0019865D01*
X0202389Y0020002D01*
X0202322Y0020142D01*
X0202258Y0020282D01*
X0202198Y0020425D01*
X0202142Y0020568D01*
X0202089Y0020714D01*
X0202040Y0020860D01*
X0201995Y0021008D01*
X0201954Y0021157D01*
X0201916Y0021307D01*
X0201883Y0021458D01*
X0201853Y0021609D01*
X0201827Y0021762D01*
X0201806Y0021915D01*
X0201788Y0022068D01*
X0201774Y0022222D01*
X0201764Y0022376D01*
X0201758Y0022531D01*
X0201756Y0022685D01*
X0275575Y0136858D02*
X0275577Y0137012D01*
X0275583Y0137167D01*
X0275593Y0137321D01*
X0275607Y0137475D01*
X0275625Y0137628D01*
X0275646Y0137781D01*
X0275672Y0137934D01*
X0275702Y0138085D01*
X0275735Y0138236D01*
X0275773Y0138386D01*
X0275814Y0138535D01*
X0275859Y0138683D01*
X0275908Y0138829D01*
X0275961Y0138975D01*
X0276017Y0139118D01*
X0276077Y0139261D01*
X0276141Y0139401D01*
X0276208Y0139541D01*
X0276279Y0139678D01*
X0276353Y0139813D01*
X0276431Y0139947D01*
X0276512Y0140078D01*
X0276597Y0140207D01*
X0276685Y0140335D01*
X0276776Y0140459D01*
X0276870Y0140582D01*
X0276968Y0140702D01*
X0277068Y0140819D01*
X0277172Y0140934D01*
X0277278Y0141046D01*
X0277387Y0141155D01*
X0277499Y0141261D01*
X0277614Y0141365D01*
X0277731Y0141465D01*
X0277851Y0141563D01*
X0277974Y0141657D01*
X0278098Y0141748D01*
X0278226Y0141836D01*
X0278355Y0141921D01*
X0278486Y0142002D01*
X0278620Y0142080D01*
X0278755Y0142154D01*
X0278892Y0142225D01*
X0279032Y0142292D01*
X0279172Y0142356D01*
X0279315Y0142416D01*
X0279458Y0142472D01*
X0279604Y0142525D01*
X0279750Y0142574D01*
X0279898Y0142619D01*
X0280047Y0142660D01*
X0280197Y0142698D01*
X0280348Y0142731D01*
X0280499Y0142761D01*
X0280652Y0142787D01*
X0280805Y0142808D01*
X0280958Y0142826D01*
X0281112Y0142840D01*
X0281266Y0142850D01*
X0281421Y0142856D01*
X0281575Y0142858D01*
X0281729Y0142856D01*
X0281884Y0142850D01*
X0282038Y0142840D01*
X0282192Y0142826D01*
X0282345Y0142808D01*
X0282498Y0142787D01*
X0282651Y0142761D01*
X0282802Y0142731D01*
X0282953Y0142698D01*
X0283103Y0142660D01*
X0283252Y0142619D01*
X0283400Y0142574D01*
X0283546Y0142525D01*
X0283692Y0142472D01*
X0283835Y0142416D01*
X0283978Y0142356D01*
X0284118Y0142292D01*
X0284258Y0142225D01*
X0284395Y0142154D01*
X0284530Y0142080D01*
X0284664Y0142002D01*
X0284795Y0141921D01*
X0284924Y0141836D01*
X0285052Y0141748D01*
X0285176Y0141657D01*
X0285299Y0141563D01*
X0285419Y0141465D01*
X0285536Y0141365D01*
X0285651Y0141261D01*
X0285763Y0141155D01*
X0285872Y0141046D01*
X0285978Y0140934D01*
X0286082Y0140819D01*
X0286182Y0140702D01*
X0286280Y0140582D01*
X0286374Y0140459D01*
X0286465Y0140335D01*
X0286553Y0140207D01*
X0286638Y0140078D01*
X0286719Y0139947D01*
X0286797Y0139813D01*
X0286871Y0139678D01*
X0286942Y0139541D01*
X0287009Y0139401D01*
X0287073Y0139261D01*
X0287133Y0139118D01*
X0287189Y0138975D01*
X0287242Y0138829D01*
X0287291Y0138683D01*
X0287336Y0138535D01*
X0287377Y0138386D01*
X0287415Y0138236D01*
X0287448Y0138085D01*
X0287478Y0137934D01*
X0287504Y0137781D01*
X0287525Y0137628D01*
X0287543Y0137475D01*
X0287557Y0137321D01*
X0287567Y0137167D01*
X0287573Y0137012D01*
X0287575Y0136858D01*
X0287573Y0136704D01*
X0287567Y0136549D01*
X0287557Y0136395D01*
X0287543Y0136241D01*
X0287525Y0136088D01*
X0287504Y0135935D01*
X0287478Y0135782D01*
X0287448Y0135631D01*
X0287415Y0135480D01*
X0287377Y0135330D01*
X0287336Y0135181D01*
X0287291Y0135033D01*
X0287242Y0134887D01*
X0287189Y0134741D01*
X0287133Y0134598D01*
X0287073Y0134455D01*
X0287009Y0134315D01*
X0286942Y0134175D01*
X0286871Y0134038D01*
X0286797Y0133903D01*
X0286719Y0133769D01*
X0286638Y0133638D01*
X0286553Y0133509D01*
X0286465Y0133381D01*
X0286374Y0133257D01*
X0286280Y0133134D01*
X0286182Y0133014D01*
X0286082Y0132897D01*
X0285978Y0132782D01*
X0285872Y0132670D01*
X0285763Y0132561D01*
X0285651Y0132455D01*
X0285536Y0132351D01*
X0285419Y0132251D01*
X0285299Y0132153D01*
X0285176Y0132059D01*
X0285052Y0131968D01*
X0284924Y0131880D01*
X0284795Y0131795D01*
X0284664Y0131714D01*
X0284530Y0131636D01*
X0284395Y0131562D01*
X0284258Y0131491D01*
X0284118Y0131424D01*
X0283978Y0131360D01*
X0283835Y0131300D01*
X0283692Y0131244D01*
X0283546Y0131191D01*
X0283400Y0131142D01*
X0283252Y0131097D01*
X0283103Y0131056D01*
X0282953Y0131018D01*
X0282802Y0130985D01*
X0282651Y0130955D01*
X0282498Y0130929D01*
X0282345Y0130908D01*
X0282192Y0130890D01*
X0282038Y0130876D01*
X0281884Y0130866D01*
X0281729Y0130860D01*
X0281575Y0130858D01*
X0281421Y0130860D01*
X0281266Y0130866D01*
X0281112Y0130876D01*
X0280958Y0130890D01*
X0280805Y0130908D01*
X0280652Y0130929D01*
X0280499Y0130955D01*
X0280348Y0130985D01*
X0280197Y0131018D01*
X0280047Y0131056D01*
X0279898Y0131097D01*
X0279750Y0131142D01*
X0279604Y0131191D01*
X0279458Y0131244D01*
X0279315Y0131300D01*
X0279172Y0131360D01*
X0279032Y0131424D01*
X0278892Y0131491D01*
X0278755Y0131562D01*
X0278620Y0131636D01*
X0278486Y0131714D01*
X0278355Y0131795D01*
X0278226Y0131880D01*
X0278098Y0131968D01*
X0277974Y0132059D01*
X0277851Y0132153D01*
X0277731Y0132251D01*
X0277614Y0132351D01*
X0277499Y0132455D01*
X0277387Y0132561D01*
X0277278Y0132670D01*
X0277172Y0132782D01*
X0277068Y0132897D01*
X0276968Y0133014D01*
X0276870Y0133134D01*
X0276776Y0133257D01*
X0276685Y0133381D01*
X0276597Y0133509D01*
X0276512Y0133638D01*
X0276431Y0133769D01*
X0276353Y0133903D01*
X0276279Y0134038D01*
X0276208Y0134175D01*
X0276141Y0134315D01*
X0276077Y0134455D01*
X0276017Y0134598D01*
X0275961Y0134741D01*
X0275908Y0134887D01*
X0275859Y0135033D01*
X0275814Y0135181D01*
X0275773Y0135330D01*
X0275735Y0135480D01*
X0275702Y0135631D01*
X0275672Y0135782D01*
X0275646Y0135935D01*
X0275625Y0136088D01*
X0275607Y0136241D01*
X0275593Y0136395D01*
X0275583Y0136549D01*
X0275577Y0136704D01*
X0275575Y0136858D01*
X0308055Y0182134D02*
X0308057Y0182288D01*
X0308063Y0182443D01*
X0308073Y0182597D01*
X0308087Y0182751D01*
X0308105Y0182904D01*
X0308126Y0183057D01*
X0308152Y0183210D01*
X0308182Y0183361D01*
X0308215Y0183512D01*
X0308253Y0183662D01*
X0308294Y0183811D01*
X0308339Y0183959D01*
X0308388Y0184105D01*
X0308441Y0184251D01*
X0308497Y0184394D01*
X0308557Y0184537D01*
X0308621Y0184677D01*
X0308688Y0184817D01*
X0308759Y0184954D01*
X0308833Y0185089D01*
X0308911Y0185223D01*
X0308992Y0185354D01*
X0309077Y0185483D01*
X0309165Y0185611D01*
X0309256Y0185735D01*
X0309350Y0185858D01*
X0309448Y0185978D01*
X0309548Y0186095D01*
X0309652Y0186210D01*
X0309758Y0186322D01*
X0309867Y0186431D01*
X0309979Y0186537D01*
X0310094Y0186641D01*
X0310211Y0186741D01*
X0310331Y0186839D01*
X0310454Y0186933D01*
X0310578Y0187024D01*
X0310706Y0187112D01*
X0310835Y0187197D01*
X0310966Y0187278D01*
X0311100Y0187356D01*
X0311235Y0187430D01*
X0311372Y0187501D01*
X0311512Y0187568D01*
X0311652Y0187632D01*
X0311795Y0187692D01*
X0311938Y0187748D01*
X0312084Y0187801D01*
X0312230Y0187850D01*
X0312378Y0187895D01*
X0312527Y0187936D01*
X0312677Y0187974D01*
X0312828Y0188007D01*
X0312979Y0188037D01*
X0313132Y0188063D01*
X0313285Y0188084D01*
X0313438Y0188102D01*
X0313592Y0188116D01*
X0313746Y0188126D01*
X0313901Y0188132D01*
X0314055Y0188134D01*
X0314209Y0188132D01*
X0314364Y0188126D01*
X0314518Y0188116D01*
X0314672Y0188102D01*
X0314825Y0188084D01*
X0314978Y0188063D01*
X0315131Y0188037D01*
X0315282Y0188007D01*
X0315433Y0187974D01*
X0315583Y0187936D01*
X0315732Y0187895D01*
X0315880Y0187850D01*
X0316026Y0187801D01*
X0316172Y0187748D01*
X0316315Y0187692D01*
X0316458Y0187632D01*
X0316598Y0187568D01*
X0316738Y0187501D01*
X0316875Y0187430D01*
X0317010Y0187356D01*
X0317144Y0187278D01*
X0317275Y0187197D01*
X0317404Y0187112D01*
X0317532Y0187024D01*
X0317656Y0186933D01*
X0317779Y0186839D01*
X0317899Y0186741D01*
X0318016Y0186641D01*
X0318131Y0186537D01*
X0318243Y0186431D01*
X0318352Y0186322D01*
X0318458Y0186210D01*
X0318562Y0186095D01*
X0318662Y0185978D01*
X0318760Y0185858D01*
X0318854Y0185735D01*
X0318945Y0185611D01*
X0319033Y0185483D01*
X0319118Y0185354D01*
X0319199Y0185223D01*
X0319277Y0185089D01*
X0319351Y0184954D01*
X0319422Y0184817D01*
X0319489Y0184677D01*
X0319553Y0184537D01*
X0319613Y0184394D01*
X0319669Y0184251D01*
X0319722Y0184105D01*
X0319771Y0183959D01*
X0319816Y0183811D01*
X0319857Y0183662D01*
X0319895Y0183512D01*
X0319928Y0183361D01*
X0319958Y0183210D01*
X0319984Y0183057D01*
X0320005Y0182904D01*
X0320023Y0182751D01*
X0320037Y0182597D01*
X0320047Y0182443D01*
X0320053Y0182288D01*
X0320055Y0182134D01*
X0320053Y0181980D01*
X0320047Y0181825D01*
X0320037Y0181671D01*
X0320023Y0181517D01*
X0320005Y0181364D01*
X0319984Y0181211D01*
X0319958Y0181058D01*
X0319928Y0180907D01*
X0319895Y0180756D01*
X0319857Y0180606D01*
X0319816Y0180457D01*
X0319771Y0180309D01*
X0319722Y0180163D01*
X0319669Y0180017D01*
X0319613Y0179874D01*
X0319553Y0179731D01*
X0319489Y0179591D01*
X0319422Y0179451D01*
X0319351Y0179314D01*
X0319277Y0179179D01*
X0319199Y0179045D01*
X0319118Y0178914D01*
X0319033Y0178785D01*
X0318945Y0178657D01*
X0318854Y0178533D01*
X0318760Y0178410D01*
X0318662Y0178290D01*
X0318562Y0178173D01*
X0318458Y0178058D01*
X0318352Y0177946D01*
X0318243Y0177837D01*
X0318131Y0177731D01*
X0318016Y0177627D01*
X0317899Y0177527D01*
X0317779Y0177429D01*
X0317656Y0177335D01*
X0317532Y0177244D01*
X0317404Y0177156D01*
X0317275Y0177071D01*
X0317144Y0176990D01*
X0317010Y0176912D01*
X0316875Y0176838D01*
X0316738Y0176767D01*
X0316598Y0176700D01*
X0316458Y0176636D01*
X0316315Y0176576D01*
X0316172Y0176520D01*
X0316026Y0176467D01*
X0315880Y0176418D01*
X0315732Y0176373D01*
X0315583Y0176332D01*
X0315433Y0176294D01*
X0315282Y0176261D01*
X0315131Y0176231D01*
X0314978Y0176205D01*
X0314825Y0176184D01*
X0314672Y0176166D01*
X0314518Y0176152D01*
X0314364Y0176142D01*
X0314209Y0176136D01*
X0314055Y0176134D01*
X0313901Y0176136D01*
X0313746Y0176142D01*
X0313592Y0176152D01*
X0313438Y0176166D01*
X0313285Y0176184D01*
X0313132Y0176205D01*
X0312979Y0176231D01*
X0312828Y0176261D01*
X0312677Y0176294D01*
X0312527Y0176332D01*
X0312378Y0176373D01*
X0312230Y0176418D01*
X0312084Y0176467D01*
X0311938Y0176520D01*
X0311795Y0176576D01*
X0311652Y0176636D01*
X0311512Y0176700D01*
X0311372Y0176767D01*
X0311235Y0176838D01*
X0311100Y0176912D01*
X0310966Y0176990D01*
X0310835Y0177071D01*
X0310706Y0177156D01*
X0310578Y0177244D01*
X0310454Y0177335D01*
X0310331Y0177429D01*
X0310211Y0177527D01*
X0310094Y0177627D01*
X0309979Y0177731D01*
X0309867Y0177837D01*
X0309758Y0177946D01*
X0309652Y0178058D01*
X0309548Y0178173D01*
X0309448Y0178290D01*
X0309350Y0178410D01*
X0309256Y0178533D01*
X0309165Y0178657D01*
X0309077Y0178785D01*
X0308992Y0178914D01*
X0308911Y0179045D01*
X0308833Y0179179D01*
X0308759Y0179314D01*
X0308688Y0179451D01*
X0308621Y0179591D01*
X0308557Y0179731D01*
X0308497Y0179874D01*
X0308441Y0180017D01*
X0308388Y0180163D01*
X0308339Y0180309D01*
X0308294Y0180457D01*
X0308253Y0180606D01*
X0308215Y0180756D01*
X0308182Y0180907D01*
X0308152Y0181058D01*
X0308126Y0181211D01*
X0308105Y0181364D01*
X0308087Y0181517D01*
X0308073Y0181671D01*
X0308063Y0181825D01*
X0308057Y0181980D01*
X0308055Y0182134D01*
X0201756Y0140795D02*
X0201758Y0140949D01*
X0201764Y0141104D01*
X0201774Y0141258D01*
X0201788Y0141412D01*
X0201806Y0141565D01*
X0201827Y0141718D01*
X0201853Y0141871D01*
X0201883Y0142022D01*
X0201916Y0142173D01*
X0201954Y0142323D01*
X0201995Y0142472D01*
X0202040Y0142620D01*
X0202089Y0142766D01*
X0202142Y0142912D01*
X0202198Y0143055D01*
X0202258Y0143198D01*
X0202322Y0143338D01*
X0202389Y0143478D01*
X0202460Y0143615D01*
X0202534Y0143750D01*
X0202612Y0143884D01*
X0202693Y0144015D01*
X0202778Y0144144D01*
X0202866Y0144272D01*
X0202957Y0144396D01*
X0203051Y0144519D01*
X0203149Y0144639D01*
X0203249Y0144756D01*
X0203353Y0144871D01*
X0203459Y0144983D01*
X0203568Y0145092D01*
X0203680Y0145198D01*
X0203795Y0145302D01*
X0203912Y0145402D01*
X0204032Y0145500D01*
X0204155Y0145594D01*
X0204279Y0145685D01*
X0204407Y0145773D01*
X0204536Y0145858D01*
X0204667Y0145939D01*
X0204801Y0146017D01*
X0204936Y0146091D01*
X0205073Y0146162D01*
X0205213Y0146229D01*
X0205353Y0146293D01*
X0205496Y0146353D01*
X0205639Y0146409D01*
X0205785Y0146462D01*
X0205931Y0146511D01*
X0206079Y0146556D01*
X0206228Y0146597D01*
X0206378Y0146635D01*
X0206529Y0146668D01*
X0206680Y0146698D01*
X0206833Y0146724D01*
X0206986Y0146745D01*
X0207139Y0146763D01*
X0207293Y0146777D01*
X0207447Y0146787D01*
X0207602Y0146793D01*
X0207756Y0146795D01*
X0207910Y0146793D01*
X0208065Y0146787D01*
X0208219Y0146777D01*
X0208373Y0146763D01*
X0208526Y0146745D01*
X0208679Y0146724D01*
X0208832Y0146698D01*
X0208983Y0146668D01*
X0209134Y0146635D01*
X0209284Y0146597D01*
X0209433Y0146556D01*
X0209581Y0146511D01*
X0209727Y0146462D01*
X0209873Y0146409D01*
X0210016Y0146353D01*
X0210159Y0146293D01*
X0210299Y0146229D01*
X0210439Y0146162D01*
X0210576Y0146091D01*
X0210711Y0146017D01*
X0210845Y0145939D01*
X0210976Y0145858D01*
X0211105Y0145773D01*
X0211233Y0145685D01*
X0211357Y0145594D01*
X0211480Y0145500D01*
X0211600Y0145402D01*
X0211717Y0145302D01*
X0211832Y0145198D01*
X0211944Y0145092D01*
X0212053Y0144983D01*
X0212159Y0144871D01*
X0212263Y0144756D01*
X0212363Y0144639D01*
X0212461Y0144519D01*
X0212555Y0144396D01*
X0212646Y0144272D01*
X0212734Y0144144D01*
X0212819Y0144015D01*
X0212900Y0143884D01*
X0212978Y0143750D01*
X0213052Y0143615D01*
X0213123Y0143478D01*
X0213190Y0143338D01*
X0213254Y0143198D01*
X0213314Y0143055D01*
X0213370Y0142912D01*
X0213423Y0142766D01*
X0213472Y0142620D01*
X0213517Y0142472D01*
X0213558Y0142323D01*
X0213596Y0142173D01*
X0213629Y0142022D01*
X0213659Y0141871D01*
X0213685Y0141718D01*
X0213706Y0141565D01*
X0213724Y0141412D01*
X0213738Y0141258D01*
X0213748Y0141104D01*
X0213754Y0140949D01*
X0213756Y0140795D01*
X0213754Y0140641D01*
X0213748Y0140486D01*
X0213738Y0140332D01*
X0213724Y0140178D01*
X0213706Y0140025D01*
X0213685Y0139872D01*
X0213659Y0139719D01*
X0213629Y0139568D01*
X0213596Y0139417D01*
X0213558Y0139267D01*
X0213517Y0139118D01*
X0213472Y0138970D01*
X0213423Y0138824D01*
X0213370Y0138678D01*
X0213314Y0138535D01*
X0213254Y0138392D01*
X0213190Y0138252D01*
X0213123Y0138112D01*
X0213052Y0137975D01*
X0212978Y0137840D01*
X0212900Y0137706D01*
X0212819Y0137575D01*
X0212734Y0137446D01*
X0212646Y0137318D01*
X0212555Y0137194D01*
X0212461Y0137071D01*
X0212363Y0136951D01*
X0212263Y0136834D01*
X0212159Y0136719D01*
X0212053Y0136607D01*
X0211944Y0136498D01*
X0211832Y0136392D01*
X0211717Y0136288D01*
X0211600Y0136188D01*
X0211480Y0136090D01*
X0211357Y0135996D01*
X0211233Y0135905D01*
X0211105Y0135817D01*
X0210976Y0135732D01*
X0210845Y0135651D01*
X0210711Y0135573D01*
X0210576Y0135499D01*
X0210439Y0135428D01*
X0210299Y0135361D01*
X0210159Y0135297D01*
X0210016Y0135237D01*
X0209873Y0135181D01*
X0209727Y0135128D01*
X0209581Y0135079D01*
X0209433Y0135034D01*
X0209284Y0134993D01*
X0209134Y0134955D01*
X0208983Y0134922D01*
X0208832Y0134892D01*
X0208679Y0134866D01*
X0208526Y0134845D01*
X0208373Y0134827D01*
X0208219Y0134813D01*
X0208065Y0134803D01*
X0207910Y0134797D01*
X0207756Y0134795D01*
X0207602Y0134797D01*
X0207447Y0134803D01*
X0207293Y0134813D01*
X0207139Y0134827D01*
X0206986Y0134845D01*
X0206833Y0134866D01*
X0206680Y0134892D01*
X0206529Y0134922D01*
X0206378Y0134955D01*
X0206228Y0134993D01*
X0206079Y0135034D01*
X0205931Y0135079D01*
X0205785Y0135128D01*
X0205639Y0135181D01*
X0205496Y0135237D01*
X0205353Y0135297D01*
X0205213Y0135361D01*
X0205073Y0135428D01*
X0204936Y0135499D01*
X0204801Y0135573D01*
X0204667Y0135651D01*
X0204536Y0135732D01*
X0204407Y0135817D01*
X0204279Y0135905D01*
X0204155Y0135996D01*
X0204032Y0136090D01*
X0203912Y0136188D01*
X0203795Y0136288D01*
X0203680Y0136392D01*
X0203568Y0136498D01*
X0203459Y0136607D01*
X0203353Y0136719D01*
X0203249Y0136834D01*
X0203149Y0136951D01*
X0203051Y0137071D01*
X0202957Y0137194D01*
X0202866Y0137318D01*
X0202778Y0137446D01*
X0202693Y0137575D01*
X0202612Y0137706D01*
X0202534Y0137840D01*
X0202460Y0137975D01*
X0202389Y0138112D01*
X0202322Y0138252D01*
X0202258Y0138392D01*
X0202198Y0138535D01*
X0202142Y0138678D01*
X0202089Y0138824D01*
X0202040Y0138970D01*
X0201995Y0139118D01*
X0201954Y0139267D01*
X0201916Y0139417D01*
X0201883Y0139568D01*
X0201853Y0139719D01*
X0201827Y0139872D01*
X0201806Y0140025D01*
X0201788Y0140178D01*
X0201774Y0140332D01*
X0201764Y0140486D01*
X0201758Y0140641D01*
X0201756Y0140795D01*
X0308055Y0300244D02*
X0308057Y0300398D01*
X0308063Y0300553D01*
X0308073Y0300707D01*
X0308087Y0300861D01*
X0308105Y0301014D01*
X0308126Y0301167D01*
X0308152Y0301320D01*
X0308182Y0301471D01*
X0308215Y0301622D01*
X0308253Y0301772D01*
X0308294Y0301921D01*
X0308339Y0302069D01*
X0308388Y0302215D01*
X0308441Y0302361D01*
X0308497Y0302504D01*
X0308557Y0302647D01*
X0308621Y0302787D01*
X0308688Y0302927D01*
X0308759Y0303064D01*
X0308833Y0303199D01*
X0308911Y0303333D01*
X0308992Y0303464D01*
X0309077Y0303593D01*
X0309165Y0303721D01*
X0309256Y0303845D01*
X0309350Y0303968D01*
X0309448Y0304088D01*
X0309548Y0304205D01*
X0309652Y0304320D01*
X0309758Y0304432D01*
X0309867Y0304541D01*
X0309979Y0304647D01*
X0310094Y0304751D01*
X0310211Y0304851D01*
X0310331Y0304949D01*
X0310454Y0305043D01*
X0310578Y0305134D01*
X0310706Y0305222D01*
X0310835Y0305307D01*
X0310966Y0305388D01*
X0311100Y0305466D01*
X0311235Y0305540D01*
X0311372Y0305611D01*
X0311512Y0305678D01*
X0311652Y0305742D01*
X0311795Y0305802D01*
X0311938Y0305858D01*
X0312084Y0305911D01*
X0312230Y0305960D01*
X0312378Y0306005D01*
X0312527Y0306046D01*
X0312677Y0306084D01*
X0312828Y0306117D01*
X0312979Y0306147D01*
X0313132Y0306173D01*
X0313285Y0306194D01*
X0313438Y0306212D01*
X0313592Y0306226D01*
X0313746Y0306236D01*
X0313901Y0306242D01*
X0314055Y0306244D01*
X0314209Y0306242D01*
X0314364Y0306236D01*
X0314518Y0306226D01*
X0314672Y0306212D01*
X0314825Y0306194D01*
X0314978Y0306173D01*
X0315131Y0306147D01*
X0315282Y0306117D01*
X0315433Y0306084D01*
X0315583Y0306046D01*
X0315732Y0306005D01*
X0315880Y0305960D01*
X0316026Y0305911D01*
X0316172Y0305858D01*
X0316315Y0305802D01*
X0316458Y0305742D01*
X0316598Y0305678D01*
X0316738Y0305611D01*
X0316875Y0305540D01*
X0317010Y0305466D01*
X0317144Y0305388D01*
X0317275Y0305307D01*
X0317404Y0305222D01*
X0317532Y0305134D01*
X0317656Y0305043D01*
X0317779Y0304949D01*
X0317899Y0304851D01*
X0318016Y0304751D01*
X0318131Y0304647D01*
X0318243Y0304541D01*
X0318352Y0304432D01*
X0318458Y0304320D01*
X0318562Y0304205D01*
X0318662Y0304088D01*
X0318760Y0303968D01*
X0318854Y0303845D01*
X0318945Y0303721D01*
X0319033Y0303593D01*
X0319118Y0303464D01*
X0319199Y0303333D01*
X0319277Y0303199D01*
X0319351Y0303064D01*
X0319422Y0302927D01*
X0319489Y0302787D01*
X0319553Y0302647D01*
X0319613Y0302504D01*
X0319669Y0302361D01*
X0319722Y0302215D01*
X0319771Y0302069D01*
X0319816Y0301921D01*
X0319857Y0301772D01*
X0319895Y0301622D01*
X0319928Y0301471D01*
X0319958Y0301320D01*
X0319984Y0301167D01*
X0320005Y0301014D01*
X0320023Y0300861D01*
X0320037Y0300707D01*
X0320047Y0300553D01*
X0320053Y0300398D01*
X0320055Y0300244D01*
X0320053Y0300090D01*
X0320047Y0299935D01*
X0320037Y0299781D01*
X0320023Y0299627D01*
X0320005Y0299474D01*
X0319984Y0299321D01*
X0319958Y0299168D01*
X0319928Y0299017D01*
X0319895Y0298866D01*
X0319857Y0298716D01*
X0319816Y0298567D01*
X0319771Y0298419D01*
X0319722Y0298273D01*
X0319669Y0298127D01*
X0319613Y0297984D01*
X0319553Y0297841D01*
X0319489Y0297701D01*
X0319422Y0297561D01*
X0319351Y0297424D01*
X0319277Y0297289D01*
X0319199Y0297155D01*
X0319118Y0297024D01*
X0319033Y0296895D01*
X0318945Y0296767D01*
X0318854Y0296643D01*
X0318760Y0296520D01*
X0318662Y0296400D01*
X0318562Y0296283D01*
X0318458Y0296168D01*
X0318352Y0296056D01*
X0318243Y0295947D01*
X0318131Y0295841D01*
X0318016Y0295737D01*
X0317899Y0295637D01*
X0317779Y0295539D01*
X0317656Y0295445D01*
X0317532Y0295354D01*
X0317404Y0295266D01*
X0317275Y0295181D01*
X0317144Y0295100D01*
X0317010Y0295022D01*
X0316875Y0294948D01*
X0316738Y0294877D01*
X0316598Y0294810D01*
X0316458Y0294746D01*
X0316315Y0294686D01*
X0316172Y0294630D01*
X0316026Y0294577D01*
X0315880Y0294528D01*
X0315732Y0294483D01*
X0315583Y0294442D01*
X0315433Y0294404D01*
X0315282Y0294371D01*
X0315131Y0294341D01*
X0314978Y0294315D01*
X0314825Y0294294D01*
X0314672Y0294276D01*
X0314518Y0294262D01*
X0314364Y0294252D01*
X0314209Y0294246D01*
X0314055Y0294244D01*
X0313901Y0294246D01*
X0313746Y0294252D01*
X0313592Y0294262D01*
X0313438Y0294276D01*
X0313285Y0294294D01*
X0313132Y0294315D01*
X0312979Y0294341D01*
X0312828Y0294371D01*
X0312677Y0294404D01*
X0312527Y0294442D01*
X0312378Y0294483D01*
X0312230Y0294528D01*
X0312084Y0294577D01*
X0311938Y0294630D01*
X0311795Y0294686D01*
X0311652Y0294746D01*
X0311512Y0294810D01*
X0311372Y0294877D01*
X0311235Y0294948D01*
X0311100Y0295022D01*
X0310966Y0295100D01*
X0310835Y0295181D01*
X0310706Y0295266D01*
X0310578Y0295354D01*
X0310454Y0295445D01*
X0310331Y0295539D01*
X0310211Y0295637D01*
X0310094Y0295737D01*
X0309979Y0295841D01*
X0309867Y0295947D01*
X0309758Y0296056D01*
X0309652Y0296168D01*
X0309548Y0296283D01*
X0309448Y0296400D01*
X0309350Y0296520D01*
X0309256Y0296643D01*
X0309165Y0296767D01*
X0309077Y0296895D01*
X0308992Y0297024D01*
X0308911Y0297155D01*
X0308833Y0297289D01*
X0308759Y0297424D01*
X0308688Y0297561D01*
X0308621Y0297701D01*
X0308557Y0297841D01*
X0308497Y0297984D01*
X0308441Y0298127D01*
X0308388Y0298273D01*
X0308339Y0298419D01*
X0308294Y0298567D01*
X0308253Y0298716D01*
X0308215Y0298866D01*
X0308182Y0299017D01*
X0308152Y0299168D01*
X0308126Y0299321D01*
X0308105Y0299474D01*
X0308087Y0299627D01*
X0308073Y0299781D01*
X0308063Y0299935D01*
X0308057Y0300090D01*
X0308055Y0300244D01*
D12*
X0308149Y0317961D02*
X0308673Y0318002D01*
X0309198Y0318031D01*
X0309723Y0318046D01*
X0310249Y0318050D01*
X0310774Y0318040D01*
X0311299Y0318018D01*
X0311823Y0317983D01*
X0312346Y0317936D01*
X0312868Y0317875D01*
X0313389Y0317803D01*
X0313907Y0317717D01*
X0314423Y0317619D01*
X0314937Y0317509D01*
X0315448Y0317387D01*
X0315956Y0317252D01*
X0316460Y0317104D01*
X0316961Y0316945D01*
X0317458Y0316774D01*
X0317950Y0316590D01*
X0318438Y0316395D01*
X0318921Y0316188D01*
X0319399Y0315970D01*
X0319871Y0315740D01*
X0320338Y0315498D01*
X0320799Y0315246D01*
X0321253Y0314982D01*
X0321701Y0314708D01*
X0322142Y0314422D01*
X0322577Y0314127D01*
X0323004Y0313820D01*
X0323423Y0313504D01*
X0323835Y0313177D01*
X0324238Y0312841D01*
X0324634Y0312495D01*
X0325021Y0312140D01*
X0325399Y0311775D01*
X0325768Y0311401D01*
X0326128Y0311018D01*
X0326479Y0310627D01*
X0326820Y0310228D01*
X0327152Y0309820D01*
X0327473Y0309405D01*
X0327785Y0308981D01*
X0328086Y0308551D01*
X0328377Y0308113D01*
X0328657Y0307668D01*
X0328926Y0307217D01*
X0329184Y0306759D01*
X0329431Y0306296D01*
X0329667Y0305826D01*
X0329891Y0305351D01*
X0330104Y0304871D01*
X0330305Y0304385D01*
X0330494Y0303895D01*
X0330671Y0303400D01*
X0330837Y0302902D01*
X0330990Y0302399D01*
X0331131Y0301893D01*
X0331260Y0301384D01*
X0331377Y0300871D01*
X0331481Y0300356D01*
X0331572Y0299839D01*
X0331651Y0299319D01*
X0331718Y0298798D01*
X0331772Y0298276D01*
X0331772Y0030559D01*
X0318976Y0020717D02*
X0318976Y0148669D01*
X0242205Y0148669D01*
X0242205Y0020717D01*
X0318976Y0020717D01*
X0331771Y0030559D02*
X0331788Y0029964D01*
X0331790Y0029369D01*
X0331778Y0028774D01*
X0331751Y0028180D01*
X0331711Y0027586D01*
X0331655Y0026994D01*
X0331586Y0026403D01*
X0331502Y0025813D01*
X0331404Y0025226D01*
X0331292Y0024642D01*
X0331166Y0024060D01*
X0331025Y0023482D01*
X0330871Y0022907D01*
X0330703Y0022336D01*
X0330521Y0021770D01*
X0330326Y0021208D01*
X0330117Y0020650D01*
X0329895Y0020098D01*
X0329659Y0019552D01*
X0329410Y0019011D01*
X0329148Y0018477D01*
X0328874Y0017949D01*
X0328587Y0017428D01*
X0328287Y0016914D01*
X0327975Y0016407D01*
X0327650Y0015908D01*
X0327314Y0015417D01*
X0326966Y0014934D01*
X0326607Y0014460D01*
X0326236Y0013995D01*
X0325854Y0013538D01*
X0325461Y0013092D01*
X0325057Y0012654D01*
X0324643Y0012227D01*
X0324219Y0011810D01*
X0323784Y0011403D01*
X0323341Y0011006D01*
X0322887Y0010621D01*
X0322425Y0010247D01*
X0321953Y0009884D01*
X0321473Y0009532D01*
X0320984Y0009192D01*
X0320488Y0008864D01*
X0319983Y0008548D01*
X0319472Y0008245D01*
X0318953Y0007953D01*
X0318427Y0007675D01*
X0317894Y0007409D01*
X0317356Y0007156D01*
X0316811Y0006917D01*
X0316260Y0006690D01*
X0315705Y0006477D01*
X0315144Y0006278D01*
X0314579Y0006092D01*
X0314009Y0005919D01*
X0313436Y0005761D01*
X0312858Y0005616D01*
X0312278Y0005486D01*
X0311694Y0005369D01*
X0311108Y0005267D01*
X0310520Y0005179D01*
X0309929Y0005105D01*
X0309337Y0005045D01*
X0308744Y0005000D01*
X0308149Y0004969D01*
X0308150Y0004969D02*
X0040433Y0004969D01*
X0039838Y0005000D01*
X0039245Y0005045D01*
X0038653Y0005105D01*
X0038062Y0005179D01*
X0037474Y0005267D01*
X0036888Y0005369D01*
X0036304Y0005486D01*
X0035724Y0005616D01*
X0035146Y0005761D01*
X0034573Y0005919D01*
X0034003Y0006092D01*
X0033438Y0006278D01*
X0032877Y0006477D01*
X0032322Y0006690D01*
X0031771Y0006917D01*
X0031226Y0007156D01*
X0030688Y0007409D01*
X0030155Y0007675D01*
X0029629Y0007953D01*
X0029110Y0008245D01*
X0028599Y0008548D01*
X0028094Y0008864D01*
X0027598Y0009192D01*
X0027109Y0009532D01*
X0026629Y0009884D01*
X0026157Y0010247D01*
X0025695Y0010621D01*
X0025241Y0011006D01*
X0024798Y0011403D01*
X0024363Y0011810D01*
X0023939Y0012227D01*
X0023525Y0012654D01*
X0023121Y0013092D01*
X0022728Y0013538D01*
X0022346Y0013995D01*
X0021975Y0014460D01*
X0021616Y0014934D01*
X0021268Y0015417D01*
X0020932Y0015908D01*
X0020607Y0016407D01*
X0020295Y0016914D01*
X0019995Y0017428D01*
X0019708Y0017949D01*
X0019434Y0018477D01*
X0019172Y0019011D01*
X0018923Y0019552D01*
X0018687Y0020098D01*
X0018465Y0020650D01*
X0018256Y0021208D01*
X0018061Y0021770D01*
X0017879Y0022336D01*
X0017711Y0022907D01*
X0017557Y0023482D01*
X0017416Y0024060D01*
X0017290Y0024642D01*
X0017178Y0025226D01*
X0017080Y0025813D01*
X0016996Y0026403D01*
X0016927Y0026994D01*
X0016871Y0027586D01*
X0016831Y0028180D01*
X0016804Y0028774D01*
X0016792Y0029369D01*
X0016794Y0029964D01*
X0016811Y0030559D01*
X0016811Y0298276D01*
X0016865Y0298798D01*
X0016932Y0299319D01*
X0017011Y0299839D01*
X0017102Y0300356D01*
X0017206Y0300871D01*
X0017323Y0301384D01*
X0017452Y0301893D01*
X0017593Y0302399D01*
X0017746Y0302902D01*
X0017912Y0303400D01*
X0018089Y0303895D01*
X0018278Y0304385D01*
X0018479Y0304871D01*
X0018692Y0305351D01*
X0018916Y0305826D01*
X0019152Y0306296D01*
X0019399Y0306759D01*
X0019657Y0307217D01*
X0019926Y0307668D01*
X0020206Y0308113D01*
X0020497Y0308551D01*
X0020798Y0308981D01*
X0021110Y0309405D01*
X0021431Y0309820D01*
X0021763Y0310228D01*
X0022104Y0310627D01*
X0022455Y0311018D01*
X0022815Y0311401D01*
X0023184Y0311775D01*
X0023562Y0312140D01*
X0023949Y0312495D01*
X0024345Y0312841D01*
X0024748Y0313177D01*
X0025160Y0313504D01*
X0025579Y0313820D01*
X0026006Y0314127D01*
X0026441Y0314422D01*
X0026882Y0314708D01*
X0027330Y0314982D01*
X0027784Y0315246D01*
X0028245Y0315498D01*
X0028712Y0315740D01*
X0029184Y0315970D01*
X0029662Y0316188D01*
X0030145Y0316395D01*
X0030633Y0316590D01*
X0031125Y0316774D01*
X0031622Y0316945D01*
X0032123Y0317104D01*
X0032627Y0317252D01*
X0033135Y0317387D01*
X0033646Y0317509D01*
X0034160Y0317619D01*
X0034676Y0317717D01*
X0035194Y0317803D01*
X0035715Y0317875D01*
X0036237Y0317936D01*
X0036760Y0317983D01*
X0037284Y0318018D01*
X0037809Y0318040D01*
X0038334Y0318050D01*
X0038860Y0318046D01*
X0039385Y0318031D01*
X0039910Y0318002D01*
X0040434Y0317961D01*
X0040433Y0317961D02*
X0308150Y0317961D01*
X0308149Y0317961D02*
X0308673Y0318002D01*
X0309198Y0318031D01*
X0309723Y0318046D01*
X0310249Y0318050D01*
X0310774Y0318040D01*
X0311299Y0318018D01*
X0311823Y0317983D01*
X0312346Y0317936D01*
X0312868Y0317875D01*
X0313389Y0317803D01*
X0313907Y0317717D01*
X0314423Y0317619D01*
X0314937Y0317509D01*
X0315448Y0317387D01*
X0315956Y0317252D01*
X0316460Y0317104D01*
X0316961Y0316945D01*
X0317458Y0316774D01*
X0317950Y0316590D01*
X0318438Y0316395D01*
X0318921Y0316188D01*
X0319399Y0315970D01*
X0319871Y0315740D01*
X0320338Y0315498D01*
X0320799Y0315246D01*
X0321253Y0314982D01*
X0321701Y0314708D01*
X0322142Y0314422D01*
X0322577Y0314127D01*
X0323004Y0313820D01*
X0323423Y0313504D01*
X0323835Y0313177D01*
X0324238Y0312841D01*
X0324634Y0312495D01*
X0325021Y0312140D01*
X0325399Y0311775D01*
X0325768Y0311401D01*
X0326128Y0311018D01*
X0326479Y0310627D01*
X0326820Y0310228D01*
X0327152Y0309820D01*
X0327473Y0309405D01*
X0327785Y0308981D01*
X0328086Y0308551D01*
X0328377Y0308113D01*
X0328657Y0307668D01*
X0328926Y0307217D01*
X0329184Y0306759D01*
X0329431Y0306296D01*
X0329667Y0305826D01*
X0329891Y0305351D01*
X0330104Y0304871D01*
X0330305Y0304385D01*
X0330494Y0303895D01*
X0330671Y0303400D01*
X0330837Y0302902D01*
X0330990Y0302399D01*
X0331131Y0301893D01*
X0331260Y0301384D01*
X0331377Y0300871D01*
X0331481Y0300356D01*
X0331572Y0299839D01*
X0331651Y0299319D01*
X0331718Y0298798D01*
X0331772Y0298276D01*
X0207756Y0302213D02*
X0207756Y0184102D01*
X0134921Y0184102D01*
X0134921Y0302213D01*
X0207756Y0302213D01*
X0213661Y0164417D02*
X0032559Y0164417D01*
X0028622Y0160480D02*
X0028624Y0160356D01*
X0028630Y0160233D01*
X0028639Y0160109D01*
X0028653Y0159987D01*
X0028670Y0159864D01*
X0028692Y0159742D01*
X0028717Y0159621D01*
X0028746Y0159501D01*
X0028778Y0159382D01*
X0028815Y0159263D01*
X0028855Y0159146D01*
X0028898Y0159031D01*
X0028946Y0158916D01*
X0028997Y0158804D01*
X0029051Y0158693D01*
X0029109Y0158583D01*
X0029170Y0158476D01*
X0029235Y0158370D01*
X0029303Y0158267D01*
X0029374Y0158166D01*
X0029448Y0158067D01*
X0029525Y0157970D01*
X0029606Y0157876D01*
X0029689Y0157785D01*
X0029775Y0157696D01*
X0029864Y0157610D01*
X0029955Y0157527D01*
X0030049Y0157446D01*
X0030146Y0157369D01*
X0030245Y0157295D01*
X0030346Y0157224D01*
X0030449Y0157156D01*
X0030555Y0157091D01*
X0030662Y0157030D01*
X0030772Y0156972D01*
X0030883Y0156918D01*
X0030995Y0156867D01*
X0031110Y0156819D01*
X0031225Y0156776D01*
X0031342Y0156736D01*
X0031461Y0156699D01*
X0031580Y0156667D01*
X0031700Y0156638D01*
X0031821Y0156613D01*
X0031943Y0156591D01*
X0032066Y0156574D01*
X0032188Y0156560D01*
X0032312Y0156551D01*
X0032435Y0156545D01*
X0032559Y0156543D01*
X0213661Y0156543D01*
X0213785Y0156545D01*
X0213908Y0156551D01*
X0214032Y0156560D01*
X0214154Y0156574D01*
X0214277Y0156591D01*
X0214399Y0156613D01*
X0214520Y0156638D01*
X0214640Y0156667D01*
X0214759Y0156699D01*
X0214878Y0156736D01*
X0214995Y0156776D01*
X0215110Y0156819D01*
X0215225Y0156867D01*
X0215337Y0156918D01*
X0215448Y0156972D01*
X0215558Y0157030D01*
X0215665Y0157091D01*
X0215771Y0157156D01*
X0215874Y0157224D01*
X0215975Y0157295D01*
X0216074Y0157369D01*
X0216171Y0157446D01*
X0216265Y0157527D01*
X0216356Y0157610D01*
X0216445Y0157696D01*
X0216531Y0157785D01*
X0216614Y0157876D01*
X0216695Y0157970D01*
X0216772Y0158067D01*
X0216846Y0158166D01*
X0216917Y0158267D01*
X0216985Y0158370D01*
X0217050Y0158476D01*
X0217111Y0158583D01*
X0217169Y0158693D01*
X0217223Y0158804D01*
X0217274Y0158916D01*
X0217322Y0159031D01*
X0217365Y0159146D01*
X0217405Y0159263D01*
X0217442Y0159382D01*
X0217474Y0159501D01*
X0217503Y0159621D01*
X0217528Y0159742D01*
X0217550Y0159864D01*
X0217567Y0159987D01*
X0217581Y0160109D01*
X0217590Y0160233D01*
X0217596Y0160356D01*
X0217598Y0160480D01*
X0217596Y0160604D01*
X0217590Y0160727D01*
X0217581Y0160851D01*
X0217567Y0160973D01*
X0217550Y0161096D01*
X0217528Y0161218D01*
X0217503Y0161339D01*
X0217474Y0161459D01*
X0217442Y0161578D01*
X0217405Y0161697D01*
X0217365Y0161814D01*
X0217322Y0161929D01*
X0217274Y0162044D01*
X0217223Y0162156D01*
X0217169Y0162267D01*
X0217111Y0162377D01*
X0217050Y0162484D01*
X0216985Y0162590D01*
X0216917Y0162693D01*
X0216846Y0162794D01*
X0216772Y0162893D01*
X0216695Y0162990D01*
X0216614Y0163084D01*
X0216531Y0163175D01*
X0216445Y0163264D01*
X0216356Y0163350D01*
X0216265Y0163433D01*
X0216171Y0163514D01*
X0216074Y0163591D01*
X0215975Y0163665D01*
X0215874Y0163736D01*
X0215771Y0163804D01*
X0215665Y0163869D01*
X0215558Y0163930D01*
X0215448Y0163988D01*
X0215337Y0164042D01*
X0215225Y0164093D01*
X0215110Y0164141D01*
X0214995Y0164184D01*
X0214878Y0164224D01*
X0214759Y0164261D01*
X0214640Y0164293D01*
X0214520Y0164322D01*
X0214399Y0164347D01*
X0214277Y0164369D01*
X0214154Y0164386D01*
X0214032Y0164400D01*
X0213908Y0164409D01*
X0213785Y0164415D01*
X0213661Y0164417D01*
X0225472Y0144732D02*
X0225472Y0026622D01*
X0229409Y0022685D02*
X0229533Y0022687D01*
X0229656Y0022693D01*
X0229780Y0022702D01*
X0229902Y0022716D01*
X0230025Y0022733D01*
X0230147Y0022755D01*
X0230268Y0022780D01*
X0230388Y0022809D01*
X0230507Y0022841D01*
X0230626Y0022878D01*
X0230743Y0022918D01*
X0230858Y0022961D01*
X0230973Y0023009D01*
X0231085Y0023060D01*
X0231196Y0023114D01*
X0231306Y0023172D01*
X0231413Y0023233D01*
X0231519Y0023298D01*
X0231622Y0023366D01*
X0231723Y0023437D01*
X0231822Y0023511D01*
X0231919Y0023588D01*
X0232013Y0023669D01*
X0232104Y0023752D01*
X0232193Y0023838D01*
X0232279Y0023927D01*
X0232362Y0024018D01*
X0232443Y0024112D01*
X0232520Y0024209D01*
X0232594Y0024308D01*
X0232665Y0024409D01*
X0232733Y0024512D01*
X0232798Y0024618D01*
X0232859Y0024725D01*
X0232917Y0024835D01*
X0232971Y0024946D01*
X0233022Y0025058D01*
X0233070Y0025173D01*
X0233113Y0025288D01*
X0233153Y0025405D01*
X0233190Y0025524D01*
X0233222Y0025643D01*
X0233251Y0025763D01*
X0233276Y0025884D01*
X0233298Y0026006D01*
X0233315Y0026129D01*
X0233329Y0026251D01*
X0233338Y0026375D01*
X0233344Y0026498D01*
X0233346Y0026622D01*
X0233346Y0144732D01*
X0233344Y0144856D01*
X0233338Y0144979D01*
X0233329Y0145103D01*
X0233315Y0145225D01*
X0233298Y0145348D01*
X0233276Y0145470D01*
X0233251Y0145591D01*
X0233222Y0145711D01*
X0233190Y0145830D01*
X0233153Y0145949D01*
X0233113Y0146066D01*
X0233070Y0146181D01*
X0233022Y0146296D01*
X0232971Y0146408D01*
X0232917Y0146519D01*
X0232859Y0146629D01*
X0232798Y0146736D01*
X0232733Y0146842D01*
X0232665Y0146945D01*
X0232594Y0147046D01*
X0232520Y0147145D01*
X0232443Y0147242D01*
X0232362Y0147336D01*
X0232279Y0147427D01*
X0232193Y0147516D01*
X0232104Y0147602D01*
X0232013Y0147685D01*
X0231919Y0147766D01*
X0231822Y0147843D01*
X0231723Y0147917D01*
X0231622Y0147988D01*
X0231519Y0148056D01*
X0231413Y0148121D01*
X0231306Y0148182D01*
X0231196Y0148240D01*
X0231085Y0148294D01*
X0230973Y0148345D01*
X0230858Y0148393D01*
X0230743Y0148436D01*
X0230626Y0148476D01*
X0230507Y0148513D01*
X0230388Y0148545D01*
X0230268Y0148574D01*
X0230147Y0148599D01*
X0230025Y0148621D01*
X0229902Y0148638D01*
X0229780Y0148652D01*
X0229656Y0148661D01*
X0229533Y0148667D01*
X0229409Y0148669D01*
X0229285Y0148667D01*
X0229162Y0148661D01*
X0229038Y0148652D01*
X0228916Y0148638D01*
X0228793Y0148621D01*
X0228671Y0148599D01*
X0228550Y0148574D01*
X0228430Y0148545D01*
X0228311Y0148513D01*
X0228192Y0148476D01*
X0228075Y0148436D01*
X0227960Y0148393D01*
X0227845Y0148345D01*
X0227733Y0148294D01*
X0227622Y0148240D01*
X0227512Y0148182D01*
X0227405Y0148121D01*
X0227299Y0148056D01*
X0227196Y0147988D01*
X0227095Y0147917D01*
X0226996Y0147843D01*
X0226899Y0147766D01*
X0226805Y0147685D01*
X0226714Y0147602D01*
X0226625Y0147516D01*
X0226539Y0147427D01*
X0226456Y0147336D01*
X0226375Y0147242D01*
X0226298Y0147145D01*
X0226224Y0147046D01*
X0226153Y0146945D01*
X0226085Y0146842D01*
X0226020Y0146736D01*
X0225959Y0146629D01*
X0225901Y0146519D01*
X0225847Y0146408D01*
X0225796Y0146296D01*
X0225748Y0146181D01*
X0225705Y0146066D01*
X0225665Y0145949D01*
X0225628Y0145830D01*
X0225596Y0145711D01*
X0225567Y0145591D01*
X0225542Y0145470D01*
X0225520Y0145348D01*
X0225503Y0145225D01*
X0225489Y0145103D01*
X0225480Y0144979D01*
X0225474Y0144856D01*
X0225472Y0144732D01*
X0247126Y0156543D02*
X0316024Y0156543D01*
X0316148Y0156545D01*
X0316271Y0156551D01*
X0316395Y0156560D01*
X0316517Y0156574D01*
X0316640Y0156591D01*
X0316762Y0156613D01*
X0316883Y0156638D01*
X0317003Y0156667D01*
X0317122Y0156699D01*
X0317241Y0156736D01*
X0317358Y0156776D01*
X0317473Y0156819D01*
X0317588Y0156867D01*
X0317700Y0156918D01*
X0317811Y0156972D01*
X0317921Y0157030D01*
X0318028Y0157091D01*
X0318134Y0157156D01*
X0318237Y0157224D01*
X0318338Y0157295D01*
X0318437Y0157369D01*
X0318534Y0157446D01*
X0318628Y0157527D01*
X0318719Y0157610D01*
X0318808Y0157696D01*
X0318894Y0157785D01*
X0318977Y0157876D01*
X0319058Y0157970D01*
X0319135Y0158067D01*
X0319209Y0158166D01*
X0319280Y0158267D01*
X0319348Y0158370D01*
X0319413Y0158476D01*
X0319474Y0158583D01*
X0319532Y0158693D01*
X0319586Y0158804D01*
X0319637Y0158916D01*
X0319685Y0159031D01*
X0319728Y0159146D01*
X0319768Y0159263D01*
X0319805Y0159382D01*
X0319837Y0159501D01*
X0319866Y0159621D01*
X0319891Y0159742D01*
X0319913Y0159864D01*
X0319930Y0159987D01*
X0319944Y0160109D01*
X0319953Y0160233D01*
X0319959Y0160356D01*
X0319961Y0160480D01*
X0319959Y0160604D01*
X0319953Y0160727D01*
X0319944Y0160851D01*
X0319930Y0160973D01*
X0319913Y0161096D01*
X0319891Y0161218D01*
X0319866Y0161339D01*
X0319837Y0161459D01*
X0319805Y0161578D01*
X0319768Y0161697D01*
X0319728Y0161814D01*
X0319685Y0161929D01*
X0319637Y0162044D01*
X0319586Y0162156D01*
X0319532Y0162267D01*
X0319474Y0162377D01*
X0319413Y0162484D01*
X0319348Y0162590D01*
X0319280Y0162693D01*
X0319209Y0162794D01*
X0319135Y0162893D01*
X0319058Y0162990D01*
X0318977Y0163084D01*
X0318894Y0163175D01*
X0318808Y0163264D01*
X0318719Y0163350D01*
X0318628Y0163433D01*
X0318534Y0163514D01*
X0318437Y0163591D01*
X0318338Y0163665D01*
X0318237Y0163736D01*
X0318134Y0163804D01*
X0318028Y0163869D01*
X0317921Y0163930D01*
X0317811Y0163988D01*
X0317700Y0164042D01*
X0317588Y0164093D01*
X0317473Y0164141D01*
X0317358Y0164184D01*
X0317241Y0164224D01*
X0317122Y0164261D01*
X0317003Y0164293D01*
X0316883Y0164322D01*
X0316762Y0164347D01*
X0316640Y0164369D01*
X0316517Y0164386D01*
X0316395Y0164400D01*
X0316271Y0164409D01*
X0316148Y0164415D01*
X0316024Y0164417D01*
X0247126Y0164417D01*
X0247002Y0164415D01*
X0246879Y0164409D01*
X0246755Y0164400D01*
X0246633Y0164386D01*
X0246510Y0164369D01*
X0246388Y0164347D01*
X0246267Y0164322D01*
X0246147Y0164293D01*
X0246028Y0164261D01*
X0245909Y0164224D01*
X0245792Y0164184D01*
X0245677Y0164141D01*
X0245562Y0164093D01*
X0245450Y0164042D01*
X0245339Y0163988D01*
X0245229Y0163930D01*
X0245122Y0163869D01*
X0245016Y0163804D01*
X0244913Y0163736D01*
X0244812Y0163665D01*
X0244713Y0163591D01*
X0244616Y0163514D01*
X0244522Y0163433D01*
X0244431Y0163350D01*
X0244342Y0163264D01*
X0244256Y0163175D01*
X0244173Y0163084D01*
X0244092Y0162990D01*
X0244015Y0162893D01*
X0243941Y0162794D01*
X0243870Y0162693D01*
X0243802Y0162590D01*
X0243737Y0162484D01*
X0243676Y0162377D01*
X0243618Y0162267D01*
X0243564Y0162156D01*
X0243513Y0162044D01*
X0243465Y0161929D01*
X0243422Y0161814D01*
X0243382Y0161697D01*
X0243345Y0161578D01*
X0243313Y0161459D01*
X0243284Y0161339D01*
X0243259Y0161218D01*
X0243237Y0161096D01*
X0243220Y0160973D01*
X0243206Y0160851D01*
X0243197Y0160727D01*
X0243191Y0160604D01*
X0243189Y0160480D01*
X0243191Y0160356D01*
X0243197Y0160233D01*
X0243206Y0160109D01*
X0243220Y0159987D01*
X0243237Y0159864D01*
X0243259Y0159742D01*
X0243284Y0159621D01*
X0243313Y0159501D01*
X0243345Y0159382D01*
X0243382Y0159263D01*
X0243422Y0159146D01*
X0243465Y0159031D01*
X0243513Y0158916D01*
X0243564Y0158804D01*
X0243618Y0158693D01*
X0243676Y0158583D01*
X0243737Y0158476D01*
X0243802Y0158370D01*
X0243870Y0158267D01*
X0243941Y0158166D01*
X0244015Y0158067D01*
X0244092Y0157970D01*
X0244173Y0157876D01*
X0244256Y0157785D01*
X0244342Y0157696D01*
X0244431Y0157610D01*
X0244522Y0157527D01*
X0244616Y0157446D01*
X0244713Y0157369D01*
X0244812Y0157295D01*
X0244913Y0157224D01*
X0245016Y0157156D01*
X0245122Y0157091D01*
X0245229Y0157030D01*
X0245339Y0156972D01*
X0245450Y0156918D01*
X0245562Y0156867D01*
X0245677Y0156819D01*
X0245792Y0156776D01*
X0245909Y0156736D01*
X0246028Y0156699D01*
X0246147Y0156667D01*
X0246267Y0156638D01*
X0246388Y0156613D01*
X0246510Y0156591D01*
X0246633Y0156574D01*
X0246755Y0156560D01*
X0246879Y0156551D01*
X0247002Y0156545D01*
X0247126Y0156543D01*
X0154606Y0140795D02*
X0154606Y0022685D01*
X0081772Y0022685D01*
X0081772Y0140795D01*
X0154606Y0140795D01*
X0225472Y0026622D02*
X0225474Y0026498D01*
X0225480Y0026375D01*
X0225489Y0026251D01*
X0225503Y0026129D01*
X0225520Y0026006D01*
X0225542Y0025884D01*
X0225567Y0025763D01*
X0225596Y0025643D01*
X0225628Y0025524D01*
X0225665Y0025405D01*
X0225705Y0025288D01*
X0225748Y0025173D01*
X0225796Y0025058D01*
X0225847Y0024946D01*
X0225901Y0024835D01*
X0225959Y0024725D01*
X0226020Y0024618D01*
X0226085Y0024512D01*
X0226153Y0024409D01*
X0226224Y0024308D01*
X0226298Y0024209D01*
X0226375Y0024112D01*
X0226456Y0024018D01*
X0226539Y0023927D01*
X0226625Y0023838D01*
X0226714Y0023752D01*
X0226805Y0023669D01*
X0226899Y0023588D01*
X0226996Y0023511D01*
X0227095Y0023437D01*
X0227196Y0023366D01*
X0227299Y0023298D01*
X0227405Y0023233D01*
X0227512Y0023172D01*
X0227622Y0023114D01*
X0227733Y0023060D01*
X0227845Y0023009D01*
X0227960Y0022961D01*
X0228075Y0022918D01*
X0228192Y0022878D01*
X0228311Y0022841D01*
X0228430Y0022809D01*
X0228550Y0022780D01*
X0228671Y0022755D01*
X0228793Y0022733D01*
X0228916Y0022716D01*
X0229038Y0022702D01*
X0229162Y0022693D01*
X0229285Y0022687D01*
X0229409Y0022685D01*
X0040433Y0004969D02*
X0039838Y0005000D01*
X0039245Y0005045D01*
X0038653Y0005105D01*
X0038062Y0005179D01*
X0037474Y0005267D01*
X0036888Y0005369D01*
X0036304Y0005486D01*
X0035724Y0005616D01*
X0035146Y0005761D01*
X0034573Y0005919D01*
X0034003Y0006092D01*
X0033438Y0006278D01*
X0032877Y0006477D01*
X0032322Y0006690D01*
X0031771Y0006917D01*
X0031226Y0007156D01*
X0030688Y0007409D01*
X0030155Y0007675D01*
X0029629Y0007953D01*
X0029110Y0008245D01*
X0028599Y0008548D01*
X0028094Y0008864D01*
X0027598Y0009192D01*
X0027109Y0009532D01*
X0026629Y0009884D01*
X0026157Y0010247D01*
X0025695Y0010621D01*
X0025241Y0011006D01*
X0024798Y0011403D01*
X0024363Y0011810D01*
X0023939Y0012227D01*
X0023525Y0012654D01*
X0023121Y0013092D01*
X0022728Y0013538D01*
X0022346Y0013995D01*
X0021975Y0014460D01*
X0021616Y0014934D01*
X0021268Y0015417D01*
X0020932Y0015908D01*
X0020607Y0016407D01*
X0020295Y0016914D01*
X0019995Y0017428D01*
X0019708Y0017949D01*
X0019434Y0018477D01*
X0019172Y0019011D01*
X0018923Y0019552D01*
X0018687Y0020098D01*
X0018465Y0020650D01*
X0018256Y0021208D01*
X0018061Y0021770D01*
X0017879Y0022336D01*
X0017711Y0022907D01*
X0017557Y0023482D01*
X0017416Y0024060D01*
X0017290Y0024642D01*
X0017178Y0025226D01*
X0017080Y0025813D01*
X0016996Y0026403D01*
X0016927Y0026994D01*
X0016871Y0027586D01*
X0016831Y0028180D01*
X0016804Y0028774D01*
X0016792Y0029369D01*
X0016794Y0029964D01*
X0016811Y0030559D01*
X0028622Y0160480D02*
X0028624Y0160604D01*
X0028630Y0160727D01*
X0028639Y0160851D01*
X0028653Y0160973D01*
X0028670Y0161096D01*
X0028692Y0161218D01*
X0028717Y0161339D01*
X0028746Y0161459D01*
X0028778Y0161578D01*
X0028815Y0161697D01*
X0028855Y0161814D01*
X0028898Y0161929D01*
X0028946Y0162044D01*
X0028997Y0162156D01*
X0029051Y0162267D01*
X0029109Y0162377D01*
X0029170Y0162484D01*
X0029235Y0162590D01*
X0029303Y0162693D01*
X0029374Y0162794D01*
X0029448Y0162893D01*
X0029525Y0162990D01*
X0029606Y0163084D01*
X0029689Y0163175D01*
X0029775Y0163264D01*
X0029864Y0163350D01*
X0029955Y0163433D01*
X0030049Y0163514D01*
X0030146Y0163591D01*
X0030245Y0163665D01*
X0030346Y0163736D01*
X0030449Y0163804D01*
X0030555Y0163869D01*
X0030662Y0163930D01*
X0030772Y0163988D01*
X0030883Y0164042D01*
X0030995Y0164093D01*
X0031110Y0164141D01*
X0031225Y0164184D01*
X0031342Y0164224D01*
X0031461Y0164261D01*
X0031580Y0164293D01*
X0031700Y0164322D01*
X0031821Y0164347D01*
X0031943Y0164369D01*
X0032066Y0164386D01*
X0032188Y0164400D01*
X0032312Y0164409D01*
X0032435Y0164415D01*
X0032559Y0164417D01*
X0016811Y0298276D02*
X0016865Y0298798D01*
X0016932Y0299319D01*
X0017011Y0299839D01*
X0017102Y0300356D01*
X0017206Y0300871D01*
X0017323Y0301384D01*
X0017452Y0301893D01*
X0017593Y0302399D01*
X0017746Y0302902D01*
X0017912Y0303400D01*
X0018089Y0303895D01*
X0018278Y0304385D01*
X0018479Y0304871D01*
X0018692Y0305351D01*
X0018916Y0305826D01*
X0019152Y0306296D01*
X0019399Y0306759D01*
X0019657Y0307217D01*
X0019926Y0307668D01*
X0020206Y0308113D01*
X0020497Y0308551D01*
X0020798Y0308981D01*
X0021110Y0309405D01*
X0021431Y0309820D01*
X0021763Y0310228D01*
X0022104Y0310627D01*
X0022455Y0311018D01*
X0022815Y0311401D01*
X0023184Y0311775D01*
X0023562Y0312140D01*
X0023949Y0312495D01*
X0024345Y0312841D01*
X0024748Y0313177D01*
X0025160Y0313504D01*
X0025579Y0313820D01*
X0026006Y0314127D01*
X0026441Y0314422D01*
X0026882Y0314708D01*
X0027330Y0314982D01*
X0027784Y0315246D01*
X0028245Y0315498D01*
X0028712Y0315740D01*
X0029184Y0315970D01*
X0029662Y0316188D01*
X0030145Y0316395D01*
X0030633Y0316590D01*
X0031125Y0316774D01*
X0031622Y0316945D01*
X0032123Y0317104D01*
X0032627Y0317252D01*
X0033135Y0317387D01*
X0033646Y0317509D01*
X0034160Y0317619D01*
X0034676Y0317717D01*
X0035194Y0317803D01*
X0035715Y0317875D01*
X0036237Y0317936D01*
X0036760Y0317983D01*
X0037284Y0318018D01*
X0037809Y0318040D01*
X0038334Y0318050D01*
X0038860Y0318046D01*
X0039385Y0318031D01*
X0039910Y0318002D01*
X0040434Y0317961D01*
D13*
X0156772Y0262685D03*
X0176693Y0246228D03*
X0183622Y0257488D03*
X0170197Y0286937D03*
X0181890Y0219811D03*
X0192283Y0213315D03*
X0117047Y0125520D03*
X0103622Y0101268D03*
X0123543Y0084811D03*
X0130472Y0096071D03*
X0128740Y0058394D03*
X0139134Y0051898D03*
X0266024Y0099299D03*
X0285945Y0082843D03*
X0292874Y0094102D03*
X0279449Y0123551D03*
X0291142Y0056425D03*
X0301535Y0049929D03*
D14*
X0301535Y0056858D03*
X0291142Y0049929D03*
X0269055Y0054693D03*
X0286378Y0083276D03*
X0292441Y0092370D03*
X0292441Y0092803D03*
X0181890Y0213315D03*
X0192283Y0220244D03*
X0177126Y0246661D03*
X0183189Y0255756D03*
X0183189Y0256189D03*
X0159803Y0218079D03*
X0130039Y0094772D03*
X0130039Y0094339D03*
X0123976Y0085244D03*
X0139134Y0058827D03*
X0128740Y0051898D03*
X0106654Y0056661D03*
D15*
X0107087Y0056228D03*
X0107087Y0055795D03*
X0107087Y0055362D03*
X0107087Y0054929D03*
X0107087Y0054496D03*
X0107087Y0054063D03*
X0107087Y0053630D03*
X0107087Y0053197D03*
X0107087Y0052764D03*
X0107087Y0052331D03*
X0107087Y0051898D03*
X0113583Y0051898D03*
X0113583Y0054496D03*
X0113583Y0054929D03*
X0113583Y0055362D03*
X0113583Y0055795D03*
X0113583Y0056228D03*
X0113583Y0058827D03*
X0113583Y0059260D03*
X0113583Y0059693D03*
X0113583Y0060126D03*
X0113583Y0060559D03*
X0113583Y0060992D03*
X0113583Y0061425D03*
X0113583Y0061858D03*
X0113583Y0062291D03*
X0107087Y0058827D03*
X0107087Y0058394D03*
X0104488Y0058394D03*
X0098425Y0054496D03*
X0098425Y0054063D03*
X0097992Y0053630D03*
X0093228Y0056661D03*
X0118780Y0056228D03*
X0125276Y0056228D03*
X0125276Y0055795D03*
X0125276Y0055362D03*
X0125276Y0054929D03*
X0125276Y0054496D03*
X0125276Y0051898D03*
X0130906Y0055362D03*
X0125276Y0058394D03*
X0125276Y0058827D03*
X0123543Y0067488D03*
X0123976Y0067921D03*
X0124409Y0068787D03*
X0124843Y0069220D03*
X0124843Y0069654D03*
X0125276Y0070087D03*
X0125709Y0070953D03*
X0126142Y0071386D03*
X0126575Y0072252D03*
X0127008Y0072685D03*
X0127008Y0073118D03*
X0127441Y0073551D03*
X0127874Y0074417D03*
X0128307Y0074850D03*
X0128740Y0075717D03*
X0129173Y0076150D03*
X0129606Y0077016D03*
X0130039Y0077449D03*
X0130039Y0077882D03*
X0130472Y0078315D03*
X0130906Y0079181D03*
X0131339Y0079614D03*
X0131772Y0080480D03*
X0132205Y0080913D03*
X0132205Y0081346D03*
X0132638Y0081780D03*
X0133071Y0082646D03*
X0133504Y0083079D03*
X0133937Y0083945D03*
X0134370Y0084378D03*
X0134803Y0085244D03*
X0135236Y0085677D03*
X0135236Y0086110D03*
X0135669Y0086543D03*
X0136102Y0087409D03*
X0136535Y0087843D03*
X0136969Y0088709D03*
X0137402Y0089142D03*
X0137402Y0089575D03*
X0137835Y0090008D03*
X0138268Y0090874D03*
X0138701Y0091307D03*
X0139134Y0092173D03*
X0139567Y0092606D03*
X0140000Y0093472D03*
X0140433Y0093906D03*
X0140433Y0094339D03*
X0140866Y0094772D03*
X0141299Y0095638D03*
X0141732Y0096071D03*
X0142165Y0096937D03*
X0142598Y0097370D03*
X0142598Y0097803D03*
X0143031Y0098236D03*
X0143465Y0099102D03*
X0143898Y0099535D03*
X0144331Y0100402D03*
X0144764Y0100835D03*
X0145197Y0101701D03*
X0141732Y0104299D03*
X0141299Y0103866D03*
X0140866Y0103000D03*
X0140433Y0102567D03*
X0140433Y0102134D03*
X0140000Y0101701D03*
X0139567Y0100835D03*
X0139134Y0100402D03*
X0138701Y0099535D03*
X0138268Y0099102D03*
X0138268Y0098669D03*
X0137835Y0098236D03*
X0137402Y0097370D03*
X0136969Y0096937D03*
X0136535Y0096071D03*
X0136102Y0095638D03*
X0135669Y0094772D03*
X0135236Y0094339D03*
X0135236Y0093906D03*
X0134803Y0093472D03*
X0134370Y0092606D03*
X0133937Y0092173D03*
X0133504Y0091307D03*
X0133071Y0090874D03*
X0133071Y0090441D03*
X0132638Y0090008D03*
X0132205Y0089142D03*
X0131772Y0088709D03*
X0131339Y0087843D03*
X0130906Y0087409D03*
X0130472Y0086543D03*
X0130039Y0086110D03*
X0130039Y0085677D03*
X0129606Y0085244D03*
X0129173Y0084378D03*
X0128740Y0083945D03*
X0128307Y0083079D03*
X0127874Y0082646D03*
X0127874Y0082213D03*
X0127441Y0081780D03*
X0127008Y0080913D03*
X0126575Y0080480D03*
X0126142Y0079614D03*
X0125709Y0079181D03*
X0125276Y0078315D03*
X0124843Y0077882D03*
X0124843Y0077449D03*
X0124409Y0077016D03*
X0123976Y0076150D03*
X0123543Y0075717D03*
X0123110Y0074850D03*
X0122677Y0074417D03*
X0122677Y0073984D03*
X0122244Y0073551D03*
X0121811Y0072685D03*
X0121378Y0072252D03*
X0120945Y0071386D03*
X0120512Y0070953D03*
X0120079Y0070087D03*
X0119646Y0069654D03*
X0119646Y0069220D03*
X0119213Y0068787D03*
X0118780Y0067921D03*
X0118346Y0067488D03*
X0117913Y0066622D03*
X0117480Y0066189D03*
X0130039Y0069654D03*
X0130472Y0070087D03*
X0130906Y0070953D03*
X0131339Y0071386D03*
X0131772Y0072252D03*
X0132205Y0072685D03*
X0132205Y0073118D03*
X0132638Y0073551D03*
X0133071Y0074417D03*
X0133504Y0074850D03*
X0133937Y0075717D03*
X0134370Y0076150D03*
X0134370Y0076583D03*
X0134803Y0077016D03*
X0135236Y0077882D03*
X0135669Y0078315D03*
X0136102Y0079181D03*
X0136535Y0079614D03*
X0136969Y0080480D03*
X0137402Y0080913D03*
X0137402Y0081346D03*
X0137835Y0081780D03*
X0138268Y0082646D03*
X0138701Y0083079D03*
X0139134Y0083945D03*
X0139567Y0084378D03*
X0139567Y0084811D03*
X0140000Y0085244D03*
X0140433Y0086110D03*
X0140866Y0086543D03*
X0141299Y0087409D03*
X0141732Y0087843D03*
X0142165Y0088709D03*
X0142598Y0089142D03*
X0142598Y0089575D03*
X0143031Y0090008D03*
X0143465Y0090874D03*
X0143898Y0091307D03*
X0144331Y0092173D03*
X0144764Y0092606D03*
X0144764Y0093039D03*
X0145197Y0093472D03*
X0145630Y0094339D03*
X0146063Y0094772D03*
X0146063Y0095205D03*
X0142165Y0105165D03*
X0142598Y0105598D03*
X0143031Y0106465D03*
X0143465Y0106898D03*
X0143465Y0107331D03*
X0129606Y0093472D03*
X0129173Y0092606D03*
X0125276Y0086543D03*
X0142165Y0080913D03*
X0141732Y0056228D03*
X0141732Y0055795D03*
X0141732Y0054929D03*
X0141732Y0054496D03*
X0136969Y0056661D03*
X0255630Y0054693D03*
X0260827Y0052528D03*
X0260827Y0052094D03*
X0260394Y0051661D03*
X0266890Y0056425D03*
X0269488Y0056425D03*
X0269488Y0056858D03*
X0269488Y0054260D03*
X0269488Y0053827D03*
X0269488Y0053394D03*
X0269488Y0052961D03*
X0269488Y0052528D03*
X0269488Y0052094D03*
X0269488Y0051661D03*
X0269488Y0051228D03*
X0269488Y0050795D03*
X0269488Y0050362D03*
X0269488Y0049929D03*
X0275984Y0049929D03*
X0275984Y0052528D03*
X0275984Y0052961D03*
X0275984Y0053394D03*
X0275984Y0053827D03*
X0275984Y0054260D03*
X0275984Y0056858D03*
X0275984Y0057291D03*
X0275984Y0057724D03*
X0275984Y0058157D03*
X0275984Y0058591D03*
X0275984Y0059024D03*
X0275984Y0059457D03*
X0275984Y0059890D03*
X0275984Y0060323D03*
X0279882Y0064220D03*
X0280315Y0064654D03*
X0280748Y0065520D03*
X0281181Y0065953D03*
X0281614Y0066819D03*
X0282047Y0067252D03*
X0282047Y0067685D03*
X0282480Y0068118D03*
X0282913Y0068984D03*
X0283346Y0069417D03*
X0283780Y0070283D03*
X0284213Y0070717D03*
X0284646Y0071583D03*
X0285079Y0072016D03*
X0285079Y0072449D03*
X0285512Y0072882D03*
X0285945Y0073748D03*
X0286378Y0074181D03*
X0286811Y0075047D03*
X0287244Y0075480D03*
X0287244Y0075913D03*
X0287677Y0076346D03*
X0288110Y0077213D03*
X0288543Y0077646D03*
X0288976Y0078512D03*
X0289409Y0078945D03*
X0289843Y0079811D03*
X0290276Y0080244D03*
X0290276Y0080677D03*
X0290709Y0081110D03*
X0291142Y0081976D03*
X0291575Y0082409D03*
X0292008Y0083276D03*
X0292441Y0083709D03*
X0292441Y0084142D03*
X0292874Y0084575D03*
X0293307Y0085441D03*
X0293740Y0085874D03*
X0294173Y0086740D03*
X0294606Y0087173D03*
X0295039Y0088039D03*
X0295472Y0088472D03*
X0295472Y0088906D03*
X0295906Y0089339D03*
X0296339Y0090205D03*
X0296772Y0090638D03*
X0297205Y0091504D03*
X0297638Y0091937D03*
X0297638Y0092370D03*
X0298071Y0092803D03*
X0298504Y0093669D03*
X0298937Y0094102D03*
X0299370Y0094969D03*
X0299803Y0095402D03*
X0300236Y0096268D03*
X0300669Y0096701D03*
X0300669Y0097134D03*
X0301102Y0097567D03*
X0301535Y0098433D03*
X0301969Y0098866D03*
X0302402Y0099732D03*
X0302835Y0100165D03*
X0302835Y0100598D03*
X0303268Y0101031D03*
X0303701Y0101898D03*
X0304134Y0102331D03*
X0304567Y0103197D03*
X0305000Y0103630D03*
X0305433Y0104496D03*
X0305866Y0104929D03*
X0305866Y0105362D03*
X0307598Y0099732D03*
X0307165Y0098866D03*
X0306732Y0098433D03*
X0306299Y0097567D03*
X0305866Y0097134D03*
X0305433Y0096268D03*
X0305000Y0095835D03*
X0305000Y0095402D03*
X0304567Y0094969D03*
X0304134Y0094102D03*
X0303701Y0093669D03*
X0303268Y0092803D03*
X0302835Y0092370D03*
X0302835Y0091937D03*
X0302402Y0091504D03*
X0301969Y0090638D03*
X0301535Y0090205D03*
X0301102Y0089339D03*
X0300669Y0088906D03*
X0300236Y0088039D03*
X0299803Y0087606D03*
X0299803Y0087173D03*
X0299370Y0086740D03*
X0298937Y0085874D03*
X0298504Y0085441D03*
X0298071Y0084575D03*
X0297638Y0084142D03*
X0297638Y0083709D03*
X0297205Y0083276D03*
X0296772Y0082409D03*
X0296339Y0081976D03*
X0295906Y0081110D03*
X0295472Y0080677D03*
X0295039Y0079811D03*
X0294606Y0079378D03*
X0294606Y0078945D03*
X0294173Y0078512D03*
X0293740Y0077646D03*
X0293307Y0077213D03*
X0292874Y0076346D03*
X0292441Y0075913D03*
X0292441Y0075480D03*
X0292008Y0075047D03*
X0291575Y0074181D03*
X0291142Y0073748D03*
X0290709Y0072882D03*
X0290276Y0072449D03*
X0289843Y0071583D03*
X0289409Y0071150D03*
X0289409Y0070717D03*
X0288976Y0070283D03*
X0288543Y0069417D03*
X0288110Y0068984D03*
X0287677Y0068118D03*
X0287244Y0067685D03*
X0287244Y0067252D03*
X0286811Y0066819D03*
X0286378Y0065953D03*
X0285945Y0065520D03*
X0292441Y0067685D03*
X0292874Y0068118D03*
X0293307Y0068984D03*
X0293740Y0069417D03*
X0294173Y0070283D03*
X0294606Y0070717D03*
X0294606Y0071150D03*
X0295039Y0071583D03*
X0295472Y0072449D03*
X0295906Y0072882D03*
X0296339Y0073748D03*
X0296772Y0074181D03*
X0296772Y0074614D03*
X0297205Y0075047D03*
X0297638Y0075913D03*
X0298071Y0076346D03*
X0298504Y0077213D03*
X0298937Y0077646D03*
X0299370Y0078512D03*
X0299803Y0078945D03*
X0299803Y0079378D03*
X0300236Y0079811D03*
X0300669Y0080677D03*
X0301102Y0081110D03*
X0301535Y0081976D03*
X0301969Y0082409D03*
X0301969Y0082843D03*
X0302402Y0083276D03*
X0302835Y0084142D03*
X0303268Y0084575D03*
X0303701Y0085441D03*
X0304134Y0085874D03*
X0304567Y0086740D03*
X0305000Y0087173D03*
X0305000Y0087606D03*
X0305433Y0088039D03*
X0305866Y0088906D03*
X0306299Y0089339D03*
X0306732Y0090205D03*
X0307165Y0090638D03*
X0307165Y0091071D03*
X0307598Y0091504D03*
X0308031Y0092370D03*
X0308465Y0092803D03*
X0308465Y0093236D03*
X0304567Y0078945D03*
X0291575Y0090638D03*
X0292008Y0091504D03*
X0287677Y0084575D03*
X0287677Y0056858D03*
X0287677Y0056425D03*
X0287677Y0054260D03*
X0287677Y0053827D03*
X0287677Y0053394D03*
X0287677Y0052961D03*
X0287677Y0052528D03*
X0287677Y0049929D03*
X0293307Y0053394D03*
X0299370Y0054693D03*
X0304134Y0054260D03*
X0304134Y0053827D03*
X0304134Y0052961D03*
X0304134Y0052528D03*
X0281181Y0054260D03*
X0178425Y0213315D03*
X0178425Y0215913D03*
X0178425Y0216346D03*
X0178425Y0216780D03*
X0178425Y0217213D03*
X0178425Y0217646D03*
X0178425Y0219811D03*
X0178425Y0220244D03*
X0184055Y0216780D03*
X0190118Y0218079D03*
X0194882Y0217646D03*
X0194882Y0217213D03*
X0194882Y0216346D03*
X0194882Y0215913D03*
X0183189Y0231071D03*
X0183622Y0231504D03*
X0184055Y0232370D03*
X0184488Y0232803D03*
X0184921Y0233669D03*
X0185354Y0234102D03*
X0185354Y0234535D03*
X0185787Y0234969D03*
X0186220Y0235835D03*
X0186654Y0236268D03*
X0187087Y0237134D03*
X0187520Y0237567D03*
X0187520Y0238000D03*
X0187953Y0238433D03*
X0188386Y0239299D03*
X0188819Y0239732D03*
X0189252Y0240598D03*
X0189685Y0241031D03*
X0190118Y0241898D03*
X0190551Y0242331D03*
X0190551Y0242764D03*
X0190984Y0243197D03*
X0191417Y0244063D03*
X0191850Y0244496D03*
X0192283Y0245362D03*
X0192717Y0245795D03*
X0192717Y0246228D03*
X0193150Y0246661D03*
X0193583Y0247528D03*
X0194016Y0247961D03*
X0194449Y0248827D03*
X0194882Y0249260D03*
X0195315Y0250126D03*
X0195748Y0250559D03*
X0195748Y0250992D03*
X0196181Y0251425D03*
X0196614Y0252291D03*
X0197047Y0252724D03*
X0197480Y0253591D03*
X0197913Y0254024D03*
X0197913Y0254457D03*
X0198346Y0254890D03*
X0198780Y0255756D03*
X0199213Y0256189D03*
X0199213Y0256622D03*
X0195748Y0258787D03*
X0195748Y0259220D03*
X0196181Y0259654D03*
X0196614Y0260520D03*
X0197047Y0260953D03*
X0197480Y0261819D03*
X0197913Y0262252D03*
X0198346Y0263118D03*
X0194882Y0265717D03*
X0194449Y0265283D03*
X0194016Y0264417D03*
X0193583Y0263984D03*
X0193583Y0263551D03*
X0193150Y0263118D03*
X0192717Y0262252D03*
X0192283Y0261819D03*
X0191850Y0260953D03*
X0191417Y0260520D03*
X0191417Y0260087D03*
X0190984Y0259654D03*
X0190551Y0258787D03*
X0190118Y0258354D03*
X0189685Y0257488D03*
X0189252Y0257055D03*
X0188819Y0256189D03*
X0188386Y0255756D03*
X0188386Y0255323D03*
X0187953Y0254890D03*
X0187520Y0254024D03*
X0187087Y0253591D03*
X0186654Y0252724D03*
X0186220Y0252291D03*
X0186220Y0251858D03*
X0185787Y0251425D03*
X0185354Y0250559D03*
X0184921Y0250126D03*
X0184488Y0249260D03*
X0184055Y0248827D03*
X0183622Y0247961D03*
X0183189Y0247528D03*
X0183189Y0247094D03*
X0182756Y0246661D03*
X0182323Y0245795D03*
X0181890Y0245362D03*
X0181457Y0244496D03*
X0181024Y0244063D03*
X0181024Y0243630D03*
X0180591Y0243197D03*
X0180157Y0242331D03*
X0179724Y0241898D03*
X0179291Y0241031D03*
X0178858Y0240598D03*
X0178425Y0239732D03*
X0177992Y0239299D03*
X0177992Y0238866D03*
X0177559Y0238433D03*
X0177126Y0237567D03*
X0176693Y0237134D03*
X0176260Y0236268D03*
X0175827Y0235835D03*
X0175827Y0235402D03*
X0175394Y0234969D03*
X0174961Y0234102D03*
X0174528Y0233669D03*
X0174094Y0232803D03*
X0173661Y0232370D03*
X0173228Y0231504D03*
X0172795Y0231071D03*
X0172795Y0230638D03*
X0172362Y0230205D03*
X0171929Y0229339D03*
X0171496Y0228906D03*
X0171063Y0228039D03*
X0170630Y0227606D03*
X0166732Y0223709D03*
X0166732Y0223276D03*
X0166732Y0222843D03*
X0166732Y0222409D03*
X0166732Y0221976D03*
X0166732Y0221543D03*
X0166732Y0221110D03*
X0166732Y0220677D03*
X0166732Y0220244D03*
X0166732Y0217646D03*
X0166732Y0217213D03*
X0166732Y0216780D03*
X0166732Y0216346D03*
X0166732Y0215913D03*
X0166732Y0213315D03*
X0160236Y0213315D03*
X0160236Y0213748D03*
X0160236Y0214181D03*
X0160236Y0214614D03*
X0160236Y0215047D03*
X0160236Y0215480D03*
X0160236Y0215913D03*
X0160236Y0216346D03*
X0160236Y0216780D03*
X0160236Y0217213D03*
X0160236Y0217646D03*
X0160236Y0219811D03*
X0160236Y0220244D03*
X0157638Y0219811D03*
X0151575Y0215913D03*
X0151575Y0215480D03*
X0151142Y0215047D03*
X0146378Y0218079D03*
X0171929Y0217646D03*
X0176693Y0228906D03*
X0177126Y0229339D03*
X0177559Y0230205D03*
X0177992Y0230638D03*
X0177992Y0231071D03*
X0178425Y0231504D03*
X0178858Y0232370D03*
X0179291Y0232803D03*
X0179724Y0233669D03*
X0180157Y0234102D03*
X0180157Y0234535D03*
X0180591Y0234969D03*
X0181024Y0235835D03*
X0181457Y0236268D03*
X0181890Y0237134D03*
X0182323Y0237567D03*
X0182756Y0238433D03*
X0183189Y0238866D03*
X0183189Y0239299D03*
X0183622Y0239732D03*
X0184055Y0240598D03*
X0184488Y0241031D03*
X0184921Y0241898D03*
X0185354Y0242331D03*
X0185354Y0242764D03*
X0185787Y0243197D03*
X0186220Y0244063D03*
X0186654Y0244496D03*
X0187087Y0245362D03*
X0187520Y0245795D03*
X0187953Y0246661D03*
X0188386Y0247094D03*
X0188386Y0247528D03*
X0188819Y0247961D03*
X0189252Y0248827D03*
X0189685Y0249260D03*
X0190118Y0250126D03*
X0190551Y0250559D03*
X0190551Y0250992D03*
X0190984Y0251425D03*
X0191417Y0252291D03*
X0191850Y0252724D03*
X0192283Y0253591D03*
X0192717Y0254024D03*
X0193150Y0254890D03*
X0193583Y0255323D03*
X0193583Y0255756D03*
X0194016Y0256189D03*
X0194449Y0257055D03*
X0194882Y0257488D03*
X0195315Y0258354D03*
X0195315Y0266583D03*
X0195748Y0267016D03*
X0196181Y0267882D03*
X0196614Y0268315D03*
X0196614Y0268748D03*
X0182756Y0254890D03*
X0182323Y0254024D03*
X0178425Y0247961D03*
X0195315Y0242331D03*
D16*
X0192067Y0244929D03*
X0191201Y0243630D03*
X0189902Y0241465D03*
X0189035Y0240165D03*
X0188169Y0238866D03*
X0186870Y0236701D03*
X0186004Y0235402D03*
X0184705Y0233236D03*
X0183839Y0231937D03*
X0182972Y0230638D03*
X0179508Y0233236D03*
X0178642Y0231937D03*
X0177343Y0229772D03*
X0176476Y0228472D03*
X0173445Y0231937D03*
X0174311Y0233236D03*
X0175177Y0234535D03*
X0176476Y0236701D03*
X0177343Y0238000D03*
X0178642Y0240165D03*
X0179508Y0241465D03*
X0180374Y0242764D03*
X0181673Y0244929D03*
X0182539Y0246228D03*
X0183839Y0248394D03*
X0184705Y0249693D03*
X0185571Y0250992D03*
X0186870Y0253157D03*
X0187736Y0254457D03*
X0189035Y0256622D03*
X0189902Y0257921D03*
X0190768Y0259220D03*
X0192067Y0261386D03*
X0192933Y0262685D03*
X0194232Y0264850D03*
X0195098Y0266150D03*
X0195965Y0267449D03*
X0198130Y0262685D03*
X0197264Y0261386D03*
X0196398Y0260087D03*
X0195098Y0257921D03*
X0194232Y0256622D03*
X0192933Y0254457D03*
X0192067Y0253157D03*
X0191201Y0251858D03*
X0189902Y0249693D03*
X0189035Y0248394D03*
X0187736Y0246228D03*
X0186870Y0244929D03*
X0186004Y0243630D03*
X0184705Y0241465D03*
X0183839Y0240165D03*
X0182539Y0238000D03*
X0181673Y0236701D03*
X0180807Y0235402D03*
X0172146Y0229772D03*
X0171280Y0228472D03*
X0169980Y0220244D03*
X0171713Y0218079D03*
X0172146Y0217213D03*
X0172146Y0216780D03*
X0172146Y0216346D03*
X0172146Y0215913D03*
X0171713Y0215480D03*
X0169980Y0213315D03*
X0166949Y0215480D03*
X0166949Y0218079D03*
X0178642Y0218079D03*
X0178642Y0215480D03*
X0181673Y0220244D03*
X0183406Y0218079D03*
X0183839Y0217646D03*
X0183839Y0217213D03*
X0183839Y0216346D03*
X0183839Y0215913D03*
X0183406Y0215480D03*
X0194665Y0215480D03*
X0195098Y0216780D03*
X0194665Y0218079D03*
X0193366Y0247094D03*
X0194232Y0248394D03*
X0195098Y0249693D03*
X0196398Y0251858D03*
X0197264Y0253157D03*
X0198563Y0255323D03*
X0182972Y0255323D03*
X0182539Y0254457D03*
X0178209Y0247528D03*
X0177776Y0247094D03*
X0157421Y0262252D03*
X0150925Y0218512D03*
X0151358Y0218079D03*
X0151358Y0217646D03*
X0146594Y0218512D03*
X0146161Y0217646D03*
X0142815Y0106031D03*
X0141949Y0104732D03*
X0141083Y0103433D03*
X0139783Y0101268D03*
X0138917Y0099969D03*
X0137618Y0097803D03*
X0136752Y0096504D03*
X0135886Y0095205D03*
X0134587Y0093039D03*
X0133720Y0091740D03*
X0132421Y0089575D03*
X0131555Y0088276D03*
X0130689Y0086976D03*
X0129390Y0084811D03*
X0128524Y0083512D03*
X0127224Y0081346D03*
X0126358Y0080047D03*
X0125492Y0078748D03*
X0124193Y0076583D03*
X0123327Y0075283D03*
X0122028Y0073118D03*
X0121161Y0071819D03*
X0120295Y0070520D03*
X0118996Y0068354D03*
X0118130Y0067055D03*
X0123327Y0067055D03*
X0124193Y0068354D03*
X0125492Y0070520D03*
X0126358Y0071819D03*
X0127657Y0073984D03*
X0128524Y0075283D03*
X0129390Y0076583D03*
X0130689Y0078748D03*
X0131555Y0080047D03*
X0132854Y0082213D03*
X0133720Y0083512D03*
X0134587Y0084811D03*
X0135886Y0086976D03*
X0136752Y0088276D03*
X0138051Y0090441D03*
X0138917Y0091740D03*
X0139783Y0093039D03*
X0141083Y0095205D03*
X0141949Y0096504D03*
X0143248Y0098669D03*
X0144114Y0099969D03*
X0144980Y0101268D03*
X0145413Y0093906D03*
X0144114Y0091740D03*
X0143248Y0090441D03*
X0141949Y0088276D03*
X0141083Y0086976D03*
X0140217Y0085677D03*
X0138917Y0083512D03*
X0138051Y0082213D03*
X0136752Y0080047D03*
X0135886Y0078748D03*
X0135020Y0077449D03*
X0133720Y0075283D03*
X0132854Y0073984D03*
X0131555Y0071819D03*
X0130689Y0070520D03*
X0129823Y0069220D03*
X0128524Y0058827D03*
X0130256Y0056661D03*
X0130689Y0056228D03*
X0130689Y0055795D03*
X0130689Y0054929D03*
X0130689Y0054496D03*
X0130256Y0054063D03*
X0125492Y0054063D03*
X0125492Y0056661D03*
X0118996Y0055795D03*
X0118996Y0055362D03*
X0118996Y0054929D03*
X0118996Y0054496D03*
X0118563Y0054063D03*
X0118563Y0056661D03*
X0116831Y0058827D03*
X0113799Y0056661D03*
X0113799Y0054063D03*
X0116831Y0051898D03*
X0098209Y0056228D03*
X0098209Y0056661D03*
X0097776Y0057094D03*
X0093445Y0057094D03*
X0093012Y0056228D03*
X0124626Y0085677D03*
X0125059Y0086110D03*
X0129390Y0093039D03*
X0129823Y0093906D03*
X0104272Y0100835D03*
X0141516Y0056661D03*
X0141949Y0055362D03*
X0141516Y0054063D03*
X0255413Y0054260D03*
X0255846Y0055126D03*
X0260177Y0055126D03*
X0260610Y0054693D03*
X0260610Y0054260D03*
X0276201Y0054693D03*
X0276201Y0052094D03*
X0279232Y0049929D03*
X0280965Y0052094D03*
X0281398Y0052528D03*
X0281398Y0052961D03*
X0281398Y0053394D03*
X0281398Y0053827D03*
X0280965Y0054693D03*
X0279232Y0056858D03*
X0280531Y0065087D03*
X0281398Y0066386D03*
X0282697Y0068551D03*
X0283563Y0069850D03*
X0284429Y0071150D03*
X0285728Y0073315D03*
X0286594Y0074614D03*
X0287894Y0076780D03*
X0288760Y0078079D03*
X0289626Y0079378D03*
X0290925Y0081543D03*
X0291791Y0082843D03*
X0293091Y0085008D03*
X0293957Y0086307D03*
X0294823Y0087606D03*
X0296122Y0089772D03*
X0296988Y0091071D03*
X0298287Y0093236D03*
X0299154Y0094535D03*
X0300020Y0095835D03*
X0301319Y0098000D03*
X0302185Y0099299D03*
X0303484Y0101465D03*
X0304350Y0102764D03*
X0305217Y0104063D03*
X0307382Y0099299D03*
X0306516Y0098000D03*
X0305650Y0096701D03*
X0304350Y0094535D03*
X0303484Y0093236D03*
X0302185Y0091071D03*
X0301319Y0089772D03*
X0300453Y0088472D03*
X0299154Y0086307D03*
X0298287Y0085008D03*
X0296988Y0082843D03*
X0296122Y0081543D03*
X0295256Y0080244D03*
X0293957Y0078079D03*
X0293091Y0076780D03*
X0291791Y0074614D03*
X0290925Y0073315D03*
X0290059Y0072016D03*
X0288760Y0069850D03*
X0287894Y0068551D03*
X0286594Y0066386D03*
X0285728Y0065087D03*
X0292224Y0067252D03*
X0293091Y0068551D03*
X0293957Y0069850D03*
X0295256Y0072016D03*
X0296122Y0073315D03*
X0297421Y0075480D03*
X0298287Y0076780D03*
X0299154Y0078079D03*
X0300453Y0080244D03*
X0301319Y0081543D03*
X0302618Y0083709D03*
X0303484Y0085008D03*
X0304350Y0086307D03*
X0305650Y0088472D03*
X0306516Y0089772D03*
X0307815Y0091937D03*
X0292224Y0091937D03*
X0291791Y0091071D03*
X0287461Y0084142D03*
X0287028Y0083709D03*
X0266673Y0098866D03*
X0290925Y0056858D03*
X0292657Y0054693D03*
X0293091Y0054260D03*
X0293091Y0053827D03*
X0293091Y0052961D03*
X0293091Y0052528D03*
X0292657Y0052094D03*
X0287894Y0052094D03*
X0287894Y0054693D03*
X0303917Y0054693D03*
X0304350Y0053394D03*
X0303917Y0052094D03*
D17*
X0292224Y0051661D03*
X0288327Y0051661D03*
X0280531Y0051661D03*
X0276634Y0051661D03*
X0274469Y0064654D03*
X0258012Y0056858D03*
X0258012Y0049929D03*
X0266240Y0088472D03*
X0292657Y0093236D03*
X0292657Y0093669D03*
X0182972Y0215047D03*
X0179075Y0215047D03*
X0171280Y0215047D03*
X0167382Y0215047D03*
X0165217Y0228039D03*
X0148760Y0220244D03*
X0148760Y0213315D03*
X0156988Y0251858D03*
X0183406Y0256622D03*
X0183406Y0257055D03*
X0130256Y0095638D03*
X0130256Y0095205D03*
X0103839Y0090441D03*
X0112067Y0066622D03*
X0114232Y0053630D03*
X0118130Y0053630D03*
X0125925Y0053630D03*
X0129823Y0053630D03*
X0095610Y0051898D03*
X0095610Y0058827D03*
D18*
X0095827Y0058394D03*
X0105787Y0057961D03*
X0105787Y0057528D03*
X0105787Y0057094D03*
X0103189Y0090008D03*
X0130906Y0097370D03*
X0139134Y0058394D03*
X0139134Y0052331D03*
X0258228Y0056425D03*
X0268189Y0055992D03*
X0268189Y0055559D03*
X0268189Y0055126D03*
X0265591Y0088039D03*
X0293307Y0095402D03*
X0301535Y0056425D03*
X0301535Y0050362D03*
X0192283Y0213748D03*
X0192283Y0219811D03*
X0158937Y0219378D03*
X0158937Y0218945D03*
X0158937Y0218512D03*
X0148976Y0219811D03*
X0156339Y0251425D03*
X0184055Y0258787D03*
D19*
X0184488Y0260953D03*
X0155906Y0263551D03*
X0155906Y0250992D03*
X0148976Y0218945D03*
X0168898Y0219811D03*
X0168898Y0213748D03*
X0180591Y0213748D03*
X0192283Y0214614D03*
X0192283Y0218945D03*
X0102756Y0102134D03*
X0102756Y0089575D03*
X0131339Y0099535D03*
X0139134Y0057528D03*
X0139134Y0053197D03*
X0127441Y0052331D03*
X0115748Y0052331D03*
X0115748Y0058394D03*
X0095827Y0057528D03*
X0258228Y0055559D03*
X0278150Y0056425D03*
X0278150Y0050362D03*
X0289843Y0050362D03*
X0301535Y0051228D03*
X0301535Y0055559D03*
X0265157Y0087606D03*
X0265157Y0100165D03*
X0293740Y0097567D03*
D20*
X0293524Y0096268D03*
X0293524Y0095835D03*
X0284429Y0081976D03*
X0258012Y0050362D03*
X0131122Y0097803D03*
X0131122Y0098236D03*
X0122028Y0083945D03*
X0095610Y0052331D03*
X0148760Y0213748D03*
X0175177Y0245362D03*
X0184272Y0259220D03*
X0184272Y0259654D03*
D21*
X0156339Y0263118D03*
X0164567Y0228472D03*
X0192283Y0219378D03*
X0192283Y0214181D03*
X0265591Y0099732D03*
X0273819Y0065087D03*
X0301535Y0055992D03*
X0301535Y0050795D03*
X0139134Y0052764D03*
X0139134Y0057961D03*
X0111417Y0067055D03*
X0103189Y0101701D03*
D22*
X0110768Y0067488D03*
X0115965Y0057961D03*
X0115965Y0057528D03*
X0115965Y0053197D03*
X0115965Y0052764D03*
X0127657Y0052764D03*
X0127657Y0057961D03*
X0139350Y0057094D03*
X0095610Y0053197D03*
X0258012Y0051228D03*
X0273169Y0065520D03*
X0278366Y0055992D03*
X0278366Y0055559D03*
X0278366Y0051228D03*
X0278366Y0050795D03*
X0290059Y0050795D03*
X0290059Y0055992D03*
X0301752Y0055126D03*
X0180807Y0214181D03*
X0180807Y0219378D03*
X0169114Y0219378D03*
X0169114Y0218945D03*
X0169114Y0214614D03*
X0169114Y0214181D03*
X0163917Y0228906D03*
X0148760Y0214614D03*
X0192500Y0218512D03*
D23*
X0148760Y0219378D03*
X0148760Y0214181D03*
X0184272Y0260087D03*
X0184272Y0260520D03*
X0131122Y0099102D03*
X0131122Y0098669D03*
X0095610Y0057961D03*
X0095610Y0052764D03*
X0258012Y0050795D03*
X0258012Y0055992D03*
X0293524Y0096701D03*
X0293524Y0097134D03*
D24*
X0293740Y0098000D03*
X0293740Y0098433D03*
X0264724Y0087173D03*
X0278583Y0055126D03*
X0290276Y0055126D03*
X0290276Y0055559D03*
X0290276Y0051228D03*
X0301535Y0051661D03*
X0139134Y0053630D03*
X0127874Y0053197D03*
X0127874Y0057094D03*
X0127874Y0057528D03*
X0116181Y0057094D03*
X0102323Y0089142D03*
X0131339Y0099969D03*
X0131339Y0100402D03*
X0181024Y0214614D03*
X0181024Y0218512D03*
X0181024Y0218945D03*
X0169331Y0218512D03*
X0192283Y0215047D03*
X0155472Y0250559D03*
X0184488Y0261386D03*
X0184488Y0261819D03*
D25*
X0182106Y0253591D03*
X0182106Y0253157D03*
X0181673Y0252724D03*
X0181240Y0251858D03*
X0180807Y0250992D03*
X0179941Y0249693D03*
X0179508Y0249260D03*
X0179075Y0248394D03*
X0192933Y0238866D03*
X0193366Y0239299D03*
X0193799Y0239732D03*
X0193799Y0240165D03*
X0194232Y0240598D03*
X0194665Y0241031D03*
X0194665Y0241465D03*
X0195098Y0241898D03*
X0195531Y0242764D03*
X0195965Y0243197D03*
X0195965Y0243630D03*
X0196398Y0244063D03*
X0196831Y0244929D03*
X0192500Y0238000D03*
X0182539Y0230205D03*
X0176043Y0228039D03*
X0190335Y0215480D03*
X0157421Y0252291D03*
X0147028Y0215047D03*
X0199429Y0257055D03*
X0198563Y0263551D03*
X0198563Y0263984D03*
X0196831Y0269181D03*
X0143681Y0107764D03*
X0145413Y0102567D03*
X0145413Y0102134D03*
X0146280Y0095638D03*
X0143681Y0083512D03*
X0143248Y0082646D03*
X0142815Y0082213D03*
X0142815Y0081780D03*
X0142382Y0081346D03*
X0141949Y0080480D03*
X0141516Y0080047D03*
X0141516Y0079614D03*
X0141083Y0079181D03*
X0140650Y0078748D03*
X0140650Y0078315D03*
X0140217Y0077882D03*
X0139783Y0077449D03*
X0139350Y0076583D03*
X0129390Y0068787D03*
X0122894Y0066622D03*
X0137185Y0054063D03*
X0125925Y0086976D03*
X0126358Y0087843D03*
X0126791Y0088276D03*
X0127657Y0089575D03*
X0128091Y0090441D03*
X0128524Y0091307D03*
X0128957Y0091740D03*
X0128957Y0092173D03*
X0104272Y0090874D03*
X0093878Y0053630D03*
X0256280Y0051661D03*
X0285295Y0064654D03*
X0291791Y0066819D03*
X0301752Y0074614D03*
X0302185Y0075480D03*
X0302618Y0075913D03*
X0303051Y0076346D03*
X0303051Y0076780D03*
X0303484Y0077213D03*
X0303917Y0077646D03*
X0303917Y0078079D03*
X0304350Y0078512D03*
X0304783Y0079378D03*
X0305217Y0079811D03*
X0305217Y0080244D03*
X0305650Y0080677D03*
X0306083Y0081543D03*
X0308681Y0093669D03*
X0307815Y0100165D03*
X0307815Y0100598D03*
X0306083Y0105795D03*
X0291358Y0090205D03*
X0291358Y0089772D03*
X0290925Y0089339D03*
X0290492Y0088472D03*
X0290059Y0087606D03*
X0289193Y0086307D03*
X0288760Y0085874D03*
X0288327Y0085008D03*
X0266673Y0088906D03*
X0299587Y0052094D03*
D26*
X0299803Y0052528D03*
X0299803Y0054260D03*
X0298937Y0071150D03*
X0299370Y0071583D03*
X0307598Y0084575D03*
X0308031Y0085441D03*
X0309331Y0095402D03*
X0308031Y0101898D03*
X0256496Y0052094D03*
X0145630Y0087409D03*
X0145197Y0086543D03*
X0146929Y0097370D03*
X0145630Y0103866D03*
X0136969Y0073551D03*
X0136535Y0073118D03*
X0137402Y0056228D03*
X0137402Y0054496D03*
X0094094Y0054063D03*
X0147244Y0215480D03*
X0190551Y0215913D03*
X0190551Y0217646D03*
X0189685Y0234535D03*
X0190118Y0234969D03*
X0198346Y0247961D03*
X0198780Y0248827D03*
X0200079Y0258787D03*
X0198780Y0265283D03*
D27*
X0148760Y0217213D03*
X0148760Y0216780D03*
X0148760Y0216346D03*
X0095610Y0055795D03*
X0095610Y0055362D03*
X0095610Y0054929D03*
X0258012Y0053827D03*
X0258012Y0053394D03*
X0258012Y0052961D03*
D28*
X0266457Y0056858D03*
X0288543Y0085441D03*
X0289409Y0086740D03*
X0289843Y0087173D03*
X0290276Y0088039D03*
X0290709Y0088906D03*
X0305866Y0081110D03*
X0306299Y0081976D03*
X0306732Y0082409D03*
X0306732Y0082843D03*
X0307165Y0083709D03*
X0301969Y0075047D03*
X0301535Y0074181D03*
X0301102Y0073748D03*
X0300669Y0073315D03*
X0308898Y0094102D03*
X0308898Y0094535D03*
X0308031Y0101031D03*
X0305866Y0106228D03*
X0266890Y0098433D03*
X0146496Y0096504D03*
X0146496Y0096071D03*
X0145630Y0103000D03*
X0143465Y0108197D03*
X0128307Y0090874D03*
X0127874Y0090008D03*
X0127441Y0089142D03*
X0127008Y0088709D03*
X0126142Y0087409D03*
X0139567Y0077016D03*
X0139134Y0076150D03*
X0138701Y0075717D03*
X0138268Y0075283D03*
X0143465Y0083079D03*
X0143898Y0083945D03*
X0144331Y0084378D03*
X0144331Y0084811D03*
X0144764Y0085677D03*
X0104488Y0100402D03*
X0104055Y0058827D03*
X0157205Y0220244D03*
X0179291Y0248827D03*
X0180157Y0250126D03*
X0180591Y0250559D03*
X0181024Y0251425D03*
X0181457Y0252291D03*
X0192717Y0238433D03*
X0192283Y0237567D03*
X0191850Y0237134D03*
X0191417Y0236701D03*
X0196614Y0244496D03*
X0197047Y0245362D03*
X0197480Y0245795D03*
X0197480Y0246228D03*
X0197913Y0247094D03*
X0199646Y0257488D03*
X0199646Y0257921D03*
X0198780Y0264417D03*
X0196614Y0269614D03*
X0157638Y0261819D03*
D29*
X0157854Y0252724D03*
X0166083Y0227606D03*
X0181673Y0229772D03*
X0190335Y0235402D03*
X0190768Y0235835D03*
X0191201Y0236268D03*
X0197697Y0246661D03*
X0198130Y0247528D03*
X0198563Y0248394D03*
X0199862Y0258354D03*
X0198563Y0264850D03*
X0196831Y0270047D03*
X0143681Y0108630D03*
X0145413Y0103433D03*
X0146713Y0096937D03*
X0145413Y0086976D03*
X0144980Y0086110D03*
X0144547Y0085244D03*
X0138051Y0074850D03*
X0137618Y0074417D03*
X0137185Y0073984D03*
X0128524Y0068354D03*
X0112933Y0066189D03*
X0104705Y0091307D03*
X0267106Y0089339D03*
X0290925Y0066386D03*
X0299587Y0072016D03*
X0300020Y0072449D03*
X0300453Y0072882D03*
X0306949Y0083276D03*
X0307382Y0084142D03*
X0307815Y0085008D03*
X0309114Y0094969D03*
X0307815Y0101465D03*
X0306083Y0106661D03*
X0275335Y0064220D03*
D30*
X0272736Y0065953D03*
X0293957Y0099299D03*
X0163484Y0229339D03*
X0184705Y0262685D03*
X0131555Y0101268D03*
X0110335Y0067921D03*
D31*
X0110118Y0068354D03*
X0101890Y0103000D03*
X0163268Y0229772D03*
X0155039Y0264417D03*
X0264291Y0101031D03*
X0272520Y0066386D03*
D32*
X0271870Y0066819D03*
X0293957Y0101465D03*
X0162618Y0230205D03*
X0184705Y0264850D03*
X0131555Y0103433D03*
X0109469Y0068787D03*
D33*
X0109252Y0069220D03*
X0101024Y0103866D03*
X0131339Y0104299D03*
X0263425Y0101898D03*
X0293740Y0102331D03*
X0271654Y0067252D03*
X0162402Y0230638D03*
X0154173Y0265283D03*
X0184488Y0265717D03*
D34*
X0184488Y0266150D03*
X0162402Y0231071D03*
X0131339Y0104732D03*
X0109252Y0069654D03*
X0271654Y0067685D03*
X0293740Y0102764D03*
D35*
X0262992Y0102331D03*
X0271220Y0068118D03*
X0108819Y0070087D03*
X0100591Y0104299D03*
X0161969Y0231504D03*
X0153740Y0265717D03*
D36*
X0161752Y0231937D03*
X0108602Y0070520D03*
X0271004Y0068551D03*
D37*
X0270787Y0068984D03*
X0262559Y0102764D03*
X0293307Y0104063D03*
X0161535Y0232370D03*
X0153307Y0266150D03*
X0184055Y0267449D03*
X0130906Y0106031D03*
X0100157Y0104732D03*
X0108386Y0070953D03*
D38*
X0108169Y0071386D03*
X0099941Y0086543D03*
X0099941Y0105165D03*
X0161319Y0232803D03*
X0153091Y0247961D03*
X0153091Y0266583D03*
X0262343Y0103197D03*
X0262343Y0084575D03*
X0270571Y0069417D03*
D39*
X0270571Y0069850D03*
X0292657Y0104929D03*
X0161319Y0233236D03*
X0183406Y0268315D03*
X0130256Y0106898D03*
X0108169Y0071819D03*
D40*
X0107953Y0072252D03*
X0099724Y0086110D03*
X0161102Y0233669D03*
X0152874Y0247528D03*
X0262126Y0084142D03*
X0270354Y0070283D03*
D41*
X0270138Y0070717D03*
X0107736Y0072685D03*
X0160886Y0234102D03*
D42*
X0160886Y0234535D03*
X0152657Y0267449D03*
X0099508Y0106031D03*
X0107736Y0073118D03*
X0261909Y0104063D03*
X0270138Y0071150D03*
D43*
X0269921Y0071583D03*
X0262126Y0083276D03*
X0107520Y0073551D03*
X0099724Y0085244D03*
X0160669Y0234969D03*
X0152874Y0246661D03*
D44*
X0153307Y0246228D03*
X0160669Y0235402D03*
X0181890Y0269181D03*
X0128740Y0107764D03*
X0100157Y0084811D03*
X0107520Y0073984D03*
X0262559Y0082843D03*
X0269921Y0072016D03*
X0291142Y0105795D03*
D45*
X0262776Y0104929D03*
X0263209Y0082409D03*
X0269705Y0072449D03*
X0107303Y0074417D03*
X0100807Y0084378D03*
X0100374Y0106898D03*
X0160453Y0235835D03*
X0153957Y0245795D03*
X0153524Y0268315D03*
D46*
X0154390Y0268748D03*
X0160453Y0236268D03*
X0101240Y0107331D03*
X0107303Y0074850D03*
X0263642Y0105362D03*
X0269705Y0072882D03*
D47*
X0269705Y0073315D03*
X0107303Y0075283D03*
X0160453Y0236701D03*
D48*
X0160236Y0237134D03*
X0170197Y0284339D03*
X0117047Y0122921D03*
X0107087Y0075717D03*
X0269488Y0073748D03*
X0279449Y0120953D03*
D49*
X0264724Y0105795D03*
X0269488Y0074181D03*
X0107087Y0076150D03*
X0102323Y0107764D03*
X0160236Y0237567D03*
X0155472Y0269181D03*
D50*
X0170197Y0283906D03*
X0160236Y0238433D03*
X0160236Y0238000D03*
X0117047Y0122488D03*
X0107087Y0077016D03*
X0107087Y0076583D03*
X0269488Y0075047D03*
X0269488Y0074614D03*
X0279449Y0120520D03*
D51*
X0269488Y0075480D03*
X0107087Y0077449D03*
X0160236Y0238866D03*
D52*
X0160236Y0239299D03*
X0170197Y0283472D03*
X0117047Y0122055D03*
X0107087Y0077882D03*
X0269488Y0075913D03*
X0279449Y0120087D03*
D53*
X0269272Y0076346D03*
X0106870Y0078315D03*
X0160020Y0239732D03*
D54*
X0160236Y0240165D03*
X0107087Y0078748D03*
X0269488Y0076780D03*
D55*
X0269272Y0077213D03*
X0106870Y0079181D03*
X0160020Y0240598D03*
D56*
X0160020Y0241031D03*
X0106870Y0079614D03*
X0269272Y0077646D03*
D57*
X0269488Y0078079D03*
X0107087Y0080047D03*
X0160236Y0241465D03*
D58*
X0160020Y0241898D03*
X0106870Y0080480D03*
X0269272Y0078512D03*
D59*
X0269272Y0078945D03*
X0106870Y0080913D03*
X0160020Y0242331D03*
D60*
X0160236Y0242764D03*
X0170197Y0282173D03*
X0117047Y0120756D03*
X0107087Y0081346D03*
X0269488Y0079378D03*
X0279449Y0118787D03*
D61*
X0269272Y0079811D03*
X0106870Y0081780D03*
X0160020Y0243197D03*
D62*
X0160236Y0243630D03*
X0107087Y0082213D03*
X0269488Y0080244D03*
D63*
X0269272Y0080677D03*
X0106870Y0082646D03*
X0160020Y0244063D03*
D64*
X0160236Y0244496D03*
X0170197Y0281740D03*
X0117047Y0120323D03*
X0107087Y0083079D03*
X0269488Y0081110D03*
X0279449Y0118354D03*
D65*
X0279449Y0117921D03*
X0269488Y0081543D03*
X0117047Y0119890D03*
X0107087Y0083512D03*
X0160236Y0244929D03*
X0170197Y0281307D03*
D66*
X0154606Y0245362D03*
X0101457Y0083945D03*
X0263858Y0081976D03*
D67*
X0285295Y0082409D03*
X0293091Y0094535D03*
X0293091Y0094969D03*
X0176043Y0245795D03*
X0183839Y0257921D03*
X0183839Y0258354D03*
X0130689Y0096937D03*
X0130689Y0096504D03*
X0122894Y0084378D03*
D68*
X0099291Y0085677D03*
X0117047Y0123787D03*
X0152441Y0247094D03*
X0170197Y0285205D03*
X0279449Y0121819D03*
X0261693Y0083709D03*
D69*
X0262559Y0085008D03*
X0293307Y0103630D03*
X0279449Y0122685D03*
X0153307Y0248394D03*
X0184055Y0267016D03*
X0170197Y0286071D03*
X0117047Y0124654D03*
X0130906Y0105598D03*
X0100157Y0086976D03*
D70*
X0100807Y0087409D03*
X0131122Y0105165D03*
X0263209Y0085441D03*
X0293524Y0103197D03*
X0153957Y0248827D03*
X0184272Y0266583D03*
D71*
X0154390Y0249260D03*
X0101240Y0087843D03*
X0263642Y0085874D03*
D72*
X0263858Y0086307D03*
X0263858Y0101465D03*
X0279449Y0123118D03*
X0293740Y0101031D03*
X0154606Y0249693D03*
X0154606Y0264850D03*
X0170197Y0286504D03*
X0184488Y0264417D03*
X0117047Y0125087D03*
X0131339Y0103000D03*
X0101457Y0103433D03*
X0101457Y0088276D03*
D73*
X0101890Y0088709D03*
X0131339Y0101701D03*
X0264291Y0086740D03*
X0293740Y0099732D03*
X0155039Y0250126D03*
X0184488Y0263118D03*
D74*
X0184488Y0262252D03*
X0155472Y0263984D03*
X0102323Y0102567D03*
X0131339Y0100835D03*
X0264724Y0100598D03*
X0293740Y0098866D03*
D75*
X0293957Y0100165D03*
X0131555Y0102134D03*
X0184705Y0263551D03*
D76*
X0184705Y0263984D03*
X0131555Y0102567D03*
X0293957Y0100598D03*
D77*
X0293740Y0101898D03*
X0131339Y0103866D03*
X0184488Y0265283D03*
D78*
X0182756Y0268748D03*
X0152874Y0267016D03*
X0129606Y0107331D03*
X0099724Y0105598D03*
X0262126Y0103630D03*
X0292008Y0105362D03*
D79*
X0292874Y0104496D03*
X0130472Y0106465D03*
X0183622Y0267882D03*
D80*
X0153091Y0267882D03*
X0099941Y0106465D03*
X0262343Y0104496D03*
D81*
X0277500Y0106228D03*
X0277500Y0106661D03*
X0277933Y0107094D03*
X0278366Y0107961D03*
X0115965Y0109929D03*
X0115531Y0109063D03*
X0115098Y0108630D03*
X0115098Y0108197D03*
X0168248Y0269614D03*
X0168248Y0270047D03*
X0168681Y0270480D03*
X0169114Y0271346D03*
D82*
X0168898Y0270913D03*
X0169331Y0271780D03*
X0169764Y0272213D03*
X0169764Y0272646D03*
X0170197Y0273079D03*
X0117047Y0111661D03*
X0116614Y0111228D03*
X0116614Y0110795D03*
X0116181Y0110362D03*
X0115748Y0109496D03*
X0278150Y0107528D03*
X0278583Y0108394D03*
X0279016Y0108827D03*
X0279016Y0109260D03*
X0279449Y0109693D03*
D83*
X0279449Y0110126D03*
X0279449Y0110559D03*
X0117047Y0112094D03*
X0117047Y0112528D03*
X0170197Y0273512D03*
X0170197Y0273945D03*
D84*
X0170197Y0274378D03*
X0117047Y0112961D03*
X0279449Y0110992D03*
D85*
X0279449Y0111425D03*
X0117047Y0113394D03*
X0170197Y0274811D03*
D86*
X0169980Y0275244D03*
X0116831Y0113827D03*
X0279232Y0111858D03*
D87*
X0279449Y0112291D03*
X0117047Y0114260D03*
X0170197Y0275677D03*
D88*
X0170197Y0276110D03*
X0117047Y0114693D03*
X0279449Y0112724D03*
D89*
X0279449Y0113157D03*
X0117047Y0115126D03*
X0170197Y0276543D03*
D90*
X0170197Y0276976D03*
X0117047Y0115559D03*
X0279449Y0113591D03*
D91*
X0279449Y0114024D03*
X0117047Y0115992D03*
X0170197Y0277409D03*
D92*
X0170197Y0277843D03*
X0117047Y0116425D03*
X0279449Y0114457D03*
D93*
X0279449Y0114890D03*
X0117047Y0116858D03*
X0170197Y0278276D03*
D94*
X0170197Y0278709D03*
X0117047Y0117291D03*
X0279449Y0115323D03*
D95*
X0279449Y0115756D03*
X0117047Y0117724D03*
X0170197Y0279142D03*
D96*
X0170197Y0279575D03*
X0117047Y0118157D03*
X0279449Y0116189D03*
D97*
X0279449Y0116622D03*
X0117047Y0118591D03*
X0170197Y0280008D03*
D98*
X0170197Y0280441D03*
X0117047Y0119024D03*
X0279449Y0117055D03*
D99*
X0279449Y0117488D03*
X0117047Y0119457D03*
X0170197Y0280874D03*
D100*
X0170197Y0282606D03*
X0117047Y0121189D03*
X0279449Y0119220D03*
D101*
X0279449Y0119654D03*
X0117047Y0121622D03*
X0170197Y0283039D03*
D102*
X0170197Y0284772D03*
X0117047Y0123354D03*
X0279449Y0121386D03*
D103*
X0279449Y0122252D03*
X0117047Y0124220D03*
X0170197Y0285638D03*
D104*
X0175270Y0205907D02*
X0175270Y0200924D01*
X0175272Y0200838D01*
X0175278Y0200752D01*
X0175287Y0200667D01*
X0175301Y0200582D01*
X0175318Y0200497D01*
X0175339Y0200414D01*
X0175364Y0200332D01*
X0175392Y0200250D01*
X0175424Y0200171D01*
X0175460Y0200092D01*
X0175499Y0200016D01*
X0175541Y0199941D01*
X0175587Y0199868D01*
X0175636Y0199797D01*
X0175688Y0199729D01*
X0175743Y0199663D01*
X0175801Y0199599D01*
X0175862Y0199538D01*
X0175926Y0199480D01*
X0175992Y0199425D01*
X0176060Y0199373D01*
X0176131Y0199324D01*
X0176204Y0199278D01*
X0176279Y0199236D01*
X0176355Y0199197D01*
X0176434Y0199161D01*
X0176513Y0199129D01*
X0176595Y0199101D01*
X0176677Y0199076D01*
X0176760Y0199055D01*
X0176845Y0199038D01*
X0176930Y0199024D01*
X0177015Y0199015D01*
X0177101Y0199009D01*
X0177187Y0199007D01*
X0177273Y0199009D01*
X0177359Y0199015D01*
X0177444Y0199024D01*
X0177529Y0199038D01*
X0177614Y0199055D01*
X0177697Y0199076D01*
X0177779Y0199101D01*
X0177861Y0199129D01*
X0177940Y0199161D01*
X0178019Y0199197D01*
X0178095Y0199236D01*
X0178170Y0199278D01*
X0178243Y0199324D01*
X0178314Y0199373D01*
X0178382Y0199425D01*
X0178448Y0199480D01*
X0178512Y0199538D01*
X0178573Y0199599D01*
X0178631Y0199663D01*
X0178686Y0199729D01*
X0178738Y0199797D01*
X0178787Y0199868D01*
X0178833Y0199941D01*
X0178875Y0200016D01*
X0178914Y0200092D01*
X0178950Y0200171D01*
X0178982Y0200250D01*
X0179010Y0200332D01*
X0179035Y0200414D01*
X0179056Y0200497D01*
X0179073Y0200582D01*
X0179087Y0200667D01*
X0179096Y0200752D01*
X0179102Y0200838D01*
X0179104Y0200924D01*
X0179104Y0205907D01*
X0185443Y0203033D02*
X0185509Y0203073D01*
X0185572Y0203117D01*
X0185633Y0203164D01*
X0185692Y0203214D01*
X0185748Y0203267D01*
X0185801Y0203322D01*
X0185852Y0203380D01*
X0185899Y0203441D01*
X0185944Y0203503D01*
X0185985Y0203568D01*
X0186024Y0203635D01*
X0186058Y0203704D01*
X0186090Y0203774D01*
X0186118Y0203846D01*
X0186142Y0203919D01*
X0186163Y0203993D01*
X0186180Y0204068D01*
X0186193Y0204144D01*
X0186202Y0204220D01*
X0186208Y0204297D01*
X0186210Y0204374D01*
X0186208Y0204449D01*
X0186203Y0204524D01*
X0186193Y0204599D01*
X0186181Y0204673D01*
X0186164Y0204746D01*
X0186144Y0204819D01*
X0186120Y0204890D01*
X0186093Y0204961D01*
X0186063Y0205029D01*
X0186029Y0205097D01*
X0185992Y0205162D01*
X0185952Y0205226D01*
X0185908Y0205287D01*
X0185862Y0205347D01*
X0185813Y0205403D01*
X0185761Y0205458D01*
X0185706Y0205510D01*
X0185650Y0205559D01*
X0185590Y0205605D01*
X0185529Y0205649D01*
X0185465Y0205689D01*
X0185400Y0205726D01*
X0185332Y0205760D01*
X0185264Y0205790D01*
X0185193Y0205817D01*
X0185122Y0205841D01*
X0185049Y0205861D01*
X0184976Y0205878D01*
X0184902Y0205890D01*
X0184827Y0205900D01*
X0184752Y0205905D01*
X0184677Y0205907D01*
X0184574Y0205905D01*
X0184472Y0205900D01*
X0184369Y0205890D01*
X0184267Y0205878D01*
X0184166Y0205861D01*
X0184065Y0205841D01*
X0183965Y0205817D01*
X0183866Y0205790D01*
X0183768Y0205759D01*
X0183671Y0205725D01*
X0183575Y0205688D01*
X0183481Y0205646D01*
X0183388Y0205602D01*
X0183297Y0205554D01*
X0183208Y0205503D01*
X0183121Y0205449D01*
X0183035Y0205392D01*
X0182952Y0205332D01*
X0186402Y0199966D02*
X0186322Y0199889D01*
X0186240Y0199814D01*
X0186155Y0199742D01*
X0186068Y0199673D01*
X0185979Y0199607D01*
X0185887Y0199544D01*
X0185793Y0199484D01*
X0185697Y0199428D01*
X0185599Y0199375D01*
X0185500Y0199325D01*
X0185399Y0199279D01*
X0185296Y0199236D01*
X0185192Y0199197D01*
X0185087Y0199161D01*
X0184980Y0199129D01*
X0184873Y0199101D01*
X0184764Y0199076D01*
X0184655Y0199056D01*
X0184545Y0199038D01*
X0184435Y0199025D01*
X0184324Y0199016D01*
X0184213Y0199010D01*
X0184102Y0199008D01*
X0184027Y0199010D01*
X0183952Y0199015D01*
X0183877Y0199025D01*
X0183803Y0199037D01*
X0183730Y0199054D01*
X0183657Y0199074D01*
X0183586Y0199098D01*
X0183515Y0199125D01*
X0183447Y0199155D01*
X0183379Y0199189D01*
X0183314Y0199226D01*
X0183250Y0199266D01*
X0183189Y0199310D01*
X0183129Y0199356D01*
X0183073Y0199405D01*
X0183018Y0199457D01*
X0182966Y0199512D01*
X0182917Y0199568D01*
X0182871Y0199628D01*
X0182827Y0199689D01*
X0182787Y0199753D01*
X0182750Y0199818D01*
X0182716Y0199886D01*
X0182686Y0199954D01*
X0182659Y0200025D01*
X0182635Y0200096D01*
X0182615Y0200169D01*
X0182598Y0200242D01*
X0182586Y0200316D01*
X0182576Y0200391D01*
X0182571Y0200466D01*
X0182569Y0200541D01*
X0183336Y0201882D02*
X0185444Y0203032D01*
X0183336Y0201882D02*
X0183270Y0201842D01*
X0183207Y0201798D01*
X0183146Y0201751D01*
X0183087Y0201701D01*
X0183031Y0201648D01*
X0182978Y0201593D01*
X0182927Y0201535D01*
X0182880Y0201474D01*
X0182835Y0201412D01*
X0182794Y0201347D01*
X0182755Y0201280D01*
X0182721Y0201211D01*
X0182689Y0201141D01*
X0182661Y0201069D01*
X0182637Y0200996D01*
X0182616Y0200922D01*
X0182599Y0200847D01*
X0182586Y0200771D01*
X0182577Y0200695D01*
X0182571Y0200618D01*
X0182569Y0200541D01*
X0189831Y0200541D02*
X0189831Y0205907D01*
X0195257Y0201882D02*
X0197365Y0203032D01*
X0196598Y0205907D02*
X0196495Y0205905D01*
X0196393Y0205900D01*
X0196290Y0205890D01*
X0196188Y0205878D01*
X0196087Y0205861D01*
X0195986Y0205841D01*
X0195886Y0205817D01*
X0195787Y0205790D01*
X0195689Y0205759D01*
X0195592Y0205725D01*
X0195496Y0205688D01*
X0195402Y0205646D01*
X0195309Y0205602D01*
X0195218Y0205554D01*
X0195129Y0205503D01*
X0195042Y0205449D01*
X0194956Y0205392D01*
X0194873Y0205332D01*
X0197364Y0203033D02*
X0197430Y0203073D01*
X0197493Y0203117D01*
X0197554Y0203164D01*
X0197613Y0203214D01*
X0197669Y0203267D01*
X0197722Y0203322D01*
X0197773Y0203380D01*
X0197820Y0203441D01*
X0197865Y0203503D01*
X0197906Y0203568D01*
X0197945Y0203635D01*
X0197979Y0203704D01*
X0198011Y0203774D01*
X0198039Y0203846D01*
X0198063Y0203919D01*
X0198084Y0203993D01*
X0198101Y0204068D01*
X0198114Y0204144D01*
X0198123Y0204220D01*
X0198129Y0204297D01*
X0198131Y0204374D01*
X0198129Y0204449D01*
X0198124Y0204524D01*
X0198114Y0204599D01*
X0198102Y0204673D01*
X0198085Y0204746D01*
X0198065Y0204819D01*
X0198041Y0204890D01*
X0198014Y0204961D01*
X0197984Y0205029D01*
X0197950Y0205097D01*
X0197913Y0205162D01*
X0197873Y0205226D01*
X0197829Y0205287D01*
X0197783Y0205347D01*
X0197734Y0205403D01*
X0197682Y0205458D01*
X0197627Y0205510D01*
X0197571Y0205559D01*
X0197511Y0205605D01*
X0197450Y0205649D01*
X0197386Y0205689D01*
X0197321Y0205726D01*
X0197253Y0205760D01*
X0197185Y0205790D01*
X0197114Y0205817D01*
X0197043Y0205841D01*
X0196970Y0205861D01*
X0196897Y0205878D01*
X0196823Y0205890D01*
X0196748Y0205900D01*
X0196673Y0205905D01*
X0196598Y0205907D01*
X0198323Y0199966D02*
X0198243Y0199889D01*
X0198161Y0199814D01*
X0198076Y0199742D01*
X0197989Y0199673D01*
X0197900Y0199607D01*
X0197808Y0199544D01*
X0197714Y0199484D01*
X0197618Y0199428D01*
X0197520Y0199375D01*
X0197421Y0199325D01*
X0197320Y0199279D01*
X0197217Y0199236D01*
X0197113Y0199197D01*
X0197008Y0199161D01*
X0196901Y0199129D01*
X0196794Y0199101D01*
X0196685Y0199076D01*
X0196576Y0199056D01*
X0196466Y0199038D01*
X0196356Y0199025D01*
X0196245Y0199016D01*
X0196134Y0199010D01*
X0196023Y0199008D01*
X0195948Y0199010D01*
X0195873Y0199015D01*
X0195798Y0199025D01*
X0195724Y0199037D01*
X0195651Y0199054D01*
X0195578Y0199074D01*
X0195507Y0199098D01*
X0195436Y0199125D01*
X0195368Y0199155D01*
X0195300Y0199189D01*
X0195235Y0199226D01*
X0195171Y0199266D01*
X0195110Y0199310D01*
X0195050Y0199356D01*
X0194994Y0199405D01*
X0194939Y0199457D01*
X0194887Y0199512D01*
X0194838Y0199568D01*
X0194792Y0199628D01*
X0194748Y0199689D01*
X0194708Y0199753D01*
X0194671Y0199818D01*
X0194637Y0199886D01*
X0194607Y0199954D01*
X0194580Y0200025D01*
X0194556Y0200096D01*
X0194536Y0200169D01*
X0194519Y0200242D01*
X0194507Y0200316D01*
X0194497Y0200391D01*
X0194492Y0200466D01*
X0194490Y0200541D01*
X0194492Y0200618D01*
X0194498Y0200695D01*
X0194507Y0200771D01*
X0194520Y0200847D01*
X0194537Y0200922D01*
X0194558Y0200996D01*
X0194582Y0201069D01*
X0194610Y0201141D01*
X0194642Y0201211D01*
X0194676Y0201280D01*
X0194715Y0201347D01*
X0194756Y0201412D01*
X0194801Y0201474D01*
X0194848Y0201535D01*
X0194899Y0201593D01*
X0194952Y0201648D01*
X0195008Y0201701D01*
X0195067Y0201751D01*
X0195128Y0201798D01*
X0195191Y0201842D01*
X0195257Y0201882D01*
X0191364Y0199008D02*
X0191289Y0199010D01*
X0191214Y0199015D01*
X0191139Y0199025D01*
X0191065Y0199037D01*
X0190992Y0199054D01*
X0190919Y0199074D01*
X0190848Y0199098D01*
X0190777Y0199125D01*
X0190709Y0199155D01*
X0190641Y0199189D01*
X0190576Y0199226D01*
X0190512Y0199266D01*
X0190451Y0199310D01*
X0190391Y0199356D01*
X0190335Y0199405D01*
X0190280Y0199457D01*
X0190228Y0199512D01*
X0190179Y0199568D01*
X0190133Y0199628D01*
X0190089Y0199689D01*
X0190049Y0199753D01*
X0190012Y0199818D01*
X0189978Y0199886D01*
X0189948Y0199954D01*
X0189921Y0200025D01*
X0189897Y0200096D01*
X0189877Y0200169D01*
X0189860Y0200242D01*
X0189848Y0200316D01*
X0189838Y0200391D01*
X0189833Y0200466D01*
X0189831Y0200541D01*
X0191364Y0199007D02*
X0192131Y0199007D01*
X0167669Y0199007D02*
X0163836Y0199007D01*
X0157113Y0199965D02*
X0157052Y0200095D01*
X0156994Y0200226D01*
X0156939Y0200359D01*
X0156888Y0200492D01*
X0156840Y0200627D01*
X0156796Y0200764D01*
X0156755Y0200901D01*
X0156718Y0201039D01*
X0156684Y0201178D01*
X0156653Y0201318D01*
X0156626Y0201459D01*
X0156603Y0201601D01*
X0156583Y0201742D01*
X0156567Y0201885D01*
X0156554Y0202028D01*
X0156545Y0202171D01*
X0156540Y0202314D01*
X0156538Y0202457D01*
X0160371Y0202457D02*
X0160369Y0202600D01*
X0160364Y0202743D01*
X0160355Y0202886D01*
X0160342Y0203029D01*
X0160326Y0203172D01*
X0160306Y0203313D01*
X0160283Y0203455D01*
X0160256Y0203596D01*
X0160225Y0203736D01*
X0160191Y0203875D01*
X0160154Y0204013D01*
X0160113Y0204150D01*
X0160069Y0204287D01*
X0160021Y0204422D01*
X0159970Y0204555D01*
X0159915Y0204688D01*
X0159857Y0204819D01*
X0159796Y0204949D01*
X0158454Y0205907D02*
X0158381Y0205905D01*
X0158308Y0205899D01*
X0158235Y0205890D01*
X0158163Y0205877D01*
X0158092Y0205860D01*
X0158021Y0205839D01*
X0157952Y0205815D01*
X0157884Y0205787D01*
X0157818Y0205756D01*
X0157753Y0205722D01*
X0157691Y0205684D01*
X0157630Y0205643D01*
X0157571Y0205599D01*
X0157515Y0205552D01*
X0157461Y0205502D01*
X0157410Y0205449D01*
X0157362Y0205394D01*
X0157317Y0205336D01*
X0157275Y0205276D01*
X0157236Y0205214D01*
X0157200Y0205151D01*
X0157167Y0205085D01*
X0157138Y0205018D01*
X0157113Y0204949D01*
X0156921Y0204374D02*
X0159987Y0200541D01*
X0158454Y0199008D02*
X0158381Y0199010D01*
X0158308Y0199016D01*
X0158235Y0199025D01*
X0158163Y0199038D01*
X0158092Y0199055D01*
X0158021Y0199076D01*
X0157952Y0199100D01*
X0157884Y0199128D01*
X0157818Y0199159D01*
X0157753Y0199193D01*
X0157691Y0199231D01*
X0157630Y0199272D01*
X0157571Y0199316D01*
X0157515Y0199363D01*
X0157461Y0199413D01*
X0157410Y0199466D01*
X0157362Y0199521D01*
X0157317Y0199579D01*
X0157275Y0199639D01*
X0157236Y0199701D01*
X0157200Y0199764D01*
X0157167Y0199830D01*
X0157138Y0199897D01*
X0157113Y0199966D01*
X0158454Y0199008D02*
X0158527Y0199010D01*
X0158600Y0199016D01*
X0158673Y0199025D01*
X0158745Y0199038D01*
X0158816Y0199055D01*
X0158887Y0199076D01*
X0158956Y0199100D01*
X0159024Y0199128D01*
X0159090Y0199159D01*
X0159155Y0199193D01*
X0159217Y0199231D01*
X0159278Y0199272D01*
X0159337Y0199316D01*
X0159393Y0199363D01*
X0159447Y0199413D01*
X0159498Y0199466D01*
X0159546Y0199521D01*
X0159591Y0199579D01*
X0159633Y0199639D01*
X0159672Y0199701D01*
X0159708Y0199764D01*
X0159741Y0199830D01*
X0159770Y0199897D01*
X0159795Y0199966D01*
X0156537Y0202457D02*
X0156539Y0202600D01*
X0156544Y0202743D01*
X0156553Y0202886D01*
X0156566Y0203029D01*
X0156582Y0203172D01*
X0156602Y0203313D01*
X0156625Y0203455D01*
X0156652Y0203596D01*
X0156683Y0203736D01*
X0156717Y0203875D01*
X0156754Y0204013D01*
X0156795Y0204150D01*
X0156839Y0204287D01*
X0156887Y0204422D01*
X0156938Y0204555D01*
X0156993Y0204688D01*
X0157051Y0204819D01*
X0157112Y0204949D01*
X0158454Y0205907D02*
X0158527Y0205905D01*
X0158600Y0205899D01*
X0158673Y0205890D01*
X0158745Y0205877D01*
X0158816Y0205860D01*
X0158887Y0205839D01*
X0158956Y0205815D01*
X0159024Y0205787D01*
X0159090Y0205756D01*
X0159155Y0205722D01*
X0159217Y0205684D01*
X0159278Y0205643D01*
X0159337Y0205599D01*
X0159393Y0205552D01*
X0159447Y0205502D01*
X0159498Y0205449D01*
X0159546Y0205394D01*
X0159591Y0205336D01*
X0159633Y0205276D01*
X0159672Y0205214D01*
X0159708Y0205151D01*
X0159741Y0205085D01*
X0159770Y0205018D01*
X0159795Y0204949D01*
X0164411Y0202841D02*
X0167669Y0199007D01*
X0167669Y0204374D02*
X0167639Y0204461D01*
X0167605Y0204548D01*
X0167567Y0204633D01*
X0167526Y0204716D01*
X0167481Y0204797D01*
X0167433Y0204877D01*
X0167382Y0204954D01*
X0167327Y0205030D01*
X0167269Y0205102D01*
X0167209Y0205173D01*
X0167145Y0205240D01*
X0167079Y0205306D01*
X0167010Y0205368D01*
X0166938Y0205427D01*
X0166864Y0205483D01*
X0166788Y0205536D01*
X0166710Y0205586D01*
X0166629Y0205632D01*
X0166547Y0205676D01*
X0166463Y0205715D01*
X0166377Y0205751D01*
X0166290Y0205784D01*
X0166202Y0205812D01*
X0166113Y0205837D01*
X0166022Y0205859D01*
X0165931Y0205876D01*
X0165839Y0205889D01*
X0165747Y0205899D01*
X0165654Y0205905D01*
X0165561Y0205907D01*
X0165479Y0205905D01*
X0165397Y0205899D01*
X0165316Y0205889D01*
X0165235Y0205876D01*
X0165154Y0205858D01*
X0165075Y0205837D01*
X0164997Y0205812D01*
X0164920Y0205783D01*
X0164844Y0205751D01*
X0164771Y0205715D01*
X0164699Y0205676D01*
X0164628Y0205633D01*
X0164560Y0205587D01*
X0164495Y0205538D01*
X0164431Y0205486D01*
X0164371Y0205430D01*
X0164313Y0205372D01*
X0164257Y0205312D01*
X0164205Y0205248D01*
X0164156Y0205183D01*
X0164110Y0205115D01*
X0164067Y0205045D01*
X0164028Y0204972D01*
X0163992Y0204899D01*
X0163960Y0204823D01*
X0163931Y0204746D01*
X0163906Y0204668D01*
X0163885Y0204589D01*
X0163867Y0204508D01*
X0163854Y0204427D01*
X0163844Y0204346D01*
X0163838Y0204264D01*
X0163836Y0204182D01*
X0163838Y0204099D01*
X0163843Y0204016D01*
X0163853Y0203933D01*
X0163866Y0203850D01*
X0163883Y0203769D01*
X0163903Y0203688D01*
X0163927Y0203608D01*
X0163955Y0203529D01*
X0163986Y0203452D01*
X0164020Y0203376D01*
X0164058Y0203302D01*
X0164100Y0203230D01*
X0164144Y0203159D01*
X0164192Y0203091D01*
X0164242Y0203024D01*
X0164296Y0202960D01*
X0164352Y0202899D01*
X0164411Y0202840D01*
X0160371Y0202457D02*
X0160369Y0202314D01*
X0160364Y0202171D01*
X0160355Y0202028D01*
X0160342Y0201885D01*
X0160326Y0201742D01*
X0160306Y0201601D01*
X0160283Y0201459D01*
X0160256Y0201318D01*
X0160225Y0201178D01*
X0160191Y0201039D01*
X0160154Y0200901D01*
X0160113Y0200764D01*
X0160069Y0200627D01*
X0160021Y0200492D01*
X0159970Y0200359D01*
X0159915Y0200226D01*
X0159857Y0200095D01*
X0159796Y0199965D01*
X0153072Y0199007D02*
X0149239Y0199007D01*
X0151155Y0199007D02*
X0151155Y0205907D01*
X0153072Y0204374D01*
X0145390Y0204374D02*
X0145388Y0204298D01*
X0145382Y0204221D01*
X0145373Y0204146D01*
X0145360Y0204070D01*
X0145343Y0203996D01*
X0145322Y0203922D01*
X0145298Y0203850D01*
X0145270Y0203779D01*
X0145238Y0203709D01*
X0145203Y0203641D01*
X0145165Y0203575D01*
X0145124Y0203510D01*
X0145079Y0203448D01*
X0145031Y0203389D01*
X0144981Y0203331D01*
X0144927Y0203277D01*
X0144871Y0203225D01*
X0144813Y0203175D01*
X0144752Y0203129D01*
X0144689Y0203086D01*
X0144624Y0203046D01*
X0144556Y0203010D01*
X0144488Y0202977D01*
X0144417Y0202947D01*
X0144345Y0202921D01*
X0144272Y0202898D01*
X0144198Y0202879D01*
X0144123Y0202864D01*
X0144048Y0202853D01*
X0143972Y0202845D01*
X0143895Y0202841D01*
X0143819Y0202841D01*
X0143742Y0202845D01*
X0143666Y0202853D01*
X0143591Y0202864D01*
X0143516Y0202879D01*
X0143442Y0202898D01*
X0143369Y0202921D01*
X0143297Y0202947D01*
X0143226Y0202977D01*
X0143158Y0203010D01*
X0143091Y0203046D01*
X0143025Y0203086D01*
X0142962Y0203129D01*
X0142901Y0203175D01*
X0142843Y0203225D01*
X0142787Y0203277D01*
X0142733Y0203331D01*
X0142683Y0203389D01*
X0142635Y0203448D01*
X0142590Y0203510D01*
X0142549Y0203575D01*
X0142511Y0203641D01*
X0142476Y0203709D01*
X0142444Y0203779D01*
X0142416Y0203850D01*
X0142392Y0203922D01*
X0142371Y0203996D01*
X0142354Y0204070D01*
X0142341Y0204146D01*
X0142332Y0204221D01*
X0142326Y0204298D01*
X0142324Y0204374D01*
X0142326Y0204450D01*
X0142332Y0204527D01*
X0142341Y0204602D01*
X0142354Y0204678D01*
X0142371Y0204752D01*
X0142392Y0204826D01*
X0142416Y0204898D01*
X0142444Y0204969D01*
X0142476Y0205039D01*
X0142511Y0205107D01*
X0142549Y0205173D01*
X0142590Y0205238D01*
X0142635Y0205300D01*
X0142683Y0205359D01*
X0142733Y0205417D01*
X0142787Y0205471D01*
X0142843Y0205523D01*
X0142901Y0205573D01*
X0142962Y0205619D01*
X0143025Y0205662D01*
X0143091Y0205702D01*
X0143158Y0205738D01*
X0143226Y0205771D01*
X0143297Y0205801D01*
X0143369Y0205827D01*
X0143442Y0205850D01*
X0143516Y0205869D01*
X0143591Y0205884D01*
X0143666Y0205895D01*
X0143742Y0205903D01*
X0143819Y0205907D01*
X0143895Y0205907D01*
X0143972Y0205903D01*
X0144048Y0205895D01*
X0144123Y0205884D01*
X0144198Y0205869D01*
X0144272Y0205850D01*
X0144345Y0205827D01*
X0144417Y0205801D01*
X0144488Y0205771D01*
X0144556Y0205738D01*
X0144624Y0205702D01*
X0144689Y0205662D01*
X0144752Y0205619D01*
X0144813Y0205573D01*
X0144871Y0205523D01*
X0144927Y0205471D01*
X0144981Y0205417D01*
X0145031Y0205359D01*
X0145079Y0205300D01*
X0145124Y0205238D01*
X0145165Y0205173D01*
X0145203Y0205107D01*
X0145238Y0205039D01*
X0145270Y0204969D01*
X0145298Y0204898D01*
X0145322Y0204826D01*
X0145343Y0204752D01*
X0145360Y0204678D01*
X0145373Y0204602D01*
X0145382Y0204527D01*
X0145388Y0204450D01*
X0145390Y0204374D01*
X0145774Y0200924D02*
X0145772Y0200838D01*
X0145766Y0200752D01*
X0145757Y0200667D01*
X0145743Y0200582D01*
X0145726Y0200497D01*
X0145705Y0200414D01*
X0145680Y0200332D01*
X0145652Y0200250D01*
X0145620Y0200171D01*
X0145584Y0200092D01*
X0145545Y0200016D01*
X0145503Y0199941D01*
X0145457Y0199868D01*
X0145408Y0199797D01*
X0145356Y0199729D01*
X0145301Y0199663D01*
X0145243Y0199599D01*
X0145182Y0199538D01*
X0145118Y0199480D01*
X0145052Y0199425D01*
X0144984Y0199373D01*
X0144913Y0199324D01*
X0144840Y0199278D01*
X0144765Y0199236D01*
X0144689Y0199197D01*
X0144610Y0199161D01*
X0144531Y0199129D01*
X0144449Y0199101D01*
X0144367Y0199076D01*
X0144284Y0199055D01*
X0144199Y0199038D01*
X0144114Y0199024D01*
X0144029Y0199015D01*
X0143943Y0199009D01*
X0143857Y0199007D01*
X0143771Y0199009D01*
X0143685Y0199015D01*
X0143600Y0199024D01*
X0143515Y0199038D01*
X0143430Y0199055D01*
X0143347Y0199076D01*
X0143265Y0199101D01*
X0143183Y0199129D01*
X0143104Y0199161D01*
X0143025Y0199197D01*
X0142949Y0199236D01*
X0142874Y0199278D01*
X0142801Y0199324D01*
X0142730Y0199373D01*
X0142662Y0199425D01*
X0142596Y0199480D01*
X0142532Y0199538D01*
X0142471Y0199599D01*
X0142413Y0199663D01*
X0142358Y0199729D01*
X0142306Y0199797D01*
X0142257Y0199868D01*
X0142211Y0199941D01*
X0142169Y0200016D01*
X0142130Y0200092D01*
X0142094Y0200171D01*
X0142062Y0200250D01*
X0142034Y0200332D01*
X0142009Y0200414D01*
X0141988Y0200497D01*
X0141971Y0200582D01*
X0141957Y0200667D01*
X0141948Y0200752D01*
X0141942Y0200838D01*
X0141940Y0200924D01*
X0141942Y0201010D01*
X0141948Y0201096D01*
X0141957Y0201181D01*
X0141971Y0201266D01*
X0141988Y0201351D01*
X0142009Y0201434D01*
X0142034Y0201516D01*
X0142062Y0201598D01*
X0142094Y0201677D01*
X0142130Y0201756D01*
X0142169Y0201832D01*
X0142211Y0201907D01*
X0142257Y0201980D01*
X0142306Y0202051D01*
X0142358Y0202119D01*
X0142413Y0202185D01*
X0142471Y0202249D01*
X0142532Y0202310D01*
X0142596Y0202368D01*
X0142662Y0202423D01*
X0142730Y0202475D01*
X0142801Y0202524D01*
X0142874Y0202570D01*
X0142949Y0202612D01*
X0143025Y0202651D01*
X0143104Y0202687D01*
X0143183Y0202719D01*
X0143265Y0202747D01*
X0143347Y0202772D01*
X0143430Y0202793D01*
X0143515Y0202810D01*
X0143600Y0202824D01*
X0143685Y0202833D01*
X0143771Y0202839D01*
X0143857Y0202841D01*
X0143943Y0202839D01*
X0144029Y0202833D01*
X0144114Y0202824D01*
X0144199Y0202810D01*
X0144284Y0202793D01*
X0144367Y0202772D01*
X0144449Y0202747D01*
X0144531Y0202719D01*
X0144610Y0202687D01*
X0144689Y0202651D01*
X0144765Y0202612D01*
X0144840Y0202570D01*
X0144913Y0202524D01*
X0144984Y0202475D01*
X0145052Y0202423D01*
X0145118Y0202368D01*
X0145182Y0202310D01*
X0145243Y0202249D01*
X0145301Y0202185D01*
X0145356Y0202119D01*
X0145408Y0202051D01*
X0145457Y0201980D01*
X0145503Y0201907D01*
X0145545Y0201832D01*
X0145584Y0201756D01*
X0145620Y0201677D01*
X0145652Y0201598D01*
X0145680Y0201516D01*
X0145705Y0201434D01*
X0145726Y0201351D01*
X0145743Y0201266D01*
X0145757Y0201181D01*
X0145766Y0201096D01*
X0145772Y0201010D01*
X0145774Y0200924D01*
X0136681Y0044490D02*
X0136681Y0039123D01*
X0136682Y0039123D02*
X0136684Y0039048D01*
X0136689Y0038973D01*
X0136699Y0038898D01*
X0136711Y0038824D01*
X0136728Y0038751D01*
X0136748Y0038678D01*
X0136772Y0038607D01*
X0136799Y0038536D01*
X0136829Y0038468D01*
X0136863Y0038400D01*
X0136900Y0038335D01*
X0136940Y0038271D01*
X0136984Y0038210D01*
X0137030Y0038150D01*
X0137079Y0038094D01*
X0137131Y0038039D01*
X0137186Y0037987D01*
X0137242Y0037938D01*
X0137302Y0037892D01*
X0137363Y0037848D01*
X0137427Y0037808D01*
X0137492Y0037771D01*
X0137560Y0037737D01*
X0137628Y0037707D01*
X0137699Y0037680D01*
X0137770Y0037656D01*
X0137843Y0037636D01*
X0137916Y0037619D01*
X0137990Y0037607D01*
X0138065Y0037597D01*
X0138140Y0037592D01*
X0138215Y0037590D01*
X0138981Y0037590D01*
X0141341Y0039123D02*
X0141343Y0039048D01*
X0141348Y0038973D01*
X0141358Y0038898D01*
X0141370Y0038824D01*
X0141387Y0038751D01*
X0141407Y0038678D01*
X0141431Y0038607D01*
X0141458Y0038536D01*
X0141488Y0038468D01*
X0141522Y0038400D01*
X0141559Y0038335D01*
X0141599Y0038271D01*
X0141643Y0038210D01*
X0141689Y0038150D01*
X0141738Y0038094D01*
X0141790Y0038039D01*
X0141845Y0037987D01*
X0141901Y0037938D01*
X0141961Y0037892D01*
X0142022Y0037848D01*
X0142086Y0037808D01*
X0142151Y0037771D01*
X0142219Y0037737D01*
X0142287Y0037707D01*
X0142358Y0037680D01*
X0142429Y0037656D01*
X0142502Y0037636D01*
X0142575Y0037619D01*
X0142649Y0037607D01*
X0142724Y0037597D01*
X0142799Y0037592D01*
X0142874Y0037590D01*
X0141341Y0039123D02*
X0141343Y0039200D01*
X0141349Y0039277D01*
X0141358Y0039353D01*
X0141371Y0039429D01*
X0141388Y0039504D01*
X0141409Y0039578D01*
X0141433Y0039651D01*
X0141461Y0039723D01*
X0141493Y0039793D01*
X0141527Y0039862D01*
X0141566Y0039929D01*
X0141607Y0039994D01*
X0141652Y0040056D01*
X0141699Y0040117D01*
X0141750Y0040175D01*
X0141803Y0040230D01*
X0141859Y0040283D01*
X0141918Y0040333D01*
X0141979Y0040380D01*
X0142042Y0040424D01*
X0142108Y0040464D01*
X0142107Y0040465D02*
X0144215Y0041615D01*
X0143449Y0044490D02*
X0143346Y0044488D01*
X0143244Y0044483D01*
X0143141Y0044473D01*
X0143039Y0044461D01*
X0142938Y0044444D01*
X0142837Y0044424D01*
X0142737Y0044400D01*
X0142638Y0044373D01*
X0142540Y0044342D01*
X0142443Y0044308D01*
X0142347Y0044271D01*
X0142253Y0044229D01*
X0142160Y0044185D01*
X0142069Y0044137D01*
X0141980Y0044086D01*
X0141893Y0044032D01*
X0141807Y0043975D01*
X0141724Y0043915D01*
X0144215Y0041616D02*
X0144281Y0041656D01*
X0144344Y0041700D01*
X0144405Y0041747D01*
X0144464Y0041797D01*
X0144520Y0041850D01*
X0144573Y0041905D01*
X0144624Y0041963D01*
X0144671Y0042024D01*
X0144716Y0042086D01*
X0144757Y0042151D01*
X0144796Y0042218D01*
X0144830Y0042287D01*
X0144862Y0042357D01*
X0144890Y0042429D01*
X0144914Y0042502D01*
X0144935Y0042576D01*
X0144952Y0042651D01*
X0144965Y0042727D01*
X0144974Y0042803D01*
X0144980Y0042880D01*
X0144982Y0042957D01*
X0144980Y0043032D01*
X0144975Y0043107D01*
X0144965Y0043182D01*
X0144953Y0043256D01*
X0144936Y0043329D01*
X0144916Y0043402D01*
X0144892Y0043473D01*
X0144865Y0043544D01*
X0144835Y0043612D01*
X0144801Y0043680D01*
X0144764Y0043745D01*
X0144724Y0043809D01*
X0144680Y0043870D01*
X0144634Y0043930D01*
X0144585Y0043986D01*
X0144533Y0044041D01*
X0144478Y0044093D01*
X0144422Y0044142D01*
X0144362Y0044188D01*
X0144301Y0044232D01*
X0144237Y0044272D01*
X0144172Y0044309D01*
X0144104Y0044343D01*
X0144036Y0044373D01*
X0143965Y0044400D01*
X0143894Y0044424D01*
X0143821Y0044444D01*
X0143748Y0044461D01*
X0143674Y0044473D01*
X0143599Y0044483D01*
X0143524Y0044488D01*
X0143449Y0044490D01*
X0145174Y0038548D02*
X0145094Y0038471D01*
X0145012Y0038396D01*
X0144927Y0038324D01*
X0144840Y0038255D01*
X0144751Y0038189D01*
X0144659Y0038126D01*
X0144565Y0038066D01*
X0144469Y0038010D01*
X0144371Y0037957D01*
X0144272Y0037907D01*
X0144171Y0037861D01*
X0144068Y0037818D01*
X0143964Y0037779D01*
X0143859Y0037743D01*
X0143752Y0037711D01*
X0143645Y0037683D01*
X0143536Y0037658D01*
X0143427Y0037638D01*
X0143317Y0037620D01*
X0143207Y0037607D01*
X0143096Y0037598D01*
X0142985Y0037592D01*
X0142874Y0037590D01*
X0132294Y0041615D02*
X0130186Y0040465D01*
X0130953Y0037590D02*
X0131064Y0037592D01*
X0131175Y0037598D01*
X0131286Y0037607D01*
X0131396Y0037620D01*
X0131506Y0037638D01*
X0131615Y0037658D01*
X0131724Y0037683D01*
X0131831Y0037711D01*
X0131938Y0037743D01*
X0132043Y0037779D01*
X0132147Y0037818D01*
X0132250Y0037861D01*
X0132351Y0037907D01*
X0132450Y0037957D01*
X0132548Y0038010D01*
X0132644Y0038066D01*
X0132738Y0038126D01*
X0132830Y0038189D01*
X0132919Y0038255D01*
X0133006Y0038324D01*
X0133091Y0038396D01*
X0133173Y0038471D01*
X0133253Y0038548D01*
X0130187Y0040464D02*
X0130121Y0040424D01*
X0130058Y0040380D01*
X0129997Y0040333D01*
X0129938Y0040283D01*
X0129882Y0040230D01*
X0129829Y0040175D01*
X0129778Y0040117D01*
X0129731Y0040056D01*
X0129686Y0039994D01*
X0129645Y0039929D01*
X0129606Y0039862D01*
X0129572Y0039793D01*
X0129540Y0039723D01*
X0129512Y0039651D01*
X0129488Y0039578D01*
X0129467Y0039504D01*
X0129450Y0039429D01*
X0129437Y0039353D01*
X0129428Y0039277D01*
X0129422Y0039200D01*
X0129420Y0039123D01*
X0129422Y0039048D01*
X0129427Y0038973D01*
X0129437Y0038898D01*
X0129449Y0038824D01*
X0129466Y0038751D01*
X0129486Y0038678D01*
X0129510Y0038607D01*
X0129537Y0038536D01*
X0129567Y0038468D01*
X0129601Y0038400D01*
X0129638Y0038335D01*
X0129678Y0038271D01*
X0129722Y0038210D01*
X0129768Y0038150D01*
X0129817Y0038094D01*
X0129869Y0038039D01*
X0129924Y0037987D01*
X0129980Y0037938D01*
X0130040Y0037892D01*
X0130101Y0037848D01*
X0130165Y0037808D01*
X0130230Y0037771D01*
X0130298Y0037737D01*
X0130366Y0037707D01*
X0130437Y0037680D01*
X0130508Y0037656D01*
X0130581Y0037636D01*
X0130654Y0037619D01*
X0130728Y0037607D01*
X0130803Y0037597D01*
X0130878Y0037592D01*
X0130953Y0037590D01*
X0129803Y0043915D02*
X0129886Y0043975D01*
X0129972Y0044032D01*
X0130059Y0044086D01*
X0130148Y0044137D01*
X0130239Y0044185D01*
X0130332Y0044229D01*
X0130426Y0044271D01*
X0130522Y0044308D01*
X0130619Y0044342D01*
X0130717Y0044373D01*
X0130816Y0044400D01*
X0130916Y0044424D01*
X0131017Y0044444D01*
X0131118Y0044461D01*
X0131220Y0044473D01*
X0131323Y0044483D01*
X0131425Y0044488D01*
X0131528Y0044490D01*
X0131603Y0044488D01*
X0131678Y0044483D01*
X0131753Y0044473D01*
X0131827Y0044461D01*
X0131900Y0044444D01*
X0131973Y0044424D01*
X0132044Y0044400D01*
X0132115Y0044373D01*
X0132183Y0044343D01*
X0132251Y0044309D01*
X0132316Y0044272D01*
X0132380Y0044232D01*
X0132441Y0044188D01*
X0132501Y0044142D01*
X0132557Y0044093D01*
X0132612Y0044041D01*
X0132664Y0043986D01*
X0132713Y0043930D01*
X0132759Y0043870D01*
X0132803Y0043809D01*
X0132843Y0043745D01*
X0132880Y0043680D01*
X0132914Y0043612D01*
X0132944Y0043544D01*
X0132971Y0043473D01*
X0132995Y0043402D01*
X0133015Y0043329D01*
X0133032Y0043256D01*
X0133044Y0043182D01*
X0133054Y0043107D01*
X0133059Y0043032D01*
X0133061Y0042957D01*
X0133059Y0042880D01*
X0133053Y0042803D01*
X0133044Y0042727D01*
X0133031Y0042651D01*
X0133014Y0042576D01*
X0132993Y0042502D01*
X0132969Y0042429D01*
X0132941Y0042357D01*
X0132909Y0042287D01*
X0132875Y0042218D01*
X0132836Y0042151D01*
X0132795Y0042086D01*
X0132750Y0042024D01*
X0132703Y0041963D01*
X0132652Y0041905D01*
X0132599Y0041850D01*
X0132543Y0041797D01*
X0132484Y0041747D01*
X0132423Y0041700D01*
X0132360Y0041656D01*
X0132294Y0041616D01*
X0125954Y0039507D02*
X0125954Y0044490D01*
X0122121Y0044490D02*
X0122121Y0039507D01*
X0122120Y0039507D02*
X0122122Y0039421D01*
X0122128Y0039335D01*
X0122137Y0039250D01*
X0122151Y0039165D01*
X0122168Y0039080D01*
X0122189Y0038997D01*
X0122214Y0038915D01*
X0122242Y0038833D01*
X0122274Y0038754D01*
X0122310Y0038675D01*
X0122349Y0038599D01*
X0122391Y0038524D01*
X0122437Y0038451D01*
X0122486Y0038380D01*
X0122538Y0038312D01*
X0122593Y0038246D01*
X0122651Y0038182D01*
X0122712Y0038121D01*
X0122776Y0038063D01*
X0122842Y0038008D01*
X0122910Y0037956D01*
X0122981Y0037907D01*
X0123054Y0037861D01*
X0123129Y0037819D01*
X0123205Y0037780D01*
X0123284Y0037744D01*
X0123363Y0037712D01*
X0123445Y0037684D01*
X0123527Y0037659D01*
X0123610Y0037638D01*
X0123695Y0037621D01*
X0123780Y0037607D01*
X0123865Y0037598D01*
X0123951Y0037592D01*
X0124037Y0037590D01*
X0124123Y0037592D01*
X0124209Y0037598D01*
X0124294Y0037607D01*
X0124379Y0037621D01*
X0124464Y0037638D01*
X0124547Y0037659D01*
X0124629Y0037684D01*
X0124711Y0037712D01*
X0124790Y0037744D01*
X0124869Y0037780D01*
X0124945Y0037819D01*
X0125020Y0037861D01*
X0125093Y0037907D01*
X0125164Y0037956D01*
X0125232Y0038008D01*
X0125298Y0038063D01*
X0125362Y0038121D01*
X0125423Y0038182D01*
X0125481Y0038246D01*
X0125536Y0038312D01*
X0125588Y0038380D01*
X0125637Y0038451D01*
X0125683Y0038524D01*
X0125725Y0038599D01*
X0125764Y0038675D01*
X0125800Y0038754D01*
X0125832Y0038833D01*
X0125860Y0038915D01*
X0125885Y0038997D01*
X0125906Y0039080D01*
X0125923Y0039165D01*
X0125937Y0039250D01*
X0125946Y0039335D01*
X0125952Y0039421D01*
X0125954Y0039507D01*
X0114520Y0037590D02*
X0110686Y0037590D01*
X0103963Y0038548D02*
X0103902Y0038678D01*
X0103844Y0038809D01*
X0103789Y0038942D01*
X0103738Y0039075D01*
X0103690Y0039210D01*
X0103646Y0039347D01*
X0103605Y0039484D01*
X0103568Y0039622D01*
X0103534Y0039761D01*
X0103503Y0039901D01*
X0103476Y0040042D01*
X0103453Y0040184D01*
X0103433Y0040325D01*
X0103417Y0040468D01*
X0103404Y0040611D01*
X0103395Y0040754D01*
X0103390Y0040897D01*
X0103388Y0041040D01*
X0107221Y0041040D02*
X0107219Y0041183D01*
X0107214Y0041326D01*
X0107205Y0041469D01*
X0107192Y0041612D01*
X0107176Y0041755D01*
X0107156Y0041896D01*
X0107133Y0042038D01*
X0107106Y0042179D01*
X0107075Y0042319D01*
X0107041Y0042458D01*
X0107004Y0042596D01*
X0106963Y0042733D01*
X0106919Y0042870D01*
X0106871Y0043005D01*
X0106820Y0043138D01*
X0106765Y0043271D01*
X0106707Y0043402D01*
X0106646Y0043532D01*
X0105304Y0044490D02*
X0105231Y0044488D01*
X0105158Y0044482D01*
X0105085Y0044473D01*
X0105013Y0044460D01*
X0104942Y0044443D01*
X0104871Y0044422D01*
X0104802Y0044398D01*
X0104734Y0044370D01*
X0104668Y0044339D01*
X0104603Y0044305D01*
X0104541Y0044267D01*
X0104480Y0044226D01*
X0104421Y0044182D01*
X0104365Y0044135D01*
X0104311Y0044085D01*
X0104260Y0044032D01*
X0104212Y0043977D01*
X0104167Y0043919D01*
X0104125Y0043859D01*
X0104086Y0043797D01*
X0104050Y0043734D01*
X0104017Y0043668D01*
X0103988Y0043601D01*
X0103963Y0043532D01*
X0103771Y0042957D02*
X0106838Y0039123D01*
X0105304Y0037591D02*
X0105231Y0037593D01*
X0105158Y0037599D01*
X0105085Y0037608D01*
X0105013Y0037621D01*
X0104942Y0037638D01*
X0104871Y0037659D01*
X0104802Y0037683D01*
X0104734Y0037711D01*
X0104668Y0037742D01*
X0104603Y0037776D01*
X0104541Y0037814D01*
X0104480Y0037855D01*
X0104421Y0037899D01*
X0104365Y0037946D01*
X0104311Y0037996D01*
X0104260Y0038049D01*
X0104212Y0038104D01*
X0104167Y0038162D01*
X0104125Y0038222D01*
X0104086Y0038284D01*
X0104050Y0038347D01*
X0104017Y0038413D01*
X0103988Y0038480D01*
X0103963Y0038549D01*
X0105304Y0037590D02*
X0105377Y0037592D01*
X0105450Y0037598D01*
X0105523Y0037607D01*
X0105595Y0037620D01*
X0105666Y0037637D01*
X0105737Y0037658D01*
X0105806Y0037682D01*
X0105874Y0037710D01*
X0105940Y0037741D01*
X0106005Y0037775D01*
X0106067Y0037813D01*
X0106128Y0037854D01*
X0106187Y0037898D01*
X0106243Y0037945D01*
X0106297Y0037995D01*
X0106348Y0038048D01*
X0106396Y0038103D01*
X0106441Y0038161D01*
X0106483Y0038221D01*
X0106522Y0038283D01*
X0106558Y0038346D01*
X0106591Y0038412D01*
X0106620Y0038479D01*
X0106645Y0038548D01*
X0103388Y0041040D02*
X0103390Y0041183D01*
X0103395Y0041326D01*
X0103404Y0041469D01*
X0103417Y0041612D01*
X0103433Y0041755D01*
X0103453Y0041896D01*
X0103476Y0042038D01*
X0103503Y0042179D01*
X0103534Y0042319D01*
X0103568Y0042458D01*
X0103605Y0042596D01*
X0103646Y0042733D01*
X0103690Y0042870D01*
X0103738Y0043005D01*
X0103789Y0043138D01*
X0103844Y0043271D01*
X0103902Y0043402D01*
X0103963Y0043532D01*
X0105304Y0044490D02*
X0105377Y0044488D01*
X0105450Y0044482D01*
X0105523Y0044473D01*
X0105595Y0044460D01*
X0105666Y0044443D01*
X0105737Y0044422D01*
X0105806Y0044398D01*
X0105874Y0044370D01*
X0105940Y0044339D01*
X0106005Y0044305D01*
X0106067Y0044267D01*
X0106128Y0044226D01*
X0106187Y0044182D01*
X0106243Y0044135D01*
X0106297Y0044085D01*
X0106348Y0044032D01*
X0106396Y0043977D01*
X0106441Y0043919D01*
X0106483Y0043859D01*
X0106522Y0043797D01*
X0106558Y0043734D01*
X0106591Y0043668D01*
X0106620Y0043601D01*
X0106645Y0043532D01*
X0107221Y0041040D02*
X0107219Y0040897D01*
X0107214Y0040754D01*
X0107205Y0040611D01*
X0107192Y0040468D01*
X0107176Y0040325D01*
X0107156Y0040184D01*
X0107133Y0040042D01*
X0107106Y0039901D01*
X0107075Y0039761D01*
X0107041Y0039622D01*
X0107004Y0039484D01*
X0106963Y0039347D01*
X0106919Y0039210D01*
X0106871Y0039075D01*
X0106820Y0038942D01*
X0106765Y0038809D01*
X0106707Y0038678D01*
X0106646Y0038548D01*
X0111261Y0041423D02*
X0114520Y0037590D01*
X0114519Y0042957D02*
X0114489Y0043044D01*
X0114455Y0043131D01*
X0114417Y0043216D01*
X0114376Y0043299D01*
X0114331Y0043380D01*
X0114283Y0043460D01*
X0114232Y0043537D01*
X0114177Y0043613D01*
X0114119Y0043685D01*
X0114059Y0043756D01*
X0113995Y0043823D01*
X0113929Y0043889D01*
X0113860Y0043951D01*
X0113788Y0044010D01*
X0113714Y0044066D01*
X0113638Y0044119D01*
X0113560Y0044169D01*
X0113479Y0044215D01*
X0113397Y0044259D01*
X0113313Y0044298D01*
X0113227Y0044334D01*
X0113140Y0044367D01*
X0113052Y0044395D01*
X0112963Y0044420D01*
X0112872Y0044442D01*
X0112781Y0044459D01*
X0112689Y0044472D01*
X0112597Y0044482D01*
X0112504Y0044488D01*
X0112411Y0044490D01*
X0112329Y0044488D01*
X0112247Y0044482D01*
X0112166Y0044472D01*
X0112085Y0044459D01*
X0112004Y0044441D01*
X0111925Y0044420D01*
X0111847Y0044395D01*
X0111770Y0044366D01*
X0111694Y0044334D01*
X0111621Y0044298D01*
X0111549Y0044259D01*
X0111478Y0044216D01*
X0111410Y0044170D01*
X0111345Y0044121D01*
X0111281Y0044069D01*
X0111221Y0044013D01*
X0111163Y0043955D01*
X0111107Y0043895D01*
X0111055Y0043831D01*
X0111006Y0043766D01*
X0110960Y0043698D01*
X0110917Y0043628D01*
X0110878Y0043555D01*
X0110842Y0043482D01*
X0110810Y0043406D01*
X0110781Y0043329D01*
X0110756Y0043251D01*
X0110735Y0043172D01*
X0110717Y0043091D01*
X0110704Y0043010D01*
X0110694Y0042929D01*
X0110688Y0042847D01*
X0110686Y0042765D01*
X0110688Y0042682D01*
X0110693Y0042599D01*
X0110703Y0042516D01*
X0110716Y0042433D01*
X0110733Y0042352D01*
X0110753Y0042271D01*
X0110777Y0042191D01*
X0110805Y0042112D01*
X0110836Y0042035D01*
X0110870Y0041959D01*
X0110908Y0041885D01*
X0110950Y0041813D01*
X0110994Y0041742D01*
X0111042Y0041674D01*
X0111092Y0041607D01*
X0111146Y0041543D01*
X0111202Y0041482D01*
X0111261Y0041423D01*
X0099923Y0042957D02*
X0098006Y0044490D01*
X0098006Y0037590D01*
X0099923Y0037590D02*
X0096089Y0037590D01*
X0092624Y0039507D02*
X0092622Y0039421D01*
X0092616Y0039335D01*
X0092607Y0039250D01*
X0092593Y0039165D01*
X0092576Y0039080D01*
X0092555Y0038997D01*
X0092530Y0038915D01*
X0092502Y0038833D01*
X0092470Y0038754D01*
X0092434Y0038675D01*
X0092395Y0038599D01*
X0092353Y0038524D01*
X0092307Y0038451D01*
X0092258Y0038380D01*
X0092206Y0038312D01*
X0092151Y0038246D01*
X0092093Y0038182D01*
X0092032Y0038121D01*
X0091968Y0038063D01*
X0091902Y0038008D01*
X0091834Y0037956D01*
X0091763Y0037907D01*
X0091690Y0037861D01*
X0091615Y0037819D01*
X0091539Y0037780D01*
X0091460Y0037744D01*
X0091381Y0037712D01*
X0091299Y0037684D01*
X0091217Y0037659D01*
X0091134Y0037638D01*
X0091049Y0037621D01*
X0090964Y0037607D01*
X0090879Y0037598D01*
X0090793Y0037592D01*
X0090707Y0037590D01*
X0090621Y0037592D01*
X0090535Y0037598D01*
X0090450Y0037607D01*
X0090365Y0037621D01*
X0090280Y0037638D01*
X0090197Y0037659D01*
X0090115Y0037684D01*
X0090033Y0037712D01*
X0089954Y0037744D01*
X0089875Y0037780D01*
X0089799Y0037819D01*
X0089724Y0037861D01*
X0089651Y0037907D01*
X0089580Y0037956D01*
X0089512Y0038008D01*
X0089446Y0038063D01*
X0089382Y0038121D01*
X0089321Y0038182D01*
X0089263Y0038246D01*
X0089208Y0038312D01*
X0089156Y0038380D01*
X0089107Y0038451D01*
X0089061Y0038524D01*
X0089019Y0038599D01*
X0088980Y0038675D01*
X0088944Y0038754D01*
X0088912Y0038833D01*
X0088884Y0038915D01*
X0088859Y0038997D01*
X0088838Y0039080D01*
X0088821Y0039165D01*
X0088807Y0039250D01*
X0088798Y0039335D01*
X0088792Y0039421D01*
X0088790Y0039507D01*
X0088792Y0039593D01*
X0088798Y0039679D01*
X0088807Y0039764D01*
X0088821Y0039849D01*
X0088838Y0039934D01*
X0088859Y0040017D01*
X0088884Y0040099D01*
X0088912Y0040181D01*
X0088944Y0040260D01*
X0088980Y0040339D01*
X0089019Y0040415D01*
X0089061Y0040490D01*
X0089107Y0040563D01*
X0089156Y0040634D01*
X0089208Y0040702D01*
X0089263Y0040768D01*
X0089321Y0040832D01*
X0089382Y0040893D01*
X0089446Y0040951D01*
X0089512Y0041006D01*
X0089580Y0041058D01*
X0089651Y0041107D01*
X0089724Y0041153D01*
X0089799Y0041195D01*
X0089875Y0041234D01*
X0089954Y0041270D01*
X0090033Y0041302D01*
X0090115Y0041330D01*
X0090197Y0041355D01*
X0090280Y0041376D01*
X0090365Y0041393D01*
X0090450Y0041407D01*
X0090535Y0041416D01*
X0090621Y0041422D01*
X0090707Y0041424D01*
X0090793Y0041422D01*
X0090879Y0041416D01*
X0090964Y0041407D01*
X0091049Y0041393D01*
X0091134Y0041376D01*
X0091217Y0041355D01*
X0091299Y0041330D01*
X0091381Y0041302D01*
X0091460Y0041270D01*
X0091539Y0041234D01*
X0091615Y0041195D01*
X0091690Y0041153D01*
X0091763Y0041107D01*
X0091834Y0041058D01*
X0091902Y0041006D01*
X0091968Y0040951D01*
X0092032Y0040893D01*
X0092093Y0040832D01*
X0092151Y0040768D01*
X0092206Y0040702D01*
X0092258Y0040634D01*
X0092307Y0040563D01*
X0092353Y0040490D01*
X0092395Y0040415D01*
X0092434Y0040339D01*
X0092470Y0040260D01*
X0092502Y0040181D01*
X0092530Y0040099D01*
X0092555Y0040017D01*
X0092576Y0039934D01*
X0092593Y0039849D01*
X0092607Y0039764D01*
X0092616Y0039679D01*
X0092622Y0039593D01*
X0092624Y0039507D01*
X0092240Y0042957D02*
X0092238Y0042881D01*
X0092232Y0042804D01*
X0092223Y0042729D01*
X0092210Y0042653D01*
X0092193Y0042579D01*
X0092172Y0042505D01*
X0092148Y0042433D01*
X0092120Y0042362D01*
X0092088Y0042292D01*
X0092053Y0042224D01*
X0092015Y0042158D01*
X0091974Y0042093D01*
X0091929Y0042031D01*
X0091881Y0041972D01*
X0091831Y0041914D01*
X0091777Y0041860D01*
X0091721Y0041808D01*
X0091663Y0041758D01*
X0091602Y0041712D01*
X0091539Y0041669D01*
X0091474Y0041629D01*
X0091406Y0041593D01*
X0091338Y0041560D01*
X0091267Y0041530D01*
X0091195Y0041504D01*
X0091122Y0041481D01*
X0091048Y0041462D01*
X0090973Y0041447D01*
X0090898Y0041436D01*
X0090822Y0041428D01*
X0090745Y0041424D01*
X0090669Y0041424D01*
X0090592Y0041428D01*
X0090516Y0041436D01*
X0090441Y0041447D01*
X0090366Y0041462D01*
X0090292Y0041481D01*
X0090219Y0041504D01*
X0090147Y0041530D01*
X0090076Y0041560D01*
X0090008Y0041593D01*
X0089941Y0041629D01*
X0089875Y0041669D01*
X0089812Y0041712D01*
X0089751Y0041758D01*
X0089693Y0041808D01*
X0089637Y0041860D01*
X0089583Y0041914D01*
X0089533Y0041972D01*
X0089485Y0042031D01*
X0089440Y0042093D01*
X0089399Y0042158D01*
X0089361Y0042224D01*
X0089326Y0042292D01*
X0089294Y0042362D01*
X0089266Y0042433D01*
X0089242Y0042505D01*
X0089221Y0042579D01*
X0089204Y0042653D01*
X0089191Y0042729D01*
X0089182Y0042804D01*
X0089176Y0042881D01*
X0089174Y0042957D01*
X0089176Y0043033D01*
X0089182Y0043110D01*
X0089191Y0043185D01*
X0089204Y0043261D01*
X0089221Y0043335D01*
X0089242Y0043409D01*
X0089266Y0043481D01*
X0089294Y0043552D01*
X0089326Y0043622D01*
X0089361Y0043690D01*
X0089399Y0043756D01*
X0089440Y0043821D01*
X0089485Y0043883D01*
X0089533Y0043942D01*
X0089583Y0044000D01*
X0089637Y0044054D01*
X0089693Y0044106D01*
X0089751Y0044156D01*
X0089812Y0044202D01*
X0089875Y0044245D01*
X0089941Y0044285D01*
X0090008Y0044321D01*
X0090076Y0044354D01*
X0090147Y0044384D01*
X0090219Y0044410D01*
X0090292Y0044433D01*
X0090366Y0044452D01*
X0090441Y0044467D01*
X0090516Y0044478D01*
X0090592Y0044486D01*
X0090669Y0044490D01*
X0090745Y0044490D01*
X0090822Y0044486D01*
X0090898Y0044478D01*
X0090973Y0044467D01*
X0091048Y0044452D01*
X0091122Y0044433D01*
X0091195Y0044410D01*
X0091267Y0044384D01*
X0091338Y0044354D01*
X0091406Y0044321D01*
X0091474Y0044285D01*
X0091539Y0044245D01*
X0091602Y0044202D01*
X0091663Y0044156D01*
X0091721Y0044106D01*
X0091777Y0044054D01*
X0091831Y0044000D01*
X0091881Y0043942D01*
X0091929Y0043883D01*
X0091974Y0043821D01*
X0092015Y0043756D01*
X0092053Y0043690D01*
X0092088Y0043622D01*
X0092120Y0043552D01*
X0092148Y0043481D01*
X0092172Y0043409D01*
X0092193Y0043335D01*
X0092210Y0043261D01*
X0092223Y0043185D01*
X0092232Y0043110D01*
X0092238Y0043033D01*
X0092240Y0042957D01*
X0251576Y0040988D02*
X0251578Y0040912D01*
X0251584Y0040835D01*
X0251593Y0040760D01*
X0251606Y0040684D01*
X0251623Y0040610D01*
X0251644Y0040536D01*
X0251668Y0040464D01*
X0251696Y0040393D01*
X0251728Y0040323D01*
X0251763Y0040255D01*
X0251801Y0040189D01*
X0251842Y0040124D01*
X0251887Y0040062D01*
X0251935Y0040003D01*
X0251985Y0039945D01*
X0252039Y0039891D01*
X0252095Y0039839D01*
X0252153Y0039789D01*
X0252214Y0039743D01*
X0252277Y0039700D01*
X0252343Y0039660D01*
X0252410Y0039624D01*
X0252478Y0039591D01*
X0252549Y0039561D01*
X0252621Y0039535D01*
X0252694Y0039512D01*
X0252768Y0039493D01*
X0252843Y0039478D01*
X0252918Y0039467D01*
X0252994Y0039459D01*
X0253071Y0039455D01*
X0253147Y0039455D01*
X0253224Y0039459D01*
X0253300Y0039467D01*
X0253375Y0039478D01*
X0253450Y0039493D01*
X0253524Y0039512D01*
X0253597Y0039535D01*
X0253669Y0039561D01*
X0253740Y0039591D01*
X0253808Y0039624D01*
X0253876Y0039660D01*
X0253941Y0039700D01*
X0254004Y0039743D01*
X0254065Y0039789D01*
X0254123Y0039839D01*
X0254179Y0039891D01*
X0254233Y0039945D01*
X0254283Y0040003D01*
X0254331Y0040062D01*
X0254376Y0040124D01*
X0254417Y0040189D01*
X0254455Y0040255D01*
X0254490Y0040323D01*
X0254522Y0040393D01*
X0254550Y0040464D01*
X0254574Y0040536D01*
X0254595Y0040610D01*
X0254612Y0040684D01*
X0254625Y0040760D01*
X0254634Y0040835D01*
X0254640Y0040912D01*
X0254642Y0040988D01*
X0254640Y0041064D01*
X0254634Y0041141D01*
X0254625Y0041216D01*
X0254612Y0041292D01*
X0254595Y0041366D01*
X0254574Y0041440D01*
X0254550Y0041512D01*
X0254522Y0041583D01*
X0254490Y0041653D01*
X0254455Y0041721D01*
X0254417Y0041787D01*
X0254376Y0041852D01*
X0254331Y0041914D01*
X0254283Y0041973D01*
X0254233Y0042031D01*
X0254179Y0042085D01*
X0254123Y0042137D01*
X0254065Y0042187D01*
X0254004Y0042233D01*
X0253941Y0042276D01*
X0253876Y0042316D01*
X0253808Y0042352D01*
X0253740Y0042385D01*
X0253669Y0042415D01*
X0253597Y0042441D01*
X0253524Y0042464D01*
X0253450Y0042483D01*
X0253375Y0042498D01*
X0253300Y0042509D01*
X0253224Y0042517D01*
X0253147Y0042521D01*
X0253071Y0042521D01*
X0252994Y0042517D01*
X0252918Y0042509D01*
X0252843Y0042498D01*
X0252768Y0042483D01*
X0252694Y0042464D01*
X0252621Y0042441D01*
X0252549Y0042415D01*
X0252478Y0042385D01*
X0252410Y0042352D01*
X0252343Y0042316D01*
X0252277Y0042276D01*
X0252214Y0042233D01*
X0252153Y0042187D01*
X0252095Y0042137D01*
X0252039Y0042085D01*
X0251985Y0042031D01*
X0251935Y0041973D01*
X0251887Y0041914D01*
X0251842Y0041852D01*
X0251801Y0041787D01*
X0251763Y0041721D01*
X0251728Y0041653D01*
X0251696Y0041583D01*
X0251668Y0041512D01*
X0251644Y0041440D01*
X0251623Y0041366D01*
X0251606Y0041292D01*
X0251593Y0041216D01*
X0251584Y0041141D01*
X0251578Y0041064D01*
X0251576Y0040988D01*
X0251192Y0037538D02*
X0251194Y0037452D01*
X0251200Y0037366D01*
X0251209Y0037281D01*
X0251223Y0037196D01*
X0251240Y0037111D01*
X0251261Y0037028D01*
X0251286Y0036946D01*
X0251314Y0036864D01*
X0251346Y0036785D01*
X0251382Y0036706D01*
X0251421Y0036630D01*
X0251463Y0036555D01*
X0251509Y0036482D01*
X0251558Y0036411D01*
X0251610Y0036343D01*
X0251665Y0036277D01*
X0251723Y0036213D01*
X0251784Y0036152D01*
X0251848Y0036094D01*
X0251914Y0036039D01*
X0251982Y0035987D01*
X0252053Y0035938D01*
X0252126Y0035892D01*
X0252201Y0035850D01*
X0252277Y0035811D01*
X0252356Y0035775D01*
X0252435Y0035743D01*
X0252517Y0035715D01*
X0252599Y0035690D01*
X0252682Y0035669D01*
X0252767Y0035652D01*
X0252852Y0035638D01*
X0252937Y0035629D01*
X0253023Y0035623D01*
X0253109Y0035621D01*
X0253195Y0035623D01*
X0253281Y0035629D01*
X0253366Y0035638D01*
X0253451Y0035652D01*
X0253536Y0035669D01*
X0253619Y0035690D01*
X0253701Y0035715D01*
X0253783Y0035743D01*
X0253862Y0035775D01*
X0253941Y0035811D01*
X0254017Y0035850D01*
X0254092Y0035892D01*
X0254165Y0035938D01*
X0254236Y0035987D01*
X0254304Y0036039D01*
X0254370Y0036094D01*
X0254434Y0036152D01*
X0254495Y0036213D01*
X0254553Y0036277D01*
X0254608Y0036343D01*
X0254660Y0036411D01*
X0254709Y0036482D01*
X0254755Y0036555D01*
X0254797Y0036630D01*
X0254836Y0036706D01*
X0254872Y0036785D01*
X0254904Y0036864D01*
X0254932Y0036946D01*
X0254957Y0037028D01*
X0254978Y0037111D01*
X0254995Y0037196D01*
X0255009Y0037281D01*
X0255018Y0037366D01*
X0255024Y0037452D01*
X0255026Y0037538D01*
X0255024Y0037624D01*
X0255018Y0037710D01*
X0255009Y0037795D01*
X0254995Y0037880D01*
X0254978Y0037965D01*
X0254957Y0038048D01*
X0254932Y0038130D01*
X0254904Y0038212D01*
X0254872Y0038291D01*
X0254836Y0038370D01*
X0254797Y0038446D01*
X0254755Y0038521D01*
X0254709Y0038594D01*
X0254660Y0038665D01*
X0254608Y0038733D01*
X0254553Y0038799D01*
X0254495Y0038863D01*
X0254434Y0038924D01*
X0254370Y0038982D01*
X0254304Y0039037D01*
X0254236Y0039089D01*
X0254165Y0039138D01*
X0254092Y0039184D01*
X0254017Y0039226D01*
X0253941Y0039265D01*
X0253862Y0039301D01*
X0253783Y0039333D01*
X0253701Y0039361D01*
X0253619Y0039386D01*
X0253536Y0039407D01*
X0253451Y0039424D01*
X0253366Y0039438D01*
X0253281Y0039447D01*
X0253195Y0039453D01*
X0253109Y0039455D01*
X0253023Y0039453D01*
X0252937Y0039447D01*
X0252852Y0039438D01*
X0252767Y0039424D01*
X0252682Y0039407D01*
X0252599Y0039386D01*
X0252517Y0039361D01*
X0252435Y0039333D01*
X0252356Y0039301D01*
X0252277Y0039265D01*
X0252201Y0039226D01*
X0252126Y0039184D01*
X0252053Y0039138D01*
X0251982Y0039089D01*
X0251914Y0039037D01*
X0251848Y0038982D01*
X0251784Y0038924D01*
X0251723Y0038863D01*
X0251665Y0038799D01*
X0251610Y0038733D01*
X0251558Y0038665D01*
X0251509Y0038594D01*
X0251463Y0038521D01*
X0251421Y0038446D01*
X0251382Y0038370D01*
X0251346Y0038291D01*
X0251314Y0038212D01*
X0251286Y0038130D01*
X0251261Y0038048D01*
X0251240Y0037965D01*
X0251223Y0037880D01*
X0251209Y0037795D01*
X0251200Y0037710D01*
X0251194Y0037624D01*
X0251192Y0037538D01*
X0258491Y0035622D02*
X0262324Y0035622D01*
X0260407Y0035622D02*
X0260407Y0042522D01*
X0262324Y0040988D01*
X0269623Y0039072D02*
X0269621Y0038929D01*
X0269616Y0038786D01*
X0269607Y0038643D01*
X0269594Y0038500D01*
X0269578Y0038357D01*
X0269558Y0038216D01*
X0269535Y0038074D01*
X0269508Y0037933D01*
X0269477Y0037793D01*
X0269443Y0037654D01*
X0269406Y0037516D01*
X0269365Y0037379D01*
X0269321Y0037242D01*
X0269273Y0037107D01*
X0269222Y0036974D01*
X0269167Y0036841D01*
X0269109Y0036710D01*
X0269048Y0036580D01*
X0269239Y0037155D02*
X0266173Y0040988D01*
X0266365Y0041563D02*
X0266390Y0041632D01*
X0266419Y0041699D01*
X0266452Y0041765D01*
X0266488Y0041828D01*
X0266527Y0041890D01*
X0266569Y0041950D01*
X0266614Y0042008D01*
X0266662Y0042063D01*
X0266713Y0042116D01*
X0266767Y0042166D01*
X0266823Y0042213D01*
X0266882Y0042257D01*
X0266943Y0042298D01*
X0267005Y0042336D01*
X0267070Y0042370D01*
X0267136Y0042401D01*
X0267204Y0042429D01*
X0267273Y0042453D01*
X0267344Y0042474D01*
X0267415Y0042491D01*
X0267487Y0042504D01*
X0267560Y0042513D01*
X0267633Y0042519D01*
X0267706Y0042521D01*
X0267779Y0042519D01*
X0267852Y0042513D01*
X0267925Y0042504D01*
X0267997Y0042491D01*
X0268068Y0042474D01*
X0268139Y0042453D01*
X0268208Y0042429D01*
X0268276Y0042401D01*
X0268342Y0042370D01*
X0268407Y0042336D01*
X0268469Y0042298D01*
X0268530Y0042257D01*
X0268589Y0042213D01*
X0268645Y0042166D01*
X0268699Y0042116D01*
X0268750Y0042063D01*
X0268798Y0042008D01*
X0268843Y0041950D01*
X0268885Y0041890D01*
X0268924Y0041828D01*
X0268960Y0041765D01*
X0268993Y0041699D01*
X0269022Y0041632D01*
X0269047Y0041563D01*
X0266364Y0041564D02*
X0266303Y0041434D01*
X0266245Y0041303D01*
X0266190Y0041170D01*
X0266139Y0041037D01*
X0266091Y0040902D01*
X0266047Y0040765D01*
X0266006Y0040628D01*
X0265969Y0040490D01*
X0265935Y0040351D01*
X0265904Y0040211D01*
X0265877Y0040070D01*
X0265854Y0039928D01*
X0265834Y0039787D01*
X0265818Y0039644D01*
X0265805Y0039501D01*
X0265796Y0039358D01*
X0265791Y0039215D01*
X0265789Y0039072D01*
X0269623Y0039072D02*
X0269621Y0039215D01*
X0269616Y0039358D01*
X0269607Y0039501D01*
X0269594Y0039644D01*
X0269578Y0039787D01*
X0269558Y0039928D01*
X0269535Y0040070D01*
X0269508Y0040211D01*
X0269477Y0040351D01*
X0269443Y0040490D01*
X0269406Y0040628D01*
X0269365Y0040765D01*
X0269321Y0040902D01*
X0269273Y0041037D01*
X0269222Y0041170D01*
X0269167Y0041303D01*
X0269109Y0041434D01*
X0269048Y0041564D01*
X0265790Y0039072D02*
X0265792Y0038929D01*
X0265797Y0038786D01*
X0265806Y0038643D01*
X0265819Y0038500D01*
X0265835Y0038357D01*
X0265855Y0038216D01*
X0265878Y0038074D01*
X0265905Y0037933D01*
X0265936Y0037793D01*
X0265970Y0037654D01*
X0266007Y0037516D01*
X0266048Y0037379D01*
X0266092Y0037242D01*
X0266140Y0037107D01*
X0266191Y0036974D01*
X0266246Y0036841D01*
X0266304Y0036710D01*
X0266365Y0036580D01*
X0267706Y0035622D02*
X0267779Y0035624D01*
X0267852Y0035630D01*
X0267925Y0035639D01*
X0267997Y0035652D01*
X0268068Y0035669D01*
X0268139Y0035690D01*
X0268208Y0035714D01*
X0268276Y0035742D01*
X0268342Y0035773D01*
X0268407Y0035807D01*
X0268469Y0035845D01*
X0268530Y0035886D01*
X0268589Y0035930D01*
X0268645Y0035977D01*
X0268699Y0036027D01*
X0268750Y0036080D01*
X0268798Y0036135D01*
X0268843Y0036193D01*
X0268885Y0036253D01*
X0268924Y0036315D01*
X0268960Y0036378D01*
X0268993Y0036444D01*
X0269022Y0036511D01*
X0269047Y0036580D01*
X0267706Y0035622D02*
X0267633Y0035624D01*
X0267560Y0035630D01*
X0267487Y0035639D01*
X0267415Y0035652D01*
X0267344Y0035669D01*
X0267273Y0035690D01*
X0267204Y0035714D01*
X0267136Y0035742D01*
X0267070Y0035773D01*
X0267005Y0035807D01*
X0266943Y0035845D01*
X0266882Y0035886D01*
X0266823Y0035930D01*
X0266767Y0035977D01*
X0266713Y0036027D01*
X0266662Y0036080D01*
X0266614Y0036135D01*
X0266569Y0036193D01*
X0266527Y0036253D01*
X0266488Y0036315D01*
X0266452Y0036378D01*
X0266419Y0036444D01*
X0266390Y0036511D01*
X0266365Y0036580D01*
X0273088Y0035622D02*
X0276921Y0035622D01*
X0273663Y0039455D01*
X0274813Y0042522D02*
X0274906Y0042520D01*
X0274999Y0042514D01*
X0275091Y0042504D01*
X0275183Y0042491D01*
X0275274Y0042474D01*
X0275365Y0042452D01*
X0275454Y0042427D01*
X0275542Y0042399D01*
X0275629Y0042366D01*
X0275715Y0042330D01*
X0275799Y0042291D01*
X0275881Y0042247D01*
X0275962Y0042201D01*
X0276040Y0042151D01*
X0276116Y0042098D01*
X0276190Y0042042D01*
X0276262Y0041983D01*
X0276331Y0041921D01*
X0276397Y0041855D01*
X0276461Y0041788D01*
X0276521Y0041717D01*
X0276579Y0041645D01*
X0276634Y0041569D01*
X0276685Y0041492D01*
X0276733Y0041412D01*
X0276778Y0041331D01*
X0276819Y0041248D01*
X0276857Y0041163D01*
X0276891Y0041076D01*
X0276921Y0040989D01*
X0273663Y0039455D02*
X0273604Y0039514D01*
X0273548Y0039575D01*
X0273494Y0039639D01*
X0273444Y0039706D01*
X0273396Y0039774D01*
X0273352Y0039845D01*
X0273310Y0039917D01*
X0273272Y0039991D01*
X0273238Y0040067D01*
X0273207Y0040144D01*
X0273179Y0040223D01*
X0273155Y0040303D01*
X0273135Y0040384D01*
X0273118Y0040465D01*
X0273105Y0040548D01*
X0273095Y0040631D01*
X0273090Y0040714D01*
X0273088Y0040797D01*
X0273090Y0040879D01*
X0273096Y0040961D01*
X0273106Y0041042D01*
X0273119Y0041123D01*
X0273137Y0041204D01*
X0273158Y0041283D01*
X0273183Y0041361D01*
X0273212Y0041438D01*
X0273244Y0041514D01*
X0273280Y0041587D01*
X0273319Y0041660D01*
X0273362Y0041730D01*
X0273408Y0041798D01*
X0273457Y0041863D01*
X0273509Y0041927D01*
X0273565Y0041987D01*
X0273623Y0042045D01*
X0273683Y0042101D01*
X0273747Y0042153D01*
X0273812Y0042202D01*
X0273880Y0042248D01*
X0273951Y0042291D01*
X0274023Y0042330D01*
X0274096Y0042366D01*
X0274172Y0042398D01*
X0274249Y0042427D01*
X0274327Y0042452D01*
X0274406Y0042473D01*
X0274487Y0042491D01*
X0274568Y0042504D01*
X0274649Y0042514D01*
X0274731Y0042520D01*
X0274813Y0042522D01*
X0284522Y0042522D02*
X0284522Y0037538D01*
X0284524Y0037452D01*
X0284530Y0037366D01*
X0284539Y0037281D01*
X0284553Y0037196D01*
X0284570Y0037111D01*
X0284591Y0037028D01*
X0284616Y0036946D01*
X0284644Y0036864D01*
X0284676Y0036785D01*
X0284712Y0036706D01*
X0284751Y0036630D01*
X0284793Y0036555D01*
X0284839Y0036482D01*
X0284888Y0036411D01*
X0284940Y0036343D01*
X0284995Y0036277D01*
X0285053Y0036213D01*
X0285114Y0036152D01*
X0285178Y0036094D01*
X0285244Y0036039D01*
X0285312Y0035987D01*
X0285383Y0035938D01*
X0285456Y0035892D01*
X0285531Y0035850D01*
X0285607Y0035811D01*
X0285686Y0035775D01*
X0285765Y0035743D01*
X0285847Y0035715D01*
X0285929Y0035690D01*
X0286012Y0035669D01*
X0286097Y0035652D01*
X0286182Y0035638D01*
X0286267Y0035629D01*
X0286353Y0035623D01*
X0286439Y0035621D01*
X0286525Y0035623D01*
X0286611Y0035629D01*
X0286696Y0035638D01*
X0286781Y0035652D01*
X0286866Y0035669D01*
X0286949Y0035690D01*
X0287031Y0035715D01*
X0287113Y0035743D01*
X0287192Y0035775D01*
X0287271Y0035811D01*
X0287347Y0035850D01*
X0287422Y0035892D01*
X0287495Y0035938D01*
X0287566Y0035987D01*
X0287634Y0036039D01*
X0287700Y0036094D01*
X0287764Y0036152D01*
X0287825Y0036213D01*
X0287883Y0036277D01*
X0287938Y0036343D01*
X0287990Y0036411D01*
X0288039Y0036482D01*
X0288085Y0036555D01*
X0288127Y0036630D01*
X0288166Y0036706D01*
X0288202Y0036785D01*
X0288234Y0036864D01*
X0288262Y0036946D01*
X0288287Y0037028D01*
X0288308Y0037111D01*
X0288325Y0037196D01*
X0288339Y0037281D01*
X0288348Y0037366D01*
X0288354Y0037452D01*
X0288356Y0037538D01*
X0288356Y0042522D01*
X0292588Y0038497D02*
X0294696Y0039647D01*
X0293929Y0042522D02*
X0293826Y0042520D01*
X0293724Y0042515D01*
X0293621Y0042505D01*
X0293519Y0042493D01*
X0293418Y0042476D01*
X0293317Y0042456D01*
X0293217Y0042432D01*
X0293118Y0042405D01*
X0293020Y0042374D01*
X0292923Y0042340D01*
X0292827Y0042303D01*
X0292733Y0042261D01*
X0292640Y0042217D01*
X0292549Y0042169D01*
X0292460Y0042118D01*
X0292373Y0042064D01*
X0292287Y0042007D01*
X0292204Y0041947D01*
X0294695Y0039647D02*
X0294761Y0039687D01*
X0294824Y0039731D01*
X0294885Y0039778D01*
X0294944Y0039828D01*
X0295000Y0039881D01*
X0295053Y0039936D01*
X0295104Y0039994D01*
X0295151Y0040055D01*
X0295196Y0040117D01*
X0295237Y0040182D01*
X0295276Y0040249D01*
X0295310Y0040318D01*
X0295342Y0040388D01*
X0295370Y0040460D01*
X0295394Y0040533D01*
X0295415Y0040607D01*
X0295432Y0040682D01*
X0295445Y0040758D01*
X0295454Y0040834D01*
X0295460Y0040911D01*
X0295462Y0040988D01*
X0295460Y0041063D01*
X0295455Y0041138D01*
X0295445Y0041213D01*
X0295433Y0041287D01*
X0295416Y0041360D01*
X0295396Y0041433D01*
X0295372Y0041504D01*
X0295345Y0041575D01*
X0295315Y0041643D01*
X0295281Y0041711D01*
X0295244Y0041776D01*
X0295204Y0041840D01*
X0295160Y0041901D01*
X0295114Y0041961D01*
X0295065Y0042017D01*
X0295013Y0042072D01*
X0294958Y0042124D01*
X0294902Y0042173D01*
X0294842Y0042219D01*
X0294781Y0042263D01*
X0294717Y0042303D01*
X0294652Y0042340D01*
X0294584Y0042374D01*
X0294516Y0042404D01*
X0294445Y0042431D01*
X0294374Y0042455D01*
X0294301Y0042475D01*
X0294228Y0042492D01*
X0294154Y0042504D01*
X0294079Y0042514D01*
X0294004Y0042519D01*
X0293929Y0042521D01*
X0295654Y0036580D02*
X0295574Y0036503D01*
X0295492Y0036428D01*
X0295407Y0036356D01*
X0295320Y0036287D01*
X0295231Y0036221D01*
X0295139Y0036158D01*
X0295045Y0036098D01*
X0294949Y0036042D01*
X0294851Y0035989D01*
X0294752Y0035939D01*
X0294651Y0035893D01*
X0294548Y0035850D01*
X0294444Y0035811D01*
X0294339Y0035775D01*
X0294232Y0035743D01*
X0294125Y0035715D01*
X0294016Y0035690D01*
X0293907Y0035670D01*
X0293797Y0035652D01*
X0293687Y0035639D01*
X0293576Y0035630D01*
X0293465Y0035624D01*
X0293354Y0035622D01*
X0293279Y0035624D01*
X0293204Y0035629D01*
X0293129Y0035639D01*
X0293055Y0035651D01*
X0292982Y0035668D01*
X0292909Y0035688D01*
X0292838Y0035712D01*
X0292767Y0035739D01*
X0292699Y0035769D01*
X0292631Y0035803D01*
X0292566Y0035840D01*
X0292502Y0035880D01*
X0292441Y0035924D01*
X0292381Y0035970D01*
X0292325Y0036019D01*
X0292270Y0036071D01*
X0292218Y0036126D01*
X0292169Y0036182D01*
X0292123Y0036242D01*
X0292079Y0036303D01*
X0292039Y0036367D01*
X0292002Y0036432D01*
X0291968Y0036500D01*
X0291938Y0036568D01*
X0291911Y0036639D01*
X0291887Y0036710D01*
X0291867Y0036783D01*
X0291850Y0036856D01*
X0291838Y0036930D01*
X0291828Y0037005D01*
X0291823Y0037080D01*
X0291821Y0037155D01*
X0291823Y0037232D01*
X0291829Y0037309D01*
X0291838Y0037385D01*
X0291851Y0037461D01*
X0291868Y0037536D01*
X0291889Y0037610D01*
X0291913Y0037683D01*
X0291941Y0037755D01*
X0291973Y0037825D01*
X0292007Y0037894D01*
X0292046Y0037961D01*
X0292087Y0038026D01*
X0292132Y0038088D01*
X0292179Y0038149D01*
X0292230Y0038207D01*
X0292283Y0038262D01*
X0292339Y0038315D01*
X0292398Y0038365D01*
X0292459Y0038412D01*
X0292522Y0038456D01*
X0292588Y0038496D01*
X0299083Y0037155D02*
X0299083Y0042522D01*
X0299083Y0037155D02*
X0299085Y0037080D01*
X0299090Y0037005D01*
X0299100Y0036930D01*
X0299112Y0036856D01*
X0299129Y0036783D01*
X0299149Y0036710D01*
X0299173Y0036639D01*
X0299200Y0036568D01*
X0299230Y0036500D01*
X0299264Y0036432D01*
X0299301Y0036367D01*
X0299341Y0036303D01*
X0299385Y0036242D01*
X0299431Y0036182D01*
X0299480Y0036126D01*
X0299532Y0036071D01*
X0299587Y0036019D01*
X0299643Y0035970D01*
X0299703Y0035924D01*
X0299764Y0035880D01*
X0299828Y0035840D01*
X0299893Y0035803D01*
X0299961Y0035769D01*
X0300029Y0035739D01*
X0300100Y0035712D01*
X0300171Y0035688D01*
X0300244Y0035668D01*
X0300317Y0035651D01*
X0300391Y0035639D01*
X0300466Y0035629D01*
X0300541Y0035624D01*
X0300616Y0035622D01*
X0301383Y0035622D01*
X0303742Y0037155D02*
X0303744Y0037080D01*
X0303749Y0037005D01*
X0303759Y0036930D01*
X0303771Y0036856D01*
X0303788Y0036783D01*
X0303808Y0036710D01*
X0303832Y0036639D01*
X0303859Y0036568D01*
X0303889Y0036500D01*
X0303923Y0036432D01*
X0303960Y0036367D01*
X0304000Y0036303D01*
X0304044Y0036242D01*
X0304090Y0036182D01*
X0304139Y0036126D01*
X0304191Y0036071D01*
X0304246Y0036019D01*
X0304302Y0035970D01*
X0304362Y0035924D01*
X0304423Y0035880D01*
X0304487Y0035840D01*
X0304552Y0035803D01*
X0304620Y0035769D01*
X0304688Y0035739D01*
X0304759Y0035712D01*
X0304830Y0035688D01*
X0304903Y0035668D01*
X0304976Y0035651D01*
X0305050Y0035639D01*
X0305125Y0035629D01*
X0305200Y0035624D01*
X0305275Y0035622D01*
X0303742Y0037155D02*
X0303744Y0037232D01*
X0303750Y0037309D01*
X0303759Y0037385D01*
X0303772Y0037461D01*
X0303789Y0037536D01*
X0303810Y0037610D01*
X0303834Y0037683D01*
X0303862Y0037755D01*
X0303894Y0037825D01*
X0303928Y0037894D01*
X0303967Y0037961D01*
X0304008Y0038026D01*
X0304053Y0038088D01*
X0304100Y0038149D01*
X0304151Y0038207D01*
X0304204Y0038262D01*
X0304260Y0038315D01*
X0304319Y0038365D01*
X0304380Y0038412D01*
X0304443Y0038456D01*
X0304509Y0038496D01*
X0304509Y0038497D02*
X0306617Y0039647D01*
X0305850Y0042522D02*
X0305747Y0042520D01*
X0305645Y0042515D01*
X0305542Y0042505D01*
X0305440Y0042493D01*
X0305339Y0042476D01*
X0305238Y0042456D01*
X0305138Y0042432D01*
X0305039Y0042405D01*
X0304941Y0042374D01*
X0304844Y0042340D01*
X0304748Y0042303D01*
X0304654Y0042261D01*
X0304561Y0042217D01*
X0304470Y0042169D01*
X0304381Y0042118D01*
X0304294Y0042064D01*
X0304208Y0042007D01*
X0304125Y0041947D01*
X0306616Y0039647D02*
X0306682Y0039687D01*
X0306745Y0039731D01*
X0306806Y0039778D01*
X0306865Y0039828D01*
X0306921Y0039881D01*
X0306974Y0039936D01*
X0307025Y0039994D01*
X0307072Y0040055D01*
X0307117Y0040117D01*
X0307158Y0040182D01*
X0307197Y0040249D01*
X0307231Y0040318D01*
X0307263Y0040388D01*
X0307291Y0040460D01*
X0307315Y0040533D01*
X0307336Y0040607D01*
X0307353Y0040682D01*
X0307366Y0040758D01*
X0307375Y0040834D01*
X0307381Y0040911D01*
X0307383Y0040988D01*
X0307381Y0041063D01*
X0307376Y0041138D01*
X0307366Y0041213D01*
X0307354Y0041287D01*
X0307337Y0041360D01*
X0307317Y0041433D01*
X0307293Y0041504D01*
X0307266Y0041575D01*
X0307236Y0041643D01*
X0307202Y0041711D01*
X0307165Y0041776D01*
X0307125Y0041840D01*
X0307081Y0041901D01*
X0307035Y0041961D01*
X0306986Y0042017D01*
X0306934Y0042072D01*
X0306879Y0042124D01*
X0306823Y0042173D01*
X0306763Y0042219D01*
X0306702Y0042263D01*
X0306638Y0042303D01*
X0306573Y0042340D01*
X0306505Y0042374D01*
X0306437Y0042404D01*
X0306366Y0042431D01*
X0306295Y0042455D01*
X0306222Y0042475D01*
X0306149Y0042492D01*
X0306075Y0042504D01*
X0306000Y0042514D01*
X0305925Y0042519D01*
X0305850Y0042521D01*
X0307575Y0036580D02*
X0307495Y0036503D01*
X0307413Y0036428D01*
X0307328Y0036356D01*
X0307241Y0036287D01*
X0307152Y0036221D01*
X0307060Y0036158D01*
X0306966Y0036098D01*
X0306870Y0036042D01*
X0306772Y0035989D01*
X0306673Y0035939D01*
X0306572Y0035893D01*
X0306469Y0035850D01*
X0306365Y0035811D01*
X0306260Y0035775D01*
X0306153Y0035743D01*
X0306046Y0035715D01*
X0305937Y0035690D01*
X0305828Y0035670D01*
X0305718Y0035652D01*
X0305608Y0035639D01*
X0305497Y0035630D01*
X0305386Y0035624D01*
X0305275Y0035622D01*
M02*
